<?xml version="1.0" encoding="utf-8" standalone="no"?>
<!DOCTYPE svg PUBLIC "-//W3C//DTD SVG 1.1//EN"
  "http://www.w3.org/Graphics/SVG/1.1/DTD/svg11.dtd">
<svg height="247.867265pt" version="1.1" viewBox="0 0 632.022629 247.867265" width="632.022629pt" xmlns="http://www.w3.org/2000/svg" xmlns:xlink="http://www.w3.org/1999/xlink">
 <metadata>
  <rdf:RDF xmlns:cc="http://creativecommons.org/ns#" xmlns:dc="http://purl.org/dc/elements/1.1/" xmlns:rdf="http://www.w3.org/1999/02/22-rdf-syntax-ns#">
   <cc:Work>
    <dc:type rdf:resource="http://purl.org/dc/dcmitype/StillImage"/>
    <dc:date>2021-04-25T21:46:51.754548</dc:date>
    <dc:format>image/svg+xml</dc:format>
    <dc:creator>
     <cc:Agent>
      <dc:title>Matplotlib v3.4.1, https://matplotlib.org/</dc:title>
     </cc:Agent>
    </dc:creator>
   </cc:Work>
  </rdf:RDF>
 </metadata>
 <defs>
  <style type="text/css">*{stroke-linecap:butt;stroke-linejoin:round;}</style>
 </defs>
 <g id="figure_1">
  <g id="patch_1">
   <path d="M 0 247.867265 
L 632.022629 247.867265 
L 632.022629 0 
L 0 0 
z
" style="fill:none;"/>
  </g>
  <g id="axes_1">
   <g id="patch_2">
    <path d="M 42.885247 211.070347 
L 433.485247 211.070347 
L 433.485247 20.810347 
L 42.885247 20.810347 
z
" style="fill:none;"/>
   </g>
   <g id="matplotlib.axis_1">
    <g id="xtick_1">
     <g id="line2d_1">
      <defs>
       <path d="M 0 0 
L 0 3.5 
" id="md31c01674f" style="stroke:#000000;stroke-width:0.8;"/>
      </defs>
      <g>
       <use style="stroke:#000000;stroke-width:0.8;" x="60.638953" xlink:href="#md31c01674f" y="211.070347"/>
      </g>
     </g>
     <g id="text_1">
      <!-- $\mathdefault{0}$ -->
      <g transform="translate(58.148285 224.988845)scale(0.1 -0.1)">
       <defs>
        <path d="M 2688 2025 
C 2688 2416 2682 3080 2413 3591 
C 2176 4039 1798 4198 1466 4198 
C 1158 4198 768 4058 525 3597 
C 269 3118 243 2524 243 2025 
C 243 1661 250 1106 448 619 
C 723 -39 1216 -128 1466 -128 
C 1760 -128 2208 -7 2470 600 
C 2662 1042 2688 1559 2688 2025 
z
M 1466 -26 
C 1056 -26 813 325 723 812 
C 653 1188 653 1738 653 2096 
C 653 2588 653 2997 736 3387 
C 858 3929 1216 4096 1466 4096 
C 1728 4096 2067 3923 2189 3400 
C 2272 3036 2278 2607 2278 2096 
C 2278 1680 2278 1169 2202 792 
C 2067 95 1690 -26 1466 -26 
z
" id="CMR17-30" transform="scale(0.015625)"/>
       </defs>
       <use transform="scale(0.996264)" xlink:href="#CMR17-30"/>
      </g>
     </g>
    </g>
    <g id="xtick_2">
     <g id="line2d_2">
      <g>
       <use style="stroke:#000000;stroke-width:0.8;" x="131.216616" xlink:href="#md31c01674f" y="211.070347"/>
      </g>
     </g>
     <g id="text_2">
      <!-- $\mathdefault{500}$ -->
      <g transform="translate(123.744613 224.988845)scale(0.1 -0.1)">
       <defs>
        <path d="M 730 3692 
C 794 3666 1056 3584 1325 3584 
C 1920 3584 2246 3911 2432 4100 
C 2432 4157 2432 4192 2394 4192 
C 2387 4192 2374 4192 2323 4163 
C 2099 4058 1837 3973 1517 3973 
C 1325 3973 1037 3999 723 4139 
C 653 4171 640 4171 634 4171 
C 602 4171 595 4164 595 4037 
L 595 2203 
C 595 2089 595 2057 659 2057 
C 691 2057 704 2070 736 2114 
C 941 2401 1222 2522 1542 2522 
C 1766 2522 2246 2382 2246 1289 
C 2246 1085 2246 715 2054 421 
C 1894 159 1645 25 1370 25 
C 947 25 518 320 403 814 
C 429 807 480 795 506 795 
C 589 795 749 840 749 1038 
C 749 1210 627 1280 506 1280 
C 358 1280 262 1190 262 1011 
C 262 454 704 -128 1382 -128 
C 2042 -128 2669 440 2669 1264 
C 2669 2030 2170 2624 1549 2624 
C 1222 2624 947 2503 730 2274 
L 730 3692 
z
" id="CMR17-35" transform="scale(0.015625)"/>
       </defs>
       <use transform="scale(0.996264)" xlink:href="#CMR17-35"/>
       <use transform="translate(45.690477 0)scale(0.996264)" xlink:href="#CMR17-30"/>
       <use transform="translate(91.380954 0)scale(0.996264)" xlink:href="#CMR17-30"/>
      </g>
     </g>
    </g>
    <g id="xtick_3">
     <g id="line2d_3">
      <g>
       <use style="stroke:#000000;stroke-width:0.8;" x="201.794278" xlink:href="#md31c01674f" y="211.070347"/>
      </g>
     </g>
     <g id="text_3">
      <!-- $\mathdefault{1000}$ -->
      <g transform="translate(191.831608 224.988845)scale(0.1 -0.1)">
       <defs>
        <path d="M 1702 4058 
C 1702 4192 1696 4192 1606 4192 
C 1357 3916 979 3827 621 3827 
C 602 3827 570 3827 563 3808 
C 557 3795 557 3782 557 3648 
C 755 3648 1088 3686 1344 3839 
L 1344 461 
C 1344 236 1331 160 781 160 
L 589 160 
L 589 0 
C 896 0 1216 0 1523 0 
C 1830 0 2150 0 2458 0 
L 2458 160 
L 2266 160 
C 1715 160 1702 230 1702 458 
L 1702 4058 
z
" id="CMR17-31" transform="scale(0.015625)"/>
       </defs>
       <use transform="scale(0.996264)" xlink:href="#CMR17-31"/>
       <use transform="translate(45.690477 0)scale(0.996264)" xlink:href="#CMR17-30"/>
       <use transform="translate(91.380954 0)scale(0.996264)" xlink:href="#CMR17-30"/>
       <use transform="translate(137.071431 0)scale(0.996264)" xlink:href="#CMR17-30"/>
      </g>
     </g>
    </g>
    <g id="xtick_4">
     <g id="line2d_4">
      <g>
       <use style="stroke:#000000;stroke-width:0.8;" x="272.371941" xlink:href="#md31c01674f" y="211.070347"/>
      </g>
     </g>
     <g id="text_4">
      <!-- $\mathdefault{1500}$ -->
      <g transform="translate(262.409271 224.988845)scale(0.1 -0.1)">
       <use transform="scale(0.996264)" xlink:href="#CMR17-31"/>
       <use transform="translate(45.690477 0)scale(0.996264)" xlink:href="#CMR17-35"/>
       <use transform="translate(91.380954 0)scale(0.996264)" xlink:href="#CMR17-30"/>
       <use transform="translate(137.071431 0)scale(0.996264)" xlink:href="#CMR17-30"/>
      </g>
     </g>
    </g>
    <g id="xtick_5">
     <g id="line2d_5">
      <g>
       <use style="stroke:#000000;stroke-width:0.8;" x="342.949604" xlink:href="#md31c01674f" y="211.070347"/>
      </g>
     </g>
     <g id="text_5">
      <!-- $\mathdefault{2000}$ -->
      <g transform="translate(332.986934 224.988845)scale(0.1 -0.1)">
       <defs>
        <path d="M 2669 989 
L 2554 989 
C 2490 536 2438 459 2413 420 
C 2381 369 1920 369 1830 369 
L 602 369 
C 832 619 1280 1072 1824 1597 
C 2214 1967 2669 2402 2669 3035 
C 2669 3790 2067 4224 1395 4224 
C 691 4224 262 3604 262 3030 
C 262 2780 448 2748 525 2748 
C 589 2748 781 2787 781 3010 
C 781 3207 614 3264 525 3264 
C 486 3264 448 3258 422 3245 
C 544 3790 915 4058 1306 4058 
C 1862 4058 2227 3617 2227 3035 
C 2227 2479 1901 2000 1536 1584 
L 262 146 
L 262 0 
L 2515 0 
L 2669 989 
z
" id="CMR17-32" transform="scale(0.015625)"/>
       </defs>
       <use transform="scale(0.996264)" xlink:href="#CMR17-32"/>
       <use transform="translate(45.690477 0)scale(0.996264)" xlink:href="#CMR17-30"/>
       <use transform="translate(91.380954 0)scale(0.996264)" xlink:href="#CMR17-30"/>
       <use transform="translate(137.071431 0)scale(0.996264)" xlink:href="#CMR17-30"/>
      </g>
     </g>
    </g>
    <g id="xtick_6">
     <g id="line2d_6">
      <g>
       <use style="stroke:#000000;stroke-width:0.8;" x="413.527267" xlink:href="#md31c01674f" y="211.070347"/>
      </g>
     </g>
     <g id="text_6">
      <!-- $\mathdefault{2500}$ -->
      <g transform="translate(403.564597 224.988845)scale(0.1 -0.1)">
       <use transform="scale(0.996264)" xlink:href="#CMR17-32"/>
       <use transform="translate(45.690477 0)scale(0.996264)" xlink:href="#CMR17-35"/>
       <use transform="translate(91.380954 0)scale(0.996264)" xlink:href="#CMR17-30"/>
       <use transform="translate(137.071431 0)scale(0.996264)" xlink:href="#CMR17-30"/>
      </g>
     </g>
    </g>
    <g id="text_7">
     <!-- Time -->
     <g transform="translate(226.358739 238.53637)scale(0.11 -0.11)">
      <defs>
       <path d="M 2317 3968 
L 2848 3968 
C 2925 3968 3002 3968 3078 3968 
L 3878 3968 
L 3878 4376 
L 218 4376 
L 218 3968 
L 1018 3968 
C 1094 3968 1171 3968 1248 3968 
L 1779 3968 
L 1779 -32 
L 2317 -32 
L 2317 3968 
z
" id="CMSS17-54" transform="scale(0.015625)"/>
       <path d="M 979 4183 
L 442 4183 
L 442 3648 
L 979 3648 
L 979 4183 
z
M 947 2739 
L 474 2739 
L 474 0 
L 947 0 
L 947 2739 
z
" id="CMSS17-69" transform="scale(0.015625)"/>
       <path d="M 4288 1877 
C 4288 2308 4179 2816 3462 2816 
C 2982 2816 2694 2516 2566 2331 
C 2451 2670 2182 2816 1798 2816 
C 1363 2816 1088 2568 941 2389 
L 941 2758 
L 474 2758 
L 474 0 
L 960 0 
L 960 1559 
C 960 1939 1101 2428 1555 2428 
C 2138 2428 2138 2016 2138 1829 
L 2138 0 
L 2624 0 
L 2624 1559 
C 2624 1939 2765 2428 3219 2428 
C 3802 2428 3802 2016 3802 1829 
L 3802 0 
L 4288 0 
L 4288 1877 
z
" id="CMSS17-6d" transform="scale(0.015625)"/>
       <path d="M 2502 1377 
C 2502 1590 2490 2003 2285 2345 
C 2061 2713 1696 2816 1421 2816 
C 755 2816 192 2188 192 1375 
C 192 582 774 -64 1510 -64 
C 1798 -64 2150 19 2470 248 
C 2470 274 2458 414 2451 420 
C 2451 433 2432 630 2432 656 
C 2125 407 1773 325 1517 325 
C 1107 325 666 667 646 1377 
L 2502 1377 
z
M 698 1728 
C 781 2084 1062 2421 1421 2421 
C 1517 2421 1965 2421 2080 1728 
L 698 1728 
z
" id="CMSS17-65" transform="scale(0.015625)"/>
      </defs>
      <use transform="scale(0.996264)" xlink:href="#CMSS17-54"/>
      <use transform="translate(63.819454 0)scale(0.996264)" xlink:href="#CMSS17-69"/>
      <use transform="translate(86.000177 0)scale(0.996264)" xlink:href="#CMSS17-6d"/>
      <use transform="translate(160.229431 0)scale(0.996264)" xlink:href="#CMSS17-65"/>
     </g>
    </g>
   </g>
   <g id="matplotlib.axis_2">
    <g id="ytick_1">
     <g id="line2d_7">
      <defs>
       <path d="M 0 0 
L -3.5 0 
" id="m7e1c5fa044" style="stroke:#000000;stroke-width:0.8;"/>
      </defs>
      <g>
       <use style="stroke:#000000;stroke-width:0.8;" x="42.885247" xlink:href="#m7e1c5fa044" y="203.065152"/>
      </g>
     </g>
     <g id="text_8">
      <!-- $\mathdefault{0}$ -->
      <g transform="translate(30.903912 206.524402)scale(0.1 -0.1)">
       <use transform="scale(0.996264)" xlink:href="#CMR17-30"/>
      </g>
     </g>
    </g>
    <g id="ytick_2">
     <g id="line2d_8">
      <g>
       <use style="stroke:#000000;stroke-width:0.8;" x="42.885247" xlink:href="#m7e1c5fa044" y="170.915778"/>
      </g>
     </g>
     <g id="text_9">
      <!-- $\mathdefault{50}$ -->
      <g transform="translate(25.922577 174.375027)scale(0.1 -0.1)">
       <use transform="scale(0.996264)" xlink:href="#CMR17-35"/>
       <use transform="translate(45.690477 0)scale(0.996264)" xlink:href="#CMR17-30"/>
      </g>
     </g>
    </g>
    <g id="ytick_3">
     <g id="line2d_9">
      <g>
       <use style="stroke:#000000;stroke-width:0.8;" x="42.885247" xlink:href="#m7e1c5fa044" y="138.766403"/>
      </g>
     </g>
     <g id="text_10">
      <!-- $\mathdefault{100}$ -->
      <g transform="translate(20.941241 142.225652)scale(0.1 -0.1)">
       <use transform="scale(0.996264)" xlink:href="#CMR17-31"/>
       <use transform="translate(45.690477 0)scale(0.996264)" xlink:href="#CMR17-30"/>
       <use transform="translate(91.380954 0)scale(0.996264)" xlink:href="#CMR17-30"/>
      </g>
     </g>
    </g>
    <g id="ytick_4">
     <g id="line2d_10">
      <g>
       <use style="stroke:#000000;stroke-width:0.8;" x="42.885247" xlink:href="#m7e1c5fa044" y="106.617028"/>
      </g>
     </g>
     <g id="text_11">
      <!-- $\mathdefault{150}$ -->
      <g transform="translate(20.941241 110.076277)scale(0.1 -0.1)">
       <use transform="scale(0.996264)" xlink:href="#CMR17-31"/>
       <use transform="translate(45.690477 0)scale(0.996264)" xlink:href="#CMR17-35"/>
       <use transform="translate(91.380954 0)scale(0.996264)" xlink:href="#CMR17-30"/>
      </g>
     </g>
    </g>
    <g id="ytick_5">
     <g id="line2d_11">
      <g>
       <use style="stroke:#000000;stroke-width:0.8;" x="42.885247" xlink:href="#m7e1c5fa044" y="74.467653"/>
      </g>
     </g>
     <g id="text_12">
      <!-- $\mathdefault{200}$ -->
      <g transform="translate(20.941241 77.926902)scale(0.1 -0.1)">
       <use transform="scale(0.996264)" xlink:href="#CMR17-32"/>
       <use transform="translate(45.690477 0)scale(0.996264)" xlink:href="#CMR17-30"/>
       <use transform="translate(91.380954 0)scale(0.996264)" xlink:href="#CMR17-30"/>
      </g>
     </g>
    </g>
    <g id="ytick_6">
     <g id="line2d_12">
      <g>
       <use style="stroke:#000000;stroke-width:0.8;" x="42.885247" xlink:href="#m7e1c5fa044" y="42.318278"/>
      </g>
     </g>
     <g id="text_13">
      <!-- $\mathdefault{250}$ -->
      <g transform="translate(20.941241 45.777528)scale(0.1 -0.1)">
       <use transform="scale(0.996264)" xlink:href="#CMR17-32"/>
       <use transform="translate(45.690477 0)scale(0.996264)" xlink:href="#CMR17-35"/>
       <use transform="translate(91.380954 0)scale(0.996264)" xlink:href="#CMR17-30"/>
      </g>
     </g>
    </g>
    <g id="text_14">
     <!-- Number of solved inputs -->
     <g transform="translate(14.810347 172.013542)rotate(-90)scale(0.11 -0.11)">
      <defs>
       <path d="M 1466 4180 
L 1350 4416 
L 563 4416 
L 563 0 
L 1062 0 
L 1062 3926 
L 1069 3932 
C 1114 3817 1139 3760 1402 3194 
L 2771 236 
L 2886 0 
L 3674 0 
L 3674 4416 
L 3174 4416 
L 3174 490 
L 3168 483 
C 3123 598 3098 655 2835 1221 
L 1466 4180 
z
" id="CMSS17-4e" transform="scale(0.015625)"/>
       <path d="M 2618 2739 
L 2131 2739 
L 2131 972 
C 2131 498 1786 306 1421 306 
C 998 306 960 447 960 709 
L 960 2739 
L 474 2739 
L 474 678 
C 474 179 646 -64 1088 -64 
C 1306 -64 1798 -13 2144 306 
L 2144 0 
L 2618 0 
L 2618 2739 
z
" id="CMSS17-75" transform="scale(0.015625)"/>
       <path d="M 954 4416 
L 480 4416 
L 480 -13 
L 966 -13 
L 966 274 
C 1210 38 1504 -64 1766 -64 
C 2381 -64 2880 549 2880 1352 
C 2880 2086 2496 2756 1926 2756 
C 1523 2756 1165 2591 954 2419 
L 954 4416 
z
M 966 2046 
C 1107 2222 1306 2368 1587 2368 
C 1965 2368 2394 2097 2394 1352 
C 2394 558 1882 325 1530 325 
C 1402 325 1267 356 1139 464 
C 966 615 966 709 966 797 
L 966 2046 
z
" id="CMSS17-62" transform="scale(0.015625)"/>
       <path d="M 954 1363 
C 954 1965 1395 2368 1958 2368 
L 1958 2789 
C 1549 2789 1165 2585 934 2253 
L 934 2758 
L 480 2758 
L 480 0 
L 954 0 
L 954 1363 
z
" id="CMSS17-72" transform="scale(0.015625)"/>
       <path d="M 2829 1356 
C 2829 2176 2221 2816 1504 2816 
C 768 2816 173 2157 173 1356 
C 173 544 787 -64 1498 -64 
C 2227 -64 2829 563 2829 1356 
z
M 1504 337 
C 1050 337 659 709 659 1408 
C 659 2151 1114 2427 1498 2427 
C 1914 2427 2342 2126 2342 1408 
C 2342 683 1926 337 1504 337 
z
" id="CMSS17-6f" transform="scale(0.015625)"/>
       <path d="M 1075 2368 
L 1722 2368 
L 1722 2737 
L 1062 2737 
L 1062 3559 
C 1062 4014 1408 4092 1606 4092 
C 1670 4092 1850 4092 2080 4009 
L 2080 4429 
C 1933 4461 1754 4480 1613 4480 
C 1018 4480 602 3993 602 3359 
L 602 2737 
L 160 2737 
L 160 2368 
L 602 2368 
L 602 0 
L 1075 0 
L 1075 2368 
z
" id="CMSS17-66" transform="scale(0.015625)"/>
       <path d="M 2061 2627 
C 1683 2807 1389 2807 1197 2807 
C 742 2807 198 2648 198 2003 
C 198 1359 902 1218 1094 1179 
C 1389 1122 1715 1058 1715 740 
C 1715 337 1254 337 1171 337 
C 915 337 563 407 243 638 
L 166 210 
C 531 0 883 -64 1178 -64 
C 1965 -64 2163 416 2163 781 
C 2163 1094 1984 1305 1862 1401 
C 1651 1568 1574 1587 1050 1696 
C 960 1709 646 1779 646 2066 
C 646 2432 1050 2432 1139 2432 
C 1555 2432 1811 2303 1984 2208 
L 2061 2627 
z
" id="CMSS17-73" transform="scale(0.015625)"/>
       <path d="M 947 4416 
L 474 4416 
L 474 0 
L 947 0 
L 947 4416 
z
" id="CMSS17-6c" transform="scale(0.015625)"/>
       <path d="M 2675 2752 
L 2176 2752 
L 1747 1556 
C 1613 1165 1421 627 1389 352 
L 1382 352 
C 1370 468 1318 634 1286 749 
C 1248 890 1197 1056 1158 1172 
L 595 2752 
L 83 2752 
L 1094 0 
L 1664 0 
L 2675 2752 
z
" id="CMSS17-76" transform="scale(0.015625)"/>
       <path d="M 2611 4416 
L 2138 4416 
L 2138 2438 
C 1939 2603 1613 2756 1254 2756 
C 672 2756 211 2131 211 1347 
C 211 562 666 -64 1235 -64 
C 1677 -64 1971 172 2125 306 
L 2125 -13 
L 2611 -13 
L 2611 4416 
z
M 2125 836 
C 2125 747 2125 653 1926 482 
C 1798 375 1645 325 1498 325 
C 1152 325 698 576 698 1340 
C 698 2134 1210 2368 1562 2368 
C 1798 2368 1990 2254 2125 2065 
L 2125 836 
z
" id="CMSS17-64" transform="scale(0.015625)"/>
       <path d="M 2618 1877 
C 2618 2283 2522 2816 1798 2816 
C 1389 2816 1120 2606 941 2389 
L 941 2758 
L 474 2758 
L 474 0 
L 960 0 
L 960 1559 
C 960 1964 1114 2428 1549 2428 
C 2112 2428 2131 2048 2131 1829 
L 2131 0 
L 2618 0 
L 2618 1877 
z
" id="CMSS17-6e" transform="scale(0.015625)"/>
       <path d="M 966 333 
C 1178 129 1466 -5 1773 -5 
C 2368 -5 2880 603 2880 1412 
C 2880 2159 2496 2816 1946 2816 
C 1626 2816 1242 2702 954 2472 
L 954 2765 
L 480 2765 
L 480 -1216 
L 966 -1216 
L 966 333 
z
M 966 2100 
C 1018 2176 1235 2415 1587 2415 
C 2035 2415 2394 1960 2394 1412 
C 2394 787 1958 384 1530 384 
C 1402 384 1267 415 1139 523 
C 966 674 966 768 966 857 
L 966 2100 
z
" id="CMSS17-70" transform="scale(0.015625)"/>
       <path d="M 1069 2368 
L 1901 2368 
L 1901 2737 
L 1069 2737 
L 1069 3520 
L 614 3520 
L 614 2737 
L 109 2737 
L 109 2368 
L 602 2368 
L 602 749 
C 602 384 685 -64 1107 -64 
C 1427 -64 1722 25 2003 172 
L 1901 548 
C 1747 414 1562 337 1363 337 
C 1082 337 1069 696 1069 856 
L 1069 2368 
z
" id="CMSS17-74" transform="scale(0.015625)"/>
      </defs>
      <use transform="scale(0.996264)" xlink:href="#CMSS17-4e"/>
      <use transform="translate(66.061519 0)scale(0.996264)" xlink:href="#CMSS17-75"/>
      <use transform="translate(114.266462 0)scale(0.996264)" xlink:href="#CMSS17-6d"/>
      <use transform="translate(188.495717 0)scale(0.996264)" xlink:href="#CMSS17-62"/>
      <use transform="translate(239.303099 0)scale(0.996264)" xlink:href="#CMSS17-65"/>
      <use transform="translate(280.941921 0)scale(0.996264)" xlink:href="#CMSS17-72"/>
      <use transform="translate(344.080806 0)scale(0.996264)" xlink:href="#CMSS17-6f"/>
      <use transform="translate(390.92443 0)scale(0.996264)" xlink:href="#CMSS17-66"/>
      <use transform="translate(450.780201 0)scale(0.996264)" xlink:href="#CMSS17-73"/>
      <use transform="translate(486.693743 0)scale(0.996264)" xlink:href="#CMSS17-6f"/>
      <use transform="translate(533.537367 0)scale(0.996264)" xlink:href="#CMSS17-6c"/>
      <use transform="translate(555.71809 0)scale(0.996264)" xlink:href="#CMSS17-76"/>
      <use transform="translate(598.718231 0)scale(0.996264)" xlink:href="#CMSS17-65"/>
      <use transform="translate(640.357053 0)scale(0.996264)" xlink:href="#CMSS17-64"/>
      <use transform="translate(719.791109 0)scale(0.996264)" xlink:href="#CMSS17-69"/>
      <use transform="translate(741.971832 0)scale(0.996264)" xlink:href="#CMSS17-6e"/>
      <use transform="translate(790.176775 0)scale(0.996264)" xlink:href="#CMSS17-70"/>
      <use transform="translate(838.381719 0)scale(0.996264)" xlink:href="#CMSS17-75"/>
      <use transform="translate(886.586662 0)scale(0.996264)" xlink:href="#CMSS17-74"/>
      <use transform="translate(920.418228 0)scale(0.996264)" xlink:href="#CMSS17-73"/>
     </g>
    </g>
   </g>
   <g id="line2d_13">
    <path clip-path="url(#pb156ddb040)" d="M 60.639793 202.422165 
L 60.756576 174.773703 
L 61.249265 156.127065 
L 61.307655 153.555115 
L 61.37073 151.626153 
L 61.556914 150.983165 
L 61.772594 141.98134 
L 61.854666 140.052378 
L 62.433841 125.906653 
L 62.610921 124.620678 
L 62.700343 122.691715 
L 62.862558 118.83379 
L 63.019791 118.190803 
L 63.138277 116.26184 
L 63.266404 113.046903 
L 63.449285 109.831965 
L 63.597046 109.188978 
L 63.799929 106.617028 
L 63.986141 105.331053 
L 64.155922 104.688066 
L 64.289116 102.759103 
L 64.480438 102.116116 
L 64.713867 99.544166 
L 64.793493 98.901178 
L 65.061871 98.258191 
L 65.359568 95.686241 
L 65.511606 95.043253 
L 65.53237 94.400266 
L 66.092178 91.828316 
L 66.466113 89.256366 
L 67.085375 86.684416 
L 67.262596 84.112466 
L 67.864411 82.183503 
L 68.220956 77.682591 
L 68.569567 77.039603 
L 68.620835 76.396616 
L 69.735044 74.467653 
L 69.806299 73.824666 
L 70.181024 73.181678 
L 70.240606 71.895703 
L 71.055651 68.680766 
L 71.719589 68.037778 
L 71.763009 67.394791 
L 72.478073 66.751803 
L 72.714297 65.465828 
L 73.538376 64.179853 
L 73.739762 63.536866 
L 76.235628 62.893878 
L 76.791921 62.250891 
L 77.159631 61.607903 
L 77.360918 60.964916 
L 77.398748 60.321928 
L 77.622197 59.678941 
L 79.79486 59.035953 
L 80.186424 57.749978 
L 80.610596 56.464003 
L 81.350532 55.821016 
L 81.657545 55.178028 
L 82.370662 54.535041 
L 83.112998 53.249066 
L 83.672538 52.606078 
L 83.699216 51.963091 
L 84.053657 50.677116 
L 84.13708 48.748153 
L 84.731061 46.176203 
L 84.75167 45.533216 
L 85.331395 44.890228 
L 85.790856 43.604253 
L 86.402482 42.961266 
L 86.502137 42.318278 
L 86.911911 41.675291 
L 88.015181 41.032303 
L 90.093693 40.389316 
L 92.593554 39.746328 
L 92.935856 39.103341 
L 96.9194 38.460353 
L 98.255718 37.817366 
L 108.448544 37.174378 
L 112.794716 36.531391 
L 118.60961 35.888403 
L 120.238119 35.245416 
L 120.34328 34.602428 
L 123.068989 33.959441 
L 127.056909 33.316453 
L 129.901048 32.673466 
L 130.174607 32.030478 
L 130.217518 31.387491 
L 130.601178 30.744504 
L 216.41797 30.101516 
L 267.582541 29.458529 
L 267.582541 29.458529 
" style="fill:none;stroke:#000000;stroke-dasharray:9.6,2.4,1.5,2.4;stroke-dashoffset:0;stroke-width:1.5;"/>
   </g>
   <g id="line2d_14">
    <path clip-path="url(#pb156ddb040)" d="M 60.639793 202.422165 
L 60.674337 198.56424 
L 60.811341 197.921252 
L 60.884825 195.349302 
L 61.23913 192.777352 
L 61.390222 192.134365 
L 61.535193 188.919427 
L 61.921184 187.633452 
L 61.931063 186.347477 
L 62.069618 185.70449 
L 62.119446 184.418515 
L 62.344801 181.846565 
L 62.358535 181.203578 
L 62.526538 180.56059 
L 62.631247 177.345653 
L 62.839649 174.773703 
L 62.862558 172.84474 
L 63.100589 171.558765 
L 63.412006 165.771878 
L 63.627931 164.485903 
L 63.631347 163.842915 
L 63.846284 162.55694 
L 63.882871 161.913953 
L 64.337589 161.270965 
L 64.572232 160.627978 
L 64.583609 159.98499 
L 64.776244 159.342003 
L 64.93421 158.056028 
L 65.696619 155.484078 
L 65.790755 153.555115 
L 66.330618 150.983165 
L 66.567138 148.411215 
L 66.703959 147.768228 
L 67.044101 147.12524 
L 67.120678 145.196278 
L 67.436076 141.98134 
L 67.721139 141.338353 
L 68.620835 140.052378 
L 69.156336 138.123415 
L 69.577967 137.480428 
L 69.689098 135.551465 
L 69.782938 134.908478 
L 70.181024 134.26549 
L 70.933213 131.69354 
L 71.719589 131.050553 
L 71.763009 130.407565 
L 72.714297 127.192628 
L 73.137664 126.54964 
L 73.340208 125.906653 
L 73.345459 125.263665 
L 74.443167 124.620678 
L 74.901004 123.97769 
L 75.154519 123.334703 
L 75.761205 122.691715 
L 75.998346 121.40574 
L 76.42407 120.119765 
L 76.998149 119.476778 
L 77.360918 118.83379 
L 77.775774 116.904828 
L 78.871986 115.618853 
L 79.003966 114.975865 
L 79.816033 114.332878 
L 80.442904 113.68989 
L 80.63431 111.760928 
L 81.319337 111.11794 
L 81.350532 110.474953 
L 81.569323 109.831965 
L 81.657545 109.188978 
L 82.181373 107.903003 
L 82.292038 107.260016 
L 82.633352 106.617028 
L 82.738936 105.974041 
L 83.059077 105.331053 
L 83.108763 104.045078 
L 83.699216 102.759103 
L 83.702463 102.116116 
L 84.103626 101.473128 
L 84.179003 100.830141 
L 84.5916 100.187153 
L 85.573194 99.544166 
L 85.790856 98.258191 
L 85.960383 97.615203 
L 86.561422 96.972216 
L 89.755626 96.329228 
L 90.075484 95.686241 
L 90.849721 95.043253 
L 91.367761 94.400266 
L 92.869795 93.757278 
L 92.935856 92.471303 
L 94.711308 91.185328 
L 95.050927 90.542341 
L 96.9194 89.899353 
L 101.620296 89.256366 
L 103.029167 88.613378 
L 105.375451 87.970391 
L 105.584926 87.327403 
L 106.324015 86.684416 
L 108.341266 86.041428 
L 108.448544 85.398441 
L 109.48787 84.755453 
L 112.794716 84.112466 
L 113.969976 82.826491 
L 114.653308 82.183503 
L 114.751553 81.540516 
L 116.080953 80.897528 
L 117.796273 80.254541 
L 118.60961 79.611553 
L 120.238119 78.968566 
L 120.34328 78.325578 
L 123.068989 77.682591 
L 124.383851 77.039603 
L 126.296223 76.396616 
L 127.056909 75.753628 
L 128.711109 75.110641 
L 129.024756 74.467653 
L 129.499038 73.824666 
L 129.567216 73.181678 
L 130.174607 71.895703 
L 130.217518 71.252716 
L 130.601178 70.609728 
L 131.730139 69.966741 
L 131.846309 69.323753 
L 133.154114 68.680766 
L 133.427673 68.037778 
L 133.555559 67.394791 
L 134.797726 65.465828 
L 136.268 64.822841 
L 136.897129 64.179853 
L 138.046275 63.536866 
L 142.642151 62.893878 
L 143.284267 62.250891 
L 144.226478 61.607903 
L 148.977484 60.964916 
L 155.850478 60.321928 
L 156.339582 59.678941 
L 156.432462 59.035953 
L 163.598212 58.392966 
L 167.523318 57.749978 
L 169.811022 57.106991 
L 172.752276 56.464003 
L 173.314215 55.821016 
L 179.558221 55.178028 
L 182.395584 54.535041 
L 216.41797 53.892053 
L 218.339094 53.249066 
L 218.727271 52.606078 
L 219.558676 51.963091 
L 224.182925 51.320103 
L 224.194217 50.677116 
L 261.030111 48.748153 
L 267.582541 48.105166 
L 275.477358 47.462178 
L 306.871714 46.819191 
L 350.059598 46.176203 
L 382.271243 45.533216 
L 405.712908 44.890228 
L 405.712908 44.890228 
" style="fill:none;stroke:#1f77b4;stroke-linecap:square;stroke-width:1.5;"/>
   </g>
   <g id="line2d_15">
    <path clip-path="url(#pb156ddb040)" d="M 60.936656 202.422165 
L 61.333201 201.779177 
L 61.464058 198.56424 
L 61.556914 197.278265 
L 61.698792 196.635277 
L 61.772594 193.42034 
L 62.28968 190.84839 
L 62.358987 190.205402 
L 62.611203 189.562415 
L 62.900812 187.633452 
L 63.196969 183.13254 
L 63.380006 181.846565 
L 63.405456 181.203578 
L 63.586361 179.917603 
L 63.728645 177.98864 
L 64.012876 177.345653 
L 64.150996 176.702665 
L 64.270583 174.130715 
L 64.50356 172.84474 
L 65.165945 172.201753 
L 65.501203 171.558765 
L 65.515262 170.915778 
L 66.085897 170.27279 
L 66.168346 168.343828 
L 66.692159 167.057853 
L 66.713826 166.414865 
L 66.994754 165.12889 
L 67.283783 161.913953 
L 67.54389 160.627978 
L 67.864411 158.056028 
L 67.92388 156.770053 
L 68.220956 155.484078 
L 68.340373 154.84109 
L 69.002349 153.555115 
L 69.288513 150.340178 
L 69.586605 149.69719 
L 69.812002 148.411215 
L 70.976505 147.12524 
L 71.055651 146.482253 
L 72.050613 145.196278 
L 72.088838 144.55329 
L 72.641475 142.624328 
L 72.938818 141.98134 
L 74.240694 136.83744 
L 75.444876 136.194453 
L 75.979431 135.551465 
L 76.154887 134.26549 
L 76.752539 133.622503 
L 76.803355 132.979515 
L 77.140575 132.336528 
L 77.159631 131.69354 
L 77.862302 131.050553 
L 78.071353 130.407565 
L 78.454307 129.764578 
L 78.511193 129.12159 
L 78.775154 128.478603 
L 79.680383 127.835615 
L 80.186424 123.97769 
L 82.34596 123.334703 
L 82.486692 122.048728 
L 83.112998 121.40574 
L 83.348304 120.119765 
L 83.65447 119.476778 
L 83.738175 118.190803 
L 84.054786 116.26184 
L 84.13708 114.975865 
L 84.731061 112.403915 
L 84.75167 111.760928 
L 85.331395 110.474953 
L 85.771235 109.831965 
L 86.203311 108.54599 
L 86.911911 107.903003 
L 89.137931 107.260016 
L 89.177172 106.617028 
L 91.553804 105.974041 
L 91.910927 104.688066 
L 92.063375 104.045078 
L 92.593554 103.402091 
L 94.219381 102.759103 
L 94.222769 102.116116 
L 95.185731 101.473128 
L 95.336061 100.830141 
L 97.42276 100.187153 
L 98.790838 99.544166 
L 98.81314 98.901178 
L 99.582295 98.258191 
L 100.666086 97.615203 
L 100.966323 96.972216 
L 102.006074 96.329228 
L 107.039955 95.686241 
L 107.352473 95.043253 
L 108.850272 94.400266 
L 109.532334 93.757278 
L 113.279585 93.114291 
L 113.740316 92.471303 
L 114.029543 91.828316 
L 114.810132 91.185328 
L 116.313154 90.542341 
L 116.684675 89.899353 
L 122.112379 89.256366 
L 128.520972 87.327403 
L 137.122413 86.684416 
L 142.156577 86.041428 
L 145.77594 85.398441 
L 147.395133 84.755453 
L 147.91402 84.112466 
L 165.503809 83.469478 
L 167.042684 82.826491 
L 184.873425 81.540516 
L 186.803442 80.897528 
L 201.117862 80.254541 
L 206.028938 79.611553 
L 206.333834 78.325578 
L 207.615524 77.682591 
L 218.001733 77.039603 
L 221.471331 76.396616 
L 236.933485 75.753628 
L 260.157771 75.110641 
L 269.291932 74.467653 
L 269.464142 73.824666 
L 273.727032 73.181678 
L 299.074294 72.538691 
L 309.807745 71.895703 
L 310.818417 71.252716 
L 324.603646 70.609728 
L 345.529923 69.966741 
L 396.861058 68.680766 
L 396.861058 68.680766 
" style="fill:none;stroke:#ff7f0e;stroke-linecap:square;stroke-width:1.5;"/>
   </g>
   <g id="line2d_16">
    <path clip-path="url(#pb156ddb040)" d="M 60.933695 202.422165 
L 61.328599 201.779177 
L 61.427508 199.850215 
L 61.750398 194.063327 
L 62.101181 190.84839 
L 62.545749 190.205402 
L 62.84912 187.633452 
L 62.8698 186.347477 
L 63.028317 185.70449 
L 63.149146 181.846565 
L 63.372228 179.274615 
L 63.779687 177.345653 
L 64.375504 175.41669 
L 64.527965 172.84474 
L 65.059627 172.201753 
L 65.07809 171.558765 
L 65.593999 170.27279 
L 65.980595 169.629803 
L 66.079079 168.986815 
L 66.323306 168.343828 
L 66.341868 167.70084 
L 66.697043 167.057853 
L 66.75095 166.414865 
L 66.974427 165.771878 
L 67.153144 163.199928 
L 67.685412 159.342003 
L 67.964237 158.699015 
L 68.056397 156.770053 
L 68.263895 154.84109 
L 68.539628 154.198103 
L 68.569567 153.555115 
L 68.989843 152.26914 
L 69.145241 150.983165 
L 69.450221 150.340178 
L 69.53051 149.69719 
L 70.07297 149.054203 
L 70.107144 148.411215 
L 71.329125 147.768228 
L 72.990058 147.12524 
L 73.388285 146.482253 
L 73.39835 145.839265 
L 74.841296 144.55329 
L 75.230461 143.910303 
L 75.288476 143.267315 
L 76.689019 141.98134 
L 76.976411 141.338353 
L 77.495016 140.695365 
L 77.654663 139.40939 
L 78.010797 138.766403 
L 79.570564 136.83744 
L 79.974974 135.551465 
L 80.386018 133.622503 
L 80.465347 131.69354 
L 81.95016 131.050553 
L 82.356405 130.407565 
L 83.024917 129.764578 
L 83.469274 127.835615 
L 84.922045 127.192628 
L 86.003153 126.54964 
L 86.506372 125.906653 
L 87.42247 125.263665 
L 89.602614 123.97769 
L 90.479471 123.334703 
L 91.902881 122.691715 
L 94.917112 122.048728 
L 95.506294 121.40574 
L 97.097821 120.762753 
L 97.583113 120.119765 
L 98.77037 118.83379 
L 100.082973 118.190803 
L 100.613012 117.547815 
L 101.069508 116.26184 
L 101.902324 115.618853 
L 105.61598 114.975865 
L 108.217473 114.332878 
L 108.519121 113.68989 
L 110.79751 113.046903 
L 110.807108 112.403915 
L 112.348807 111.760928 
L 112.469071 111.11794 
L 113.05416 110.474953 
L 113.237521 109.188978 
L 113.279161 108.54599 
L 113.620475 107.903003 
L 114.653026 107.260016 
L 117.607831 106.617028 
L 118.258133 105.974041 
L 119.849659 105.331053 
L 121.476898 104.045078 
L 122.8015 103.402091 
L 123.4686 102.759103 
L 125.18886 102.116116 
L 128.038645 101.473128 
L 130.161338 100.830141 
L 130.332701 100.187153 
L 139.243413 99.544166 
L 140.843126 98.901178 
L 148.340874 97.615203 
L 149.137131 96.972216 
L 151.95078 96.329228 
L 152.755366 95.686241 
L 155.083864 95.043253 
L 182.469126 93.114291 
L 190.085868 92.471303 
L 197.665767 91.185328 
L 200.546606 90.542341 
L 201.651147 89.899353 
L 201.836625 89.256366 
L 234.746989 88.613378 
L 237.639262 87.970391 
L 245.066855 87.327403 
L 249.005089 86.684416 
L 263.522914 85.398441 
L 280.982416 84.755453 
L 330.522289 84.112466 
L 338.589316 83.469478 
L 340.49209 82.826491 
L 388.640172 81.540516 
L 398.324838 80.897528 
L 398.324838 80.897528 
" style="fill:none;stroke:#2ca02c;stroke-linecap:square;stroke-width:1.5;"/>
   </g>
   <g id="line2d_17">
    <path clip-path="url(#pb156ddb040)" d="M 61.094116 202.422165 
L 61.261299 188.919427 
L 61.848796 168.343828 
L 61.970668 167.057853 
L 62.056943 164.485903 
L 62.213498 162.55694 
L 62.593446 154.198103 
L 62.621903 152.912128 
L 62.833156 152.26914 
L 62.979943 150.983165 
L 63.152689 150.340178 
L 63.345253 148.411215 
L 63.764372 146.482253 
L 64.140748 145.196278 
L 64.713867 142.624328 
L 65.061871 141.98134 
L 65.189335 141.338353 
L 65.192511 140.695365 
L 65.402281 140.052378 
L 65.742409 139.40939 
L 65.921183 138.766403 
L 66.376804 138.123415 
L 66.405952 137.480428 
L 66.784347 136.83744 
L 67.191143 135.551465 
L 68.018483 134.26549 
L 68.215564 132.979515 
L 68.266972 132.336528 
L 69.536763 131.69354 
L 69.806299 131.050553 
L 69.926733 130.407565 
L 70.240606 129.764578 
L 70.765139 129.12159 
L 70.930178 128.478603 
L 70.979611 127.835615 
L 71.800881 127.192628 
L 72.414356 126.54964 
L 72.601358 125.263665 
L 72.89993 123.97769 
L 73.604803 123.334703 
L 74.035991 121.40574 
L 74.066692 120.762753 
L 76.216713 120.119765 
L 76.510175 119.476778 
L 78.293955 118.190803 
L 79.487 117.547815 
L 80.369926 116.904828 
L 82.711976 116.26184 
L 83.381052 115.618853 
L 86.502137 114.975865 
L 89.307458 113.046903 
L 93.55821 112.403915 
L 94.42081 111.760928 
L 94.685194 111.11794 
L 98.35622 110.474953 
L 98.406472 109.831965 
L 99.397664 109.188978 
L 109.797142 108.54599 
L 110.52508 107.903003 
L 110.590435 107.260016 
L 118.045694 106.617028 
L 121.715168 105.974041 
L 121.880602 105.331053 
L 127.196371 104.688066 
L 129.890038 104.045078 
L 148.311655 103.402091 
L 150.5628 102.759103 
L 155.356717 102.116116 
L 158.275103 100.830141 
L 159.569498 100.187153 
L 189.865383 99.544166 
L 190.629316 98.901178 
L 215.916869 98.258191 
L 236.097846 97.615203 
L 241.944499 96.972216 
L 254.710587 96.329228 
L 279.682376 95.686241 
L 414.457481 95.043253 
L 414.457481 95.043253 
" style="fill:none;stroke:#d62728;stroke-linecap:square;stroke-width:1.5;"/>
   </g>
   <g id="line2d_18">
    <path clip-path="url(#pb156ddb040)" d="M 60.815336 202.422165 
L 61.182069 189.562415 
L 62.331956 172.84474 
L 63.186256 169.629803 
L 63.576691 167.70084 
L 63.856857 167.057853 
L 63.934351 166.414865 
L 64.230551 165.771878 
L 64.298616 165.12889 
L 64.512467 164.485903 
L 64.569423 163.842915 
L 64.788326 163.199928 
L 64.966493 161.913953 
L 65.288242 161.270965 
L 65.367091 159.98499 
L 65.94388 158.699015 
L 66.211821 158.056028 
L 66.218413 157.41304 
L 66.428198 156.770053 
L 66.628131 155.484078 
L 67.10398 154.84109 
L 67.604686 152.912128 
L 67.827598 150.983165 
L 68.05682 149.69719 
L 68.3346 149.054203 
L 68.48006 148.411215 
L 69.166471 147.768228 
L 69.498736 147.12524 
L 69.555509 145.839265 
L 70.032741 145.196278 
L 70.195902 144.55329 
L 71.148023 143.910303 
L 71.275868 142.624328 
L 71.881367 141.98134 
L 72.061453 141.338353 
L 72.583107 140.695365 
L 73.469506 140.052378 
L 73.549682 139.40939 
L 74.190781 138.766403 
L 75.823878 138.123415 
L 75.875117 137.480428 
L 76.791921 136.83744 
L 78.083775 135.551465 
L 79.640577 134.908478 
L 80.048657 134.26549 
L 81.173524 133.622503 
L 82.070566 132.979515 
L 82.277217 131.69354 
L 83.391356 131.050553 
L 83.572035 129.12159 
L 87.101483 128.478603 
L 87.306864 127.835615 
L 92.02131 127.192628 
L 92.946866 126.54964 
L 96.443001 125.906653 
L 97.457908 125.263665 
L 99.815625 124.620678 
L 106.322321 123.97769 
L 108.87695 123.334703 
L 109.235061 122.691715 
L 113.457582 122.048728 
L 113.617652 121.40574 
L 116.925627 120.762753 
L 118.681458 120.119765 
L 119.477574 119.476778 
L 123.61526 118.190803 
L 124.32513 117.547815 
L 125.783406 116.904828 
L 127.534014 116.26184 
L 130.667239 115.618853 
L 138.295837 114.332878 
L 138.337761 113.68989 
L 138.53072 113.046903 
L 139.761735 112.403915 
L 139.898797 111.760928 
L 142.270348 111.11794 
L 142.798269 110.474953 
L 161.827842 109.831965 
L 164.756956 109.188978 
L 173.203973 108.54599 
L 193.982743 107.903003 
L 196.668082 107.260016 
L 216.821674 106.617028 
L 224.795539 105.974041 
L 226.935453 105.331053 
L 239.820112 104.688066 
L 240.428491 104.045078 
L 244.938404 103.402091 
L 247.185597 102.759103 
L 254.124792 102.116116 
L 258.67564 101.473128 
L 314.097456 100.830141 
L 314.104513 100.187153 
L 317.537411 99.544166 
L 341.23739 98.901178 
L 350.979931 98.258191 
L 352.456415 97.615203 
L 364.45603 96.972216 
L 373.012865 96.329228 
L 410.262344 95.686241 
L 415.730702 95.043253 
L 415.730702 95.043253 
" style="fill:none;stroke:#9467bd;stroke-linecap:square;stroke-width:1.5;"/>
   </g>
   <g id="line2d_19">
    <path clip-path="url(#pb156ddb040)" d="M 61.382209 202.422165 
L 61.559013 199.207227 
L 61.805839 196.635277 
L 61.944236 191.491377 
L 62.480112 181.846565 
L 62.497658 180.56059 
L 62.612728 179.274615 
L 62.787873 177.345653 
L 63.525297 172.201753 
L 63.867373 168.986815 
L 64.100152 168.343828 
L 64.517463 164.485903 
L 64.538072 163.842915 
L 64.69292 163.199928 
L 64.719217 162.55694 
L 65.116837 161.270965 
L 65.351748 160.627978 
L 65.489332 159.342003 
L 65.699795 158.699015 
L 66.146819 158.056028 
L 66.247011 156.770053 
L 66.408987 156.127065 
L 66.544764 154.84109 
L 66.870593 154.198103 
L 66.884045 153.555115 
L 67.202337 152.26914 
L 67.390186 150.983165 
L 67.934072 150.340178 
L 68.193445 149.69719 
L 68.400251 148.411215 
L 68.958563 147.768228 
L 69.260325 147.12524 
L 69.981417 146.482253 
L 70.418561 145.839265 
L 70.656238 145.196278 
L 71.17233 144.55329 
L 71.203045 143.910303 
L 71.816634 143.267315 
L 72.426312 141.98134 
L 73.154433 140.695365 
L 73.358318 140.052378 
L 74.432002 138.766403 
L 74.781022 137.480428 
L 74.873197 136.83744 
L 76.292231 134.908478 
L 76.507776 134.26549 
L 77.674142 133.622503 
L 77.950383 132.979515 
L 78.599697 132.336528 
L 80.618219 131.69354 
L 81.034486 131.050553 
L 81.19752 130.407565 
L 81.231962 129.764578 
L 82.333538 129.12159 
L 83.900927 128.478603 
L 84.385795 127.835615 
L 84.547277 127.192628 
L 85.462669 126.54964 
L 87.220759 125.906653 
L 88.484805 125.263665 
L 88.767821 124.620678 
L 89.645384 123.97769 
L 89.931224 123.334703 
L 90.093693 122.691715 
L 92.049824 120.119765 
L 92.221328 119.476778 
L 96.265569 118.190803 
L 97.554176 117.547815 
L 98.096918 116.904828 
L 98.49794 115.618853 
L 102.617841 114.975865 
L 105.909442 114.332878 
L 107.380986 113.68989 
L 108.526179 113.046903 
L 109.090518 112.403915 
L 122.370411 111.760928 
L 122.720618 111.11794 
L 143.943885 110.474953 
L 177.303406 109.831965 
L 190.822698 109.188978 
L 199.553014 108.54599 
L 204.429648 107.903003 
L 213.233506 107.260016 
L 245.703466 106.617028 
L 247.184185 105.331053 
L 247.78833 104.688066 
L 248.976858 104.045078 
L 277.999804 103.402091 
L 278.057678 102.759103 
L 294.891862 102.116116 
L 295.075364 101.473128 
L 295.997108 100.830141 
L 341.492881 100.187153 
L 351.814159 99.544166 
L 381.926824 98.901178 
L 385.203039 98.258191 
L 408.90443 97.615203 
L 415.349582 96.972216 
L 415.349582 96.972216 
" style="fill:none;stroke:#8c564b;stroke-linecap:square;stroke-width:1.5;"/>
   </g>
   <g id="line2d_20">
    <path clip-path="url(#pb156ddb040)" d="M 60.825063 202.422165 
L 60.966408 195.99229 
L 61.18937 189.562415 
L 61.904301 177.98864 
L 62.041711 176.702665 
L 62.313648 172.84474 
L 62.57981 172.201753 
L 63.251201 168.986815 
L 63.298517 168.343828 
L 64.055829 167.057853 
L 64.649994 164.485903 
L 64.668429 163.842915 
L 65.030168 163.199928 
L 65.034275 162.55694 
L 65.446548 161.913953 
L 65.5749 160.627978 
L 65.794524 159.98499 
L 65.894617 159.342003 
L 66.391329 158.699015 
L 66.530536 158.056028 
L 67.151012 156.770053 
L 67.262596 156.127065 
L 67.893645 155.484078 
L 68.036847 154.198103 
L 68.221012 150.983165 
L 68.61907 149.054203 
L 69.258264 148.411215 
L 69.591546 147.12524 
L 70.137224 145.839265 
L 70.91228 143.267315 
L 70.969151 142.624328 
L 71.224896 141.98134 
L 71.938973 141.338353 
L 72.398617 140.695365 
L 75.035526 139.40939 
L 75.684699 138.766403 
L 76.484626 137.480428 
L 76.610113 136.83744 
L 76.938723 136.194453 
L 76.947474 135.551465 
L 78.339407 134.908478 
L 78.479715 134.26549 
L 81.646817 132.336528 
L 82.521275 131.69354 
L 82.904794 129.764578 
L 86.402482 129.12159 
L 88.125 128.478603 
L 91.511175 127.835615 
L 93.751875 127.192628 
L 94.546156 126.54964 
L 94.667408 125.906653 
L 95.768561 125.263665 
L 97.391424 124.620678 
L 97.977924 123.97769 
L 106.439057 123.334703 
L 108.102854 122.691715 
L 108.796774 122.048728 
L 113.196162 121.40574 
L 114.40671 120.762753 
L 116.582761 120.119765 
L 119.962301 119.476778 
L 122.443953 118.190803 
L 124.286313 117.547815 
L 125.041917 116.904828 
L 128.21523 116.26184 
L 129.07656 115.618853 
L 130.367002 114.975865 
L 134.900487 114.332878 
L 136.742705 113.68989 
L 140.301513 113.046903 
L 157.808444 112.403915 
L 158.991608 111.760928 
L 186.123638 111.11794 
L 191.040501 110.474953 
L 193.656392 109.831965 
L 206.374769 109.188978 
L 208.149091 108.54599 
L 220.414077 107.260016 
L 223.427744 106.617028 
L 243.715999 105.974041 
L 244.057594 105.331053 
L 245.069678 104.688066 
L 248.639496 104.045078 
L 262.938531 102.116116 
L 274.940968 101.473128 
L 295.91665 100.830141 
L 304.54124 100.187153 
L 325.852871 99.544166 
L 335.567181 98.901178 
L 359.644045 97.615203 
L 363.072707 96.972216 
L 363.072707 96.972216 
" style="fill:none;stroke:#e377c2;stroke-linecap:square;stroke-width:1.5;"/>
   </g>
   <g id="line2d_21">
    <path clip-path="url(#pb156ddb040)" d="M 60.807734 202.422165 
L 60.988712 195.349302 
L 61.086565 190.84839 
L 61.360462 186.347477 
L 61.639685 183.775528 
L 61.757223 181.846565 
L 61.838203 180.56059 
L 61.913992 179.274615 
L 62.060824 177.345653 
L 62.101943 174.773703 
L 62.298135 174.130715 
L 62.4456 171.558765 
L 63.011308 170.915778 
L 63.24365 169.629803 
L 63.339268 168.986815 
L 63.61558 168.343828 
L 63.724185 167.057853 
L 64.115298 166.414865 
L 64.82051 163.199928 
L 65.269878 162.55694 
L 65.293295 161.913953 
L 65.962428 160.627978 
L 66.025299 159.98499 
L 66.624037 158.699015 
L 66.911811 158.056028 
L 67.262596 156.127065 
L 67.693388 155.484078 
L 67.814513 154.84109 
L 68.553546 153.555115 
L 68.574239 152.912128 
L 68.733632 152.26914 
L 68.744077 150.983165 
L 69.395213 150.340178 
L 69.623673 149.69719 
L 69.853121 147.12524 
L 69.889525 146.482253 
L 70.079167 145.839265 
L 70.479441 145.196278 
L 70.740494 144.55329 
L 70.900041 143.267315 
L 71.161334 142.624328 
L 71.569725 141.98134 
L 72.867987 141.338353 
L 73.176086 140.695365 
L 74.935305 139.40939 
L 75.723799 138.766403 
L 75.927909 138.123415 
L 75.948659 137.480428 
L 76.807025 136.83744 
L 76.839632 136.194453 
L 78.311882 134.908478 
L 79.130583 133.622503 
L 79.200737 132.979515 
L 81.125249 132.336528 
L 81.214459 131.69354 
L 84.7065 131.050553 
L 84.824224 130.407565 
L 86.7884 129.764578 
L 87.068876 129.12159 
L 89.10363 128.478603 
L 90.482153 127.835615 
L 91.322592 127.192628 
L 94.914995 125.906653 
L 94.976962 124.620678 
L 95.319546 123.97769 
L 105.847898 123.334703 
L 106.051868 122.691715 
L 116.132899 121.40574 
L 116.514159 120.762753 
L 116.724763 120.119765 
L 116.809738 119.476778 
L 119.338395 118.190803 
L 123.406209 117.547815 
L 125.037118 116.904828 
L 132.140477 115.618853 
L 134.446391 114.975865 
L 134.474339 114.332878 
L 137.014853 113.68989 
L 149.357192 113.046903 
L 157.646821 112.403915 
L 158.219065 111.760928 
L 179.062342 111.11794 
L 184.603959 110.474953 
L 201.612329 109.831965 
L 206.078343 109.188978 
L 207.35721 108.54599 
L 210.924205 107.903003 
L 222.747375 107.260016 
L 223.447505 106.617028 
L 228.49522 105.974041 
L 237.087345 105.331053 
L 247.302755 104.688066 
L 254.249009 104.045078 
L 256.72205 103.402091 
L 258.598005 102.759103 
L 265.10103 102.116116 
L 268.015888 101.473128 
L 297.905528 100.830141 
L 298.811745 100.187153 
L 339.110179 99.544166 
L 339.158172 98.901178 
L 346.379679 98.258191 
L 355.858259 97.615203 
L 368.524126 96.972216 
L 368.524126 96.972216 
" style="fill:none;stroke:#7f7f7f;stroke-linecap:square;stroke-width:1.5;"/>
   </g>
   <g id="line2d_22">
    <path clip-path="url(#pb156ddb040)" d="M 61.285481 202.422165 
L 61.518611 199.207227 
L 61.92536 192.134365 
L 62.373709 182.489553 
L 62.511082 181.203578 
L 63.052257 174.130715 
L 63.411794 172.84474 
L 63.532016 170.915778 
L 64.124769 167.70084 
L 64.215786 164.485903 
L 64.470741 163.842915 
L 64.86407 163.199928 
L 65.650997 156.770053 
L 66.094112 154.84109 
L 66.398993 152.912128 
L 66.78343 152.26914 
L 68.420211 150.983165 
L 68.426944 150.340178 
L 69.065163 149.69719 
L 69.148459 149.054203 
L 69.814119 147.768228 
L 69.862451 147.12524 
L 70.707534 146.482253 
L 72.318723 145.839265 
L 72.405731 145.196278 
L 72.67044 144.55329 
L 72.812668 143.910303 
L 73.293132 143.267315 
L 73.424788 142.624328 
L 74.501422 141.338353 
L 76.557603 140.695365 
L 76.738 140.052378 
L 78.133603 138.123415 
L 80.541712 137.480428 
L 82.053909 136.83744 
L 82.491067 136.194453 
L 84.223326 135.551465 
L 86.700602 134.908478 
L 87.436021 134.26549 
L 89.1073 133.622503 
L 89.111111 132.979515 
L 89.382694 132.336528 
L 89.878855 131.69354 
L 90.034832 131.050553 
L 90.602135 130.407565 
L 90.88741 129.12159 
L 91.921655 127.835615 
L 92.140022 127.192628 
L 93.305965 126.54964 
L 93.326997 125.906653 
L 95.447715 125.263665 
L 96.56016 124.620678 
L 96.63469 123.334703 
L 105.229214 122.048728 
L 105.468473 121.40574 
L 108.255302 120.119765 
L 110.814448 118.83379 
L 117.41106 118.190803 
L 121.939041 117.547815 
L 139.219134 116.904828 
L 148.684728 116.26184 
L 162.895541 115.618853 
L 166.850572 114.975865 
L 179.578124 113.68989 
L 180.741244 113.046903 
L 194.337043 112.403915 
L 205.342923 111.760928 
L 212.863679 111.11794 
L 227.752743 110.474953 
L 233.125115 109.831965 
L 268.453469 109.188978 
L 270.188268 108.54599 
L 270.247554 107.903003 
L 272.774234 107.260016 
L 283.702479 106.617028 
L 286.542524 105.974041 
L 288.545518 105.331053 
L 350.022898 104.045078 
L 350.37014 103.402091 
L 368.696336 102.759103 
L 368.696336 102.759103 
" style="fill:none;stroke:#bcbd22;stroke-linecap:square;stroke-width:1.5;"/>
   </g>
   <g id="line2d_23">
    <path clip-path="url(#pb156ddb040)" d="M 60.77828 202.422165 
L 61.10434 181.846565 
L 61.203076 180.56059 
L 61.318092 176.702665 
L 61.47181 174.773703 
L 61.582531 172.84474 
L 61.851598 166.414865 
L 62.154848 165.12889 
L 62.181597 163.842915 
L 62.395221 162.55694 
L 62.656133 161.913953 
L 62.770765 159.98499 
L 63.100349 156.770053 
L 63.507638 156.127065 
L 63.739077 155.484078 
L 63.858014 153.555115 
L 64.304799 152.912128 
L 65.133324 149.054203 
L 65.58224 148.411215 
L 65.759461 147.768228 
L 66.113436 147.12524 
L 66.875251 146.482253 
L 67.238035 145.196278 
L 67.807469 144.55329 
L 68.228818 143.267315 
L 68.457094 141.98134 
L 69.275654 141.338353 
L 69.635685 140.695365 
L 69.828418 140.052378 
L 70.182761 139.40939 
L 70.395877 138.766403 
L 72.619793 138.123415 
L 72.918407 137.480428 
L 73.385674 136.83744 
L 73.914907 135.551465 
L 74.923307 134.908478 
L 76.153617 134.26549 
L 76.592045 133.622503 
L 77.622197 132.979515 
L 77.730322 132.336528 
L 81.420404 131.69354 
L 81.87436 130.407565 
L 83.17313 129.764578 
L 83.679031 129.12159 
L 84.062832 127.192628 
L 87.044456 126.54964 
L 98.406472 125.906653 
L 99.877592 125.263665 
L 100.352298 124.620678 
L 102.59088 123.97769 
L 102.675291 123.334703 
L 106.171003 122.691715 
L 107.406535 122.048728 
L 114.174227 121.40574 
L 119.049732 120.762753 
L 121.104389 120.119765 
L 121.21929 119.476778 
L 121.652495 118.83379 
L 124.00499 118.190803 
L 134.189347 116.904828 
L 158.484719 116.26184 
L 160.097983 115.618853 
L 162.638638 114.975865 
L 170.043223 113.68989 
L 177.237063 113.046903 
L 215.998739 112.403915 
L 229.863015 111.760928 
L 241.25425 111.11794 
L 263.050044 110.474953 
L 263.404343 109.831965 
L 270.110633 109.188978 
L 331.211127 108.54599 
L 370.861658 107.260016 
L 370.861658 107.260016 
" style="fill:none;stroke:#17becf;stroke-linecap:square;stroke-width:1.5;"/>
   </g>
   <g id="line2d_24">
    <path clip-path="url(#pb156ddb040)" d="M 60.640161 202.422165 
L 60.729774 182.489553 
L 60.783316 180.56059 
L 61.211568 168.343828 
L 61.304219 167.057853 
L 61.709389 166.414865 
L 61.854666 164.485903 
L 61.964205 163.199928 
L 62.200808 160.627978 
L 62.681315 159.342003 
L 62.788833 158.056028 
L 62.934731 157.41304 
L 63.597046 156.770053 
L 63.69745 154.84109 
L 64.352763 154.198103 
L 64.456131 153.555115 
L 65.069734 152.26914 
L 65.075959 151.626153 
L 65.201982 150.983165 
L 65.605475 150.340178 
L 66.624122 149.69719 
L 67.031397 149.054203 
L 68.857453 147.768228 
L 68.939083 147.12524 
L 70.931449 146.482253 
L 71.41691 145.839265 
L 71.532827 145.196278 
L 72.191415 144.55329 
L 72.478073 143.267315 
L 73.81552 142.624328 
L 74.553127 141.338353 
L 74.992473 140.695365 
L 75.011106 140.052378 
L 75.506702 139.40939 
L 77.848751 138.766403 
L 78.516416 138.123415 
L 78.857729 137.480428 
L 80.116411 136.83744 
L 82.465801 136.194453 
L 82.53045 135.551465 
L 84.359541 134.908478 
L 85.557526 134.26549 
L 85.860304 133.622503 
L 87.152581 132.979515 
L 87.209043 132.336528 
L 87.507869 131.69354 
L 88.015181 131.050553 
L 93.187253 130.407565 
L 94.506491 129.764578 
L 95.227936 129.12159 
L 95.347353 128.478603 
L 96.207695 127.835615 
L 99.268225 127.192628 
L 113.394909 126.54964 
L 131.54212 125.906653 
L 134.042827 125.263665 
L 139.908255 124.620678 
L 161.543414 123.97769 
L 165.298004 123.334703 
L 176.488516 122.691715 
L 190.361967 122.048728 
L 246.781892 120.762753 
L 258.317105 120.119765 
L 275.66933 119.476778 
L 286.978694 118.83379 
L 302.052672 118.190803 
L 309.66659 117.547815 
L 325.011585 116.904828 
L 366.835908 116.26184 
L 366.835908 116.26184 
" style="fill:none;stroke:#1f77b4;stroke-linecap:square;stroke-width:1.5;"/>
   </g>
   <g id="line2d_25">
    <path clip-path="url(#pb156ddb040)" d="M 60.63998 202.422165 
L 60.748978 182.489553 
L 60.909418 172.84474 
L 61.044076 171.558765 
L 61.117184 170.27279 
L 61.269211 169.629803 
L 61.364817 167.70084 
L 61.530342 167.057853 
L 61.826783 166.414865 
L 61.882908 165.12889 
L 62.188062 162.55694 
L 62.712087 161.913953 
L 62.824037 160.627978 
L 63.136047 159.98499 
L 63.264484 158.699015 
L 63.414349 156.770053 
L 63.449285 155.484078 
L 65.077497 154.198103 
L 65.688008 153.555115 
L 67.491846 152.26914 
L 68.452902 151.626153 
L 72.705884 150.983165 
L 73.511119 150.340178 
L 73.52697 149.69719 
L 74.334125 148.411215 
L 75.078013 147.768228 
L 76.716685 147.12524 
L 77.086089 146.482253 
L 78.100008 145.839265 
L 78.772613 145.196278 
L 78.897112 143.910303 
L 80.668329 142.624328 
L 80.895448 141.98134 
L 87.683748 141.338353 
L 88.321347 140.695365 
L 88.718135 140.052378 
L 88.785325 139.40939 
L 91.711192 138.766403 
L 95.911834 138.123415 
L 98.636414 137.480428 
L 98.637543 136.83744 
L 99.359411 136.194453 
L 103.069679 135.551465 
L 104.752109 134.908478 
L 108.604803 134.26549 
L 108.965596 133.622503 
L 112.24901 132.979515 
L 114.182697 132.336528 
L 123.311494 131.69354 
L 135.526935 131.050553 
L 140.425589 130.407565 
L 157.624377 129.764578 
L 167.875501 129.12159 
L 232.865389 128.478603 
L 256.668411 127.835615 
L 307.998134 127.192628 
L 309.250182 126.54964 
L 331.390395 125.906653 
L 333.910017 125.263665 
L 363.713553 124.620678 
L 365.190037 123.97769 
L 387.908987 123.334703 
L 388.027557 122.691715 
L 403.82425 122.048728 
L 411.750121 121.40574 
L 411.750121 121.40574 
" style="fill:none;stroke:#ff7f0e;stroke-linecap:square;stroke-width:1.5;"/>
   </g>
   <g id="patch_3">
    <path d="M 42.885247 211.070347 
L 42.885247 20.810347 
" style="fill:none;stroke:#000000;stroke-linecap:square;stroke-linejoin:miter;stroke-width:0.8;"/>
   </g>
   <g id="patch_4">
    <path d="M 433.485247 211.070347 
L 433.485247 20.810347 
" style="fill:none;stroke:#000000;stroke-linecap:square;stroke-linejoin:miter;stroke-width:0.8;"/>
   </g>
   <g id="patch_5">
    <path d="M 42.885247 211.070347 
L 433.485247 211.070347 
" style="fill:none;stroke:#000000;stroke-linecap:square;stroke-linejoin:miter;stroke-width:0.8;"/>
   </g>
   <g id="patch_6">
    <path d="M 42.885247 20.810347 
L 433.485247 20.810347 
" style="fill:none;stroke:#000000;stroke-linecap:square;stroke-linejoin:miter;stroke-width:0.8;"/>
   </g>
   <g id="text_15">
    <!-- CDF-plot -->
    <g transform="translate(216.921876 14.810347)scale(0.11 -0.11)">
     <defs>
      <path d="M 3501 714 
C 3072 427 2874 344 2355 344 
C 1459 344 934 1303 934 2179 
C 934 3112 1472 4032 2381 4032 
C 2790 4032 3059 3918 3386 3715 
L 3475 4217 
C 3168 4370 2778 4440 2387 4440 
C 1158 4440 397 3316 397 2179 
C 397 927 1299 -64 2323 -64 
C 2874 -64 3066 -19 3539 280 
L 3501 714 
z
" id="CMSS17-43" transform="scale(0.015625)"/>
      <path d="M 570 4416 
L 570 0 
L 2144 0 
C 3194 0 4000 980 4000 2170 
C 4000 3398 3194 4416 2144 4416 
L 570 4416 
z
M 1094 357 
L 1094 4059 
L 2003 4059 
C 2861 4059 3475 3277 3475 2170 
C 3475 1107 2867 357 2003 357 
L 1094 357 
z
" id="CMSS17-44" transform="scale(0.015625)"/>
      <path d="M 2918 1984 
L 2918 2373 
L 1101 2373 
L 1101 3968 
L 1882 3968 
C 1958 3968 2035 3968 2112 3968 
L 3168 3968 
L 3168 4375 
L 563 4375 
L 563 -32 
L 1101 -32 
L 1101 1984 
L 2918 1984 
z
" id="CMSS17-46" transform="scale(0.015625)"/>
      <path d="M 1664 1216 
L 1664 1585 
L 64 1585 
L 64 1216 
L 1664 1216 
z
" id="CMSS17-2d" transform="scale(0.015625)"/>
     </defs>
     <use transform="scale(0.996264)" xlink:href="#CMSS17-43"/>
     <use transform="translate(59.855772 0)scale(0.996264)" xlink:href="#CMSS17-44"/>
     <use transform="translate(127.398613 0)scale(0.996264)" xlink:href="#CMSS17-46"/>
     <use transform="translate(180.688173 0)scale(0.996264)" xlink:href="#CMSS17-2d"/>
     <use transform="translate(211.917285 0)scale(0.996264)" xlink:href="#CMSS17-70"/>
     <use transform="translate(260.122228 0)scale(0.996264)" xlink:href="#CMSS17-6c"/>
     <use transform="translate(282.302951 0)scale(0.996264)" xlink:href="#CMSS17-6f"/>
     <use transform="translate(329.146575 0)scale(0.996264)" xlink:href="#CMSS17-74"/>
    </g>
   </g>
   <g id="legend_1">
    <g id="patch_7">
     <path d="M 479.545247 208.032006 
L 622.822629 208.032006 
Q 624.822629 208.032006 624.822629 206.032006 
L 624.822629 25.848688 
Q 624.822629 23.848688 622.822629 23.848688 
L 479.545247 23.848688 
Q 477.545247 23.848688 477.545247 25.848688 
L 477.545247 206.032006 
Q 477.545247 208.032006 479.545247 208.032006 
z
" style="fill:#ffffff;opacity:0.8;stroke:#cccccc;stroke-linejoin:miter;"/>
    </g>
    <g id="line2d_26">
     <path d="M 481.545247 31.348688 
L 501.545247 31.348688 
" style="fill:none;stroke:#000000;stroke-dasharray:9.6,2.4,1.5,2.4;stroke-dashoffset:0;stroke-width:1.5;"/>
    </g>
    <g id="line2d_27"/>
    <g id="text_16">
     <!-- VBS -->
     <g transform="translate(509.545247 34.848688)scale(0.1 -0.1)">
      <defs>
       <path d="M 3910 4416 
L 3411 4416 
L 2304 1362 
C 2272 1273 2074 688 2035 484 
L 2029 484 
C 1978 726 1773 1292 1664 1604 
L 922 3672 
L 646 4416 
L 83 4416 
L 1715 0 
L 2278 0 
L 3910 4416 
z
" id="CMSS17-56" transform="scale(0.015625)"/>
       <path d="M 570 4416 
L 570 0 
L 2163 0 
C 3034 0 3667 574 3667 1200 
C 3667 1685 3251 2176 2502 2317 
C 3334 2558 3501 3040 3501 3313 
C 3501 3883 2874 4416 1997 4416 
L 570 4416 
z
M 1088 2496 
L 1088 4059 
L 1824 4059 
C 2483 4059 3002 3724 3002 3306 
C 3002 2926 2592 2496 1766 2496 
L 1088 2496 
z
M 1088 357 
L 1088 2107 
L 1939 2107 
C 2630 2107 3162 1679 3162 1206 
C 3162 772 2694 357 1984 357 
L 1088 357 
z
" id="CMSS17-42" transform="scale(0.015625)"/>
       <path d="M 2797 4169 
C 2515 4334 2208 4480 1690 4480 
C 864 4480 333 3879 333 3266 
C 333 3025 403 2753 653 2475 
C 902 2196 1184 2121 1542 2033 
C 1690 1994 1939 1924 1984 1906 
C 2342 1767 2515 1444 2515 1140 
C 2515 742 2202 318 1645 318 
C 1453 318 890 318 358 819 
L 269 318 
C 794 -64 1363 -128 1651 -128 
C 2438 -128 3002 488 3002 1186 
C 3002 1440 2925 1763 2656 2061 
C 2394 2347 2163 2410 1638 2549 
C 1338 2626 1146 2677 986 2873 
C 877 3013 819 3146 819 3317 
C 819 3673 1126 4060 1690 4060 
C 1971 4060 2336 4002 2707 3660 
L 2797 4169 
z
" id="CMSS17-53" transform="scale(0.015625)"/>
      </defs>
      <use transform="scale(0.996264)" xlink:href="#CMSS17-56"/>
      <use transform="translate(62.217855 0)scale(0.996264)" xlink:href="#CMSS17-42"/>
      <use transform="translate(124.555895 0)scale(0.996264)" xlink:href="#CMSS17-53"/>
     </g>
    </g>
    <g id="line2d_28">
     <path d="M 481.545247 45.285866 
L 501.545247 45.285866 
" style="fill:none;stroke:#1f77b4;stroke-linecap:square;stroke-width:1.5;"/>
    </g>
    <g id="line2d_29"/>
    <g id="text_17">
     <!-- PicatSAT 2019-09-12 -->
     <g transform="translate(509.545247 48.785866)scale(0.1 -0.1)">
      <defs>
       <path d="M 2106 1856 
C 2874 1856 3501 2453 3501 3158 
C 3501 3850 2899 4453 2067 4453 
L 570 4453 
L 570 0 
L 1107 0 
L 1107 1856 
L 2106 1856 
z
M 1926 4096 
C 2669 4096 2995 3627 2995 3157 
C 2995 2720 2694 2226 1926 2226 
L 1094 2226 
L 1094 4096 
L 1926 4096 
z
" id="CMSS17-50" transform="scale(0.015625)"/>
       <path d="M 2464 2541 
C 2464 2585 2170 2714 2093 2739 
C 1882 2816 1613 2816 1542 2816 
C 710 2816 211 2093 211 1363 
C 211 595 768 -64 1517 -64 
C 1946 -64 2253 76 2502 242 
L 2464 664 
C 2189 453 1869 337 1523 337 
C 1024 337 698 774 698 1369 
C 698 1831 909 2414 1549 2414 
C 1901 2414 2099 2343 2394 2145 
L 2464 2541 
z
" id="CMSS17-63" transform="scale(0.015625)"/>
       <path d="M 2406 1791 
C 2406 2392 1978 2808 1402 2808 
C 1120 2808 813 2757 461 2553 
L 499 2135 
C 659 2248 934 2432 1395 2432 
C 1722 2432 1920 2180 1920 1782 
L 1920 1536 
C 896 1536 256 1238 256 726 
C 256 461 416 -64 947 -64 
C 1043 -64 1562 -64 1933 217 
L 1933 -19 
L 2406 -19 
L 2406 1791 
z
M 1920 816 
C 1920 701 1920 548 1728 434 
C 1562 325 1350 325 1261 325 
C 941 325 723 511 723 744 
C 723 1211 1722 1211 1920 1211 
L 1920 816 
z
" id="CMSS17-61" transform="scale(0.015625)"/>
       <path d="M 2272 4416 
L 1722 4416 
L 166 0 
L 653 0 
L 1101 1280 
L 2816 1280 
L 3270 0 
L 3827 0 
L 2272 4416 
z
M 2694 1637 
L 1222 1637 
C 1530 2528 1914 3638 1958 3925 
L 1965 3925 
C 2010 3663 2138 3281 2246 2956 
L 2694 1637 
z
" id="CMSS17-41" transform="scale(0.015625)"/>
       <path d="M 1651 1357 
C 1830 1541 2099 1764 2285 1987 
C 2464 2204 2701 2511 2701 2957 
C 2701 3657 2227 4288 1421 4288 
C 787 4288 422 3893 250 3274 
L 499 2929 
C 640 3510 838 3880 1338 3880 
C 1888 3880 2195 3433 2195 2942 
C 2195 2355 1747 1901 1408 1563 
C 1030 1187 659 804 301 408 
L 301 0 
L 2701 0 
L 2701 433 
L 1613 433 
C 1536 433 1459 433 1382 433 
L 742 433 
L 742 439 
L 1651 1357 
z
" id="CMSS17-32" transform="scale(0.015625)"/>
       <path d="M 2758 2044 
C 2758 2405 2752 3077 2490 3596 
C 2227 4096 1805 4229 1504 4229 
C 1069 4229 698 3975 506 3570 
C 301 3146 243 2709 243 2044 
C 243 1589 262 1031 493 543 
C 755 5 1197 -128 1498 -128 
C 1894 -128 2278 81 2496 518 
C 2720 974 2758 1474 2758 2044 
z
M 1498 261 
C 1011 261 864 811 819 995 
C 742 1310 730 1614 730 2114 
C 730 2506 730 2948 851 3297 
C 998 3701 1254 3840 1498 3840 
C 1971 3840 2125 3372 2176 3208 
C 2272 2873 2272 2481 2272 2114 
C 2272 1526 2272 261 1498 261 
z
" id="CMSS17-30" transform="scale(0.015625)"/>
       <path d="M 1818 4288 
L 1696 4288 
C 1350 3940 947 3890 538 3890 
L 538 3520 
C 723 3520 1024 3520 1325 3667 
L 1325 369 
L 570 369 
L 570 0 
L 2573 0 
L 2573 369 
L 1818 369 
L 1818 4288 
z
" id="CMSS17-31" transform="scale(0.015625)"/>
       <path d="M 435 174 
C 614 21 845 -128 1235 -128 
C 2010 -128 2752 721 2752 2095 
C 2752 3932 1952 4229 1523 4229 
C 1094 4229 819 4041 582 3741 
C 301 3397 250 3090 250 2733 
C 250 2307 326 2045 506 1745 
C 749 1357 973 1275 1222 1275 
C 1600 1275 1978 1459 2234 1776 
C 2189 902 1798 267 1235 267 
C 1005 267 819 339 634 516 
L 435 174 
z
M 2214 2746 
C 2221 2703 2221 2622 2221 2596 
C 2221 2074 1914 1664 1466 1664 
C 1171 1664 1018 1813 902 2006 
C 762 2249 755 2485 755 2733 
C 755 2976 755 3244 934 3511 
C 1069 3703 1235 3840 1523 3840 
C 2112 3840 2208 3000 2214 2746 
z
" id="CMSS17-39" transform="scale(0.015625)"/>
      </defs>
      <use transform="scale(0.996264)" xlink:href="#CMSS17-50"/>
      <use transform="translate(59.735586 0)scale(0.996264)" xlink:href="#CMSS17-69"/>
      <use transform="translate(81.916309 0)scale(0.996264)" xlink:href="#CMSS17-63"/>
      <use transform="translate(123.555131 0)scale(0.996264)" xlink:href="#CMSS17-61"/>
      <use transform="translate(168.477052 0)scale(0.996264)" xlink:href="#CMSS17-74"/>
      <use transform="translate(202.308619 0)scale(0.996264)" xlink:href="#CMSS17-53"/>
      <use transform="translate(254.357135 0)scale(0.996264)" xlink:href="#CMSS17-41"/>
      <use transform="translate(308.767734 0)scale(0.996264)" xlink:href="#CMSS17-54"/>
      <use transform="translate(403.816301 0)scale(0.996264)" xlink:href="#CMSS17-32"/>
      <use transform="translate(450.659925 0)scale(0.996264)" xlink:href="#CMSS17-30"/>
      <use transform="translate(497.503548 0)scale(0.996264)" xlink:href="#CMSS17-31"/>
      <use transform="translate(544.347172 0)scale(0.996264)" xlink:href="#CMSS17-39"/>
      <use transform="translate(591.190795 0)scale(0.996264)" xlink:href="#CMSS17-2d"/>
      <use transform="translate(622.419908 0)scale(0.996264)" xlink:href="#CMSS17-30"/>
      <use transform="translate(669.263531 0)scale(0.996264)" xlink:href="#CMSS17-39"/>
      <use transform="translate(716.107155 0)scale(0.996264)" xlink:href="#CMSS17-2d"/>
      <use transform="translate(747.336268 0)scale(0.996264)" xlink:href="#CMSS17-31"/>
      <use transform="translate(794.179891 0)scale(0.996264)" xlink:href="#CMSS17-32"/>
     </g>
    </g>
    <g id="line2d_30">
     <path d="M 481.545247 59.223044 
L 501.545247 59.223044 
" style="fill:none;stroke:#ff7f0e;stroke-linecap:square;stroke-width:1.5;"/>
    </g>
    <g id="line2d_31"/>
    <g id="text_18">
     <!-- Fun-sCOP+CryptoMiniSat -->
     <g transform="translate(509.545247 62.723044)scale(0.1 -0.1)">
      <defs>
       <path d="M 4096 2178 
C 4096 3503 3219 4497 2214 4497 
C 1210 4497 333 3497 333 2178 
C 333 847 1222 -128 2214 -128 
C 3206 -128 4096 847 4096 2178 
z
M 2214 273 
C 1510 273 870 1057 870 2261 
C 870 3433 1549 4096 2214 4096 
C 2880 4096 3558 3433 3558 2261 
C 3558 1051 2912 273 2214 273 
z
" id="CMSS17-4f" transform="scale(0.015625)"/>
       <path d="M 2451 1505 
L 4141 1505 
C 4230 1505 4339 1505 4339 1613 
C 4339 1728 4237 1728 4141 1728 
L 2451 1728 
L 2451 3413 
C 2451 3502 2451 3611 2342 3611 
C 2227 3611 2227 3509 2227 3413 
L 2227 1728 
L 531 1728 
C 442 1728 333 1728 333 1620 
C 333 1505 435 1505 531 1505 
L 2227 1505 
L 2227 -186 
C 2227 -275 2227 -384 2336 -384 
C 2451 -384 2451 -282 2451 -186 
L 2451 1505 
z
" id="CMSS17-2b" transform="scale(0.015625)"/>
       <path d="M 2675 2752 
L 2176 2752 
C 1632 1294 1446 702 1434 383 
L 1427 383 
C 1408 696 1126 1460 902 2007 
L 602 2752 
L 83 2752 
L 1216 13 
C 1146 -178 1043 -465 1011 -529 
C 870 -885 774 -885 672 -885 
C 646 -885 442 -885 211 -809 
L 250 -1229 
C 410 -1261 570 -1280 685 -1280 
C 845 -1280 1165 -1280 1459 -497 
L 2675 2752 
z
" id="CMSS17-79" transform="scale(0.015625)"/>
       <path d="M 3194 2371 
L 2886 1473 
C 2835 1307 2662 791 2624 587 
L 2618 587 
C 2598 715 2560 849 2458 1174 
C 2400 1365 2336 1562 2272 1741 
L 1325 4416 
L 576 4416 
L 576 0 
L 1075 0 
L 1075 3900 
L 1082 3900 
C 1082 3894 1139 3613 1530 2499 
L 2374 96 
L 2848 96 
L 3610 2231 
C 3661 2378 3821 2843 3891 3066 
C 3955 3257 4115 3728 4154 3913 
L 4160 3913 
L 4160 0 
L 4666 0 
L 4666 4416 
L 3923 4416 
L 3194 2371 
z
" id="CMSS17-4d" transform="scale(0.015625)"/>
      </defs>
      <use transform="scale(0.996264)" xlink:href="#CMSS17-46"/>
      <use transform="translate(50.687105 0)scale(0.996264)" xlink:href="#CMSS17-75"/>
      <use transform="translate(98.892048 0)scale(0.996264)" xlink:href="#CMSS17-6e"/>
      <use transform="translate(147.096992 0)scale(0.996264)" xlink:href="#CMSS17-2d"/>
      <use transform="translate(178.326104 0)scale(0.996264)" xlink:href="#CMSS17-73"/>
      <use transform="translate(214.239646 0)scale(0.996264)" xlink:href="#CMSS17-43"/>
      <use transform="translate(274.095418 0)scale(0.996264)" xlink:href="#CMSS17-4f"/>
      <use transform="translate(343.119673 0)scale(0.996264)" xlink:href="#CMSS17-50"/>
      <use transform="translate(402.85526 0)scale(0.996264)" xlink:href="#CMSS17-2b"/>
      <use transform="translate(475.723194 0)scale(0.996264)" xlink:href="#CMSS17-43"/>
      <use transform="translate(535.578966 0)scale(0.996264)" xlink:href="#CMSS17-72"/>
      <use transform="translate(567.488739 0)scale(0.996264)" xlink:href="#CMSS17-79"/>
      <use transform="translate(610.48888 0)scale(0.996264)" xlink:href="#CMSS17-70"/>
      <use transform="translate(658.693823 0)scale(0.996264)" xlink:href="#CMSS17-74"/>
      <use transform="translate(692.52539 0)scale(0.996264)" xlink:href="#CMSS17-6f"/>
      <use transform="translate(739.369014 0)scale(0.996264)" xlink:href="#CMSS17-4d"/>
      <use transform="translate(821.045043 0)scale(0.996264)" xlink:href="#CMSS17-69"/>
      <use transform="translate(843.225767 0)scale(0.996264)" xlink:href="#CMSS17-6e"/>
      <use transform="translate(891.43071 0)scale(0.996264)" xlink:href="#CMSS17-69"/>
      <use transform="translate(913.611433 0)scale(0.996264)" xlink:href="#CMSS17-53"/>
      <use transform="translate(965.659949 0)scale(0.996264)" xlink:href="#CMSS17-61"/>
      <use transform="translate(1010.58187 0)scale(0.996264)" xlink:href="#CMSS17-74"/>
     </g>
    </g>
    <g id="line2d_32">
     <path d="M 481.545247 73.160223 
L 501.545247 73.160223 
" style="fill:none;stroke:#2ca02c;stroke-linecap:square;stroke-width:1.5;"/>
    </g>
    <g id="line2d_33"/>
    <g id="text_19">
     <!-- Fun-sCOP+GlueMiniSat -->
     <g transform="translate(509.545247 76.660223)scale(0.1 -0.1)">
      <defs>
       <path d="M 3610 1856 
L 2336 1856 
L 2336 1461 
L 3123 1461 
L 3123 471 
C 2874 401 2618 350 2362 350 
C 1466 350 934 1301 934 2200 
C 934 3095 1491 4032 2362 4032 
C 2854 4032 3130 3881 3469 3627 
L 3552 4134 
C 3130 4351 2867 4440 2387 4440 
C 1146 4440 397 3324 397 2182 
C 397 1090 1152 -64 2349 -64 
C 2797 -64 3213 51 3610 248 
L 3610 1856 
z
" id="CMSS17-47" transform="scale(0.015625)"/>
      </defs>
      <use transform="scale(0.996264)" xlink:href="#CMSS17-46"/>
      <use transform="translate(50.687105 0)scale(0.996264)" xlink:href="#CMSS17-75"/>
      <use transform="translate(98.892048 0)scale(0.996264)" xlink:href="#CMSS17-6e"/>
      <use transform="translate(147.096992 0)scale(0.996264)" xlink:href="#CMSS17-2d"/>
      <use transform="translate(178.326104 0)scale(0.996264)" xlink:href="#CMSS17-73"/>
      <use transform="translate(214.239646 0)scale(0.996264)" xlink:href="#CMSS17-43"/>
      <use transform="translate(274.095418 0)scale(0.996264)" xlink:href="#CMSS17-4f"/>
      <use transform="translate(343.119673 0)scale(0.996264)" xlink:href="#CMSS17-50"/>
      <use transform="translate(402.85526 0)scale(0.996264)" xlink:href="#CMSS17-2b"/>
      <use transform="translate(475.723194 0)scale(0.996264)" xlink:href="#CMSS17-47"/>
      <use transform="translate(538.18142 0)scale(0.996264)" xlink:href="#CMSS17-6c"/>
      <use transform="translate(560.362143 0)scale(0.996264)" xlink:href="#CMSS17-75"/>
      <use transform="translate(608.567086 0)scale(0.996264)" xlink:href="#CMSS17-65"/>
      <use transform="translate(650.205908 0)scale(0.996264)" xlink:href="#CMSS17-4d"/>
      <use transform="translate(731.881938 0)scale(0.996264)" xlink:href="#CMSS17-69"/>
      <use transform="translate(754.062661 0)scale(0.996264)" xlink:href="#CMSS17-6e"/>
      <use transform="translate(802.267604 0)scale(0.996264)" xlink:href="#CMSS17-69"/>
      <use transform="translate(824.448327 0)scale(0.996264)" xlink:href="#CMSS17-53"/>
      <use transform="translate(876.496844 0)scale(0.996264)" xlink:href="#CMSS17-61"/>
      <use transform="translate(921.418764 0)scale(0.996264)" xlink:href="#CMSS17-74"/>
     </g>
    </g>
    <g id="line2d_34">
     <path d="M 481.545247 87.097401 
L 501.545247 87.097401 
" style="fill:none;stroke:#d62728;stroke-linecap:square;stroke-width:1.5;"/>
    </g>
    <g id="line2d_35"/>
    <g id="text_20">
     <!-- AbsCon 2019-07-23 -->
     <g transform="translate(509.545247 90.597401)scale(0.1 -0.1)">
      <defs>
       <path d="M 1389 3776 
C 1466 3776 1542 3776 1619 3776 
L 2355 3776 
C 1440 2711 915 1365 915 -32 
L 1427 -32 
C 1427 1323 1875 2696 2752 3795 
L 2752 4209 
L 250 4209 
L 250 3776 
L 1389 3776 
z
" id="CMSS17-37" transform="scale(0.015625)"/>
       <path d="M 1005 2025 
L 1440 2025 
C 2042 2025 2214 1507 2214 1146 
C 2214 653 1933 267 1472 267 
C 1114 267 608 444 320 912 
C 275 691 275 678 250 526 
C 550 88 1037 -128 1485 -128 
C 2214 -128 2752 473 2752 1138 
C 2752 1638 2400 2057 1920 2215 
C 2304 2424 2586 2816 2586 3273 
C 2586 3805 2093 4229 1491 4229 
C 941 4229 512 3892 333 3530 
C 378 3468 493 3284 550 3189 
C 691 3562 1056 3840 1485 3840 
C 1843 3840 2080 3607 2080 3271 
C 2080 2923 1856 2543 1478 2455 
C 1453 2455 1056 2417 1005 2411 
L 1005 2025 
z
" id="CMSS17-33" transform="scale(0.015625)"/>
      </defs>
      <use transform="scale(0.996264)" xlink:href="#CMSS17-41"/>
      <use transform="translate(62.217855 0)scale(0.996264)" xlink:href="#CMSS17-62"/>
      <use transform="translate(110.422798 0)scale(0.996264)" xlink:href="#CMSS17-73"/>
      <use transform="translate(146.33634 0)scale(0.996264)" xlink:href="#CMSS17-43"/>
      <use transform="translate(206.192112 0)scale(0.996264)" xlink:href="#CMSS17-6f"/>
      <use transform="translate(253.035735 0)scale(0.996264)" xlink:href="#CMSS17-6e"/>
      <use transform="translate(332.469791 0)scale(0.996264)" xlink:href="#CMSS17-32"/>
      <use transform="translate(379.313415 0)scale(0.996264)" xlink:href="#CMSS17-30"/>
      <use transform="translate(426.157038 0)scale(0.996264)" xlink:href="#CMSS17-31"/>
      <use transform="translate(473.000662 0)scale(0.996264)" xlink:href="#CMSS17-39"/>
      <use transform="translate(519.844285 0)scale(0.996264)" xlink:href="#CMSS17-2d"/>
      <use transform="translate(551.073398 0)scale(0.996264)" xlink:href="#CMSS17-30"/>
      <use transform="translate(597.917021 0)scale(0.996264)" xlink:href="#CMSS17-37"/>
      <use transform="translate(644.760645 0)scale(0.996264)" xlink:href="#CMSS17-2d"/>
      <use transform="translate(675.989758 0)scale(0.996264)" xlink:href="#CMSS17-32"/>
      <use transform="translate(722.833381 0)scale(0.996264)" xlink:href="#CMSS17-33"/>
     </g>
    </g>
    <g id="line2d_36">
     <path d="M 481.545247 101.034579 
L 501.545247 101.034579 
" style="fill:none;stroke:#9467bd;stroke-linecap:square;stroke-width:1.5;"/>
    </g>
    <g id="line2d_37"/>
    <g id="text_21">
     <!-- choco-solver 2019-06-14 -->
     <g transform="translate(509.545247 104.534579)scale(0.1 -0.1)">
      <defs>
       <path d="M 2618 1891 
C 2618 2292 2522 2820 1798 2820 
C 1395 2820 1133 2623 947 2407 
L 947 4448 
L 474 4448 
L 474 32 
L 960 32 
L 960 1573 
C 960 1973 1114 2432 1549 2432 
C 2112 2432 2131 2056 2131 1839 
L 2131 32 
L 2618 32 
L 2618 1891 
z
" id="CMSS17-68" transform="scale(0.015625)"/>
       <path d="M 2496 4101 
C 2227 4210 2035 4229 1856 4229 
C 1024 4229 250 3368 250 2006 
C 250 265 986 -128 1510 -128 
C 1798 -128 2086 -39 2362 280 
C 2643 617 2752 898 2752 1389 
C 2752 2179 2362 2880 1779 2880 
C 1357 2880 992 2657 768 2376 
C 832 3258 1254 3840 1862 3840 
C 2029 3840 2246 3816 2496 3710 
L 2496 4101 
z
M 774 1369 
C 774 1420 774 1452 781 1548 
C 781 2045 1069 2491 1536 2491 
C 1837 2491 1990 2332 2106 2135 
C 2240 1886 2246 1650 2246 1388 
C 2246 1140 2246 891 2099 637 
C 1978 439 1818 267 1510 267 
C 902 267 800 1114 774 1369 
z
" id="CMSS17-36" transform="scale(0.015625)"/>
       <path d="M 2253 1088 
L 2835 1088 
L 2835 1477 
L 2253 1477 
L 2253 4192 
L 1690 4192 
L 166 1477 
L 166 1088 
L 1747 1088 
L 1747 0 
L 2253 0 
L 2253 1088 
z
M 659 1477 
C 1030 2127 1766 3439 1766 3885 
L 1766 1477 
L 659 1477 
z
" id="CMSS17-34" transform="scale(0.015625)"/>
      </defs>
      <use transform="scale(0.996264)" xlink:href="#CMSS17-63"/>
      <use transform="translate(41.638822 0)scale(0.996264)" xlink:href="#CMSS17-68"/>
      <use transform="translate(89.843765 0)scale(0.996264)" xlink:href="#CMSS17-6f"/>
      <use transform="translate(139.289827 0)scale(0.996264)" xlink:href="#CMSS17-63"/>
      <use transform="translate(180.92865 0)scale(0.996264)" xlink:href="#CMSS17-6f"/>
      <use transform="translate(227.772273 0)scale(0.996264)" xlink:href="#CMSS17-2d"/>
      <use transform="translate(259.001386 0)scale(0.996264)" xlink:href="#CMSS17-73"/>
      <use transform="translate(294.914928 0)scale(0.996264)" xlink:href="#CMSS17-6f"/>
      <use transform="translate(341.758551 0)scale(0.996264)" xlink:href="#CMSS17-6c"/>
      <use transform="translate(363.939274 0)scale(0.996264)" xlink:href="#CMSS17-76"/>
      <use transform="translate(406.939416 0)scale(0.996264)" xlink:href="#CMSS17-65"/>
      <use transform="translate(448.578238 0)scale(0.996264)" xlink:href="#CMSS17-72"/>
      <use transform="translate(511.717123 0)scale(0.996264)" xlink:href="#CMSS17-32"/>
      <use transform="translate(558.560747 0)scale(0.996264)" xlink:href="#CMSS17-30"/>
      <use transform="translate(605.40437 0)scale(0.996264)" xlink:href="#CMSS17-31"/>
      <use transform="translate(652.247994 0)scale(0.996264)" xlink:href="#CMSS17-39"/>
      <use transform="translate(699.091617 0)scale(0.996264)" xlink:href="#CMSS17-2d"/>
      <use transform="translate(730.32073 0)scale(0.996264)" xlink:href="#CMSS17-30"/>
      <use transform="translate(777.164354 0)scale(0.996264)" xlink:href="#CMSS17-36"/>
      <use transform="translate(824.007977 0)scale(0.996264)" xlink:href="#CMSS17-2d"/>
      <use transform="translate(855.23709 0)scale(0.996264)" xlink:href="#CMSS17-31"/>
      <use transform="translate(902.080714 0)scale(0.996264)" xlink:href="#CMSS17-34"/>
     </g>
    </g>
    <g id="line2d_38">
     <path d="M 481.545247 114.971758 
L 501.545247 114.971758 
" style="fill:none;stroke:#8c564b;stroke-linecap:square;stroke-width:1.5;"/>
    </g>
    <g id="line2d_39"/>
    <g id="text_22">
     <!-- Concrete 3.10 -->
     <g transform="translate(509.545247 118.471758)scale(0.1 -0.1)">
      <defs>
       <path d="M 1088 510 
L 576 510 
L 576 0 
L 1088 0 
L 1088 510 
z
" id="CMSS17-2e" transform="scale(0.015625)"/>
      </defs>
      <use transform="scale(0.996264)" xlink:href="#CMSS17-43"/>
      <use transform="translate(59.855772 0)scale(0.996264)" xlink:href="#CMSS17-6f"/>
      <use transform="translate(106.699395 0)scale(0.996264)" xlink:href="#CMSS17-6e"/>
      <use transform="translate(154.904338 0)scale(0.996264)" xlink:href="#CMSS17-63"/>
      <use transform="translate(196.54316 0)scale(0.996264)" xlink:href="#CMSS17-72"/>
      <use transform="translate(228.452933 0)scale(0.996264)" xlink:href="#CMSS17-65"/>
      <use transform="translate(270.091755 0)scale(0.996264)" xlink:href="#CMSS17-74"/>
      <use transform="translate(303.923322 0)scale(0.996264)" xlink:href="#CMSS17-65"/>
      <use transform="translate(376.791256 0)scale(0.996264)" xlink:href="#CMSS17-33"/>
      <use transform="translate(423.63488 0)scale(0.996264)" xlink:href="#CMSS17-2e"/>
      <use transform="translate(449.659085 0)scale(0.996264)" xlink:href="#CMSS17-31"/>
      <use transform="translate(496.502708 0)scale(0.996264)" xlink:href="#CMSS17-30"/>
     </g>
    </g>
    <g id="line2d_40">
     <path d="M 481.545247 128.908936 
L 501.545247 128.908936 
" style="fill:none;stroke:#e377c2;stroke-linecap:square;stroke-width:1.5;"/>
    </g>
    <g id="line2d_41"/>
    <g id="text_23">
     <!-- choco-solver 2019-09-16 -->
     <g transform="translate(509.545247 132.408936)scale(0.1 -0.1)">
      <use transform="scale(0.996264)" xlink:href="#CMSS17-63"/>
      <use transform="translate(41.638822 0)scale(0.996264)" xlink:href="#CMSS17-68"/>
      <use transform="translate(89.843765 0)scale(0.996264)" xlink:href="#CMSS17-6f"/>
      <use transform="translate(139.289827 0)scale(0.996264)" xlink:href="#CMSS17-63"/>
      <use transform="translate(180.92865 0)scale(0.996264)" xlink:href="#CMSS17-6f"/>
      <use transform="translate(227.772273 0)scale(0.996264)" xlink:href="#CMSS17-2d"/>
      <use transform="translate(259.001386 0)scale(0.996264)" xlink:href="#CMSS17-73"/>
      <use transform="translate(294.914928 0)scale(0.996264)" xlink:href="#CMSS17-6f"/>
      <use transform="translate(341.758551 0)scale(0.996264)" xlink:href="#CMSS17-6c"/>
      <use transform="translate(363.939274 0)scale(0.996264)" xlink:href="#CMSS17-76"/>
      <use transform="translate(406.939416 0)scale(0.996264)" xlink:href="#CMSS17-65"/>
      <use transform="translate(448.578238 0)scale(0.996264)" xlink:href="#CMSS17-72"/>
      <use transform="translate(511.717123 0)scale(0.996264)" xlink:href="#CMSS17-32"/>
      <use transform="translate(558.560747 0)scale(0.996264)" xlink:href="#CMSS17-30"/>
      <use transform="translate(605.40437 0)scale(0.996264)" xlink:href="#CMSS17-31"/>
      <use transform="translate(652.247994 0)scale(0.996264)" xlink:href="#CMSS17-39"/>
      <use transform="translate(699.091617 0)scale(0.996264)" xlink:href="#CMSS17-2d"/>
      <use transform="translate(730.32073 0)scale(0.996264)" xlink:href="#CMSS17-30"/>
      <use transform="translate(777.164354 0)scale(0.996264)" xlink:href="#CMSS17-39"/>
      <use transform="translate(824.007977 0)scale(0.996264)" xlink:href="#CMSS17-2d"/>
      <use transform="translate(855.23709 0)scale(0.996264)" xlink:href="#CMSS17-31"/>
      <use transform="translate(902.080714 0)scale(0.996264)" xlink:href="#CMSS17-36"/>
     </g>
    </g>
    <g id="line2d_42">
     <path d="M 481.545247 142.846114 
L 501.545247 142.846114 
" style="fill:none;stroke:#7f7f7f;stroke-linecap:square;stroke-width:1.5;"/>
    </g>
    <g id="line2d_43"/>
    <g id="text_24">
     <!-- choco-solver 2019-09-20 -->
     <g transform="translate(509.545247 146.346114)scale(0.1 -0.1)">
      <use transform="scale(0.996264)" xlink:href="#CMSS17-63"/>
      <use transform="translate(41.638822 0)scale(0.996264)" xlink:href="#CMSS17-68"/>
      <use transform="translate(89.843765 0)scale(0.996264)" xlink:href="#CMSS17-6f"/>
      <use transform="translate(139.289827 0)scale(0.996264)" xlink:href="#CMSS17-63"/>
      <use transform="translate(180.92865 0)scale(0.996264)" xlink:href="#CMSS17-6f"/>
      <use transform="translate(227.772273 0)scale(0.996264)" xlink:href="#CMSS17-2d"/>
      <use transform="translate(259.001386 0)scale(0.996264)" xlink:href="#CMSS17-73"/>
      <use transform="translate(294.914928 0)scale(0.996264)" xlink:href="#CMSS17-6f"/>
      <use transform="translate(341.758551 0)scale(0.996264)" xlink:href="#CMSS17-6c"/>
      <use transform="translate(363.939274 0)scale(0.996264)" xlink:href="#CMSS17-76"/>
      <use transform="translate(406.939416 0)scale(0.996264)" xlink:href="#CMSS17-65"/>
      <use transform="translate(448.578238 0)scale(0.996264)" xlink:href="#CMSS17-72"/>
      <use transform="translate(511.717123 0)scale(0.996264)" xlink:href="#CMSS17-32"/>
      <use transform="translate(558.560747 0)scale(0.996264)" xlink:href="#CMSS17-30"/>
      <use transform="translate(605.40437 0)scale(0.996264)" xlink:href="#CMSS17-31"/>
      <use transform="translate(652.247994 0)scale(0.996264)" xlink:href="#CMSS17-39"/>
      <use transform="translate(699.091617 0)scale(0.996264)" xlink:href="#CMSS17-2d"/>
      <use transform="translate(730.32073 0)scale(0.996264)" xlink:href="#CMSS17-30"/>
      <use transform="translate(777.164354 0)scale(0.996264)" xlink:href="#CMSS17-39"/>
      <use transform="translate(824.007977 0)scale(0.996264)" xlink:href="#CMSS17-2d"/>
      <use transform="translate(855.23709 0)scale(0.996264)" xlink:href="#CMSS17-32"/>
      <use transform="translate(902.080714 0)scale(0.996264)" xlink:href="#CMSS17-30"/>
     </g>
    </g>
    <g id="line2d_44">
     <path d="M 481.545247 156.783293 
L 501.545247 156.783293 
" style="fill:none;stroke:#bcbd22;stroke-linecap:square;stroke-width:1.5;"/>
    </g>
    <g id="line2d_45"/>
    <g id="text_25">
     <!-- Concrete 3.12.3 -->
     <g transform="translate(509.545247 160.283293)scale(0.1 -0.1)">
      <use transform="scale(0.996264)" xlink:href="#CMSS17-43"/>
      <use transform="translate(59.855772 0)scale(0.996264)" xlink:href="#CMSS17-6f"/>
      <use transform="translate(106.699395 0)scale(0.996264)" xlink:href="#CMSS17-6e"/>
      <use transform="translate(154.904338 0)scale(0.996264)" xlink:href="#CMSS17-63"/>
      <use transform="translate(196.54316 0)scale(0.996264)" xlink:href="#CMSS17-72"/>
      <use transform="translate(228.452933 0)scale(0.996264)" xlink:href="#CMSS17-65"/>
      <use transform="translate(270.091755 0)scale(0.996264)" xlink:href="#CMSS17-74"/>
      <use transform="translate(303.923322 0)scale(0.996264)" xlink:href="#CMSS17-65"/>
      <use transform="translate(376.791256 0)scale(0.996264)" xlink:href="#CMSS17-33"/>
      <use transform="translate(423.63488 0)scale(0.996264)" xlink:href="#CMSS17-2e"/>
      <use transform="translate(449.659085 0)scale(0.996264)" xlink:href="#CMSS17-31"/>
      <use transform="translate(496.502708 0)scale(0.996264)" xlink:href="#CMSS17-32"/>
      <use transform="translate(543.346332 0)scale(0.996264)" xlink:href="#CMSS17-2e"/>
      <use transform="translate(569.370537 0)scale(0.996264)" xlink:href="#CMSS17-33"/>
     </g>
    </g>
    <g id="line2d_46">
     <path d="M 481.545247 170.720471 
L 501.545247 170.720471 
" style="fill:none;stroke:#17becf;stroke-linecap:square;stroke-width:1.5;"/>
    </g>
    <g id="line2d_47"/>
    <g id="text_26">
     <!-- choco-solver 2019-09-24 -->
     <g transform="translate(509.545247 174.220471)scale(0.1 -0.1)">
      <use transform="scale(0.996264)" xlink:href="#CMSS17-63"/>
      <use transform="translate(41.638822 0)scale(0.996264)" xlink:href="#CMSS17-68"/>
      <use transform="translate(89.843765 0)scale(0.996264)" xlink:href="#CMSS17-6f"/>
      <use transform="translate(139.289827 0)scale(0.996264)" xlink:href="#CMSS17-63"/>
      <use transform="translate(180.92865 0)scale(0.996264)" xlink:href="#CMSS17-6f"/>
      <use transform="translate(227.772273 0)scale(0.996264)" xlink:href="#CMSS17-2d"/>
      <use transform="translate(259.001386 0)scale(0.996264)" xlink:href="#CMSS17-73"/>
      <use transform="translate(294.914928 0)scale(0.996264)" xlink:href="#CMSS17-6f"/>
      <use transform="translate(341.758551 0)scale(0.996264)" xlink:href="#CMSS17-6c"/>
      <use transform="translate(363.939274 0)scale(0.996264)" xlink:href="#CMSS17-76"/>
      <use transform="translate(406.939416 0)scale(0.996264)" xlink:href="#CMSS17-65"/>
      <use transform="translate(448.578238 0)scale(0.996264)" xlink:href="#CMSS17-72"/>
      <use transform="translate(511.717123 0)scale(0.996264)" xlink:href="#CMSS17-32"/>
      <use transform="translate(558.560747 0)scale(0.996264)" xlink:href="#CMSS17-30"/>
      <use transform="translate(605.40437 0)scale(0.996264)" xlink:href="#CMSS17-31"/>
      <use transform="translate(652.247994 0)scale(0.996264)" xlink:href="#CMSS17-39"/>
      <use transform="translate(699.091617 0)scale(0.996264)" xlink:href="#CMSS17-2d"/>
      <use transform="translate(730.32073 0)scale(0.996264)" xlink:href="#CMSS17-30"/>
      <use transform="translate(777.164354 0)scale(0.996264)" xlink:href="#CMSS17-39"/>
      <use transform="translate(824.007977 0)scale(0.996264)" xlink:href="#CMSS17-2d"/>
      <use transform="translate(855.23709 0)scale(0.996264)" xlink:href="#CMSS17-32"/>
      <use transform="translate(902.080714 0)scale(0.996264)" xlink:href="#CMSS17-34"/>
     </g>
    </g>
    <g id="line2d_48">
     <path d="M 481.545247 184.657649 
L 501.545247 184.657649 
" style="fill:none;stroke:#1f77b4;stroke-linecap:square;stroke-width:1.5;"/>
    </g>
    <g id="line2d_49"/>
    <g id="text_27">
     <!-- BTD 19.07.01 -->
     <g transform="translate(509.545247 188.157649)scale(0.1 -0.1)">
      <use transform="scale(0.996264)" xlink:href="#CMSS17-42"/>
      <use transform="translate(62.33804 0)scale(0.996264)" xlink:href="#CMSS17-54"/>
      <use transform="translate(126.157494 0)scale(0.996264)" xlink:href="#CMSS17-44"/>
      <use transform="translate(224.929449 0)scale(0.996264)" xlink:href="#CMSS17-31"/>
      <use transform="translate(271.773072 0)scale(0.996264)" xlink:href="#CMSS17-39"/>
      <use transform="translate(318.616696 0)scale(0.996264)" xlink:href="#CMSS17-2e"/>
      <use transform="translate(344.6409 0)scale(0.996264)" xlink:href="#CMSS17-30"/>
      <use transform="translate(391.484524 0)scale(0.996264)" xlink:href="#CMSS17-37"/>
      <use transform="translate(438.328147 0)scale(0.996264)" xlink:href="#CMSS17-2e"/>
      <use transform="translate(464.352352 0)scale(0.996264)" xlink:href="#CMSS17-30"/>
      <use transform="translate(511.195976 0)scale(0.996264)" xlink:href="#CMSS17-31"/>
     </g>
    </g>
    <g id="line2d_50">
     <path d="M 481.545247 198.594828 
L 501.545247 198.594828 
" style="fill:none;stroke:#ff7f0e;stroke-linecap:square;stroke-width:1.5;"/>
    </g>
    <g id="line2d_51"/>
    <g id="text_28">
     <!-- cosoco 2 -->
     <g transform="translate(509.545247 202.094828)scale(0.1 -0.1)">
      <use transform="scale(0.996264)" xlink:href="#CMSS17-63"/>
      <use transform="translate(41.638822 0)scale(0.996264)" xlink:href="#CMSS17-6f"/>
      <use transform="translate(88.482446 0)scale(0.996264)" xlink:href="#CMSS17-73"/>
      <use transform="translate(124.395988 0)scale(0.996264)" xlink:href="#CMSS17-6f"/>
      <use transform="translate(173.84205 0)scale(0.996264)" xlink:href="#CMSS17-63"/>
      <use transform="translate(215.480872 0)scale(0.996264)" xlink:href="#CMSS17-6f"/>
      <use transform="translate(293.553608 0)scale(0.996264)" xlink:href="#CMSS17-32"/>
     </g>
    </g>
   </g>
  </g>
 </g>
 <defs>
  <clipPath id="pb156ddb040">
   <rect height="190.26" width="390.6" x="42.885247" y="20.810347"/>
  </clipPath>
 </defs>
</svg>
