<?xml version="1.0" encoding="utf-8" standalone="no"?>
<!DOCTYPE svg PUBLIC "-//W3C//DTD SVG 1.1//EN"
  "http://www.w3.org/Graphics/SVG/1.1/DTD/svg11.dtd">
<svg height="247.867265pt" version="1.1" viewBox="0 0 637.003964 247.867265" width="637.003964pt" xmlns="http://www.w3.org/2000/svg" xmlns:xlink="http://www.w3.org/1999/xlink">
 <metadata>
  <rdf:RDF xmlns:cc="http://creativecommons.org/ns#" xmlns:dc="http://purl.org/dc/elements/1.1/" xmlns:rdf="http://www.w3.org/1999/02/22-rdf-syntax-ns#">
   <cc:Work>
    <dc:type rdf:resource="http://purl.org/dc/dcmitype/StillImage"/>
    <dc:date>2021-04-25T21:41:33.492814</dc:date>
    <dc:format>image/svg+xml</dc:format>
    <dc:creator>
     <cc:Agent>
      <dc:title>Matplotlib v3.4.1, https://matplotlib.org/</dc:title>
     </cc:Agent>
    </dc:creator>
   </cc:Work>
  </rdf:RDF>
 </metadata>
 <defs>
  <style type="text/css">*{stroke-linecap:butt;stroke-linejoin:round;}</style>
 </defs>
 <g id="figure_1">
  <g id="patch_1">
   <path d="M 0 247.867265 
L 637.003964 247.867265 
L 637.003964 0 
L 0 0 
z
" style="fill:none;"/>
  </g>
  <g id="axes_1">
   <g id="patch_2">
    <path d="M 47.866582 211.070347 
L 438.466582 211.070347 
L 438.466582 20.810347 
L 47.866582 20.810347 
z
" style="fill:none;"/>
   </g>
   <g id="matplotlib.axis_1">
    <g id="xtick_1">
     <g id="line2d_1">
      <defs>
       <path d="M 0 0 
L 0 3.5 
" id="m6a6f9304a9" style="stroke:#000000;stroke-width:0.8;"/>
      </defs>
      <g>
       <use style="stroke:#000000;stroke-width:0.8;" x="47.866582" xlink:href="#m6a6f9304a9" y="211.070347"/>
      </g>
     </g>
     <g id="text_1">
      <!-- $\mathdefault{50}$ -->
      <g transform="translate(42.885247 224.988845)scale(0.1 -0.1)">
       <defs>
        <path d="M 730 3692 
C 794 3666 1056 3584 1325 3584 
C 1920 3584 2246 3911 2432 4100 
C 2432 4157 2432 4192 2394 4192 
C 2387 4192 2374 4192 2323 4163 
C 2099 4058 1837 3973 1517 3973 
C 1325 3973 1037 3999 723 4139 
C 653 4171 640 4171 634 4171 
C 602 4171 595 4164 595 4037 
L 595 2203 
C 595 2089 595 2057 659 2057 
C 691 2057 704 2070 736 2114 
C 941 2401 1222 2522 1542 2522 
C 1766 2522 2246 2382 2246 1289 
C 2246 1085 2246 715 2054 421 
C 1894 159 1645 25 1370 25 
C 947 25 518 320 403 814 
C 429 807 480 795 506 795 
C 589 795 749 840 749 1038 
C 749 1210 627 1280 506 1280 
C 358 1280 262 1190 262 1011 
C 262 454 704 -128 1382 -128 
C 2042 -128 2669 440 2669 1264 
C 2669 2030 2170 2624 1549 2624 
C 1222 2624 947 2503 730 2274 
L 730 3692 
z
" id="CMR17-35" transform="scale(0.015625)"/>
        <path d="M 2688 2025 
C 2688 2416 2682 3080 2413 3591 
C 2176 4039 1798 4198 1466 4198 
C 1158 4198 768 4058 525 3597 
C 269 3118 243 2524 243 2025 
C 243 1661 250 1106 448 619 
C 723 -39 1216 -128 1466 -128 
C 1760 -128 2208 -7 2470 600 
C 2662 1042 2688 1559 2688 2025 
z
M 1466 -26 
C 1056 -26 813 325 723 812 
C 653 1188 653 1738 653 2096 
C 653 2588 653 2997 736 3387 
C 858 3929 1216 4096 1466 4096 
C 1728 4096 2067 3923 2189 3400 
C 2272 3036 2278 2607 2278 2096 
C 2278 1680 2278 1169 2202 792 
C 2067 95 1690 -26 1466 -26 
z
" id="CMR17-30" transform="scale(0.015625)"/>
       </defs>
       <use transform="scale(0.996264)" xlink:href="#CMR17-35"/>
       <use transform="translate(45.690477 0)scale(0.996264)" xlink:href="#CMR17-30"/>
      </g>
     </g>
    </g>
    <g id="xtick_2">
     <g id="line2d_2">
      <g>
       <use style="stroke:#000000;stroke-width:0.8;" x="131.524753" xlink:href="#m6a6f9304a9" y="211.070347"/>
      </g>
     </g>
     <g id="text_2">
      <!-- $\mathdefault{100}$ -->
      <g transform="translate(124.05275 224.988845)scale(0.1 -0.1)">
       <defs>
        <path d="M 1702 4058 
C 1702 4192 1696 4192 1606 4192 
C 1357 3916 979 3827 621 3827 
C 602 3827 570 3827 563 3808 
C 557 3795 557 3782 557 3648 
C 755 3648 1088 3686 1344 3839 
L 1344 461 
C 1344 236 1331 160 781 160 
L 589 160 
L 589 0 
C 896 0 1216 0 1523 0 
C 1830 0 2150 0 2458 0 
L 2458 160 
L 2266 160 
C 1715 160 1702 230 1702 458 
L 1702 4058 
z
" id="CMR17-31" transform="scale(0.015625)"/>
       </defs>
       <use transform="scale(0.996264)" xlink:href="#CMR17-31"/>
       <use transform="translate(45.690477 0)scale(0.996264)" xlink:href="#CMR17-30"/>
       <use transform="translate(91.380954 0)scale(0.996264)" xlink:href="#CMR17-30"/>
      </g>
     </g>
    </g>
    <g id="xtick_3">
     <g id="line2d_3">
      <g>
       <use style="stroke:#000000;stroke-width:0.8;" x="215.182924" xlink:href="#m6a6f9304a9" y="211.070347"/>
      </g>
     </g>
     <g id="text_3">
      <!-- $\mathdefault{150}$ -->
      <g transform="translate(207.710921 224.988845)scale(0.1 -0.1)">
       <use transform="scale(0.996264)" xlink:href="#CMR17-31"/>
       <use transform="translate(45.690477 0)scale(0.996264)" xlink:href="#CMR17-35"/>
       <use transform="translate(91.380954 0)scale(0.996264)" xlink:href="#CMR17-30"/>
      </g>
     </g>
    </g>
    <g id="xtick_4">
     <g id="line2d_4">
      <g>
       <use style="stroke:#000000;stroke-width:0.8;" x="298.841095" xlink:href="#m6a6f9304a9" y="211.070347"/>
      </g>
     </g>
     <g id="text_4">
      <!-- $\mathdefault{200}$ -->
      <g transform="translate(291.369092 224.988845)scale(0.1 -0.1)">
       <defs>
        <path d="M 2669 989 
L 2554 989 
C 2490 536 2438 459 2413 420 
C 2381 369 1920 369 1830 369 
L 602 369 
C 832 619 1280 1072 1824 1597 
C 2214 1967 2669 2402 2669 3035 
C 2669 3790 2067 4224 1395 4224 
C 691 4224 262 3604 262 3030 
C 262 2780 448 2748 525 2748 
C 589 2748 781 2787 781 3010 
C 781 3207 614 3264 525 3264 
C 486 3264 448 3258 422 3245 
C 544 3790 915 4058 1306 4058 
C 1862 4058 2227 3617 2227 3035 
C 2227 2479 1901 2000 1536 1584 
L 262 146 
L 262 0 
L 2515 0 
L 2669 989 
z
" id="CMR17-32" transform="scale(0.015625)"/>
       </defs>
       <use transform="scale(0.996264)" xlink:href="#CMR17-32"/>
       <use transform="translate(45.690477 0)scale(0.996264)" xlink:href="#CMR17-30"/>
       <use transform="translate(91.380954 0)scale(0.996264)" xlink:href="#CMR17-30"/>
      </g>
     </g>
    </g>
    <g id="xtick_5">
     <g id="line2d_5">
      <g>
       <use style="stroke:#000000;stroke-width:0.8;" x="382.499266" xlink:href="#m6a6f9304a9" y="211.070347"/>
      </g>
     </g>
     <g id="text_5">
      <!-- $\mathdefault{250}$ -->
      <g transform="translate(375.027263 224.988845)scale(0.1 -0.1)">
       <use transform="scale(0.996264)" xlink:href="#CMR17-32"/>
       <use transform="translate(45.690477 0)scale(0.996264)" xlink:href="#CMR17-35"/>
       <use transform="translate(91.380954 0)scale(0.996264)" xlink:href="#CMR17-30"/>
      </g>
     </g>
    </g>
    <g id="text_6">
     <!-- Number of solved inputs -->
     <g transform="translate(187.093387 238.53637)scale(0.11 -0.11)">
      <defs>
       <path d="M 1466 4180 
L 1350 4416 
L 563 4416 
L 563 0 
L 1062 0 
L 1062 3926 
L 1069 3932 
C 1114 3817 1139 3760 1402 3194 
L 2771 236 
L 2886 0 
L 3674 0 
L 3674 4416 
L 3174 4416 
L 3174 490 
L 3168 483 
C 3123 598 3098 655 2835 1221 
L 1466 4180 
z
" id="CMSS17-4e" transform="scale(0.015625)"/>
       <path d="M 2618 2739 
L 2131 2739 
L 2131 972 
C 2131 498 1786 306 1421 306 
C 998 306 960 447 960 709 
L 960 2739 
L 474 2739 
L 474 678 
C 474 179 646 -64 1088 -64 
C 1306 -64 1798 -13 2144 306 
L 2144 0 
L 2618 0 
L 2618 2739 
z
" id="CMSS17-75" transform="scale(0.015625)"/>
       <path d="M 4288 1877 
C 4288 2308 4179 2816 3462 2816 
C 2982 2816 2694 2516 2566 2331 
C 2451 2670 2182 2816 1798 2816 
C 1363 2816 1088 2568 941 2389 
L 941 2758 
L 474 2758 
L 474 0 
L 960 0 
L 960 1559 
C 960 1939 1101 2428 1555 2428 
C 2138 2428 2138 2016 2138 1829 
L 2138 0 
L 2624 0 
L 2624 1559 
C 2624 1939 2765 2428 3219 2428 
C 3802 2428 3802 2016 3802 1829 
L 3802 0 
L 4288 0 
L 4288 1877 
z
" id="CMSS17-6d" transform="scale(0.015625)"/>
       <path d="M 954 4416 
L 480 4416 
L 480 -13 
L 966 -13 
L 966 274 
C 1210 38 1504 -64 1766 -64 
C 2381 -64 2880 549 2880 1352 
C 2880 2086 2496 2756 1926 2756 
C 1523 2756 1165 2591 954 2419 
L 954 4416 
z
M 966 2046 
C 1107 2222 1306 2368 1587 2368 
C 1965 2368 2394 2097 2394 1352 
C 2394 558 1882 325 1530 325 
C 1402 325 1267 356 1139 464 
C 966 615 966 709 966 797 
L 966 2046 
z
" id="CMSS17-62" transform="scale(0.015625)"/>
       <path d="M 2502 1377 
C 2502 1590 2490 2003 2285 2345 
C 2061 2713 1696 2816 1421 2816 
C 755 2816 192 2188 192 1375 
C 192 582 774 -64 1510 -64 
C 1798 -64 2150 19 2470 248 
C 2470 274 2458 414 2451 420 
C 2451 433 2432 630 2432 656 
C 2125 407 1773 325 1517 325 
C 1107 325 666 667 646 1377 
L 2502 1377 
z
M 698 1728 
C 781 2084 1062 2421 1421 2421 
C 1517 2421 1965 2421 2080 1728 
L 698 1728 
z
" id="CMSS17-65" transform="scale(0.015625)"/>
       <path d="M 954 1363 
C 954 1965 1395 2368 1958 2368 
L 1958 2789 
C 1549 2789 1165 2585 934 2253 
L 934 2758 
L 480 2758 
L 480 0 
L 954 0 
L 954 1363 
z
" id="CMSS17-72" transform="scale(0.015625)"/>
       <path d="M 2829 1356 
C 2829 2176 2221 2816 1504 2816 
C 768 2816 173 2157 173 1356 
C 173 544 787 -64 1498 -64 
C 2227 -64 2829 563 2829 1356 
z
M 1504 337 
C 1050 337 659 709 659 1408 
C 659 2151 1114 2427 1498 2427 
C 1914 2427 2342 2126 2342 1408 
C 2342 683 1926 337 1504 337 
z
" id="CMSS17-6f" transform="scale(0.015625)"/>
       <path d="M 1075 2368 
L 1722 2368 
L 1722 2737 
L 1062 2737 
L 1062 3559 
C 1062 4014 1408 4092 1606 4092 
C 1670 4092 1850 4092 2080 4009 
L 2080 4429 
C 1933 4461 1754 4480 1613 4480 
C 1018 4480 602 3993 602 3359 
L 602 2737 
L 160 2737 
L 160 2368 
L 602 2368 
L 602 0 
L 1075 0 
L 1075 2368 
z
" id="CMSS17-66" transform="scale(0.015625)"/>
       <path d="M 2061 2627 
C 1683 2807 1389 2807 1197 2807 
C 742 2807 198 2648 198 2003 
C 198 1359 902 1218 1094 1179 
C 1389 1122 1715 1058 1715 740 
C 1715 337 1254 337 1171 337 
C 915 337 563 407 243 638 
L 166 210 
C 531 0 883 -64 1178 -64 
C 1965 -64 2163 416 2163 781 
C 2163 1094 1984 1305 1862 1401 
C 1651 1568 1574 1587 1050 1696 
C 960 1709 646 1779 646 2066 
C 646 2432 1050 2432 1139 2432 
C 1555 2432 1811 2303 1984 2208 
L 2061 2627 
z
" id="CMSS17-73" transform="scale(0.015625)"/>
       <path d="M 947 4416 
L 474 4416 
L 474 0 
L 947 0 
L 947 4416 
z
" id="CMSS17-6c" transform="scale(0.015625)"/>
       <path d="M 2675 2752 
L 2176 2752 
L 1747 1556 
C 1613 1165 1421 627 1389 352 
L 1382 352 
C 1370 468 1318 634 1286 749 
C 1248 890 1197 1056 1158 1172 
L 595 2752 
L 83 2752 
L 1094 0 
L 1664 0 
L 2675 2752 
z
" id="CMSS17-76" transform="scale(0.015625)"/>
       <path d="M 2611 4416 
L 2138 4416 
L 2138 2438 
C 1939 2603 1613 2756 1254 2756 
C 672 2756 211 2131 211 1347 
C 211 562 666 -64 1235 -64 
C 1677 -64 1971 172 2125 306 
L 2125 -13 
L 2611 -13 
L 2611 4416 
z
M 2125 836 
C 2125 747 2125 653 1926 482 
C 1798 375 1645 325 1498 325 
C 1152 325 698 576 698 1340 
C 698 2134 1210 2368 1562 2368 
C 1798 2368 1990 2254 2125 2065 
L 2125 836 
z
" id="CMSS17-64" transform="scale(0.015625)"/>
       <path d="M 979 4183 
L 442 4183 
L 442 3648 
L 979 3648 
L 979 4183 
z
M 947 2739 
L 474 2739 
L 474 0 
L 947 0 
L 947 2739 
z
" id="CMSS17-69" transform="scale(0.015625)"/>
       <path d="M 2618 1877 
C 2618 2283 2522 2816 1798 2816 
C 1389 2816 1120 2606 941 2389 
L 941 2758 
L 474 2758 
L 474 0 
L 960 0 
L 960 1559 
C 960 1964 1114 2428 1549 2428 
C 2112 2428 2131 2048 2131 1829 
L 2131 0 
L 2618 0 
L 2618 1877 
z
" id="CMSS17-6e" transform="scale(0.015625)"/>
       <path d="M 966 333 
C 1178 129 1466 -5 1773 -5 
C 2368 -5 2880 603 2880 1412 
C 2880 2159 2496 2816 1946 2816 
C 1626 2816 1242 2702 954 2472 
L 954 2765 
L 480 2765 
L 480 -1216 
L 966 -1216 
L 966 333 
z
M 966 2100 
C 1018 2176 1235 2415 1587 2415 
C 2035 2415 2394 1960 2394 1412 
C 2394 787 1958 384 1530 384 
C 1402 384 1267 415 1139 523 
C 966 674 966 768 966 857 
L 966 2100 
z
" id="CMSS17-70" transform="scale(0.015625)"/>
       <path d="M 1069 2368 
L 1901 2368 
L 1901 2737 
L 1069 2737 
L 1069 3520 
L 614 3520 
L 614 2737 
L 109 2737 
L 109 2368 
L 602 2368 
L 602 749 
C 602 384 685 -64 1107 -64 
C 1427 -64 1722 25 2003 172 
L 1901 548 
C 1747 414 1562 337 1363 337 
C 1082 337 1069 696 1069 856 
L 1069 2368 
z
" id="CMSS17-74" transform="scale(0.015625)"/>
      </defs>
      <use transform="scale(0.996264)" xlink:href="#CMSS17-4e"/>
      <use transform="translate(66.061519 0)scale(0.996264)" xlink:href="#CMSS17-75"/>
      <use transform="translate(114.266462 0)scale(0.996264)" xlink:href="#CMSS17-6d"/>
      <use transform="translate(188.495717 0)scale(0.996264)" xlink:href="#CMSS17-62"/>
      <use transform="translate(239.303099 0)scale(0.996264)" xlink:href="#CMSS17-65"/>
      <use transform="translate(280.941921 0)scale(0.996264)" xlink:href="#CMSS17-72"/>
      <use transform="translate(344.080806 0)scale(0.996264)" xlink:href="#CMSS17-6f"/>
      <use transform="translate(390.92443 0)scale(0.996264)" xlink:href="#CMSS17-66"/>
      <use transform="translate(450.780201 0)scale(0.996264)" xlink:href="#CMSS17-73"/>
      <use transform="translate(486.693743 0)scale(0.996264)" xlink:href="#CMSS17-6f"/>
      <use transform="translate(533.537367 0)scale(0.996264)" xlink:href="#CMSS17-6c"/>
      <use transform="translate(555.71809 0)scale(0.996264)" xlink:href="#CMSS17-76"/>
      <use transform="translate(598.718231 0)scale(0.996264)" xlink:href="#CMSS17-65"/>
      <use transform="translate(640.357053 0)scale(0.996264)" xlink:href="#CMSS17-64"/>
      <use transform="translate(719.791109 0)scale(0.996264)" xlink:href="#CMSS17-69"/>
      <use transform="translate(741.971832 0)scale(0.996264)" xlink:href="#CMSS17-6e"/>
      <use transform="translate(790.176775 0)scale(0.996264)" xlink:href="#CMSS17-70"/>
      <use transform="translate(838.381719 0)scale(0.996264)" xlink:href="#CMSS17-75"/>
      <use transform="translate(886.586662 0)scale(0.996264)" xlink:href="#CMSS17-74"/>
      <use transform="translate(920.418228 0)scale(0.996264)" xlink:href="#CMSS17-73"/>
     </g>
    </g>
   </g>
   <g id="matplotlib.axis_2">
    <g id="ytick_1">
     <g id="line2d_6">
      <defs>
       <path d="M 0 0 
L -3.5 0 
" id="m9f38eb5130" style="stroke:#000000;stroke-width:0.8;"/>
      </defs>
      <g>
       <use style="stroke:#000000;stroke-width:0.8;" x="47.866582" xlink:href="#m9f38eb5130" y="202.422574"/>
      </g>
     </g>
     <g id="text_7">
      <!-- $\mathdefault{0}$ -->
      <g transform="translate(35.885247 205.881823)scale(0.1 -0.1)">
       <use transform="scale(0.996264)" xlink:href="#CMR17-30"/>
      </g>
     </g>
    </g>
    <g id="ytick_2">
     <g id="line2d_7">
      <g>
       <use style="stroke:#000000;stroke-width:0.8;" x="47.866582" xlink:href="#m9f38eb5130" y="168.044422"/>
      </g>
     </g>
     <g id="text_8">
      <!-- $\mathdefault{500}$ -->
      <g transform="translate(25.922577 171.503671)scale(0.1 -0.1)">
       <use transform="scale(0.996264)" xlink:href="#CMR17-35"/>
       <use transform="translate(45.690477 0)scale(0.996264)" xlink:href="#CMR17-30"/>
       <use transform="translate(91.380954 0)scale(0.996264)" xlink:href="#CMR17-30"/>
      </g>
     </g>
    </g>
    <g id="ytick_3">
     <g id="line2d_8">
      <g>
       <use style="stroke:#000000;stroke-width:0.8;" x="47.866582" xlink:href="#m9f38eb5130" y="133.66627"/>
      </g>
     </g>
     <g id="text_9">
      <!-- $\mathdefault{1000}$ -->
      <g transform="translate(20.941241 137.125519)scale(0.1 -0.1)">
       <use transform="scale(0.996264)" xlink:href="#CMR17-31"/>
       <use transform="translate(45.690477 0)scale(0.996264)" xlink:href="#CMR17-30"/>
       <use transform="translate(91.380954 0)scale(0.996264)" xlink:href="#CMR17-30"/>
       <use transform="translate(137.071431 0)scale(0.996264)" xlink:href="#CMR17-30"/>
      </g>
     </g>
    </g>
    <g id="ytick_4">
     <g id="line2d_9">
      <g>
       <use style="stroke:#000000;stroke-width:0.8;" x="47.866582" xlink:href="#m9f38eb5130" y="99.288118"/>
      </g>
     </g>
     <g id="text_10">
      <!-- $\mathdefault{1500}$ -->
      <g transform="translate(20.941241 102.747367)scale(0.1 -0.1)">
       <use transform="scale(0.996264)" xlink:href="#CMR17-31"/>
       <use transform="translate(45.690477 0)scale(0.996264)" xlink:href="#CMR17-35"/>
       <use transform="translate(91.380954 0)scale(0.996264)" xlink:href="#CMR17-30"/>
       <use transform="translate(137.071431 0)scale(0.996264)" xlink:href="#CMR17-30"/>
      </g>
     </g>
    </g>
    <g id="ytick_5">
     <g id="line2d_10">
      <g>
       <use style="stroke:#000000;stroke-width:0.8;" x="47.866582" xlink:href="#m9f38eb5130" y="64.909966"/>
      </g>
     </g>
     <g id="text_11">
      <!-- $\mathdefault{2000}$ -->
      <g transform="translate(20.941241 68.369216)scale(0.1 -0.1)">
       <use transform="scale(0.996264)" xlink:href="#CMR17-32"/>
       <use transform="translate(45.690477 0)scale(0.996264)" xlink:href="#CMR17-30"/>
       <use transform="translate(91.380954 0)scale(0.996264)" xlink:href="#CMR17-30"/>
       <use transform="translate(137.071431 0)scale(0.996264)" xlink:href="#CMR17-30"/>
      </g>
     </g>
    </g>
    <g id="ytick_6">
     <g id="line2d_11">
      <g>
       <use style="stroke:#000000;stroke-width:0.8;" x="47.866582" xlink:href="#m9f38eb5130" y="30.531814"/>
      </g>
     </g>
     <g id="text_12">
      <!-- $\mathdefault{2500}$ -->
      <g transform="translate(20.941241 33.991064)scale(0.1 -0.1)">
       <use transform="scale(0.996264)" xlink:href="#CMR17-32"/>
       <use transform="translate(45.690477 0)scale(0.996264)" xlink:href="#CMR17-35"/>
       <use transform="translate(91.380954 0)scale(0.996264)" xlink:href="#CMR17-30"/>
       <use transform="translate(137.071431 0)scale(0.996264)" xlink:href="#CMR17-30"/>
      </g>
     </g>
    </g>
    <g id="text_13">
     <!-- Time -->
     <g transform="translate(14.810347 127.766855)rotate(-90)scale(0.11 -0.11)">
      <defs>
       <path d="M 2317 3968 
L 2848 3968 
C 2925 3968 3002 3968 3078 3968 
L 3878 3968 
L 3878 4376 
L 218 4376 
L 218 3968 
L 1018 3968 
C 1094 3968 1171 3968 1248 3968 
L 1779 3968 
L 1779 -32 
L 2317 -32 
L 2317 3968 
z
" id="CMSS17-54" transform="scale(0.015625)"/>
      </defs>
      <use transform="scale(0.996264)" xlink:href="#CMSS17-54"/>
      <use transform="translate(63.819454 0)scale(0.996264)" xlink:href="#CMSS17-69"/>
      <use transform="translate(86.000177 0)scale(0.996264)" xlink:href="#CMSS17-6d"/>
      <use transform="translate(160.229431 0)scale(0.996264)" xlink:href="#CMSS17-65"/>
     </g>
    </g>
   </g>
   <g id="line2d_12">
    <path clip-path="url(#p7dd9d73df5)" d="M -1 202.419488 
L 56.232399 202.303055 
L 98.061485 202.066128 
L 101.407812 201.970738 
L 163.314858 201.583135 
L 178.373329 201.358226 
L 188.412309 201.223519 
L 218.529251 200.792169 
L 221.875578 200.697451 
L 225.221905 200.644591 
L 228.568232 200.53399 
L 233.587722 200.437696 
L 243.626702 200.123178 
L 253.665683 199.766325 
L 263.704663 199.463523 
L 265.377827 199.301052 
L 275.416807 199.084552 
L 282.109461 198.874109 
L 290.475278 198.729405 
L 292.148441 198.559597 
L 293.821605 198.534625 
L 298.841095 197.991897 
L 300.514259 197.957189 
L 302.187422 197.774662 
L 307.206912 197.67361 
L 313.899566 197.348634 
L 315.572729 197.025232 
L 317.245893 197.004082 
L 318.919056 196.655777 
L 322.265383 196.540713 
L 325.61171 196.139307 
L 327.284873 196.041212 
L 328.958037 194.825484 
L 332.304363 194.375405 
L 337.323854 194.150091 
L 338.997017 193.091794 
L 345.689671 192.694451 
L 347.362834 192.33403 
L 349.035998 192.184485 
L 350.709161 191.837128 
L 357.401815 191.189994 
L 362.421305 191.016797 
L 367.440795 190.905274 
L 374.133449 190.677347 
L 375.806612 190.394965 
L 379.152939 190.171163 
L 380.826103 189.873242 
L 382.499266 189.8247 
L 384.172429 189.625101 
L 385.845593 189.087701 
L 387.518756 188.075265 
L 389.19192 186.857591 
L 390.865083 186.690857 
L 392.538247 184.750485 
L 394.21141 184.099569 
L 395.884573 179.134676 
L 397.557737 177.01767 
L 399.2309 174.185254 
L 400.904064 173.392012 
L 402.577227 173.340789 
L 404.25039 172.013105 
L 405.923554 170.070602 
L 407.596717 168.685231 
L 409.269881 168.551981 
L 410.943044 168.531079 
L 412.616208 168.3442 
L 414.289371 126.543117 
L 415.962534 101.62102 
L 415.962534 101.62102 
" style="fill:none;stroke:#000000;stroke-dasharray:9.6,2.4,1.5,2.4;stroke-dashoffset:0;stroke-width:1.5;"/>
   </g>
   <g id="line2d_13">
    <path clip-path="url(#p7dd9d73df5)" d="M -1 202.00961 
L 2.69117 201.890631 
L 6.037497 201.79478 
L 12.730151 201.70143 
L 27.788621 201.482923 
L 71.29087 200.842472 
L 74.637197 200.506686 
L 77.983524 200.407313 
L 84.676178 200.187169 
L 88.022504 199.959001 
L 94.715158 199.842184 
L 101.407812 199.63311 
L 108.100465 199.468329 
L 109.773629 199.302647 
L 119.812609 199.201706 
L 123.158936 199.111717 
L 126.505263 198.749 
L 128.178426 198.534625 
L 139.89057 198.014277 
L 141.563734 197.968568 
L 144.910061 197.67361 
L 149.929551 197.408273 
L 151.602714 197.025232 
L 154.949041 196.917759 
L 161.641695 196.540713 
L 164.988022 196.235834 
L 166.661185 196.233276 
L 168.334348 195.698586 
L 173.353839 195.056574 
L 178.373329 194.825484 
L 180.046492 194.733694 
L 183.392819 194.277358 
L 188.412309 194.075284 
L 191.758636 193.541322 
L 193.4318 193.477035 
L 196.778127 192.776133 
L 201.797617 192.6829 
L 203.47078 192.349225 
L 206.817107 192.227458 
L 210.163434 192.039616 
L 220.202414 191.478839 
L 221.875578 191.477602 
L 225.221905 191.189994 
L 226.895068 191.188413 
L 228.568232 190.993007 
L 230.241395 190.956291 
L 231.914558 190.755317 
L 233.587722 190.277185 
L 238.607212 190.088587 
L 240.280375 189.795823 
L 241.953539 188.239936 
L 243.626702 188.084134 
L 245.299866 187.707006 
L 246.973029 187.45467 
L 248.646193 186.723035 
L 251.992519 186.690857 
L 255.338846 185.82604 
L 257.01201 185.660612 
L 258.685173 184.750485 
L 260.358336 182.460694 
L 262.0315 181.774437 
L 263.704663 180.63157 
L 265.377827 180.529535 
L 267.05099 180.169527 
L 268.724154 179.186931 
L 270.397317 179.134676 
L 272.07048 178.628424 
L 273.743644 177.01767 
L 278.763134 176.112356 
L 280.436297 176.064501 
L 282.109461 175.416954 
L 283.782624 174.581428 
L 285.455788 174.185254 
L 287.128951 173.392012 
L 288.802115 173.340789 
L 290.475278 172.013105 
L 292.148441 171.37264 
L 293.821605 170.441129 
L 295.494768 170.070602 
L 297.167932 169.264846 
L 305.533749 168.551981 
L 307.206912 168.531079 
L 308.880076 168.3442 
L 310.553239 167.794287 
L 312.226402 167.7377 
L 313.899566 167.100673 
L 320.59222 166.459108 
L 322.265383 166.300075 
L 323.938546 165.583909 
L 325.61171 165.277462 
L 327.284873 164.717717 
L 328.958037 162.479081 
L 330.6312 162.166308 
L 332.304363 161.70736 
L 333.977527 159.39316 
L 335.65069 156.045347 
L 337.323854 155.807106 
L 338.997017 155.761865 
L 340.670181 152.271451 
L 342.343344 150.359544 
L 344.016507 149.245211 
L 345.689671 147.812536 
L 347.362834 147.538817 
L 349.035998 144.497382 
L 350.709161 143.115311 
L 352.382324 126.543117 
L 354.055488 125.607344 
L 355.728651 125.418264 
L 357.401815 125.013289 
L 359.074978 122.760833 
L 360.748142 122.755332 
L 365.767632 104.812687 
L 367.440795 101.62102 
L 369.113959 97.77548 
L 370.787122 82.48339 
L 372.460285 61.446711 
L 374.133449 45.756523 
L 375.806612 34.338163 
L 375.806612 34.338163 
" style="fill:none;stroke:#1f77b4;stroke-linecap:square;stroke-width:1.5;"/>
   </g>
   <g id="line2d_14">
    <path clip-path="url(#p7dd9d73df5)" d="M -1 201.487218 
L 1.018007 201.399253 
L 29.461785 200.917595 
L 32.808112 200.711869 
L 41.173929 200.604781 
L 42.847092 200.540136 
L 44.520256 200.217491 
L 46.193419 200.054187 
L 47.866582 200.047339 
L 49.539746 199.769385 
L 54.559236 199.729225 
L 61.25189 199.368859 
L 89.695668 198.671237 
L 93.041995 198.34879 
L 101.407812 198.209401 
L 104.754139 197.991897 
L 106.427302 197.954411 
L 109.773629 197.387185 
L 111.446792 197.348634 
L 114.793119 196.863991 
L 119.812609 196.697938 
L 128.178426 196.162347 
L 131.524753 196.041212 
L 133.197917 195.866729 
L 136.544244 195.79721 
L 138.217407 195.210657 
L 139.89057 194.950276 
L 143.236897 194.864812 
L 144.910061 194.573698 
L 146.583224 194.548946 
L 148.256387 194.384687 
L 149.929551 194.375405 
L 151.602714 194.033136 
L 158.295368 193.588489 
L 159.968531 193.147555 
L 170.007512 192.901064 
L 171.680675 191.849161 
L 175.027002 191.780611 
L 176.700166 191.475539 
L 180.046492 191.360922 
L 181.719656 191.21179 
L 186.739146 191.105699 
L 190.085473 191.016797 
L 195.104963 190.905274 
L 205.143944 190.394965 
L 208.490271 190.07126 
L 210.163434 189.970257 
L 211.836597 189.625101 
L 213.509761 188.540814 
L 215.182924 188.521699 
L 216.856088 187.36405 
L 223.548741 186.857591 
L 225.221905 186.065656 
L 226.895068 186.064005 
L 228.568232 185.59495 
L 230.241395 185.521724 
L 231.914558 184.5053 
L 233.587722 183.838914 
L 235.260885 183.82805 
L 236.934049 183.453397 
L 238.607212 182.925486 
L 240.280375 182.779242 
L 241.953539 182.272783 
L 243.626702 179.820796 
L 245.299866 179.668569 
L 246.973029 178.938996 
L 248.646193 178.606765 
L 250.319356 176.781492 
L 255.338846 176.035967 
L 257.01201 175.30385 
L 258.685173 175.122884 
L 260.358336 172.479066 
L 265.377827 169.357461 
L 267.05099 165.167727 
L 268.724154 162.715602 
L 270.397317 160.952622 
L 272.07048 160.163918 
L 273.743644 159.91117 
L 275.416807 151.343241 
L 277.089971 150.59366 
L 280.436297 141.908363 
L 282.109461 140.968258 
L 283.782624 133.99575 
L 285.455788 131.603581 
L 288.802115 131.455067 
L 290.475278 130.83076 
L 292.148441 125.771671 
L 293.821605 124.081641 
L 295.494768 116.550076 
L 297.167932 105.237601 
L 298.841095 100.788381 
L 300.514259 100.704498 
L 302.187422 98.628058 
L 303.860585 86.281488 
L 305.533749 81.053259 
L 307.206912 80.560964 
L 308.880076 73.846223 
L 310.553239 63.653101 
L 313.899566 38.649871 
L 313.899566 38.649871 
" style="fill:none;stroke:#ff7f0e;stroke-linecap:square;stroke-width:1.5;"/>
   </g>
   <g id="line2d_15">
    <path clip-path="url(#p7dd9d73df5)" d="M -1 201.458807 
L 9.383824 201.258722 
L 21.095968 201.18208 
L 32.808112 200.792919 
L 34.481275 200.637612 
L 42.847092 200.528248 
L 44.520256 200.269278 
L 47.866582 200.150659 
L 54.559236 199.653744 
L 56.232399 199.644702 
L 57.905563 199.471698 
L 72.964034 199.143373 
L 81.329851 198.821751 
L 89.695668 198.708489 
L 91.368831 198.574181 
L 94.715158 198.43642 
L 103.080975 198.091525 
L 104.754139 197.827295 
L 106.427302 197.810649 
L 108.100465 197.215425 
L 109.773629 196.406391 
L 111.446792 196.212415 
L 113.119956 196.207513 
L 116.466282 195.504658 
L 118.139446 195.315097 
L 119.812609 195.286838 
L 124.8321 194.464651 
L 126.505263 194.21204 
L 129.85159 194.134277 
L 133.197917 193.714863 
L 138.217407 193.091794 
L 144.910061 192.803842 
L 149.929551 192.765201 
L 151.602714 192.041953 
L 153.275878 191.844073 
L 154.949041 191.518443 
L 159.968531 191.301998 
L 161.641695 190.594358 
L 163.314858 190.067754 
L 164.988022 189.822638 
L 168.334348 188.825052 
L 173.353839 187.194015 
L 175.027002 185.725793 
L 176.700166 185.438804 
L 178.373329 184.663577 
L 183.392819 183.848884 
L 185.065983 183.209519 
L 186.739146 182.951339 
L 190.085473 182.728981 
L 191.758636 182.323319 
L 193.4318 180.514409 
L 195.104963 179.24723 
L 196.778127 179.100298 
L 198.45129 177.990503 
L 200.124453 177.985827 
L 201.797617 177.234871 
L 203.47078 177.176291 
L 205.143944 176.891296 
L 211.836597 176.615445 
L 213.509761 176.112493 
L 215.182924 174.673217 
L 216.856088 174.356457 
L 218.529251 173.58123 
L 221.875578 172.788607 
L 223.548741 172.143398 
L 225.221905 171.818456 
L 226.895068 170.980523 
L 228.568232 169.592401 
L 230.241395 168.558444 
L 231.914558 168.474974 
L 233.587722 164.134595 
L 235.260885 163.35538 
L 238.607212 159.703251 
L 240.280375 159.315397 
L 241.953539 157.944877 
L 243.626702 157.552966 
L 245.299866 156.418762 
L 246.973029 151.769461 
L 248.646193 147.715658 
L 250.319356 143.079489 
L 251.992519 139.369399 
L 253.665683 137.380348 
L 255.338846 135.677255 
L 257.01201 134.274007 
L 258.685173 133.735989 
L 260.358336 133.645643 
L 262.0315 117.615111 
L 263.704663 116.206294 
L 265.377827 112.588338 
L 267.05099 110.670037 
L 268.724154 107.386236 
L 270.397317 103.598451 
L 272.07048 95.093984 
L 273.743644 70.963271 
L 275.416807 67.033849 
L 277.089971 66.107014 
L 280.436297 42.654238 
L 282.109461 37.936868 
L 282.109461 37.936868 
" style="fill:none;stroke:#2ca02c;stroke-linecap:square;stroke-width:1.5;"/>
   </g>
   <g id="line2d_16">
    <path clip-path="url(#p7dd9d73df5)" d="M -1 202.128875 
L 26.115458 202.02385 
L 76.31036 201.583135 
L 88.022504 201.487296 
L 96.388321 201.353785 
L 106.427302 201.104344 
L 114.793119 200.716861 
L 128.178426 200.102372 
L 133.197917 199.627685 
L 134.87108 199.613487 
L 138.217407 199.326904 
L 139.89057 199.231023 
L 143.236897 198.828029 
L 148.256387 198.70699 
L 149.929551 198.088479 
L 159.968531 197.385673 
L 163.314858 196.686813 
L 168.334348 196.541758 
L 170.007512 196.450291 
L 171.680675 196.10695 
L 176.700166 195.89692 
L 178.373329 195.881966 
L 180.046492 194.834697 
L 181.719656 194.691753 
L 185.065983 193.822879 
L 186.739146 193.241751 
L 188.412309 192.81168 
L 190.085473 191.670876 
L 191.758636 191.344971 
L 193.4318 189.8247 
L 198.45129 188.458237 
L 200.124453 186.38771 
L 201.797617 185.96754 
L 203.47078 185.83876 
L 205.143944 184.050615 
L 206.817107 184.026137 
L 208.490271 183.543331 
L 210.163434 178.477779 
L 211.836597 178.123202 
L 213.509761 178.091368 
L 215.182924 174.459935 
L 216.856088 172.672546 
L 218.529251 172.591964 
L 220.202414 170.00267 
L 221.875578 168.690594 
L 223.548741 159.717484 
L 225.221905 158.620958 
L 226.895068 156.285857 
L 230.241395 154.86432 
L 231.914558 154.233825 
L 233.587722 139.476797 
L 235.260885 139.104688 
L 236.934049 126.787202 
L 238.607212 116.957113 
L 240.280375 114.109227 
L 241.953539 107.890907 
L 243.626702 95.727229 
L 245.299866 30.07871 
L 245.299866 30.07871 
" style="fill:none;stroke:#d62728;stroke-linecap:square;stroke-width:1.5;"/>
   </g>
   <g id="line2d_17">
    <path clip-path="url(#p7dd9d73df5)" d="M -1 202.162661 
L 46.193419 201.43632 
L 51.212909 201.181791 
L 56.232399 200.991611 
L 61.25189 200.673118 
L 66.27138 200.508055 
L 69.617707 200.375575 
L 77.983524 200.006801 
L 81.329851 199.708048 
L 84.676178 199.602651 
L 88.022504 199.505265 
L 89.695668 199.27348 
L 96.388321 199.006011 
L 101.407812 198.87446 
L 106.427302 198.603196 
L 108.100465 198.268848 
L 109.773629 198.107002 
L 113.119956 198.079348 
L 114.793119 197.84689 
L 116.466282 197.767415 
L 118.139446 197.30364 
L 121.485773 197.241367 
L 123.158936 196.94643 
L 124.8321 196.858711 
L 126.505263 196.604615 
L 128.178426 196.172853 
L 129.85159 196.133799 
L 131.524753 195.821522 
L 133.197917 195.026046 
L 134.87108 195.001087 
L 136.544244 194.554515 
L 139.89057 193.925257 
L 141.563734 193.166944 
L 143.236897 192.96817 
L 146.583224 191.983304 
L 149.929551 191.882645 
L 151.602714 191.339952 
L 156.622205 191.251944 
L 158.295368 189.532761 
L 159.968531 189.432721 
L 161.641695 187.136329 
L 163.314858 186.685494 
L 164.988022 184.982538 
L 166.661185 184.48818 
L 168.334348 183.339743 
L 170.007512 180.170353 
L 171.680675 178.926001 
L 173.353839 178.751566 
L 175.027002 176.69479 
L 176.700166 176.616821 
L 178.373329 175.005517 
L 180.046492 174.150257 
L 181.719656 173.762471 
L 183.392819 172.680866 
L 185.065983 171.747018 
L 186.739146 171.401242 
L 188.412309 170.690921 
L 190.085473 169.838205 
L 191.758636 168.312022 
L 193.4318 166.348479 
L 195.104963 164.596156 
L 198.45129 164.481745 
L 200.124453 163.882122 
L 201.797617 163.815359 
L 203.47078 162.660185 
L 205.143944 162.403036 
L 206.817107 153.133793 
L 208.490271 151.70703 
L 210.163434 147.592516 
L 211.836597 137.471244 
L 213.509761 136.163224 
L 215.182924 126.346474 
L 216.856088 122.46243 
L 218.529251 121.420085 
L 220.202414 115.144009 
L 221.875578 114.84767 
L 223.548741 112.650906 
L 225.221905 111.556306 
L 226.895068 108.176246 
L 228.568232 105.959542 
L 230.241395 78.963755 
L 231.914558 78.960317 
L 233.587722 77.288164 
L 235.260885 65.74398 
L 236.934049 60.99842 
L 238.607212 60.279229 
L 240.280375 54.434256 
L 241.953539 50.266249 
L 243.626702 32.122148 
L 245.299866 29.458529 
L 245.299866 29.458529 
" style="fill:none;stroke:#9467bd;stroke-linecap:square;stroke-width:1.5;"/>
   </g>
   <g id="line2d_18">
    <path clip-path="url(#p7dd9d73df5)" d="M -1 201.715653 
L 22.769131 201.517205 
L 27.788621 201.44125 
L 32.808112 201.326317 
L 39.500765 201.174516 
L 62.925053 200.541236 
L 69.617707 200.435091 
L 79.656687 199.957454 
L 81.329851 199.73971 
L 89.695668 199.545872 
L 91.368831 199.387162 
L 94.715158 199.289645 
L 99.734648 199.13407 
L 101.407812 198.869145 
L 104.754139 198.714203 
L 106.427302 198.64207 
L 108.100465 198.370119 
L 109.773629 198.223131 
L 111.446792 197.87189 
L 116.466282 197.2918 
L 118.139446 197.276838 
L 119.812609 196.977962 
L 128.178426 196.227012 
L 131.524753 195.704024 
L 138.217407 195.252048 
L 139.89057 195.082082 
L 141.563734 194.797912 
L 143.236897 194.692922 
L 144.910061 194.124788 
L 146.583224 193.990232 
L 148.256387 193.673953 
L 149.929551 192.690738 
L 151.602714 192.487976 
L 154.949041 192.391786 
L 156.622205 191.855211 
L 158.295368 191.091741 
L 159.968531 190.855563 
L 161.641695 190.776906 
L 163.314858 190.331022 
L 164.988022 189.474662 
L 166.661185 188.858949 
L 168.334348 188.721093 
L 170.007512 188.293635 
L 175.027002 187.82286 
L 180.046492 187.12244 
L 181.719656 187.038901 
L 185.065983 185.068964 
L 186.739146 184.441288 
L 188.412309 184.17692 
L 191.758636 183.981583 
L 193.4318 181.974793 
L 195.104963 180.371465 
L 196.778127 179.65468 
L 198.45129 179.09686 
L 200.124453 178.821973 
L 201.797617 172.35338 
L 203.47078 172.182795 
L 205.143944 161.84501 
L 206.817107 145.595695 
L 208.490271 139.010491 
L 210.163434 134.757983 
L 211.836597 132.38259 
L 213.509761 128.094259 
L 215.182924 112.278247 
L 218.529251 111.556993 
L 220.202414 111.262716 
L 221.875578 110.683788 
L 223.548741 96.546804 
L 225.221905 96.518614 
L 226.895068 88.318738 
L 228.568232 88.229354 
L 230.241395 87.780376 
L 231.914558 65.619531 
L 233.587722 60.59207 
L 235.260885 45.924288 
L 236.934049 44.328454 
L 238.607212 32.783583 
L 240.280375 29.644171 
L 240.280375 29.644171 
" style="fill:none;stroke:#8c564b;stroke-linecap:square;stroke-width:1.5;"/>
   </g>
   <g id="line2d_19">
    <path clip-path="url(#p7dd9d73df5)" d="M -1 202.161787 
L 9.383824 202.03786 
L 42.847092 201.606835 
L 47.866582 201.318341 
L 51.212909 201.180388 
L 54.559236 201.127109 
L 57.905563 200.758225 
L 77.983524 199.862557 
L 79.656687 199.62061 
L 83.003014 199.395688 
L 89.695668 198.826826 
L 99.734648 198.729377 
L 104.754139 198.535484 
L 106.427302 198.224135 
L 114.793119 197.703238 
L 119.812609 197.41847 
L 123.158936 197.266195 
L 124.8321 196.918371 
L 126.505263 196.694479 
L 129.85159 195.41005 
L 133.197917 194.890046 
L 134.87108 194.704198 
L 139.89057 194.478746 
L 141.563734 193.80074 
L 143.236897 193.732396 
L 148.256387 192.189711 
L 149.929551 191.763765 
L 154.949041 191.576955 
L 156.622205 189.873242 
L 158.295368 189.034209 
L 159.968531 187.384814 
L 161.641695 186.293376 
L 163.314858 185.906485 
L 164.988022 185.847423 
L 166.661185 185.311055 
L 168.334348 184.520564 
L 170.007512 184.234881 
L 171.680675 180.113491 
L 173.353839 179.303061 
L 175.027002 178.965055 
L 176.700166 176.822127 
L 178.373329 176.232473 
L 180.046492 175.172526 
L 181.719656 173.526362 
L 185.065983 172.317558 
L 186.739146 171.42015 
L 188.412309 171.052098 
L 190.085473 169.506387 
L 191.758636 169.086836 
L 193.4318 168.458266 
L 195.104963 166.25002 
L 196.778127 165.352682 
L 198.45129 163.619198 
L 200.124453 155.091628 
L 201.797617 154.515313 
L 203.47078 141.299389 
L 205.143944 138.9044 
L 206.817107 137.630209 
L 208.490271 131.435128 
L 210.163434 130.570861 
L 213.509761 124.596626 
L 215.182924 123.128679 
L 216.856088 113.246335 
L 218.529251 113.079945 
L 220.202414 112.586963 
L 221.875578 110.848116 
L 225.221905 106.164436 
L 226.895068 103.883102 
L 228.568232 98.036754 
L 230.241395 87.819567 
L 231.914558 83.618557 
L 233.587722 73.23773 
L 235.260885 68.505921 
L 236.934049 62.377672 
L 238.607212 56.778158 
L 240.280375 55.108068 
L 240.280375 55.108068 
" style="fill:none;stroke:#e377c2;stroke-linecap:square;stroke-width:1.5;"/>
   </g>
   <g id="line2d_20">
    <path clip-path="url(#p7dd9d73df5)" d="M -1 202.184013 
L 9.383824 202.031704 
L 12.730151 201.949845 
L 44.520256 201.579931 
L 46.193419 201.542562 
L 47.866582 201.267007 
L 52.886073 201.107259 
L 54.559236 200.972669 
L 57.905563 200.919767 
L 59.578726 200.729257 
L 67.944543 200.385751 
L 69.617707 200.166865 
L 71.29087 200.155459 
L 74.637197 199.829526 
L 77.983524 199.679184 
L 81.329851 199.367085 
L 86.349341 199.196219 
L 88.022504 198.986381 
L 89.695668 198.927382 
L 93.041995 198.567401 
L 99.734648 198.474594 
L 101.407812 198.157428 
L 104.754139 198.031198 
L 109.773629 197.934382 
L 113.119956 197.824276 
L 116.466282 197.502146 
L 121.485773 197.297156 
L 123.158936 197.09823 
L 124.8321 196.465851 
L 126.505263 196.315777 
L 129.85159 195.458867 
L 131.524753 195.074794 
L 134.87108 194.965265 
L 136.544244 194.547158 
L 138.217407 194.531275 
L 141.563734 193.814147 
L 144.910061 193.415361 
L 146.583224 193.381189 
L 148.256387 192.443765 
L 149.929551 192.400311 
L 151.602714 190.699349 
L 153.275878 190.642006 
L 154.949041 189.685262 
L 156.622205 189.548644 
L 158.295368 188.557522 
L 159.968531 187.886047 
L 161.641695 187.476672 
L 163.314858 186.530448 
L 164.988022 185.726825 
L 168.334348 185.69664 
L 170.007512 185.529769 
L 171.680675 180.401443 
L 173.353839 180.30209 
L 176.700166 175.391652 
L 180.046492 175.103357 
L 181.719656 175.061965 
L 185.065983 173.830265 
L 186.739146 171.848846 
L 188.412309 171.054436 
L 191.758636 167.594412 
L 193.4318 166.471209 
L 195.104963 166.457595 
L 196.778127 165.220119 
L 198.45129 159.208206 
L 200.124453 155.170354 
L 201.797617 154.891616 
L 203.47078 144.738923 
L 205.143944 142.039619 
L 206.817107 133.754897 
L 208.490271 131.579516 
L 210.163434 130.956584 
L 211.836597 129.219112 
L 213.509761 123.460084 
L 215.182924 123.119053 
L 216.856088 120.660328 
L 218.529251 116.475132 
L 220.202414 111.499238 
L 221.875578 108.11574 
L 223.548741 106.91113 
L 225.221905 105.997358 
L 226.895068 102.829755 
L 228.568232 101.409938 
L 230.241395 86.85079 
L 231.914558 86.409375 
L 233.587722 66.780138 
L 235.260885 66.756761 
L 236.934049 63.239188 
L 238.607212 58.622202 
L 240.280375 52.452699 
L 240.280375 52.452699 
" style="fill:none;stroke:#7f7f7f;stroke-linecap:square;stroke-width:1.5;"/>
   </g>
   <g id="line2d_21">
    <path clip-path="url(#p7dd9d73df5)" d="M -1 201.728959 
L 39.500765 201.247061 
L 42.847092 201.071932 
L 49.539746 200.954723 
L 59.578726 200.703185 
L 66.27138 200.556122 
L 67.944543 200.364533 
L 86.349341 199.894989 
L 91.368831 199.719214 
L 94.715158 199.616877 
L 96.388321 199.429619 
L 99.734648 198.632348 
L 101.407812 198.629069 
L 103.080975 198.318194 
L 104.754139 198.277621 
L 108.100465 197.95338 
L 109.773629 197.929838 
L 111.446792 197.518201 
L 113.119956 196.733396 
L 116.466282 196.562075 
L 118.139446 196.492797 
L 119.812609 196.258764 
L 121.485773 196.194635 
L 124.8321 195.67021 
L 126.505263 194.668651 
L 128.178426 194.58078 
L 133.197917 193.900986 
L 134.87108 192.728004 
L 136.544244 191.991418 
L 138.217407 191.778479 
L 139.89057 190.934702 
L 141.563734 189.728029 
L 143.236897 189.369809 
L 144.910061 188.555734 
L 146.583224 188.553877 
L 151.602714 188.103936 
L 153.275878 187.827605 
L 156.622205 187.688648 
L 161.641695 187.078505 
L 163.314858 186.510578 
L 164.988022 186.500333 
L 166.661185 185.467338 
L 168.334348 184.92547 
L 171.680675 184.889166 
L 175.027002 180.702801 
L 176.700166 180.586259 
L 180.046492 179.228804 
L 183.392819 177.982252 
L 185.065983 174.769064 
L 186.739146 172.563499 
L 188.412309 164.146421 
L 190.085473 159.535761 
L 191.758636 152.61372 
L 193.4318 150.687237 
L 196.778127 144.487687 
L 198.45129 143.921135 
L 200.124453 137.298666 
L 201.797617 131.937737 
L 203.47078 128.274401 
L 205.143944 121.021986 
L 206.817107 118.405121 
L 208.490271 101.196793 
L 210.163434 100.351778 
L 211.836597 100.322901 
L 213.509761 99.092163 
L 215.182924 93.76905 
L 216.856088 92.385673 
L 218.529251 91.410021 
L 220.202414 77.537062 
L 221.875578 61.464588 
L 223.548741 61.295447 
L 225.221905 52.368817 
L 225.221905 52.368817 
" style="fill:none;stroke:#bcbd22;stroke-linecap:square;stroke-width:1.5;"/>
   </g>
   <g id="line2d_22">
    <path clip-path="url(#p7dd9d73df5)" d="M -1 202.263687 
L 32.808112 202.091767 
L 39.500765 202.01447 
L 59.578726 201.831898 
L 62.925053 201.684186 
L 69.617707 201.567101 
L 71.29087 201.440012 
L 79.656687 201.327815 
L 86.349341 201.025246 
L 89.695668 200.882873 
L 93.041995 200.85458 
L 94.715158 200.636952 
L 104.754139 200.23338 
L 106.427302 200.014714 
L 109.773629 199.755971 
L 111.446792 199.384893 
L 114.793119 199.208182 
L 116.466282 198.930813 
L 121.485773 198.643473 
L 123.158936 198.614382 
L 124.8321 198.215665 
L 129.85159 197.773816 
L 131.524753 197.670008 
L 133.197917 196.586745 
L 139.89057 195.955899 
L 143.236897 194.865431 
L 144.910061 194.651874 
L 146.583224 194.150091 
L 148.256387 194.097423 
L 149.929551 192.299996 
L 153.275878 192.078876 
L 154.949041 191.446249 
L 156.622205 191.199826 
L 161.641695 191.012878 
L 163.314858 189.560538 
L 164.988022 184.026137 
L 166.661185 183.309559 
L 168.334348 183.078332 
L 170.007512 181.987925 
L 171.680675 181.946809 
L 173.353839 180.244059 
L 175.027002 179.642235 
L 176.700166 176.345714 
L 178.373329 173.970872 
L 180.046492 172.970055 
L 181.719656 172.914087 
L 183.392819 172.703074 
L 185.065983 171.557182 
L 186.739146 168.937223 
L 188.412309 166.596414 
L 190.085473 154.762217 
L 191.758636 153.976401 
L 193.4318 152.738856 
L 195.104963 150.810655 
L 196.778127 149.132107 
L 198.45129 145.628011 
L 200.124453 126.747323 
L 201.797617 119.994079 
L 203.47078 114.445445 
L 205.143944 103.828785 
L 206.817107 103.656206 
L 208.490271 100.389594 
L 210.163434 70.627741 
L 213.509761 51.314095 
L 213.509761 51.314095 
" style="fill:none;stroke:#17becf;stroke-linecap:square;stroke-width:1.5;"/>
   </g>
   <g id="line2d_23">
    <path clip-path="url(#p7dd9d73df5)" d="M -1 202.406954 
L 42.847092 202.251103 
L 57.905563 202.098525 
L 59.578726 201.901168 
L 72.964034 201.703699 
L 76.31036 201.548289 
L 79.656687 201.405407 
L 83.003014 201.304308 
L 84.676178 200.981696 
L 89.695668 200.93279 
L 91.368831 200.613589 
L 93.041995 200.563239 
L 96.388321 200.264355 
L 99.734648 200.199937 
L 101.407812 200.003397 
L 103.080975 199.507217 
L 104.754139 199.308835 
L 108.100465 198.419369 
L 109.773629 198.379607 
L 111.446792 197.409132 
L 113.119956 197.172666 
L 114.793119 197.116203 
L 116.466282 196.795407 
L 119.812609 196.655777 
L 121.485773 196.004311 
L 129.85159 195.180541 
L 131.524753 194.039737 
L 133.197917 193.714519 
L 134.87108 193.548267 
L 136.544244 192.935167 
L 138.217407 191.790787 
L 139.89057 191.759296 
L 141.563734 190.868352 
L 143.236897 190.284817 
L 144.910061 190.137335 
L 146.583224 189.507871 
L 148.256387 189.480369 
L 151.602714 189.087701 
L 153.275878 186.568402 
L 154.949041 185.925805 
L 156.622205 185.574392 
L 158.295368 185.516224 
L 159.968531 185.097154 
L 161.641695 183.60638 
L 163.314858 176.725318 
L 164.988022 167.88587 
L 166.661185 166.667783 
L 168.334348 163.810753 
L 170.007512 153.272336 
L 171.680675 151.443488 
L 173.353839 145.992625 
L 175.027002 139.234912 
L 178.373329 111.752949 
L 180.046492 106.134183 
L 181.719656 97.681971 
L 183.392819 92.173216 
L 185.065983 84.83073 
L 186.739146 81.122015 
L 188.412309 73.647517 
L 190.085473 53.275025 
L 190.085473 53.275025 
" style="fill:none;stroke:#1f77b4;stroke-linecap:square;stroke-width:1.5;"/>
   </g>
   <g id="line2d_24">
    <path clip-path="url(#p7dd9d73df5)" d="M -1 202.403043 
L 47.866582 202.223525 
L 57.905563 201.988381 
L 59.578726 201.843986 
L 66.27138 201.751897 
L 69.617707 201.668008 
L 71.29087 201.412757 
L 74.637197 201.358226 
L 77.983524 201.148506 
L 88.022504 201.05367 
L 91.368831 200.260573 
L 93.041995 199.963195 
L 98.061485 198.616424 
L 99.734648 196.544811 
L 101.407812 196.152583 
L 103.080975 196.144862 
L 108.100465 195.389354 
L 109.773629 194.591162 
L 111.446792 194.411227 
L 113.119956 193.91735 
L 114.793119 193.589727 
L 118.139446 193.529084 
L 121.485773 192.666329 
L 123.158936 192.555701 
L 124.8321 189.249141 
L 126.505263 188.938569 
L 128.178426 188.745295 
L 129.85159 188.712567 
L 131.524753 187.287386 
L 133.197917 185.241267 
L 134.87108 183.914133 
L 136.544244 183.913583 
L 138.217407 183.561964 
L 139.89057 181.754704 
L 141.563734 180.935198 
L 143.236897 179.058563 
L 144.910061 178.882822 
L 146.583224 177.283482 
L 148.256387 176.341589 
L 149.929551 171.894981 
L 151.602714 165.94488 
L 153.275878 163.558761 
L 154.949041 155.181286 
L 156.622205 150.187997 
L 158.295368 118.531633 
L 159.968531 106.937257 
L 161.641695 81.934715 
L 163.314858 81.324846 
L 164.988022 70.54042 
L 166.661185 69.31312 
L 168.334348 54.795914 
L 170.007512 54.076723 
L 171.680675 43.010396 
L 173.353839 42.952641 
L 175.027002 35.258123 
L 176.700166 31.397456 
L 176.700166 31.397456 
" style="fill:none;stroke:#ff7f0e;stroke-linecap:square;stroke-width:1.5;"/>
   </g>
   <g id="patch_3">
    <path d="M 47.866582 211.070347 
L 47.866582 20.810347 
" style="fill:none;stroke:#000000;stroke-linecap:square;stroke-linejoin:miter;stroke-width:0.8;"/>
   </g>
   <g id="patch_4">
    <path d="M 438.466582 211.070347 
L 438.466582 20.810347 
" style="fill:none;stroke:#000000;stroke-linecap:square;stroke-linejoin:miter;stroke-width:0.8;"/>
   </g>
   <g id="patch_5">
    <path d="M 47.866582 211.070347 
L 438.466582 211.070347 
" style="fill:none;stroke:#000000;stroke-linecap:square;stroke-linejoin:miter;stroke-width:0.8;"/>
   </g>
   <g id="patch_6">
    <path d="M 47.866582 20.810347 
L 438.466582 20.810347 
" style="fill:none;stroke:#000000;stroke-linecap:square;stroke-linejoin:miter;stroke-width:0.8;"/>
   </g>
   <g id="text_14">
    <!-- Cactus-plot -->
    <g transform="translate(217.002156 14.810347)scale(0.11 -0.11)">
     <defs>
      <path d="M 3501 714 
C 3072 427 2874 344 2355 344 
C 1459 344 934 1303 934 2179 
C 934 3112 1472 4032 2381 4032 
C 2790 4032 3059 3918 3386 3715 
L 3475 4217 
C 3168 4370 2778 4440 2387 4440 
C 1158 4440 397 3316 397 2179 
C 397 927 1299 -64 2323 -64 
C 2874 -64 3066 -19 3539 280 
L 3501 714 
z
" id="CMSS17-43" transform="scale(0.015625)"/>
      <path d="M 2406 1791 
C 2406 2392 1978 2808 1402 2808 
C 1120 2808 813 2757 461 2553 
L 499 2135 
C 659 2248 934 2432 1395 2432 
C 1722 2432 1920 2180 1920 1782 
L 1920 1536 
C 896 1536 256 1238 256 726 
C 256 461 416 -64 947 -64 
C 1043 -64 1562 -64 1933 217 
L 1933 -19 
L 2406 -19 
L 2406 1791 
z
M 1920 816 
C 1920 701 1920 548 1728 434 
C 1562 325 1350 325 1261 325 
C 941 325 723 511 723 744 
C 723 1211 1722 1211 1920 1211 
L 1920 816 
z
" id="CMSS17-61" transform="scale(0.015625)"/>
      <path d="M 2464 2541 
C 2464 2585 2170 2714 2093 2739 
C 1882 2816 1613 2816 1542 2816 
C 710 2816 211 2093 211 1363 
C 211 595 768 -64 1517 -64 
C 1946 -64 2253 76 2502 242 
L 2464 664 
C 2189 453 1869 337 1523 337 
C 1024 337 698 774 698 1369 
C 698 1831 909 2414 1549 2414 
C 1901 2414 2099 2343 2394 2145 
L 2464 2541 
z
" id="CMSS17-63" transform="scale(0.015625)"/>
      <path d="M 1664 1216 
L 1664 1585 
L 64 1585 
L 64 1216 
L 1664 1216 
z
" id="CMSS17-2d" transform="scale(0.015625)"/>
     </defs>
     <use transform="scale(0.996264)" xlink:href="#CMSS17-43"/>
     <use transform="translate(59.855772 0)scale(0.996264)" xlink:href="#CMSS17-61"/>
     <use transform="translate(104.777692 0)scale(0.996264)" xlink:href="#CMSS17-63"/>
     <use transform="translate(146.416514 0)scale(0.996264)" xlink:href="#CMSS17-74"/>
     <use transform="translate(180.248081 0)scale(0.996264)" xlink:href="#CMSS17-75"/>
     <use transform="translate(228.453024 0)scale(0.996264)" xlink:href="#CMSS17-73"/>
     <use transform="translate(264.366566 0)scale(0.996264)" xlink:href="#CMSS17-2d"/>
     <use transform="translate(295.595679 0)scale(0.996264)" xlink:href="#CMSS17-70"/>
     <use transform="translate(343.800622 0)scale(0.996264)" xlink:href="#CMSS17-6c"/>
     <use transform="translate(365.981345 0)scale(0.996264)" xlink:href="#CMSS17-6f"/>
     <use transform="translate(412.824969 0)scale(0.996264)" xlink:href="#CMSS17-74"/>
    </g>
   </g>
   <g id="legend_1">
    <g id="patch_7">
     <path d="M 484.526582 208.032006 
L 627.803964 208.032006 
Q 629.803964 208.032006 629.803964 206.032006 
L 629.803964 25.848688 
Q 629.803964 23.848688 627.803964 23.848688 
L 484.526582 23.848688 
Q 482.526582 23.848688 482.526582 25.848688 
L 482.526582 206.032006 
Q 482.526582 208.032006 484.526582 208.032006 
z
" style="fill:#ffffff;opacity:0.8;stroke:#cccccc;stroke-linejoin:miter;"/>
    </g>
    <g id="line2d_25">
     <path d="M 486.526582 31.348688 
L 506.526582 31.348688 
" style="fill:none;stroke:#000000;stroke-dasharray:9.6,2.4,1.5,2.4;stroke-dashoffset:0;stroke-width:1.5;"/>
    </g>
    <g id="line2d_26"/>
    <g id="text_15">
     <!-- VBS -->
     <g transform="translate(514.526582 34.848688)scale(0.1 -0.1)">
      <defs>
       <path d="M 3910 4416 
L 3411 4416 
L 2304 1362 
C 2272 1273 2074 688 2035 484 
L 2029 484 
C 1978 726 1773 1292 1664 1604 
L 922 3672 
L 646 4416 
L 83 4416 
L 1715 0 
L 2278 0 
L 3910 4416 
z
" id="CMSS17-56" transform="scale(0.015625)"/>
       <path d="M 570 4416 
L 570 0 
L 2163 0 
C 3034 0 3667 574 3667 1200 
C 3667 1685 3251 2176 2502 2317 
C 3334 2558 3501 3040 3501 3313 
C 3501 3883 2874 4416 1997 4416 
L 570 4416 
z
M 1088 2496 
L 1088 4059 
L 1824 4059 
C 2483 4059 3002 3724 3002 3306 
C 3002 2926 2592 2496 1766 2496 
L 1088 2496 
z
M 1088 357 
L 1088 2107 
L 1939 2107 
C 2630 2107 3162 1679 3162 1206 
C 3162 772 2694 357 1984 357 
L 1088 357 
z
" id="CMSS17-42" transform="scale(0.015625)"/>
       <path d="M 2797 4169 
C 2515 4334 2208 4480 1690 4480 
C 864 4480 333 3879 333 3266 
C 333 3025 403 2753 653 2475 
C 902 2196 1184 2121 1542 2033 
C 1690 1994 1939 1924 1984 1906 
C 2342 1767 2515 1444 2515 1140 
C 2515 742 2202 318 1645 318 
C 1453 318 890 318 358 819 
L 269 318 
C 794 -64 1363 -128 1651 -128 
C 2438 -128 3002 488 3002 1186 
C 3002 1440 2925 1763 2656 2061 
C 2394 2347 2163 2410 1638 2549 
C 1338 2626 1146 2677 986 2873 
C 877 3013 819 3146 819 3317 
C 819 3673 1126 4060 1690 4060 
C 1971 4060 2336 4002 2707 3660 
L 2797 4169 
z
" id="CMSS17-53" transform="scale(0.015625)"/>
      </defs>
      <use transform="scale(0.996264)" xlink:href="#CMSS17-56"/>
      <use transform="translate(62.217855 0)scale(0.996264)" xlink:href="#CMSS17-42"/>
      <use transform="translate(124.555895 0)scale(0.996264)" xlink:href="#CMSS17-53"/>
     </g>
    </g>
    <g id="line2d_27">
     <path d="M 486.526582 45.285866 
L 506.526582 45.285866 
" style="fill:none;stroke:#1f77b4;stroke-linecap:square;stroke-width:1.5;"/>
    </g>
    <g id="line2d_28"/>
    <g id="text_16">
     <!-- PicatSAT 2019-09-12 -->
     <g transform="translate(514.526582 48.785866)scale(0.1 -0.1)">
      <defs>
       <path d="M 2106 1856 
C 2874 1856 3501 2453 3501 3158 
C 3501 3850 2899 4453 2067 4453 
L 570 4453 
L 570 0 
L 1107 0 
L 1107 1856 
L 2106 1856 
z
M 1926 4096 
C 2669 4096 2995 3627 2995 3157 
C 2995 2720 2694 2226 1926 2226 
L 1094 2226 
L 1094 4096 
L 1926 4096 
z
" id="CMSS17-50" transform="scale(0.015625)"/>
       <path d="M 2272 4416 
L 1722 4416 
L 166 0 
L 653 0 
L 1101 1280 
L 2816 1280 
L 3270 0 
L 3827 0 
L 2272 4416 
z
M 2694 1637 
L 1222 1637 
C 1530 2528 1914 3638 1958 3925 
L 1965 3925 
C 2010 3663 2138 3281 2246 2956 
L 2694 1637 
z
" id="CMSS17-41" transform="scale(0.015625)"/>
       <path d="M 1651 1357 
C 1830 1541 2099 1764 2285 1987 
C 2464 2204 2701 2511 2701 2957 
C 2701 3657 2227 4288 1421 4288 
C 787 4288 422 3893 250 3274 
L 499 2929 
C 640 3510 838 3880 1338 3880 
C 1888 3880 2195 3433 2195 2942 
C 2195 2355 1747 1901 1408 1563 
C 1030 1187 659 804 301 408 
L 301 0 
L 2701 0 
L 2701 433 
L 1613 433 
C 1536 433 1459 433 1382 433 
L 742 433 
L 742 439 
L 1651 1357 
z
" id="CMSS17-32" transform="scale(0.015625)"/>
       <path d="M 2758 2044 
C 2758 2405 2752 3077 2490 3596 
C 2227 4096 1805 4229 1504 4229 
C 1069 4229 698 3975 506 3570 
C 301 3146 243 2709 243 2044 
C 243 1589 262 1031 493 543 
C 755 5 1197 -128 1498 -128 
C 1894 -128 2278 81 2496 518 
C 2720 974 2758 1474 2758 2044 
z
M 1498 261 
C 1011 261 864 811 819 995 
C 742 1310 730 1614 730 2114 
C 730 2506 730 2948 851 3297 
C 998 3701 1254 3840 1498 3840 
C 1971 3840 2125 3372 2176 3208 
C 2272 2873 2272 2481 2272 2114 
C 2272 1526 2272 261 1498 261 
z
" id="CMSS17-30" transform="scale(0.015625)"/>
       <path d="M 1818 4288 
L 1696 4288 
C 1350 3940 947 3890 538 3890 
L 538 3520 
C 723 3520 1024 3520 1325 3667 
L 1325 369 
L 570 369 
L 570 0 
L 2573 0 
L 2573 369 
L 1818 369 
L 1818 4288 
z
" id="CMSS17-31" transform="scale(0.015625)"/>
       <path d="M 435 174 
C 614 21 845 -128 1235 -128 
C 2010 -128 2752 721 2752 2095 
C 2752 3932 1952 4229 1523 4229 
C 1094 4229 819 4041 582 3741 
C 301 3397 250 3090 250 2733 
C 250 2307 326 2045 506 1745 
C 749 1357 973 1275 1222 1275 
C 1600 1275 1978 1459 2234 1776 
C 2189 902 1798 267 1235 267 
C 1005 267 819 339 634 516 
L 435 174 
z
M 2214 2746 
C 2221 2703 2221 2622 2221 2596 
C 2221 2074 1914 1664 1466 1664 
C 1171 1664 1018 1813 902 2006 
C 762 2249 755 2485 755 2733 
C 755 2976 755 3244 934 3511 
C 1069 3703 1235 3840 1523 3840 
C 2112 3840 2208 3000 2214 2746 
z
" id="CMSS17-39" transform="scale(0.015625)"/>
      </defs>
      <use transform="scale(0.996264)" xlink:href="#CMSS17-50"/>
      <use transform="translate(59.735586 0)scale(0.996264)" xlink:href="#CMSS17-69"/>
      <use transform="translate(81.916309 0)scale(0.996264)" xlink:href="#CMSS17-63"/>
      <use transform="translate(123.555131 0)scale(0.996264)" xlink:href="#CMSS17-61"/>
      <use transform="translate(168.477052 0)scale(0.996264)" xlink:href="#CMSS17-74"/>
      <use transform="translate(202.308619 0)scale(0.996264)" xlink:href="#CMSS17-53"/>
      <use transform="translate(254.357135 0)scale(0.996264)" xlink:href="#CMSS17-41"/>
      <use transform="translate(308.767734 0)scale(0.996264)" xlink:href="#CMSS17-54"/>
      <use transform="translate(403.816301 0)scale(0.996264)" xlink:href="#CMSS17-32"/>
      <use transform="translate(450.659925 0)scale(0.996264)" xlink:href="#CMSS17-30"/>
      <use transform="translate(497.503548 0)scale(0.996264)" xlink:href="#CMSS17-31"/>
      <use transform="translate(544.347172 0)scale(0.996264)" xlink:href="#CMSS17-39"/>
      <use transform="translate(591.190795 0)scale(0.996264)" xlink:href="#CMSS17-2d"/>
      <use transform="translate(622.419908 0)scale(0.996264)" xlink:href="#CMSS17-30"/>
      <use transform="translate(669.263531 0)scale(0.996264)" xlink:href="#CMSS17-39"/>
      <use transform="translate(716.107155 0)scale(0.996264)" xlink:href="#CMSS17-2d"/>
      <use transform="translate(747.336268 0)scale(0.996264)" xlink:href="#CMSS17-31"/>
      <use transform="translate(794.179891 0)scale(0.996264)" xlink:href="#CMSS17-32"/>
     </g>
    </g>
    <g id="line2d_29">
     <path d="M 486.526582 59.223044 
L 506.526582 59.223044 
" style="fill:none;stroke:#ff7f0e;stroke-linecap:square;stroke-width:1.5;"/>
    </g>
    <g id="line2d_30"/>
    <g id="text_17">
     <!-- Fun-sCOP+CryptoMiniSat -->
     <g transform="translate(514.526582 62.723044)scale(0.1 -0.1)">
      <defs>
       <path d="M 2918 1984 
L 2918 2373 
L 1101 2373 
L 1101 3968 
L 1882 3968 
C 1958 3968 2035 3968 2112 3968 
L 3168 3968 
L 3168 4375 
L 563 4375 
L 563 -32 
L 1101 -32 
L 1101 1984 
L 2918 1984 
z
" id="CMSS17-46" transform="scale(0.015625)"/>
       <path d="M 4096 2178 
C 4096 3503 3219 4497 2214 4497 
C 1210 4497 333 3497 333 2178 
C 333 847 1222 -128 2214 -128 
C 3206 -128 4096 847 4096 2178 
z
M 2214 273 
C 1510 273 870 1057 870 2261 
C 870 3433 1549 4096 2214 4096 
C 2880 4096 3558 3433 3558 2261 
C 3558 1051 2912 273 2214 273 
z
" id="CMSS17-4f" transform="scale(0.015625)"/>
       <path d="M 2451 1505 
L 4141 1505 
C 4230 1505 4339 1505 4339 1613 
C 4339 1728 4237 1728 4141 1728 
L 2451 1728 
L 2451 3413 
C 2451 3502 2451 3611 2342 3611 
C 2227 3611 2227 3509 2227 3413 
L 2227 1728 
L 531 1728 
C 442 1728 333 1728 333 1620 
C 333 1505 435 1505 531 1505 
L 2227 1505 
L 2227 -186 
C 2227 -275 2227 -384 2336 -384 
C 2451 -384 2451 -282 2451 -186 
L 2451 1505 
z
" id="CMSS17-2b" transform="scale(0.015625)"/>
       <path d="M 2675 2752 
L 2176 2752 
C 1632 1294 1446 702 1434 383 
L 1427 383 
C 1408 696 1126 1460 902 2007 
L 602 2752 
L 83 2752 
L 1216 13 
C 1146 -178 1043 -465 1011 -529 
C 870 -885 774 -885 672 -885 
C 646 -885 442 -885 211 -809 
L 250 -1229 
C 410 -1261 570 -1280 685 -1280 
C 845 -1280 1165 -1280 1459 -497 
L 2675 2752 
z
" id="CMSS17-79" transform="scale(0.015625)"/>
       <path d="M 3194 2371 
L 2886 1473 
C 2835 1307 2662 791 2624 587 
L 2618 587 
C 2598 715 2560 849 2458 1174 
C 2400 1365 2336 1562 2272 1741 
L 1325 4416 
L 576 4416 
L 576 0 
L 1075 0 
L 1075 3900 
L 1082 3900 
C 1082 3894 1139 3613 1530 2499 
L 2374 96 
L 2848 96 
L 3610 2231 
C 3661 2378 3821 2843 3891 3066 
C 3955 3257 4115 3728 4154 3913 
L 4160 3913 
L 4160 0 
L 4666 0 
L 4666 4416 
L 3923 4416 
L 3194 2371 
z
" id="CMSS17-4d" transform="scale(0.015625)"/>
      </defs>
      <use transform="scale(0.996264)" xlink:href="#CMSS17-46"/>
      <use transform="translate(50.687105 0)scale(0.996264)" xlink:href="#CMSS17-75"/>
      <use transform="translate(98.892048 0)scale(0.996264)" xlink:href="#CMSS17-6e"/>
      <use transform="translate(147.096992 0)scale(0.996264)" xlink:href="#CMSS17-2d"/>
      <use transform="translate(178.326104 0)scale(0.996264)" xlink:href="#CMSS17-73"/>
      <use transform="translate(214.239646 0)scale(0.996264)" xlink:href="#CMSS17-43"/>
      <use transform="translate(274.095418 0)scale(0.996264)" xlink:href="#CMSS17-4f"/>
      <use transform="translate(343.119673 0)scale(0.996264)" xlink:href="#CMSS17-50"/>
      <use transform="translate(402.85526 0)scale(0.996264)" xlink:href="#CMSS17-2b"/>
      <use transform="translate(475.723194 0)scale(0.996264)" xlink:href="#CMSS17-43"/>
      <use transform="translate(535.578966 0)scale(0.996264)" xlink:href="#CMSS17-72"/>
      <use transform="translate(567.488739 0)scale(0.996264)" xlink:href="#CMSS17-79"/>
      <use transform="translate(610.48888 0)scale(0.996264)" xlink:href="#CMSS17-70"/>
      <use transform="translate(658.693823 0)scale(0.996264)" xlink:href="#CMSS17-74"/>
      <use transform="translate(692.52539 0)scale(0.996264)" xlink:href="#CMSS17-6f"/>
      <use transform="translate(739.369014 0)scale(0.996264)" xlink:href="#CMSS17-4d"/>
      <use transform="translate(821.045043 0)scale(0.996264)" xlink:href="#CMSS17-69"/>
      <use transform="translate(843.225767 0)scale(0.996264)" xlink:href="#CMSS17-6e"/>
      <use transform="translate(891.43071 0)scale(0.996264)" xlink:href="#CMSS17-69"/>
      <use transform="translate(913.611433 0)scale(0.996264)" xlink:href="#CMSS17-53"/>
      <use transform="translate(965.659949 0)scale(0.996264)" xlink:href="#CMSS17-61"/>
      <use transform="translate(1010.58187 0)scale(0.996264)" xlink:href="#CMSS17-74"/>
     </g>
    </g>
    <g id="line2d_31">
     <path d="M 486.526582 73.160223 
L 506.526582 73.160223 
" style="fill:none;stroke:#2ca02c;stroke-linecap:square;stroke-width:1.5;"/>
    </g>
    <g id="line2d_32"/>
    <g id="text_18">
     <!-- Fun-sCOP+GlueMiniSat -->
     <g transform="translate(514.526582 76.660223)scale(0.1 -0.1)">
      <defs>
       <path d="M 3610 1856 
L 2336 1856 
L 2336 1461 
L 3123 1461 
L 3123 471 
C 2874 401 2618 350 2362 350 
C 1466 350 934 1301 934 2200 
C 934 3095 1491 4032 2362 4032 
C 2854 4032 3130 3881 3469 3627 
L 3552 4134 
C 3130 4351 2867 4440 2387 4440 
C 1146 4440 397 3324 397 2182 
C 397 1090 1152 -64 2349 -64 
C 2797 -64 3213 51 3610 248 
L 3610 1856 
z
" id="CMSS17-47" transform="scale(0.015625)"/>
      </defs>
      <use transform="scale(0.996264)" xlink:href="#CMSS17-46"/>
      <use transform="translate(50.687105 0)scale(0.996264)" xlink:href="#CMSS17-75"/>
      <use transform="translate(98.892048 0)scale(0.996264)" xlink:href="#CMSS17-6e"/>
      <use transform="translate(147.096992 0)scale(0.996264)" xlink:href="#CMSS17-2d"/>
      <use transform="translate(178.326104 0)scale(0.996264)" xlink:href="#CMSS17-73"/>
      <use transform="translate(214.239646 0)scale(0.996264)" xlink:href="#CMSS17-43"/>
      <use transform="translate(274.095418 0)scale(0.996264)" xlink:href="#CMSS17-4f"/>
      <use transform="translate(343.119673 0)scale(0.996264)" xlink:href="#CMSS17-50"/>
      <use transform="translate(402.85526 0)scale(0.996264)" xlink:href="#CMSS17-2b"/>
      <use transform="translate(475.723194 0)scale(0.996264)" xlink:href="#CMSS17-47"/>
      <use transform="translate(538.18142 0)scale(0.996264)" xlink:href="#CMSS17-6c"/>
      <use transform="translate(560.362143 0)scale(0.996264)" xlink:href="#CMSS17-75"/>
      <use transform="translate(608.567086 0)scale(0.996264)" xlink:href="#CMSS17-65"/>
      <use transform="translate(650.205908 0)scale(0.996264)" xlink:href="#CMSS17-4d"/>
      <use transform="translate(731.881938 0)scale(0.996264)" xlink:href="#CMSS17-69"/>
      <use transform="translate(754.062661 0)scale(0.996264)" xlink:href="#CMSS17-6e"/>
      <use transform="translate(802.267604 0)scale(0.996264)" xlink:href="#CMSS17-69"/>
      <use transform="translate(824.448327 0)scale(0.996264)" xlink:href="#CMSS17-53"/>
      <use transform="translate(876.496844 0)scale(0.996264)" xlink:href="#CMSS17-61"/>
      <use transform="translate(921.418764 0)scale(0.996264)" xlink:href="#CMSS17-74"/>
     </g>
    </g>
    <g id="line2d_33">
     <path d="M 486.526582 87.097401 
L 506.526582 87.097401 
" style="fill:none;stroke:#d62728;stroke-linecap:square;stroke-width:1.5;"/>
    </g>
    <g id="line2d_34"/>
    <g id="text_19">
     <!-- AbsCon 2019-07-23 -->
     <g transform="translate(514.526582 90.597401)scale(0.1 -0.1)">
      <defs>
       <path d="M 1389 3776 
C 1466 3776 1542 3776 1619 3776 
L 2355 3776 
C 1440 2711 915 1365 915 -32 
L 1427 -32 
C 1427 1323 1875 2696 2752 3795 
L 2752 4209 
L 250 4209 
L 250 3776 
L 1389 3776 
z
" id="CMSS17-37" transform="scale(0.015625)"/>
       <path d="M 1005 2025 
L 1440 2025 
C 2042 2025 2214 1507 2214 1146 
C 2214 653 1933 267 1472 267 
C 1114 267 608 444 320 912 
C 275 691 275 678 250 526 
C 550 88 1037 -128 1485 -128 
C 2214 -128 2752 473 2752 1138 
C 2752 1638 2400 2057 1920 2215 
C 2304 2424 2586 2816 2586 3273 
C 2586 3805 2093 4229 1491 4229 
C 941 4229 512 3892 333 3530 
C 378 3468 493 3284 550 3189 
C 691 3562 1056 3840 1485 3840 
C 1843 3840 2080 3607 2080 3271 
C 2080 2923 1856 2543 1478 2455 
C 1453 2455 1056 2417 1005 2411 
L 1005 2025 
z
" id="CMSS17-33" transform="scale(0.015625)"/>
      </defs>
      <use transform="scale(0.996264)" xlink:href="#CMSS17-41"/>
      <use transform="translate(62.217855 0)scale(0.996264)" xlink:href="#CMSS17-62"/>
      <use transform="translate(110.422798 0)scale(0.996264)" xlink:href="#CMSS17-73"/>
      <use transform="translate(146.33634 0)scale(0.996264)" xlink:href="#CMSS17-43"/>
      <use transform="translate(206.192112 0)scale(0.996264)" xlink:href="#CMSS17-6f"/>
      <use transform="translate(253.035735 0)scale(0.996264)" xlink:href="#CMSS17-6e"/>
      <use transform="translate(332.469791 0)scale(0.996264)" xlink:href="#CMSS17-32"/>
      <use transform="translate(379.313415 0)scale(0.996264)" xlink:href="#CMSS17-30"/>
      <use transform="translate(426.157038 0)scale(0.996264)" xlink:href="#CMSS17-31"/>
      <use transform="translate(473.000662 0)scale(0.996264)" xlink:href="#CMSS17-39"/>
      <use transform="translate(519.844285 0)scale(0.996264)" xlink:href="#CMSS17-2d"/>
      <use transform="translate(551.073398 0)scale(0.996264)" xlink:href="#CMSS17-30"/>
      <use transform="translate(597.917021 0)scale(0.996264)" xlink:href="#CMSS17-37"/>
      <use transform="translate(644.760645 0)scale(0.996264)" xlink:href="#CMSS17-2d"/>
      <use transform="translate(675.989758 0)scale(0.996264)" xlink:href="#CMSS17-32"/>
      <use transform="translate(722.833381 0)scale(0.996264)" xlink:href="#CMSS17-33"/>
     </g>
    </g>
    <g id="line2d_35">
     <path d="M 486.526582 101.034579 
L 506.526582 101.034579 
" style="fill:none;stroke:#9467bd;stroke-linecap:square;stroke-width:1.5;"/>
    </g>
    <g id="line2d_36"/>
    <g id="text_20">
     <!-- choco-solver 2019-06-14 -->
     <g transform="translate(514.526582 104.534579)scale(0.1 -0.1)">
      <defs>
       <path d="M 2618 1891 
C 2618 2292 2522 2820 1798 2820 
C 1395 2820 1133 2623 947 2407 
L 947 4448 
L 474 4448 
L 474 32 
L 960 32 
L 960 1573 
C 960 1973 1114 2432 1549 2432 
C 2112 2432 2131 2056 2131 1839 
L 2131 32 
L 2618 32 
L 2618 1891 
z
" id="CMSS17-68" transform="scale(0.015625)"/>
       <path d="M 2496 4101 
C 2227 4210 2035 4229 1856 4229 
C 1024 4229 250 3368 250 2006 
C 250 265 986 -128 1510 -128 
C 1798 -128 2086 -39 2362 280 
C 2643 617 2752 898 2752 1389 
C 2752 2179 2362 2880 1779 2880 
C 1357 2880 992 2657 768 2376 
C 832 3258 1254 3840 1862 3840 
C 2029 3840 2246 3816 2496 3710 
L 2496 4101 
z
M 774 1369 
C 774 1420 774 1452 781 1548 
C 781 2045 1069 2491 1536 2491 
C 1837 2491 1990 2332 2106 2135 
C 2240 1886 2246 1650 2246 1388 
C 2246 1140 2246 891 2099 637 
C 1978 439 1818 267 1510 267 
C 902 267 800 1114 774 1369 
z
" id="CMSS17-36" transform="scale(0.015625)"/>
       <path d="M 2253 1088 
L 2835 1088 
L 2835 1477 
L 2253 1477 
L 2253 4192 
L 1690 4192 
L 166 1477 
L 166 1088 
L 1747 1088 
L 1747 0 
L 2253 0 
L 2253 1088 
z
M 659 1477 
C 1030 2127 1766 3439 1766 3885 
L 1766 1477 
L 659 1477 
z
" id="CMSS17-34" transform="scale(0.015625)"/>
      </defs>
      <use transform="scale(0.996264)" xlink:href="#CMSS17-63"/>
      <use transform="translate(41.638822 0)scale(0.996264)" xlink:href="#CMSS17-68"/>
      <use transform="translate(89.843765 0)scale(0.996264)" xlink:href="#CMSS17-6f"/>
      <use transform="translate(139.289827 0)scale(0.996264)" xlink:href="#CMSS17-63"/>
      <use transform="translate(180.92865 0)scale(0.996264)" xlink:href="#CMSS17-6f"/>
      <use transform="translate(227.772273 0)scale(0.996264)" xlink:href="#CMSS17-2d"/>
      <use transform="translate(259.001386 0)scale(0.996264)" xlink:href="#CMSS17-73"/>
      <use transform="translate(294.914928 0)scale(0.996264)" xlink:href="#CMSS17-6f"/>
      <use transform="translate(341.758551 0)scale(0.996264)" xlink:href="#CMSS17-6c"/>
      <use transform="translate(363.939274 0)scale(0.996264)" xlink:href="#CMSS17-76"/>
      <use transform="translate(406.939416 0)scale(0.996264)" xlink:href="#CMSS17-65"/>
      <use transform="translate(448.578238 0)scale(0.996264)" xlink:href="#CMSS17-72"/>
      <use transform="translate(511.717123 0)scale(0.996264)" xlink:href="#CMSS17-32"/>
      <use transform="translate(558.560747 0)scale(0.996264)" xlink:href="#CMSS17-30"/>
      <use transform="translate(605.40437 0)scale(0.996264)" xlink:href="#CMSS17-31"/>
      <use transform="translate(652.247994 0)scale(0.996264)" xlink:href="#CMSS17-39"/>
      <use transform="translate(699.091617 0)scale(0.996264)" xlink:href="#CMSS17-2d"/>
      <use transform="translate(730.32073 0)scale(0.996264)" xlink:href="#CMSS17-30"/>
      <use transform="translate(777.164354 0)scale(0.996264)" xlink:href="#CMSS17-36"/>
      <use transform="translate(824.007977 0)scale(0.996264)" xlink:href="#CMSS17-2d"/>
      <use transform="translate(855.23709 0)scale(0.996264)" xlink:href="#CMSS17-31"/>
      <use transform="translate(902.080714 0)scale(0.996264)" xlink:href="#CMSS17-34"/>
     </g>
    </g>
    <g id="line2d_37">
     <path d="M 486.526582 114.971758 
L 506.526582 114.971758 
" style="fill:none;stroke:#8c564b;stroke-linecap:square;stroke-width:1.5;"/>
    </g>
    <g id="line2d_38"/>
    <g id="text_21">
     <!-- Concrete 3.10 -->
     <g transform="translate(514.526582 118.471758)scale(0.1 -0.1)">
      <defs>
       <path d="M 1088 510 
L 576 510 
L 576 0 
L 1088 0 
L 1088 510 
z
" id="CMSS17-2e" transform="scale(0.015625)"/>
      </defs>
      <use transform="scale(0.996264)" xlink:href="#CMSS17-43"/>
      <use transform="translate(59.855772 0)scale(0.996264)" xlink:href="#CMSS17-6f"/>
      <use transform="translate(106.699395 0)scale(0.996264)" xlink:href="#CMSS17-6e"/>
      <use transform="translate(154.904338 0)scale(0.996264)" xlink:href="#CMSS17-63"/>
      <use transform="translate(196.54316 0)scale(0.996264)" xlink:href="#CMSS17-72"/>
      <use transform="translate(228.452933 0)scale(0.996264)" xlink:href="#CMSS17-65"/>
      <use transform="translate(270.091755 0)scale(0.996264)" xlink:href="#CMSS17-74"/>
      <use transform="translate(303.923322 0)scale(0.996264)" xlink:href="#CMSS17-65"/>
      <use transform="translate(376.791256 0)scale(0.996264)" xlink:href="#CMSS17-33"/>
      <use transform="translate(423.63488 0)scale(0.996264)" xlink:href="#CMSS17-2e"/>
      <use transform="translate(449.659085 0)scale(0.996264)" xlink:href="#CMSS17-31"/>
      <use transform="translate(496.502708 0)scale(0.996264)" xlink:href="#CMSS17-30"/>
     </g>
    </g>
    <g id="line2d_39">
     <path d="M 486.526582 128.908936 
L 506.526582 128.908936 
" style="fill:none;stroke:#e377c2;stroke-linecap:square;stroke-width:1.5;"/>
    </g>
    <g id="line2d_40"/>
    <g id="text_22">
     <!-- choco-solver 2019-09-16 -->
     <g transform="translate(514.526582 132.408936)scale(0.1 -0.1)">
      <use transform="scale(0.996264)" xlink:href="#CMSS17-63"/>
      <use transform="translate(41.638822 0)scale(0.996264)" xlink:href="#CMSS17-68"/>
      <use transform="translate(89.843765 0)scale(0.996264)" xlink:href="#CMSS17-6f"/>
      <use transform="translate(139.289827 0)scale(0.996264)" xlink:href="#CMSS17-63"/>
      <use transform="translate(180.92865 0)scale(0.996264)" xlink:href="#CMSS17-6f"/>
      <use transform="translate(227.772273 0)scale(0.996264)" xlink:href="#CMSS17-2d"/>
      <use transform="translate(259.001386 0)scale(0.996264)" xlink:href="#CMSS17-73"/>
      <use transform="translate(294.914928 0)scale(0.996264)" xlink:href="#CMSS17-6f"/>
      <use transform="translate(341.758551 0)scale(0.996264)" xlink:href="#CMSS17-6c"/>
      <use transform="translate(363.939274 0)scale(0.996264)" xlink:href="#CMSS17-76"/>
      <use transform="translate(406.939416 0)scale(0.996264)" xlink:href="#CMSS17-65"/>
      <use transform="translate(448.578238 0)scale(0.996264)" xlink:href="#CMSS17-72"/>
      <use transform="translate(511.717123 0)scale(0.996264)" xlink:href="#CMSS17-32"/>
      <use transform="translate(558.560747 0)scale(0.996264)" xlink:href="#CMSS17-30"/>
      <use transform="translate(605.40437 0)scale(0.996264)" xlink:href="#CMSS17-31"/>
      <use transform="translate(652.247994 0)scale(0.996264)" xlink:href="#CMSS17-39"/>
      <use transform="translate(699.091617 0)scale(0.996264)" xlink:href="#CMSS17-2d"/>
      <use transform="translate(730.32073 0)scale(0.996264)" xlink:href="#CMSS17-30"/>
      <use transform="translate(777.164354 0)scale(0.996264)" xlink:href="#CMSS17-39"/>
      <use transform="translate(824.007977 0)scale(0.996264)" xlink:href="#CMSS17-2d"/>
      <use transform="translate(855.23709 0)scale(0.996264)" xlink:href="#CMSS17-31"/>
      <use transform="translate(902.080714 0)scale(0.996264)" xlink:href="#CMSS17-36"/>
     </g>
    </g>
    <g id="line2d_41">
     <path d="M 486.526582 142.846114 
L 506.526582 142.846114 
" style="fill:none;stroke:#7f7f7f;stroke-linecap:square;stroke-width:1.5;"/>
    </g>
    <g id="line2d_42"/>
    <g id="text_23">
     <!-- choco-solver 2019-09-20 -->
     <g transform="translate(514.526582 146.346114)scale(0.1 -0.1)">
      <use transform="scale(0.996264)" xlink:href="#CMSS17-63"/>
      <use transform="translate(41.638822 0)scale(0.996264)" xlink:href="#CMSS17-68"/>
      <use transform="translate(89.843765 0)scale(0.996264)" xlink:href="#CMSS17-6f"/>
      <use transform="translate(139.289827 0)scale(0.996264)" xlink:href="#CMSS17-63"/>
      <use transform="translate(180.92865 0)scale(0.996264)" xlink:href="#CMSS17-6f"/>
      <use transform="translate(227.772273 0)scale(0.996264)" xlink:href="#CMSS17-2d"/>
      <use transform="translate(259.001386 0)scale(0.996264)" xlink:href="#CMSS17-73"/>
      <use transform="translate(294.914928 0)scale(0.996264)" xlink:href="#CMSS17-6f"/>
      <use transform="translate(341.758551 0)scale(0.996264)" xlink:href="#CMSS17-6c"/>
      <use transform="translate(363.939274 0)scale(0.996264)" xlink:href="#CMSS17-76"/>
      <use transform="translate(406.939416 0)scale(0.996264)" xlink:href="#CMSS17-65"/>
      <use transform="translate(448.578238 0)scale(0.996264)" xlink:href="#CMSS17-72"/>
      <use transform="translate(511.717123 0)scale(0.996264)" xlink:href="#CMSS17-32"/>
      <use transform="translate(558.560747 0)scale(0.996264)" xlink:href="#CMSS17-30"/>
      <use transform="translate(605.40437 0)scale(0.996264)" xlink:href="#CMSS17-31"/>
      <use transform="translate(652.247994 0)scale(0.996264)" xlink:href="#CMSS17-39"/>
      <use transform="translate(699.091617 0)scale(0.996264)" xlink:href="#CMSS17-2d"/>
      <use transform="translate(730.32073 0)scale(0.996264)" xlink:href="#CMSS17-30"/>
      <use transform="translate(777.164354 0)scale(0.996264)" xlink:href="#CMSS17-39"/>
      <use transform="translate(824.007977 0)scale(0.996264)" xlink:href="#CMSS17-2d"/>
      <use transform="translate(855.23709 0)scale(0.996264)" xlink:href="#CMSS17-32"/>
      <use transform="translate(902.080714 0)scale(0.996264)" xlink:href="#CMSS17-30"/>
     </g>
    </g>
    <g id="line2d_43">
     <path d="M 486.526582 156.783293 
L 506.526582 156.783293 
" style="fill:none;stroke:#bcbd22;stroke-linecap:square;stroke-width:1.5;"/>
    </g>
    <g id="line2d_44"/>
    <g id="text_24">
     <!-- Concrete 3.12.3 -->
     <g transform="translate(514.526582 160.283293)scale(0.1 -0.1)">
      <use transform="scale(0.996264)" xlink:href="#CMSS17-43"/>
      <use transform="translate(59.855772 0)scale(0.996264)" xlink:href="#CMSS17-6f"/>
      <use transform="translate(106.699395 0)scale(0.996264)" xlink:href="#CMSS17-6e"/>
      <use transform="translate(154.904338 0)scale(0.996264)" xlink:href="#CMSS17-63"/>
      <use transform="translate(196.54316 0)scale(0.996264)" xlink:href="#CMSS17-72"/>
      <use transform="translate(228.452933 0)scale(0.996264)" xlink:href="#CMSS17-65"/>
      <use transform="translate(270.091755 0)scale(0.996264)" xlink:href="#CMSS17-74"/>
      <use transform="translate(303.923322 0)scale(0.996264)" xlink:href="#CMSS17-65"/>
      <use transform="translate(376.791256 0)scale(0.996264)" xlink:href="#CMSS17-33"/>
      <use transform="translate(423.63488 0)scale(0.996264)" xlink:href="#CMSS17-2e"/>
      <use transform="translate(449.659085 0)scale(0.996264)" xlink:href="#CMSS17-31"/>
      <use transform="translate(496.502708 0)scale(0.996264)" xlink:href="#CMSS17-32"/>
      <use transform="translate(543.346332 0)scale(0.996264)" xlink:href="#CMSS17-2e"/>
      <use transform="translate(569.370537 0)scale(0.996264)" xlink:href="#CMSS17-33"/>
     </g>
    </g>
    <g id="line2d_45">
     <path d="M 486.526582 170.720471 
L 506.526582 170.720471 
" style="fill:none;stroke:#17becf;stroke-linecap:square;stroke-width:1.5;"/>
    </g>
    <g id="line2d_46"/>
    <g id="text_25">
     <!-- choco-solver 2019-09-24 -->
     <g transform="translate(514.526582 174.220471)scale(0.1 -0.1)">
      <use transform="scale(0.996264)" xlink:href="#CMSS17-63"/>
      <use transform="translate(41.638822 0)scale(0.996264)" xlink:href="#CMSS17-68"/>
      <use transform="translate(89.843765 0)scale(0.996264)" xlink:href="#CMSS17-6f"/>
      <use transform="translate(139.289827 0)scale(0.996264)" xlink:href="#CMSS17-63"/>
      <use transform="translate(180.92865 0)scale(0.996264)" xlink:href="#CMSS17-6f"/>
      <use transform="translate(227.772273 0)scale(0.996264)" xlink:href="#CMSS17-2d"/>
      <use transform="translate(259.001386 0)scale(0.996264)" xlink:href="#CMSS17-73"/>
      <use transform="translate(294.914928 0)scale(0.996264)" xlink:href="#CMSS17-6f"/>
      <use transform="translate(341.758551 0)scale(0.996264)" xlink:href="#CMSS17-6c"/>
      <use transform="translate(363.939274 0)scale(0.996264)" xlink:href="#CMSS17-76"/>
      <use transform="translate(406.939416 0)scale(0.996264)" xlink:href="#CMSS17-65"/>
      <use transform="translate(448.578238 0)scale(0.996264)" xlink:href="#CMSS17-72"/>
      <use transform="translate(511.717123 0)scale(0.996264)" xlink:href="#CMSS17-32"/>
      <use transform="translate(558.560747 0)scale(0.996264)" xlink:href="#CMSS17-30"/>
      <use transform="translate(605.40437 0)scale(0.996264)" xlink:href="#CMSS17-31"/>
      <use transform="translate(652.247994 0)scale(0.996264)" xlink:href="#CMSS17-39"/>
      <use transform="translate(699.091617 0)scale(0.996264)" xlink:href="#CMSS17-2d"/>
      <use transform="translate(730.32073 0)scale(0.996264)" xlink:href="#CMSS17-30"/>
      <use transform="translate(777.164354 0)scale(0.996264)" xlink:href="#CMSS17-39"/>
      <use transform="translate(824.007977 0)scale(0.996264)" xlink:href="#CMSS17-2d"/>
      <use transform="translate(855.23709 0)scale(0.996264)" xlink:href="#CMSS17-32"/>
      <use transform="translate(902.080714 0)scale(0.996264)" xlink:href="#CMSS17-34"/>
     </g>
    </g>
    <g id="line2d_47">
     <path d="M 486.526582 184.657649 
L 506.526582 184.657649 
" style="fill:none;stroke:#1f77b4;stroke-linecap:square;stroke-width:1.5;"/>
    </g>
    <g id="line2d_48"/>
    <g id="text_26">
     <!-- BTD 19.07.01 -->
     <g transform="translate(514.526582 188.157649)scale(0.1 -0.1)">
      <defs>
       <path d="M 570 4416 
L 570 0 
L 2144 0 
C 3194 0 4000 980 4000 2170 
C 4000 3398 3194 4416 2144 4416 
L 570 4416 
z
M 1094 357 
L 1094 4059 
L 2003 4059 
C 2861 4059 3475 3277 3475 2170 
C 3475 1107 2867 357 2003 357 
L 1094 357 
z
" id="CMSS17-44" transform="scale(0.015625)"/>
      </defs>
      <use transform="scale(0.996264)" xlink:href="#CMSS17-42"/>
      <use transform="translate(62.33804 0)scale(0.996264)" xlink:href="#CMSS17-54"/>
      <use transform="translate(126.157494 0)scale(0.996264)" xlink:href="#CMSS17-44"/>
      <use transform="translate(224.929449 0)scale(0.996264)" xlink:href="#CMSS17-31"/>
      <use transform="translate(271.773072 0)scale(0.996264)" xlink:href="#CMSS17-39"/>
      <use transform="translate(318.616696 0)scale(0.996264)" xlink:href="#CMSS17-2e"/>
      <use transform="translate(344.6409 0)scale(0.996264)" xlink:href="#CMSS17-30"/>
      <use transform="translate(391.484524 0)scale(0.996264)" xlink:href="#CMSS17-37"/>
      <use transform="translate(438.328147 0)scale(0.996264)" xlink:href="#CMSS17-2e"/>
      <use transform="translate(464.352352 0)scale(0.996264)" xlink:href="#CMSS17-30"/>
      <use transform="translate(511.195976 0)scale(0.996264)" xlink:href="#CMSS17-31"/>
     </g>
    </g>
    <g id="line2d_49">
     <path d="M 486.526582 198.594828 
L 506.526582 198.594828 
" style="fill:none;stroke:#ff7f0e;stroke-linecap:square;stroke-width:1.5;"/>
    </g>
    <g id="line2d_50"/>
    <g id="text_27">
     <!-- cosoco 2 -->
     <g transform="translate(514.526582 202.094828)scale(0.1 -0.1)">
      <use transform="scale(0.996264)" xlink:href="#CMSS17-63"/>
      <use transform="translate(41.638822 0)scale(0.996264)" xlink:href="#CMSS17-6f"/>
      <use transform="translate(88.482446 0)scale(0.996264)" xlink:href="#CMSS17-73"/>
      <use transform="translate(124.395988 0)scale(0.996264)" xlink:href="#CMSS17-6f"/>
      <use transform="translate(173.84205 0)scale(0.996264)" xlink:href="#CMSS17-63"/>
      <use transform="translate(215.480872 0)scale(0.996264)" xlink:href="#CMSS17-6f"/>
      <use transform="translate(293.553608 0)scale(0.996264)" xlink:href="#CMSS17-32"/>
     </g>
    </g>
   </g>
  </g>
 </g>
 <defs>
  <clipPath id="p7dd9d73df5">
   <rect height="190.26" width="390.6" x="47.866582" y="20.810347"/>
  </clipPath>
 </defs>
</svg>
