<?xml version="1.0" encoding="utf-8" standalone="no"?>
<!DOCTYPE svg PUBLIC "-//W3C//DTD SVG 1.1//EN"
  "http://www.w3.org/Graphics/SVG/1.1/DTD/svg11.dtd">
<!-- Created with matplotlib (https://matplotlib.org/) -->
<svg height="441.475731pt" version="1.1" viewBox="0 0 620.938737 441.475731" width="620.938737pt" xmlns="http://www.w3.org/2000/svg" xmlns:xlink="http://www.w3.org/1999/xlink">
 <defs>
  <style type="text/css">
*{stroke-linecap:butt;stroke-linejoin:round;}
  </style>
 </defs>
 <g id="figure_1">
  <g id="patch_1">
   <path d="M 0 441.475731 
L 620.938737 441.475731 
L 620.938737 0 
L 0 0 
z
" style="fill:none;"/>
  </g>
  <g id="axes_1">
   <g id="patch_2">
    <path d="M 52.238737 402.02218 
L 610.238737 402.02218 
L 610.238737 21.50218 
L 52.238737 21.50218 
z
" style="fill:none;"/>
   </g>
   <g id="matplotlib.axis_1">
    <g id="xtick_1">
     <g id="line2d_1">
      <defs>
       <path d="M 0 0 
L 0 3.5 
" id="m0ece221d0f" style="stroke:#000000;stroke-width:0.8;"/>
      </defs>
      <g>
       <use style="stroke:#000000;stroke-width:0.8;" x="52.238737" xlink:href="#m0ece221d0f" y="402.02218"/>
      </g>
     </g>
     <g id="text_1">
      <!-- $200$ -->
      <defs>
       <path d="M 41.703125 15.46875 
L 39.90625 15.46875 
C 38.90625 8.390625 38.09375 7.1875 37.703125 6.59375 
C 37.203125 5.796875 30 5.796875 28.59375 5.796875 
L 9.40625 5.796875 
C 13 9.6875 20 16.765625 28.5 24.9375 
C 34.59375 30.71875 41.703125 37.5 41.703125 47.390625 
C 41.703125 59.1875 32.296875 66 21.796875 66 
C 10.796875 66 4.09375 56.296875 4.09375 47.296875 
C 4.09375 43.390625 7 42.890625 8.203125 42.890625 
C 9.203125 42.890625 12.203125 43.484375 12.203125 46.984375 
C 12.203125 50.09375 9.59375 51 8.203125 51 
C 7.59375 51 7 50.890625 6.59375 50.6875 
C 8.5 59.1875 14.296875 63.390625 20.40625 63.390625 
C 29.09375 63.390625 34.796875 56.5 34.796875 47.390625 
C 34.796875 38.703125 29.703125 31.21875 24 24.734375 
L 4.09375 2.296875 
L 4.09375 0 
L 39.296875 0 
z
" id="CMR17-50"/>
       <path d="M 42 31.84375 
C 42 37.96875 41.90625 48.421875 37.703125 56.453125 
C 34 63.484375 28.09375 66 22.90625 66 
C 18.09375 66 12 63.78125 8.203125 56.5625 
C 4.203125 49.015625 3.796875 39.671875 3.796875 31.84375 
C 3.796875 26.109375 3.90625 17.375 7 9.734375 
C 11.296875 -0.609375 19 -2 22.90625 -2 
C 27.5 -2 34.5 -0.109375 38.59375 9.4375 
C 41.59375 16.375 42 24.5 42 31.84375 
z
M 22.90625 -0.40625 
C 16.5 -0.40625 12.703125 5.125 11.296875 12.75 
C 10.203125 18.6875 10.203125 27.328125 10.203125 32.953125 
C 10.203125 40.6875 10.203125 47.109375 11.5 53.234375 
C 13.40625 61.78125 19 64.390625 22.90625 64.390625 
C 27 64.390625 32.296875 61.671875 34.203125 53.4375 
C 35.5 47.71875 35.59375 40.984375 35.59375 32.953125 
C 35.59375 26.421875 35.59375 18.375 34.40625 12.453125 
C 32.296875 1.5 26.40625 -0.40625 22.90625 -0.40625 
z
" id="CMR17-48"/>
      </defs>
      <g transform="translate(43.459251 417.32436)scale(0.12 -0.12)">
       <use transform="scale(0.996264)" xlink:href="#CMR17-50"/>
       <use transform="translate(45.690477 0)scale(0.996264)" xlink:href="#CMR17-48"/>
       <use transform="translate(91.380954 0)scale(0.996264)" xlink:href="#CMR17-48"/>
      </g>
     </g>
    </g>
    <g id="xtick_2">
     <g id="line2d_2">
      <g>
       <use style="stroke:#000000;stroke-width:0.8;" x="175.963792" xlink:href="#m0ece221d0f" y="402.02218"/>
      </g>
     </g>
     <g id="text_2">
      <!-- $210$ -->
      <defs>
       <path d="M 26.59375 63.796875 
C 26.59375 65.890625 26.5 66 25.09375 66 
C 21.203125 61.359375 15.296875 59.890625 9.703125 59.6875 
C 9.40625 59.6875 8.90625 59.6875 8.796875 59.5 
C 8.703125 59.296875 8.703125 59.09375 8.703125 57 
C 11.796875 57 17 57.59375 21 59.984375 
L 21 7.296875 
C 21 3.796875 20.796875 2.59375 12.203125 2.59375 
L 9.203125 2.59375 
L 9.203125 0 
C 14 0.09375 19 0.1875 23.796875 0.1875 
C 28.59375 0.1875 33.59375 0.09375 38.40625 0 
L 38.40625 2.59375 
L 35.40625 2.59375 
C 26.796875 2.59375 26.59375 3.6875 26.59375 7.296875 
z
" id="CMR17-49"/>
      </defs>
      <g transform="translate(167.184307 417.32436)scale(0.12 -0.12)">
       <use transform="scale(0.996264)" xlink:href="#CMR17-50"/>
       <use transform="translate(45.690477 0)scale(0.996264)" xlink:href="#CMR17-49"/>
       <use transform="translate(91.380954 0)scale(0.996264)" xlink:href="#CMR17-48"/>
      </g>
     </g>
    </g>
    <g id="xtick_3">
     <g id="line2d_3">
      <g>
       <use style="stroke:#000000;stroke-width:0.8;" x="299.688847" xlink:href="#m0ece221d0f" y="402.02218"/>
      </g>
     </g>
     <g id="text_3">
      <!-- $220$ -->
      <g transform="translate(290.909362 417.32436)scale(0.12 -0.12)">
       <use transform="scale(0.996264)" xlink:href="#CMR17-50"/>
       <use transform="translate(45.690477 0)scale(0.996264)" xlink:href="#CMR17-50"/>
       <use transform="translate(91.380954 0)scale(0.996264)" xlink:href="#CMR17-48"/>
      </g>
     </g>
    </g>
    <g id="xtick_4">
     <g id="line2d_4">
      <g>
       <use style="stroke:#000000;stroke-width:0.8;" x="423.413903" xlink:href="#m0ece221d0f" y="402.02218"/>
      </g>
     </g>
     <g id="text_4">
      <!-- $230$ -->
      <defs>
       <path d="M 22.09375 34 
C 31 34 34.90625 26.140625 34.90625 17.09375 
C 34.90625 5.03125 28.5 0.390625 22.703125 0.390625 
C 17.40625 0.390625 8.796875 3.015625 6.09375 10.796875 
C 6.59375 10.59375 7.09375 10.59375 7.59375 10.59375 
C 10 10.59375 11.796875 12.1875 11.796875 14.796875 
C 11.796875 17.6875 9.59375 19 7.59375 19 
C 5.90625 19 3.296875 18.1875 3.296875 14.484375 
C 3.296875 5.234375 12.296875 -2 22.90625 -2 
C 34 -2 42.5 6.75 42.5 16.984375 
C 42.5 26.84375 34.5 34 25 35.09375 
C 32.59375 36.671875 39.90625 43.375 39.90625 52.390625 
C 39.90625 60.25 32 66 23 66 
C 13.90625 66 5.90625 60.34375 5.90625 52.296875 
C 5.90625 48.796875 8.5 48.1875 9.796875 48.1875 
C 11.90625 48.1875 13.703125 49.484375 13.703125 52.09375 
C 13.703125 54.6875 11.90625 56 9.796875 56 
C 9.40625 56 8.90625 56 8.5 55.796875 
C 11.40625 62.484375 19.296875 63.6875 22.796875 63.6875 
C 26.296875 63.6875 32.90625 61.96875 32.90625 52.296875 
C 32.90625 49.484375 32.5 44.546875 29.09375 40.21875 
C 26.09375 36.390625 22.703125 36.1875 19.40625 35.890625 
C 18.90625 35.890625 16.59375 35.6875 16.203125 35.6875 
C 15.5 35.59375 15.09375 35.5 15.09375 34.796875 
C 15.09375 34.09375 15.203125 34 17.203125 34 
z
" id="CMR17-51"/>
      </defs>
      <g transform="translate(414.634417 417.32436)scale(0.12 -0.12)">
       <use transform="scale(0.996264)" xlink:href="#CMR17-50"/>
       <use transform="translate(45.690477 0)scale(0.996264)" xlink:href="#CMR17-51"/>
       <use transform="translate(91.380954 0)scale(0.996264)" xlink:href="#CMR17-48"/>
      </g>
     </g>
    </g>
    <g id="xtick_5">
     <g id="line2d_5">
      <g>
       <use style="stroke:#000000;stroke-width:0.8;" x="547.138958" xlink:href="#m0ece221d0f" y="402.02218"/>
      </g>
     </g>
     <g id="text_5">
      <!-- $240$ -->
      <defs>
       <path d="M 33.59375 64.796875 
C 33.59375 66.890625 33.5 67 31.703125 67 
L 2 19.59375 
L 2 17 
L 27.796875 17 
L 27.796875 7.1875 
C 27.796875 3.59375 27.59375 2.59375 20.59375 2.59375 
L 18.703125 2.59375 
L 18.703125 0 
C 21.90625 0.1875 27.296875 0.1875 30.703125 0.1875 
C 34.09375 0.1875 39.5 0.1875 42.703125 0 
L 42.703125 2.59375 
L 40.796875 2.59375 
C 33.796875 2.59375 33.59375 3.59375 33.59375 7.1875 
L 33.59375 17 
L 43.796875 17 
L 43.796875 19.59375 
L 33.59375 19.59375 
z
M 28.09375 58.171875 
L 28.09375 19.59375 
L 4 19.59375 
z
" id="CMR17-52"/>
      </defs>
      <g transform="translate(538.359473 417.32436)scale(0.12 -0.12)">
       <use transform="scale(0.996264)" xlink:href="#CMR17-50"/>
       <use transform="translate(45.690477 0)scale(0.996264)" xlink:href="#CMR17-52"/>
       <use transform="translate(91.380954 0)scale(0.996264)" xlink:href="#CMR17-48"/>
      </g>
     </g>
    </g>
    <g id="text_6">
     <!-- Number of solved inputs -->
     <defs>
      <path d="M 20.5 66.796875 
C 19.796875 67.890625 19.703125 68 17.796875 68 
L 5.09375 68 
L 5.09375 65.390625 
L 7 65.390625 
C 11 65.390625 12.796875 64.890625 13.09375 64.796875 
L 13.09375 9.75 
C 13.09375 7.265625 13.09375 2.59375 5.09375 2.59375 
L 5.09375 0 
C 7.40625 0.1875 11.59375 0.1875 14.09375 0.1875 
C 16.59375 0.1875 20.796875 0.1875 23.09375 0 
L 23.09375 2.59375 
C 15.09375 2.59375 15.09375 7.265625 15.09375 9.75 
L 15.09375 63.390625 
C 15.796875 62.796875 15.796875 62.609375 16.5 61.609375 
L 53.59375 1.1875 
C 54.296875 0 54.59375 0 55.09375 0 
C 56.09375 0 56.09375 0.296875 56.09375 2.1875 
L 56.09375 58.21875 
C 56.09375 60.703125 56.09375 65.390625 64.09375 65.390625 
L 64.09375 68 
C 61.796875 67.796875 57.59375 67.796875 55.09375 67.796875 
C 52.59375 67.796875 48.40625 67.796875 46.09375 68 
L 46.09375 65.390625 
C 54.09375 65.390625 54.09375 60.703125 54.09375 58.21875 
L 54.09375 12.140625 
z
" id="CMR17-78"/>
      <path d="M 29.40625 42.890625 
L 29.40625 40.296875 
C 35.296875 40.296875 36.203125 39.6875 36.203125 34.828125 
L 36.203125 16.453125 
C 36.203125 7.96875 31.703125 0.59375 24.296875 0.59375 
C 16.09375 0.59375 15.40625 5.546875 15.40625 10.796875 
L 15.40625 44 
L 3.296875 42.890625 
L 3.296875 40.296875 
C 7.296875 40.296875 10 40.296875 10.09375 36.25 
L 10.09375 16.859375 
C 10.09375 10.09375 10.09375 5.75 12.703125 2.921875 
C 14 1.609375 16.5 -1 23.703125 -1 
C 32.203125 -1 35.5 6.25 36.296875 8.375 
L 36.40625 8.375 
L 36.40625 -1 
L 48.296875 -0.203125 
L 48.296875 2.40625 
C 42.40625 2.40625 41.5 3.015625 41.5 7.859375 
L 41.5 44 
z
" id="CMR17-117"/>
      <path d="M 67.59375 30.53125 
C 67.59375 35.5625 66.703125 44 54.796875 44 
C 48 44 43.296875 39.375 41.5 33.953125 
L 41.40625 33.953125 
C 40.203125 42.1875 34.296875 44 28.703125 44 
C 20.796875 44 16.703125 37.875 15.203125 33.84375 
L 15.09375 33.84375 
L 15.09375 44 
L 3.296875 42.890625 
L 3.296875 40.28125 
C 9.203125 40.28125 10.09375 39.6875 10.09375 34.859375 
L 10.09375 6.921875 
C 10.09375 3.09375 9.703125 2.59375 3.296875 2.59375 
L 3.296875 0 
C 5.703125 0.1875 10.09375 0.1875 12.703125 0.1875 
C 15.296875 0.1875 19.796875 0.1875 22.203125 0 
L 22.203125 2.59375 
C 15.796875 2.59375 15.40625 3 15.40625 6.921875 
L 15.40625 26.21875 
C 15.40625 35.453125 21 42.390625 28 42.390625 
C 35.40625 42.390625 36.203125 35.765625 36.203125 30.9375 
L 36.203125 6.921875 
C 36.203125 3.09375 35.796875 2.59375 29.40625 2.59375 
L 29.40625 0 
C 31.796875 0.1875 36.203125 0.1875 38.796875 0.1875 
C 41.40625 0.1875 45.90625 0.1875 48.296875 0 
L 48.296875 2.59375 
C 41.90625 2.59375 41.5 3 41.5 6.921875 
L 41.5 26.21875 
C 41.5 35.453125 47.09375 42.390625 54.09375 42.390625 
C 61.5 42.390625 62.296875 35.765625 62.296875 30.9375 
L 62.296875 6.921875 
C 62.296875 3.09375 61.90625 2.59375 55.5 2.59375 
L 55.5 0 
C 57.90625 0.1875 62.296875 0.1875 64.90625 0.1875 
C 67.5 0.1875 72 0.1875 74.40625 0 
L 74.40625 2.59375 
C 68 2.59375 67.59375 3 67.59375 6.921875 
z
" id="CMR17-109"/>
      <path d="M 15 69 
L 3.09375 67.890625 
L 3.09375 65.296875 
C 9 65.296875 9.90625 64.703125 9.90625 60.046875 
L 9.90625 -0.203125 
L 11.703125 -0.203125 
L 14.59375 6.953125 
C 17.5 2.203125 21.796875 -1 27.59375 -1 
C 37.59375 -1 47.703125 7.859375 47.703125 21.59375 
C 47.703125 34.515625 38.703125 44 28.59375 44 
C 22.40625 44 18 40.671875 15 36.734375 
z
M 15.203125 31.59375 
C 15.203125 33.40625 15.203125 33.703125 16.59375 35.828125 
C 20.5 41.890625 26.09375 42.390625 28 42.390625 
C 31 42.390625 41.296875 40.78125 41.296875 21.6875 
C 41.296875 1.703125 29.5 0.59375 27.09375 0.59375 
C 24 0.59375 19.5 1.796875 16.296875 7.65625 
C 15.203125 9.578125 15.203125 9.78125 15.203125 11.59375 
z
" id="CMR17-98"/>
      <path d="M 38.09375 23.484375 
C 38.5 23.890625 38.5 24.09375 38.5 25.09375 
C 38.5 35.171875 33.09375 44 21.703125 44 
C 11.09375 44 2.703125 33.984375 2.703125 21.78125 
C 2.703125 8.65625 12.203125 -1 22.796875 -1 
C 34 -1 38.40625 9.671875 38.40625 11.796875 
C 38.40625 12.5 37.796875 12.5 37.59375 12.5 
C 36.90625 12.5 36.796875 12.296875 36.40625 11.078125 
C 34.203125 4.21875 28.703125 0.796875 23.5 0.796875 
C 19.203125 0.796875 14.90625 3.21875 12.203125 7.65625 
C 9.09375 12.796875 9.09375 18.75 9.09375 23.484375 
z
M 9.203125 25 
C 9.90625 39.234375 17.59375 42.390625 21.59375 42.390625 
C 28.40625 42.390625 33 36.0625 33.09375 25 
z
" id="CMR17-101"/>
      <path d="M 15 23.703125 
C 15 33.34375 19.09375 42.390625 26.59375 42.390625 
C 27.296875 42.390625 28 42.296875 28.703125 41.984375 
C 28.703125 41.984375 26.5 41.28125 26.5 38.671875 
C 26.5 36.265625 28.40625 35.265625 29.90625 35.265625 
C 31.09375 35.265625 33.296875 35.96875 33.296875 38.78125 
C 33.296875 41.984375 30.09375 44 26.703125 44 
C 19.09375 44 15.796875 36.5625 14.796875 33.046875 
L 14.703125 33.046875 
L 14.703125 44 
L 3.09375 42.890625 
L 3.09375 40.28125 
C 9 40.28125 9.90625 39.6875 9.90625 34.859375 
L 9.90625 6.921875 
C 9.90625 3.09375 9.5 2.59375 3.09375 2.59375 
L 3.09375 0 
C 5.5 0.1875 10.09375 0.1875 12.703125 0.1875 
C 15.59375 0.1875 20.703125 0.1875 23.40625 0 
L 23.40625 2.59375 
C 16.203125 2.59375 15 2.59375 15 7.109375 
z
" id="CMR17-114"/>
      <path d="M 43.09375 21.1875 
C 43.09375 34 33.796875 44 22.90625 44 
C 12 44 2.703125 34 2.703125 21.1875 
C 2.703125 8.59375 12 -1 22.90625 -1 
C 33.796875 -1 43.09375 8.59375 43.09375 21.1875 
z
M 22.90625 0.796875 
C 18.203125 0.796875 14.203125 3.59375 11.90625 7.5 
C 9.40625 12 9.09375 17.59375 9.09375 22 
C 9.09375 26.1875 9.296875 31.390625 11.90625 35.890625 
C 13.90625 39.1875 17.796875 42.390625 22.90625 42.390625 
C 27.40625 42.390625 31.203125 39.890625 33.59375 36.390625 
C 36.703125 31.6875 36.703125 25.09375 36.703125 22 
C 36.703125 18.09375 36.5 12.09375 33.796875 7.296875 
C 31 2.6875 26.703125 0.796875 22.90625 0.796875 
z
" id="CMR17-111"/>
      <path d="M 15.296875 40.390625 
L 26.703125 40.390625 
L 26.703125 43 
L 15.09375 43 
L 15.09375 55.296875 
C 15.09375 63.6875 19.296875 68.390625 23.59375 68.390625 
C 24.90625 68.390625 26.40625 68.171875 27.40625 67.796875 
C 26.59375 67.59375 24.5 66.890625 24.5 64.390625 
C 24.5 61.796875 26.5 61 27.90625 61 
C 29.296875 61 31.296875 61.796875 31.296875 64.390625 
C 31.296875 68.015625 27.703125 70 23.703125 70 
C 18 70 10.203125 65.796875 10.203125 55.09375 
L 10.203125 43 
L 2.203125 43 
L 2.203125 40.390625 
L 10.203125 40.390625 
L 10.203125 6.890625 
C 10.203125 3.09375 9.796875 2.59375 3.40625 2.59375 
L 3.40625 0 
C 5.796875 0.1875 10.40625 0.1875 13 0.1875 
C 15.90625 0.1875 21 0.1875 23.703125 0 
L 23.703125 2.59375 
C 16.5 2.59375 15.296875 2.59375 15.296875 7.09375 
z
" id="CMR17-102"/>
      <path d="M 30.90625 42 
C 30.90625 43.796875 30.796875 43.890625 30.203125 43.890625 
C 29.796875 43.890625 29.703125 43.796875 28.5 42.296875 
C 28.203125 41.890625 27.296875 40.890625 27 40.5 
C 23.796875 43.890625 19.296875 44 17.59375 44 
C 6.5 44 2.5 38.1875 2.5 32.390625 
C 2.5 23.390625 12.703125 21.296875 15.59375 20.6875 
C 21.90625 19.390625 24.09375 19 26.203125 17.1875 
C 27.5 16 29.703125 13.796875 29.703125 10.1875 
C 29.703125 6 27.296875 0.59375 18.09375 0.59375 
C 9.40625 0.59375 6.296875 7.1875 4.5 16 
C 4.203125 17.390625 4.203125 17.5 3.40625 17.5 
C 2.59375 17.5 2.5 17.390625 2.5 15.390625 
L 2.5 1 
C 2.5 -0.8125 2.59375 -0.90625 3.203125 -0.90625 
C 3.703125 -0.90625 3.796875 -0.8125 4.296875 0 
C 4.90625 0.890625 6.40625 3.296875 7 4.296875 
C 9 1.59375 12.5 -1 18.09375 -1 
C 28 -1 33.296875 4.390625 33.296875 12.1875 
C 33.296875 17.296875 30.59375 20 29.296875 21.1875 
C 26.296875 24.296875 22.796875 25 18.59375 25.796875 
C 13.09375 27 6.09375 28.390625 6.09375 34.5 
C 6.09375 37.09375 7.5 42.59375 17.59375 42.59375 
C 28.296875 42.59375 28.90625 32.59375 29.09375 29.390625 
C 29.203125 28.890625 29.703125 28.796875 30 28.796875 
C 30.90625 28.796875 30.90625 29.09375 30.90625 30.796875 
z
" id="CMR17-115"/>
      <path d="M 15.296875 69 
L 3.40625 67.890625 
L 3.40625 65.296875 
C 9.296875 65.296875 10.203125 64.703125 10.203125 59.921875 
L 10.203125 6.859375 
C 10.203125 3.09375 9.796875 2.59375 3.40625 2.59375 
L 3.40625 0 
C 5.796875 0.1875 10.203125 0.1875 12.703125 0.1875 
C 15.296875 0.1875 19.703125 0.1875 22.09375 0 
L 22.09375 2.59375 
C 15.703125 2.59375 15.296875 2.984375 15.296875 6.859375 
z
" id="CMR17-108"/>
      <path d="M 39.09375 33.953125 
C 40 36.171875 41.59375 40.1875 47.40625 40.390625 
L 47.40625 43 
C 45.5 42.890625 43 42.796875 41.09375 42.796875 
C 39 42.796875 35.703125 42.796875 33.703125 43 
L 33.703125 40.390625 
C 36.203125 40.1875 37.59375 38.984375 37.59375 36.375 
C 37.59375 35.46875 37.59375 35.265625 37 33.859375 
L 26 5.921875 
L 14.09375 36.0625 
C 13.5 37.375 13.5 37.578125 13.5 37.984375 
C 13.5 40.390625 16.796875 40.390625 18.296875 40.390625 
L 18.296875 43 
C 15.90625 42.796875 11.5 42.796875 9 42.796875 
C 6.296875 42.796875 3.203125 42.796875 1 43 
L 1 40.390625 
C 4.796875 40.390625 6.90625 40.390625 8.09375 37.28125 
L 22.59375 0.6875 
C 23.203125 -0.8125 23.296875 -1 24.203125 -1 
C 25.09375 -1 25.203125 -0.8125 25.796875 0.6875 
z
" id="CMR17-118"/>
      <path d="M 29.203125 67.890625 
L 29.203125 65.296875 
C 35.09375 65.296875 36 64.703125 36 60.046875 
L 36 37.046875 
C 35.59375 37.546875 31.5 44 23.40625 44 
C 13.203125 44 3.296875 34.8125 3.296875 21.5 
C 3.296875 8.265625 12.59375 -1 22.40625 -1 
C 30.90625 -1 35.296875 5.640625 35.796875 6.34375 
L 35.796875 -1 
L 47.90625 -0.203125 
L 47.90625 2.40625 
C 42 2.40625 41.09375 3.015625 41.09375 7.859375 
L 41.09375 69 
z
M 35.796875 11.90625 
C 35.796875 8.875 34 6.140625 31.703125 4.125 
C 28.296875 1.09375 24.90625 0.59375 23 0.59375 
C 20.09375 0.59375 9.703125 2.109375 9.703125 21.390625 
C 9.703125 41.1875 21.296875 42.390625 23.90625 42.390625 
C 28.5 42.390625 32.203125 39.765625 34.5 36.140625 
C 35.796875 34.015625 35.796875 33.703125 35.796875 31.890625 
z
" id="CMR17-100"/>
      <path d="M 15.5 61.890625 
C 15.5 64.09375 13.703125 66 11.40625 66 
C 9.203125 66 7.296875 64.1875 7.296875 61.890625 
C 7.296875 59.6875 9.09375 57.796875 11.40625 57.796875 
C 13.59375 57.796875 15.5 59.59375 15.5 61.890625 
z
M 3.796875 42.890625 
L 3.796875 40.296875 
C 9.40625 40.296875 10.203125 39.6875 10.203125 34.859375 
L 10.203125 6.921875 
C 10.203125 3.09375 9.796875 2.59375 3.40625 2.59375 
L 3.40625 0 
C 5.796875 0.1875 10.09375 0.1875 12.59375 0.1875 
C 15 0.1875 19.09375 0.1875 21.40625 0 
L 21.40625 2.59375 
C 15.5 2.59375 15.296875 3.203125 15.296875 6.8125 
L 15.296875 44 
z
" id="CMR17-105"/>
      <path d="M 41.5 30.53125 
C 41.5 35.65625 40.5 44 28.703125 44 
C 20.796875 44 16.703125 37.875 15.203125 33.84375 
L 15.09375 33.84375 
L 15.09375 44 
L 3.296875 42.890625 
L 3.296875 40.28125 
C 9.203125 40.28125 10.09375 39.6875 10.09375 34.859375 
L 10.09375 6.921875 
C 10.09375 3.09375 9.703125 2.59375 3.296875 2.59375 
L 3.296875 0 
C 5.703125 0.1875 10.09375 0.1875 12.703125 0.1875 
C 15.296875 0.1875 19.796875 0.1875 22.203125 0 
L 22.203125 2.59375 
C 15.796875 2.59375 15.40625 3 15.40625 6.921875 
L 15.40625 26.21875 
C 15.40625 35.453125 21 42.390625 28 42.390625 
C 35.40625 42.390625 36.203125 35.765625 36.203125 30.9375 
L 36.203125 6.921875 
C 36.203125 3.09375 35.796875 2.59375 29.40625 2.59375 
L 29.40625 0 
C 31.796875 0.1875 36.203125 0.1875 38.796875 0.1875 
C 41.40625 0.1875 45.90625 0.1875 48.296875 0 
L 48.296875 2.59375 
C 41.90625 2.59375 41.5 3 41.5 6.921875 
z
" id="CMR17-110"/>
      <path d="M 22 -17.40625 
C 15.59375 -17.40625 15.203125 -17 15.203125 -13.03125 
L 15.203125 5.9375 
C 18.09375 1.703125 22.296875 -1 27.59375 -1 
C 37.59375 -1 47.703125 7.859375 47.703125 21.59375 
C 47.703125 34.3125 39 44 28.703125 44 
C 22.703125 44 17.796875 40.671875 15 36.640625 
L 15 44 
L 3.09375 42.890625 
L 3.09375 40.265625 
C 9 40.265625 9.90625 39.671875 9.90625 34.8125 
L 9.90625 -13.03125 
C 9.90625 -16.890625 9.5 -17.40625 3.09375 -17.40625 
L 3.09375 -20 
C 5.5 -19.8125 9.90625 -19.8125 12.5 -19.8125 
C 15.09375 -19.8125 19.59375 -19.8125 22 -20 
z
M 15.203125 31.484375 
C 15.203125 32.90625 15.203125 35.015625 19.09375 38.765625 
C 19.59375 39.15625 23 42.1875 28 42.1875 
C 35.296875 42.1875 41.296875 33 41.296875 21.5 
C 41.296875 9.984375 34.90625 0.59375 27 0.59375 
C 23.40625 0.59375 19.5 2.3125 16.5 7.046875 
C 15.203125 9.28125 15.203125 9.875 15.203125 11.5 
z
" id="CMR17-112"/>
      <path d="M 15.09375 40.390625 
L 29.09375 40.390625 
L 29.09375 43 
L 15.09375 43 
L 15.09375 62 
L 13.296875 62 
C 13.09375 51.4375 9.59375 42.1875 1.09375 41.984375 
L 1.09375 40.390625 
L 9.796875 40.390625 
L 9.796875 12.15625 
C 9.796875 10.234375 9.796875 -1 21.40625 -1 
C 27.296875 -1 30.703125 4.8125 30.703125 12.25 
L 30.703125 17.984375 
L 28.90625 17.984375 
L 28.90625 12.34375 
C 28.90625 5.421875 26.203125 0.796875 22 0.796875 
C 19.09375 0.796875 15.09375 2.796875 15.09375 11.953125 
z
" id="CMR17-116"/>
     </defs>
     <g transform="translate(268.418716 431.951135)scale(0.12 -0.12)">
      <use transform="scale(0.996264)" xlink:href="#CMR17-78"/>
      <use transform="translate(69.07243 0)scale(0.996264)" xlink:href="#CMR17-117"/>
      <use transform="translate(119.9678 0)scale(0.996264)" xlink:href="#CMR17-109"/>
      <use transform="translate(194.284936 0)scale(0.996264)" xlink:href="#CMR17-98"/>
      <use transform="translate(247.782744 0)scale(0.996264)" xlink:href="#CMR17-101"/>
      <use transform="translate(288.268404 0)scale(0.996264)" xlink:href="#CMR17-114"/>
      <use transform="translate(353.625139 0)scale(0.996264)" xlink:href="#CMR17-111"/>
      <use transform="translate(399.315616 0)scale(0.996264)" xlink:href="#CMR17-102"/>
      <use transform="translate(456.865095 0)scale(0.996264)" xlink:href="#CMR17-115"/>
      <use transform="translate(492.666432 0)scale(0.996264)" xlink:href="#CMR17-111"/>
      <use transform="translate(538.356909 0)scale(0.996264)" xlink:href="#CMR17-108"/>
      <use transform="translate(563.227968 0)scale(0.996264)" xlink:href="#CMR17-118"/>
      <use transform="translate(608.91843 0)scale(0.996264)" xlink:href="#CMR17-101"/>
      <use transform="translate(649.40409 0)scale(0.996264)" xlink:href="#CMR17-100"/>
      <use transform="translate(730.375426 0)scale(0.996264)" xlink:href="#CMR17-105"/>
      <use transform="translate(755.246485 0)scale(0.996264)" xlink:href="#CMR17-110"/>
      <use transform="translate(806.141855 0)scale(0.996264)" xlink:href="#CMR17-112"/>
      <use transform="translate(857.037224 0)scale(0.996264)" xlink:href="#CMR17-117"/>
      <use transform="translate(907.932594 0)scale(0.996264)" xlink:href="#CMR17-116"/>
      <use transform="translate(943.213362 0)scale(0.996264)" xlink:href="#CMR17-115"/>
     </g>
    </g>
   </g>
   <g id="matplotlib.axis_2">
    <g id="ytick_1">
     <g id="line2d_6">
      <defs>
       <path d="M 0 0 
L -3.5 0 
" id="m9be577c8e5" style="stroke:#000000;stroke-width:0.8;"/>
      </defs>
      <g>
       <use style="stroke:#000000;stroke-width:0.8;" x="52.238737" xlink:href="#m9be577c8e5" y="352.973267"/>
      </g>
     </g>
     <g id="text_7">
      <!-- $2000$ -->
      <g transform="translate(21.826776 357.124357)scale(0.12 -0.12)">
       <use transform="scale(0.996264)" xlink:href="#CMR17-50"/>
       <use transform="translate(45.690477 0)scale(0.996264)" xlink:href="#CMR17-48"/>
       <use transform="translate(91.380954 0)scale(0.996264)" xlink:href="#CMR17-48"/>
       <use transform="translate(137.071431 0)scale(0.996264)" xlink:href="#CMR17-48"/>
      </g>
     </g>
    </g>
    <g id="ytick_2">
     <g id="line2d_7">
      <g>
       <use style="stroke:#000000;stroke-width:0.8;" x="52.238737" xlink:href="#m9be577c8e5" y="300.172035"/>
      </g>
     </g>
     <g id="text_8">
      <!-- $2500$ -->
      <defs>
       <path d="M 11.40625 58.59375 
C 12.40625 58.1875 16.5 56.890625 20.703125 56.890625 
C 30 56.890625 35.09375 61.890625 38 64.6875 
C 38 65.484375 38 66 37.40625 66 
C 37.296875 66 37.09375 66 36.296875 65.59375 
C 32.796875 64.09375 28.703125 63 23.703125 63 
C 20.703125 63 16.203125 63.359375 11.296875 65.484375 
C 10.203125 66 10 66 9.90625 66 
C 9.40625 66 9.296875 65.890625 9.296875 63.90625 
L 9.296875 34.859375 
C 9.296875 33.015625 9.296875 32.5 10.296875 32.5 
C 10.796875 32.5 11 32.703125 11.5 33.421875 
C 14.703125 38.046875 19.09375 40 24.09375 40 
C 27.59375 40 35.09375 37.734375 35.09375 20.203125 
C 35.09375 16.984375 35.09375 11.1875 32.09375 6.59375 
C 29.59375 2.484375 25.703125 0.390625 21.40625 0.390625 
C 14.796875 0.390625 8.09375 4.984375 6.296875 12.6875 
C 6.703125 12.59375 7.5 12.390625 7.90625 12.390625 
C 9.203125 12.390625 11.703125 13.09375 11.703125 16.1875 
C 11.703125 18.890625 9.796875 20 7.90625 20 
C 5.59375 20 4.09375 18.59375 4.09375 15.796875 
C 4.09375 7.09375 11 -2 21.59375 -2 
C 31.90625 -2 41.703125 6.890625 41.703125 19.796875 
C 41.703125 32.09375 33.90625 41.59375 24.203125 41.59375 
C 19.09375 41.59375 14.796875 39.6875 11.40625 36 
z
" id="CMR17-53"/>
      </defs>
      <g transform="translate(21.826776 304.323125)scale(0.12 -0.12)">
       <use transform="scale(0.996264)" xlink:href="#CMR17-50"/>
       <use transform="translate(45.690477 0)scale(0.996264)" xlink:href="#CMR17-53"/>
       <use transform="translate(91.380954 0)scale(0.996264)" xlink:href="#CMR17-48"/>
       <use transform="translate(137.071431 0)scale(0.996264)" xlink:href="#CMR17-48"/>
      </g>
     </g>
    </g>
    <g id="ytick_3">
     <g id="line2d_8">
      <g>
       <use style="stroke:#000000;stroke-width:0.8;" x="52.238737" xlink:href="#m9be577c8e5" y="247.370803"/>
      </g>
     </g>
     <g id="text_9">
      <!-- $3000$ -->
      <g transform="translate(21.826776 251.521893)scale(0.12 -0.12)">
       <use transform="scale(0.996264)" xlink:href="#CMR17-51"/>
       <use transform="translate(45.690477 0)scale(0.996264)" xlink:href="#CMR17-48"/>
       <use transform="translate(91.380954 0)scale(0.996264)" xlink:href="#CMR17-48"/>
       <use transform="translate(137.071431 0)scale(0.996264)" xlink:href="#CMR17-48"/>
      </g>
     </g>
    </g>
    <g id="ytick_4">
     <g id="line2d_9">
      <g>
       <use style="stroke:#000000;stroke-width:0.8;" x="52.238737" xlink:href="#m9be577c8e5" y="194.569571"/>
      </g>
     </g>
     <g id="text_10">
      <!-- $3500$ -->
      <g transform="translate(21.826776 198.720661)scale(0.12 -0.12)">
       <use transform="scale(0.996264)" xlink:href="#CMR17-51"/>
       <use transform="translate(45.690477 0)scale(0.996264)" xlink:href="#CMR17-53"/>
       <use transform="translate(91.380954 0)scale(0.996264)" xlink:href="#CMR17-48"/>
       <use transform="translate(137.071431 0)scale(0.996264)" xlink:href="#CMR17-48"/>
      </g>
     </g>
    </g>
    <g id="ytick_5">
     <g id="line2d_10">
      <g>
       <use style="stroke:#000000;stroke-width:0.8;" x="52.238737" xlink:href="#m9be577c8e5" y="141.768338"/>
      </g>
     </g>
     <g id="text_11">
      <!-- $4000$ -->
      <g transform="translate(21.826776 145.919428)scale(0.12 -0.12)">
       <use transform="scale(0.996264)" xlink:href="#CMR17-52"/>
       <use transform="translate(45.690477 0)scale(0.996264)" xlink:href="#CMR17-48"/>
       <use transform="translate(91.380954 0)scale(0.996264)" xlink:href="#CMR17-48"/>
       <use transform="translate(137.071431 0)scale(0.996264)" xlink:href="#CMR17-48"/>
      </g>
     </g>
    </g>
    <g id="ytick_6">
     <g id="line2d_11">
      <g>
       <use style="stroke:#000000;stroke-width:0.8;" x="52.238737" xlink:href="#m9be577c8e5" y="88.967106"/>
      </g>
     </g>
     <g id="text_12">
      <!-- $4500$ -->
      <g transform="translate(21.826776 93.118196)scale(0.12 -0.12)">
       <use transform="scale(0.996264)" xlink:href="#CMR17-52"/>
       <use transform="translate(45.690477 0)scale(0.996264)" xlink:href="#CMR17-53"/>
       <use transform="translate(91.380954 0)scale(0.996264)" xlink:href="#CMR17-48"/>
       <use transform="translate(137.071431 0)scale(0.996264)" xlink:href="#CMR17-48"/>
      </g>
     </g>
    </g>
    <g id="ytick_7">
     <g id="line2d_12">
      <g>
       <use style="stroke:#000000;stroke-width:0.8;" x="52.238737" xlink:href="#m9be577c8e5" y="36.165874"/>
      </g>
     </g>
     <g id="text_13">
      <!-- $5000$ -->
      <g transform="translate(21.826776 40.316964)scale(0.12 -0.12)">
       <use transform="scale(0.996264)" xlink:href="#CMR17-53"/>
       <use transform="translate(45.690477 0)scale(0.996264)" xlink:href="#CMR17-48"/>
       <use transform="translate(91.380954 0)scale(0.996264)" xlink:href="#CMR17-48"/>
       <use transform="translate(137.071431 0)scale(0.996264)" xlink:href="#CMR17-48"/>
      </g>
     </g>
    </g>
    <g id="text_14">
     <!-- Time to solve an input -->
     <defs>
      <path d="M 62.203125 67.6875 
L 4.5 67.6875 
L 2.796875 45.6875 
L 4.59375 45.6875 
C 5.90625 62.203125 7.296875 65.09375 22.703125 65.09375 
C 24.5 65.09375 27.40625 65.09375 28.203125 64.984375 
C 30.09375 64.6875 30.09375 63.5 30.09375 61.203125 
L 30.09375 7.265625 
C 30.09375 3.6875 29.796875 2.59375 21.5 2.59375 
L 18.703125 2.59375 
L 18.703125 0 
C 23.5 0.09375 28.5 0.1875 33.40625 0.1875 
C 38.296875 0.1875 43.296875 0.09375 48.09375 0 
L 48.09375 2.59375 
L 45.296875 2.59375 
C 37 2.59375 36.703125 3.6875 36.703125 7.265625 
L 36.703125 61.203125 
C 36.703125 63.390625 36.703125 64.59375 38.5 64.984375 
C 39.296875 65.09375 42.203125 65.09375 44 65.09375 
C 59.296875 65.09375 60.796875 62.203125 62.09375 45.6875 
L 63.90625 45.6875 
z
" id="CMR17-84"/>
      <path d="M 36 25.875 
C 36 32 36 35.546875 31.796875 39.59375 
C 28.09375 42.984375 23.796875 44 20.40625 44 
C 12.5 44 6.796875 37.625 6.796875 30.890625 
C 6.796875 27.1875 9.796875 27 10.40625 27 
C 11.703125 27 14 27.796875 14 30.59375 
C 14 33.09375 12.09375 34.1875 10.40625 34.1875 
C 10 34.1875 9.5 34.09375 9.203125 34 
C 11.296875 40.53125 16.703125 42.390625 20.203125 42.390625 
C 25.203125 42.390625 30.703125 37.828125 30.703125 29.296875 
L 30.703125 25.5 
C 24.796875 25.296875 17.703125 24.5 12.09375 21.453125 
C 5.796875 17.921875 4 12.84375 4 9 
C 4 1.203125 13 -1 18.296875 -1 
C 23.796875 -1 28.90625 2.109375 31.09375 7.890625 
C 31.296875 3.421875 34.09375 -0.609375 38.5 -0.609375 
C 40.59375 -0.609375 45.90625 0.796875 45.90625 8.796875 
L 45.90625 14.46875 
L 44.09375 14.46875 
L 44.09375 8.703125 
C 44.09375 2.515625 41.40625 1.703125 40.09375 1.703125 
C 36 1.703125 36 6.96875 36 11.4375 
z
M 30.703125 13.859375 
C 30.703125 5.046875 24.5 0.59375 19 0.59375 
C 14 0.59375 10.09375 4.34375 10.09375 9 
C 10.09375 12.046875 11.40625 17.40625 17.203125 20.65625 
C 22 23.390625 27.5 23.796875 30.703125 24 
z
" id="CMR17-97"/>
     </defs>
     <g transform="translate(15.50218 270.324599)rotate(-90)scale(0.12 -0.12)">
      <use transform="scale(0.996264)" xlink:href="#CMR17-84"/>
      <use transform="translate(66.509881 0)scale(0.996264)" xlink:href="#CMR17-105"/>
      <use transform="translate(91.380939 0)scale(0.996264)" xlink:href="#CMR17-109"/>
      <use transform="translate(168.300529 0)scale(0.996264)" xlink:href="#CMR17-101"/>
      <use transform="translate(238.862156 0)scale(0.996264)" xlink:href="#CMR17-116"/>
      <use transform="translate(274.142924 0)scale(0.996264)" xlink:href="#CMR17-111"/>
      <use transform="translate(349.909367 0)scale(0.996264)" xlink:href="#CMR17-115"/>
      <use transform="translate(385.710705 0)scale(0.996264)" xlink:href="#CMR17-111"/>
      <use transform="translate(431.401182 0)scale(0.996264)" xlink:href="#CMR17-108"/>
      <use transform="translate(456.27224 0)scale(0.996264)" xlink:href="#CMR17-118"/>
      <use transform="translate(501.962702 0)scale(0.996264)" xlink:href="#CMR17-101"/>
      <use transform="translate(572.524329 0)scale(0.996264)" xlink:href="#CMR17-97"/>
      <use transform="translate(618.214806 0)scale(0.996264)" xlink:href="#CMR17-110"/>
      <use transform="translate(699.186142 0)scale(0.996264)" xlink:href="#CMR17-105"/>
      <use transform="translate(724.057201 0)scale(0.996264)" xlink:href="#CMR17-110"/>
      <use transform="translate(774.95257 0)scale(0.996264)" xlink:href="#CMR17-112"/>
      <use transform="translate(825.84794 0)scale(0.996264)" xlink:href="#CMR17-117"/>
      <use transform="translate(876.74331 0)scale(0.996264)" xlink:href="#CMR17-116"/>
     </g>
    </g>
   </g>
   <g id="line2d_13">
    <path clip-path="url(#p1ddca485cf)" d="M 64.611242 311.479947 
L 76.983748 311.195876 
L 89.356253 307.607505 
L 101.728759 302.073935 
L 114.101264 290.70583 
L 126.47377 285.177541 
L 138.846275 283.449885 
L 151.218781 282.342115 
L 163.591286 282.237568 
L 175.963792 279.388414 
L 188.336298 277.963837 
L 200.708803 273.425043 
L 213.081309 263.827891 
L 225.453814 262.571222 
L 237.82632 256.518088 
L 250.198825 237.630031 
L 262.571331 236.312113 
L 274.943836 232.074286 
L 287.316342 215.999479 
L 299.688847 206.547002 
L 312.061353 202.863588 
L 324.433859 195.954019 
L 336.806364 194.552674 
L 349.17887 185.95241 
L 361.551375 185.238537 
L 373.923881 175.457637 
L 386.296386 165.779171 
L 398.668892 165.580638 
L 411.041397 165.122323 
L 423.413903 160.201249 
L 435.786408 145.819249 
L 448.158914 140.228654 
L 460.53142 140.069195 
L 472.903925 139.865382 
L 485.276431 138.612937 
L 497.648936 130.408681 
L 510.021442 129.655736 
L 522.393947 129.427634 
L 534.766453 108.165634 
L 547.138958 78.506126 
L 559.511464 69.089554 
L 571.883969 62.233842 
L 584.256475 44.713337 
" style="fill:none;stroke:#1f77b4;stroke-linecap:square;"/>
   </g>
   <g id="line2d_14">
    <path clip-path="url(#p1ddca485cf)" d="M 64.611242 354.298578 
L 76.983748 339.752895 
L 89.356253 331.407132 
L 101.728759 328.177809 
L 114.101264 327.461824 
L 126.47377 325.262125 
L 138.846275 320.887014 
L 151.218781 317.945986 
L 163.591286 311.581325 
L 175.963792 309.410139 
L 188.336298 298.166644 
L 200.708803 297.075771 
L 213.081309 295.877183 
L 225.453814 295.742012 
L 237.82632 290.992013 
L 250.198825 289.380519 
L 262.571331 289.336166 
L 274.943836 287.589501 
L 287.316342 284.231343 
L 299.688847 281.382189 
L 312.061353 272.37113 
L 324.433859 270.445997 
L 336.806364 266.636916 
L 349.17887 261.932327 
L 361.551375 259.804437 
L 373.923881 255.024869 
L 386.296386 252.783985 
L 398.668892 250.927494 
L 411.041397 250.544157 
L 423.413903 241.874195 
L 435.786408 240.511923 
L 448.158914 198.635265 
L 460.53142 183.830856 
L 472.903925 153.76689 
L 485.276431 146.78868 
L 497.648936 143.254165 
L 510.021442 138.371107 
L 522.393947 97.294917 
L 534.766453 72.606116 
L 547.138958 43.01525 
" style="fill:none;stroke:#ff7f0e;stroke-linecap:square;"/>
   </g>
   <g id="line2d_15">
    <path clip-path="url(#p1ddca485cf)" d="M 64.611242 333.010177 
L 76.983748 328.239058 
L 89.356253 322.629455 
L 101.728759 318.564816 
L 114.101264 308.482949 
L 126.47377 306.327603 
L 138.846275 296.505517 
L 151.218781 295.416756 
L 163.591286 293.288866 
L 175.963792 292.573938 
L 188.336298 290.196826 
L 200.708803 288.495571 
L 213.081309 288.413201 
L 225.453814 287.348728 
L 237.82632 285.592559 
L 250.198825 282.327331 
L 262.571331 278.514026 
L 274.943836 278.241571 
L 287.316342 275.86974 
L 299.688847 271.631913 
L 312.061353 270.800822 
L 324.433859 249.649704 
L 336.806364 246.964233 
L 349.17887 245.824783 
L 361.551375 241.863634 
L 373.923881 241.850962 
L 386.296386 237.827508 
L 398.668892 232.159824 
L 411.041397 225.383314 
L 423.413903 212.921167 
L 435.786408 211.032995 
L 448.158914 194.55901 
L 460.53142 188.322129 
L 472.903925 149.948305 
L 485.276431 149.291458 
L 497.648936 97.012958 
L 510.021442 78.929592 
L 522.393947 76.902025 
L 534.766453 56.626351 
L 547.138958 54.798373 
" style="fill:none;stroke:#ff7f0e;stroke-dasharray:1,1.65;stroke-dashoffset:0;"/>
   </g>
   <g id="line2d_16">
    <path clip-path="url(#p1ddca485cf)" d="M 64.611242 286.696105 
L 76.983748 285.349673 
L 89.356253 280.061102 
L 101.728759 280.023085 
L 114.101264 279.996684 
L 126.47377 278.18349 
L 138.846275 268.836616 
L 151.218781 267.816496 
L 163.591286 259.874135 
L 175.963792 257.386141 
L 188.336298 256.988019 
L 200.708803 253.065944 
L 213.081309 252.779761 
L 225.453814 247.291601 
L 237.82632 231.839848 
L 250.198825 230.138593 
L 262.571331 229.374031 
L 274.943836 209.127926 
L 287.316342 187.70013 
L 299.688847 176.607647 
L 312.061353 172.854536 
L 324.433859 163.133829 
L 336.806364 153.733098 
L 349.17887 146.457088 
L 361.551375 136.78707 
L 373.923881 121.93514 
L 386.296386 117.922246 
L 398.668892 117.385785 
L 411.041397 108.525739 
L 423.413903 105.799083 
L 435.786408 102.738724 
L 448.158914 96.784857 
L 460.53142 84.675422 
L 472.903925 76.022356 
L 485.276431 68.533029 
L 497.648936 66.894079 
L 510.021442 45.26247 
L 522.393947 44.382802 
L 534.766453 38.798543 
" style="fill:none;stroke:#2ca02c;stroke-linecap:square;"/>
   </g>
   <g id="line2d_17">
    <path clip-path="url(#p1ddca485cf)" d="M 64.611242 384.725816 
L 76.983748 379.857543 
L 89.356253 376.389558 
L 101.728759 374.827697 
L 114.101264 369.740826 
L 126.47377 368.223319 
L 138.846275 362.276844 
L 151.218781 358.007337 
L 163.591286 356.156125 
L 175.963792 355.250056 
L 188.336298 350.88445 
L 200.708803 341.5154 
L 213.081309 337.815089 
L 225.453814 329.081766 
L 237.82632 321.64524 
L 250.198825 312.573988 
L 262.571331 312.457826 
L 274.943836 311.223333 
L 287.316342 310.367953 
L 299.688847 308.610728 
L 312.061353 300.907028 
L 324.433859 291.667869 
L 336.806364 289.377351 
L 349.17887 286.432098 
L 361.551375 282.702219 
L 373.923881 275.80321 
L 386.296386 256.289987 
L 398.668892 251.390033 
L 411.041397 248.0889 
L 423.413903 238.807499 
L 435.786408 235.322618 
L 448.158914 227.510147 
L 460.53142 211.170278 
L 472.903925 205.665222 
L 485.276431 181.931068 
L 497.648936 105.947982 
L 510.021442 99.062702 
L 522.393947 41.375244 
L 534.766453 40.370964 
" style="fill:none;stroke:#ff7f0e;stroke-dasharray:6.4,1.6,1,1.6;stroke-dashoffset:0;"/>
   </g>
   <g id="patch_3">
    <path d="M 52.238737 402.02218 
L 52.238737 21.50218 
" style="fill:none;stroke:#000000;stroke-linecap:square;stroke-linejoin:miter;stroke-width:0.8;"/>
   </g>
   <g id="patch_4">
    <path d="M 610.238737 402.02218 
L 610.238737 21.50218 
" style="fill:none;stroke:#000000;stroke-linecap:square;stroke-linejoin:miter;stroke-width:0.8;"/>
   </g>
   <g id="patch_5">
    <path d="M 52.238737 402.02218 
L 610.238737 402.02218 
" style="fill:none;stroke:#000000;stroke-linecap:square;stroke-linejoin:miter;stroke-width:0.8;"/>
   </g>
   <g id="patch_6">
    <path d="M 52.238737 21.50218 
L 610.238737 21.50218 
" style="fill:none;stroke:#000000;stroke-linecap:square;stroke-linejoin:miter;stroke-width:0.8;"/>
   </g>
   <g id="text_15">
    <!-- Comparison of experimentwares -->
    <defs>
     <path d="M 62.09375 67.984375 
C 62.09375 69.796875 62 69.890625 61.40625 69.890625 
C 61 69.890625 60.90625 69.796875 60.203125 68.59375 
L 55.796875 60.140625 
C 50.90625 66.390625 44.90625 70 37.203125 70 
C 20.09375 70 4.59375 54.796875 4.59375 34.046875 
C 4.59375 13.078125 20.09375 -2 37.296875 -2 
C 52.59375 -2 62.09375 11.578125 62.09375 23.15625 
C 62.09375 24.171875 62.09375 24.578125 61.203125 24.578125 
C 60.40625 24.578125 60.40625 24.265625 60.296875 23.359375 
C 59.5 9.25 49.5 0.59375 38.703125 0.59375 
C 28.5 0.59375 12.203125 7.84375 12.203125 34.046875 
C 12.203125 60.34375 28.796875 67.390625 38.5 67.390625 
C 49.796875 67.390625 58 57.515625 59.90625 43.515625 
C 60.09375 42.296875 60.09375 42.109375 61 42.109375 
C 62.09375 42.109375 62.09375 42.296875 62.09375 44.125 
z
" id="CMR17-67"/>
     <path d="M 26 23.296875 
C 29 27.1875 32.40625 31.59375 35.203125 34.890625 
C 38.5 38.6875 42.296875 40.296875 46.703125 40.390625 
L 46.703125 43 
C 45 42.890625 41.5 42.796875 39.703125 42.796875 
C 37 42.796875 33.90625 42.796875 31.59375 43 
L 31.59375 40.390625 
C 33 40.1875 33.796875 39.1875 33.796875 37.796875 
C 33.796875 36 32.796875 34.890625 32.296875 34.1875 
L 24.90625 24.796875 
L 16.09375 36.296875 
C 15.203125 37.390625 15.203125 37.59375 15.203125 38.09375 
C 15.203125 39.296875 16.203125 40.296875 17.90625 40.390625 
L 17.90625 43 
C 15.5 42.796875 11.203125 42.796875 8.703125 42.796875 
C 6 42.796875 2.796875 42.796875 0.59375 43 
L 0.59375 40.390625 
C 6 40.390625 7.203125 40 9.59375 37 
L 21.09375 22.09375 
C 21.296875 21.890625 21.796875 21.296875 21.796875 21 
C 21.796875 20.59375 13.09375 9.890625 12 8.5 
C 7.5 3.09375 2.796875 2.6875 0.09375 2.59375 
L 0.09375 0 
C 1.796875 0.09375 5.296875 0.1875 7.09375 0.1875 
C 9.09375 0.1875 13.5 0.1875 15.296875 0 
L 15.296875 2.59375 
C 14.703125 2.6875 13.09375 2.890625 13.09375 5.1875 
C 13.09375 7 13.90625 8.09375 14.796875 9.296875 
L 23.09375 19.5 
L 31.796875 8.1875 
C 32.59375 7.09375 33.796875 5.59375 33.796875 4.890625 
C 33.796875 3.5 32.59375 2.6875 31 2.59375 
L 31 0 
C 33.40625 0.1875 37.703125 0.1875 40.203125 0.1875 
C 42.90625 0.1875 46.09375 0.1875 48.296875 0 
L 48.296875 2.59375 
C 43.296875 2.59375 41.796875 2.796875 39.40625 5.890625 
z
" id="CMR17-120"/>
     <path d="M 58.203125 34.15625 
C 60.203125 40.09375 64.203125 40.296875 65.703125 40.390625 
L 65.703125 43 
C 63.703125 42.890625 61.703125 42.796875 59.703125 42.796875 
C 57.796875 42.796875 53.5 42.796875 51.796875 43 
L 51.796875 40.390625 
C 54.90625 40.1875 56.59375 38.375 56.59375 35.875 
C 56.59375 35.171875 56.40625 34.265625 56.203125 33.5625 
L 46.796875 6.21875 
L 36.59375 35.875 
C 36.40625 36.578125 36.09375 37.375 36.09375 37.78125 
C 36.09375 40.390625 39.5 40.390625 41.09375 40.390625 
L 41.09375 43 
C 38.796875 42.796875 34.59375 42.796875 32.203125 42.796875 
C 29.703125 42.796875 27.09375 42.796875 24.796875 43 
L 24.796875 40.390625 
C 30.296875 40.390625 30.296875 40.1875 32.40625 33.859375 
L 23.203125 6.921875 
L 13.296875 35.96875 
C 12.796875 37.28125 12.796875 37.484375 12.796875 37.78125 
C 12.796875 40.390625 16.203125 40.390625 17.796875 40.390625 
L 17.796875 43 
C 15.40625 42.796875 11.203125 42.796875 8.703125 42.796875 
C 6.5 42.796875 3.09375 42.796875 1 43 
L 1 40.390625 
C 5.40625 40.390625 6.5 40.09375 7.59375 36.765625 
L 19.90625 0.59375 
C 20.296875 -0.703125 20.59375 -1 21.40625 -1 
C 22.09375 -1 22.5 -0.8125 23 0.6875 
L 33.296875 31.046875 
L 43.703125 0.6875 
C 44.203125 -0.8125 44.59375 -1 45.296875 -1 
C 46.09375 -1 46.40625 -0.703125 46.796875 0.59375 
z
" id="CMR17-119"/>
    </defs>
    <g transform="translate(249.557006 15.50218)scale(0.12 -0.12)">
     <use transform="scale(0.996264)" xlink:href="#CMR17-67"/>
     <use transform="translate(66.509881 0)scale(0.996264)" xlink:href="#CMR17-111"/>
     <use transform="translate(112.200358 0)scale(0.996264)" xlink:href="#CMR17-109"/>
     <use transform="translate(189.119948 0)scale(0.996264)" xlink:href="#CMR17-112"/>
     <use transform="translate(240.015317 0)scale(0.996264)" xlink:href="#CMR17-97"/>
     <use transform="translate(285.705794 0)scale(0.996264)" xlink:href="#CMR17-114"/>
     <use transform="translate(320.986562 0)scale(0.996264)" xlink:href="#CMR17-105"/>
     <use transform="translate(345.857621 0)scale(0.996264)" xlink:href="#CMR17-115"/>
     <use transform="translate(381.658958 0)scale(0.996264)" xlink:href="#CMR17-111"/>
     <use transform="translate(427.349435 0)scale(0.996264)" xlink:href="#CMR17-110"/>
     <use transform="translate(508.320772 0)scale(0.996264)" xlink:href="#CMR17-111"/>
     <use transform="translate(554.011249 0)scale(0.996264)" xlink:href="#CMR17-102"/>
     <use transform="translate(611.560727 0)scale(0.996264)" xlink:href="#CMR17-101"/>
     <use transform="translate(652.046388 0)scale(0.996264)" xlink:href="#CMR17-120"/>
     <use transform="translate(700.339304 0)scale(0.996264)" xlink:href="#CMR17-112"/>
     <use transform="translate(753.837112 0)scale(0.996264)" xlink:href="#CMR17-101"/>
     <use transform="translate(794.322773 0)scale(0.996264)" xlink:href="#CMR17-114"/>
     <use transform="translate(829.603541 0)scale(0.996264)" xlink:href="#CMR17-105"/>
     <use transform="translate(854.474599 0)scale(0.996264)" xlink:href="#CMR17-109"/>
     <use transform="translate(931.394189 0)scale(0.996264)" xlink:href="#CMR17-101"/>
     <use transform="translate(971.879849 0)scale(0.996264)" xlink:href="#CMR17-110"/>
     <use transform="translate(1020.172765 0)scale(0.996264)" xlink:href="#CMR17-116"/>
     <use transform="translate(1052.851079 0)scale(0.996264)" xlink:href="#CMR17-119"/>
     <use transform="translate(1116.758506 0)scale(0.996264)" xlink:href="#CMR17-97"/>
     <use transform="translate(1162.448983 0)scale(0.996264)" xlink:href="#CMR17-114"/>
     <use transform="translate(1197.729751 0)scale(0.996264)" xlink:href="#CMR17-101"/>
     <use transform="translate(1238.215411 0)scale(0.996264)" xlink:href="#CMR17-115"/>
    </g>
   </g>
   <g id="legend_1">
    <g id="patch_7">
     <path d="M 60.638737 135.190742 
L 313.532192 135.190742 
Q 315.932192 135.190742 315.932192 132.790742 
L 315.932192 29.90218 
Q 315.932192 27.50218 313.532192 27.50218 
L 60.638737 27.50218 
Q 58.238737 27.50218 58.238737 29.90218 
L 58.238737 132.790742 
Q 58.238737 135.190742 60.638737 135.190742 
z
" style="fill:#ffffff;opacity:0.8;stroke:#cccccc;stroke-linejoin:miter;"/>
    </g>
    <g id="line2d_18">
     <path d="M 63.038737 39.094285 
L 87.038737 39.094285 
" style="fill:none;stroke:#1f77b4;stroke-linecap:square;"/>
    </g>
    <g id="line2d_19"/>
    <g id="text_16">
     <!-- $\textrm{CaDiCaL}^\textrm{default}$ -->
     <defs>
      <path d="M 5.203125 68 
L 5.203125 65.390625 
C 12.09375 65.390625 13.203125 65.390625 13.203125 60.90625 
L 13.203125 7.078125 
C 13.203125 2.59375 12.09375 2.59375 5.203125 2.59375 
L 5.203125 0 
L 37 0 
C 53.09375 0 66 14.734375 66 33.4375 
C 66 52.25 53.296875 68 37 68 
z
M 23.796875 2.59375 
C 19.796875 2.59375 19.59375 3.09375 19.59375 6.46875 
L 19.59375 61.5 
C 19.59375 64.890625 19.796875 65.390625 23.796875 65.390625 
L 35 65.390625 
C 43.296875 65.390625 58.59375 60.515625 58.59375 33.4375 
C 58.59375 19.40625 54.5 13.734375 52.59375 11.046875 
C 50.203125 7.96875 44.5 2.59375 35 2.59375 
z
" id="CMR17-68"/>
      <path d="M 54.203125 25.1875 
L 52.40625 25.1875 
C 51.59375 15.328125 50.296875 2.59375 33.203125 2.59375 
L 23.90625 2.59375 
C 19.90625 2.59375 19.703125 3.09375 19.703125 6.46875 
L 19.703125 60.8125 
C 19.703125 64.390625 19.90625 65.390625 27.5 65.390625 
L 29.703125 65.390625 
L 29.703125 68 
C 25.59375 67.796875 20.796875 67.796875 16.703125 67.796875 
C 13.59375 67.796875 8 67.796875 5.09375 68 
L 5.09375 65.390625 
C 12 65.390625 13.09375 65.390625 13.09375 60.90625 
L 13.09375 7.078125 
C 13.09375 2.59375 12 2.59375 5.09375 2.59375 
L 5.09375 0 
L 51.796875 0 
z
" id="CMR17-76"/>
     </defs>
     <g transform="translate(96.638737 43.294285)scale(0.12 -0.12)">
      <use transform="scale(0.996264)" xlink:href="#CMR17-67"/>
      <use transform="translate(66.509881 0)scale(0.996264)" xlink:href="#CMR17-97"/>
      <use transform="translate(112.200358 0)scale(0.996264)" xlink:href="#CMR17-68"/>
      <use transform="translate(182.593914 0)scale(0.996264)" xlink:href="#CMR17-105"/>
      <use transform="translate(207.464972 0)scale(0.996264)" xlink:href="#CMR17-67"/>
      <use transform="translate(273.974853 0)scale(0.996264)" xlink:href="#CMR17-97"/>
      <use transform="translate(319.66533 0)scale(0.996264)" xlink:href="#CMR17-76"/>
      <use transform="translate(377.046738 41.137482)scale(0.996264)" xlink:href="#CMR17-100"/>
      <use transform="translate(427.942107 41.137482)scale(0.996264)" xlink:href="#CMR17-101"/>
      <use transform="translate(468.427768 41.137482)scale(0.996264)" xlink:href="#CMR17-102"/>
      <use transform="translate(495.90128 41.137482)scale(0.996264)" xlink:href="#CMR17-97"/>
      <use transform="translate(541.591757 41.137482)scale(0.996264)" xlink:href="#CMR17-117"/>
      <use transform="translate(592.487127 41.137482)scale(0.996264)" xlink:href="#CMR17-108"/>
      <use transform="translate(617.358186 41.137482)scale(0.996264)" xlink:href="#CMR17-116"/>
     </g>
    </g>
    <g id="line2d_20">
     <path d="M 63.038737 60.868399 
L 87.038737 60.868399 
" style="fill:none;stroke:#ff7f0e;stroke-linecap:square;"/>
    </g>
    <g id="line2d_21"/>
    <g id="text_17">
     <!-- $\textrm{MapleLCMDistChronoBT-DL-v2.2}^\textrm{default}$ -->
     <defs>
      <path d="M 20.90625 66.390625 
C 20.296875 67.890625 20.203125 68 18.09375 68 
L 5.296875 68 
L 5.296875 65.390625 
C 12.203125 65.390625 13.296875 65.390625 13.296875 60.90625 
L 13.296875 9.75 
C 13.296875 7.265625 13.296875 2.59375 5.296875 2.59375 
L 5.296875 0 
C 7.59375 0.1875 11.796875 0.1875 14.296875 0.1875 
C 16.796875 0.1875 21 0.1875 23.296875 0 
L 23.296875 2.59375 
C 15.296875 2.59375 15.296875 7.265625 15.296875 9.75 
L 15.296875 64.984375 
L 15.40625 64.984375 
L 38.90625 1.59375 
C 39.296875 0.59375 39.5 0 40.296875 0 
C 41.09375 0 41.296875 0.59375 41.703125 1.59375 
L 65.40625 65.484375 
L 65.5 65.484375 
L 65.5 7.078125 
C 65.5 2.59375 64.40625 2.59375 57.5 2.59375 
L 57.5 0 
C 60.203125 0.1875 65.59375 0.1875 68.5 0.1875 
C 71.40625 0.1875 76.90625 0.1875 79.59375 0 
L 79.59375 2.59375 
C 72.703125 2.59375 71.59375 2.59375 71.59375 7.078125 
L 71.59375 60.90625 
C 71.59375 65.390625 72.703125 65.390625 79.59375 65.390625 
L 79.59375 68 
L 66.90625 68 
C 64.796875 68 64.703125 67.890625 64.09375 66.390625 
L 42.5 8.0625 
z
" id="CMR17-77"/>
      <path d="M 41.5 30.53125 
C 41.5 35.65625 40.5 44 28.703125 44 
C 20.5 44 16.5 37.375 15.296875 34.046875 
L 15.203125 34.046875 
L 15.203125 69 
L 3.296875 67.890625 
L 3.296875 65.296875 
C 9.203125 65.296875 10.09375 64.703125 10.09375 60.046875 
L 10.09375 6.921875 
C 10.09375 3.09375 9.703125 2.59375 3.296875 2.59375 
L 3.296875 0 
C 5.703125 0.1875 10.09375 0.1875 12.703125 0.1875 
C 15.296875 0.1875 19.796875 0.1875 22.203125 0 
L 22.203125 2.59375 
C 15.796875 2.59375 15.40625 3 15.40625 6.921875 
L 15.40625 26.21875 
C 15.40625 35.453125 21 42.390625 28 42.390625 
C 35.40625 42.390625 36.203125 35.765625 36.203125 30.9375 
L 36.203125 6.921875 
C 36.203125 3.09375 35.796875 2.59375 29.40625 2.59375 
L 29.40625 0 
C 31.796875 0.1875 36.203125 0.1875 38.796875 0.1875 
C 41.40625 0.1875 45.90625 0.1875 48.296875 0 
L 48.296875 2.59375 
C 41.90625 2.59375 41.5 3 41.5 6.921875 
z
" id="CMR17-104"/>
      <path d="M 5.203125 68 
L 5.203125 65.390625 
C 12.09375 65.390625 13.203125 65.390625 13.203125 60.890625 
L 13.203125 7.046875 
C 13.203125 2.59375 12.09375 2.59375 5.203125 2.59375 
L 5.203125 0 
L 39.59375 0 
C 52.40625 0 60.703125 9.03125 60.703125 18.046875 
C 60.703125 26.96875 52.5 34.59375 41.796875 35.296875 
C 51.40625 37.1875 58.09375 43.59375 58.09375 51.1875 
C 58.09375 59.5 49.90625 68 37 68 
z
M 19.5 36 
L 19.5 61.5 
C 19.5 64.890625 19.703125 65.390625 23.703125 65.390625 
L 36.5 65.390625 
C 46.40625 65.390625 50.796875 57.390625 50.796875 51.1875 
C 50.796875 43.59375 44.703125 36 33.90625 36 
z
M 23.703125 2.59375 
C 19.703125 2.59375 19.5 3.09375 19.5 6.453125 
L 19.5 34.390625 
L 38 34.390625 
C 48.296875 34.390625 53.296875 25.375 53.296875 18.140625 
C 53.296875 10.90625 47.59375 2.59375 36.703125 2.59375 
z
" id="CMR17-66"/>
      <path d="M 25.5 19.59375 
L 25.5 24 
L 0.40625 24 
L 0.40625 19.59375 
z
" id="CMR17-45"/>
      <path d="M 16.59375 4.09375 
C 16.59375 6.59375 14.59375 8.1875 12.5 8.1875 
C 10.5 8.1875 8.40625 6.59375 8.40625 4.09375 
C 8.40625 1.59375 10.40625 0 12.5 0 
C 14.5 0 16.59375 1.59375 16.59375 4.09375 
z
" id="CMR17-46"/>
     </defs>
     <g transform="translate(96.638737 65.068399)scale(0.12 -0.12)">
      <use transform="scale(0.996264)" xlink:href="#CMR17-77"/>
      <use transform="translate(84.686941 0)scale(0.996264)" xlink:href="#CMR17-97"/>
      <use transform="translate(130.377418 0)scale(0.996264)" xlink:href="#CMR17-112"/>
      <use transform="translate(181.272787 0)scale(0.996264)" xlink:href="#CMR17-108"/>
      <use transform="translate(206.143846 0)scale(0.996264)" xlink:href="#CMR17-101"/>
      <use transform="translate(246.629506 0)scale(0.996264)" xlink:href="#CMR17-76"/>
      <use transform="translate(304.010914 0)scale(0.996264)" xlink:href="#CMR17-67"/>
      <use transform="translate(370.520795 0)scale(0.996264)" xlink:href="#CMR17-77"/>
      <use transform="translate(455.207735 0)scale(0.996264)" xlink:href="#CMR17-68"/>
      <use transform="translate(525.601291 0)scale(0.996264)" xlink:href="#CMR17-105"/>
      <use transform="translate(550.47235 0)scale(0.996264)" xlink:href="#CMR17-115"/>
      <use transform="translate(586.273687 0)scale(0.996264)" xlink:href="#CMR17-116"/>
      <use transform="translate(621.554455 0)scale(0.996264)" xlink:href="#CMR17-67"/>
      <use transform="translate(688.064336 0)scale(0.996264)" xlink:href="#CMR17-104"/>
      <use transform="translate(738.959706 0)scale(0.996264)" xlink:href="#CMR17-114"/>
      <use transform="translate(774.240473 0)scale(0.996264)" xlink:href="#CMR17-111"/>
      <use transform="translate(819.93095 0)scale(0.996264)" xlink:href="#CMR17-110"/>
      <use transform="translate(870.82632 0)scale(0.996264)" xlink:href="#CMR17-111"/>
      <use transform="translate(916.516797 0)scale(0.996264)" xlink:href="#CMR17-66"/>
      <use transform="translate(981.705552 0)scale(0.996264)" xlink:href="#CMR17-84"/>
      <use transform="translate(1048.215432 0)scale(0.996264)" xlink:href="#CMR17-45"/>
      <use transform="translate(1078.291399 0)scale(0.996264)" xlink:href="#CMR17-68"/>
      <use transform="translate(1148.684955 0)scale(0.996264)" xlink:href="#CMR17-76"/>
      <use transform="translate(1206.066362 0)scale(0.996264)" xlink:href="#CMR17-45"/>
      <use transform="translate(1236.142329 0)scale(0.996264)" xlink:href="#CMR17-118"/>
      <use transform="translate(1284.435245 0)scale(0.996264)" xlink:href="#CMR17-50"/>
      <use transform="translate(1330.125722 0)scale(0.996264)" xlink:href="#CMR17-46"/>
      <use transform="translate(1354.99678 0)scale(0.996264)" xlink:href="#CMR17-50"/>
      <use transform="translate(1400.687257 42.258523)scale(0.996264)" xlink:href="#CMR17-100"/>
      <use transform="translate(1451.582627 42.258523)scale(0.996264)" xlink:href="#CMR17-101"/>
      <use transform="translate(1492.068288 42.258523)scale(0.996264)" xlink:href="#CMR17-102"/>
      <use transform="translate(1519.5418 42.258523)scale(0.996264)" xlink:href="#CMR17-97"/>
      <use transform="translate(1565.232277 42.258523)scale(0.996264)" xlink:href="#CMR17-117"/>
      <use transform="translate(1616.127647 42.258523)scale(0.996264)" xlink:href="#CMR17-108"/>
      <use transform="translate(1640.998705 42.258523)scale(0.996264)" xlink:href="#CMR17-116"/>
     </g>
    </g>
    <g id="line2d_22">
     <path d="M 63.038737 82.642513 
L 87.038737 82.642513 
" style="fill:none;stroke:#ff7f0e;stroke-dasharray:1,1.65;stroke-dashoffset:0;"/>
    </g>
    <g id="line2d_23"/>
    <g id="text_18">
     <!-- $\textrm{MapleLCMDistChronoBT-DL-v2.1}^\textrm{default}$ -->
     <g transform="translate(96.638737 86.842513)scale(0.12 -0.12)">
      <use transform="scale(0.996264)" xlink:href="#CMR17-77"/>
      <use transform="translate(84.686941 0)scale(0.996264)" xlink:href="#CMR17-97"/>
      <use transform="translate(130.377418 0)scale(0.996264)" xlink:href="#CMR17-112"/>
      <use transform="translate(181.272787 0)scale(0.996264)" xlink:href="#CMR17-108"/>
      <use transform="translate(206.143846 0)scale(0.996264)" xlink:href="#CMR17-101"/>
      <use transform="translate(246.629506 0)scale(0.996264)" xlink:href="#CMR17-76"/>
      <use transform="translate(304.010914 0)scale(0.996264)" xlink:href="#CMR17-67"/>
      <use transform="translate(370.520795 0)scale(0.996264)" xlink:href="#CMR17-77"/>
      <use transform="translate(455.207735 0)scale(0.996264)" xlink:href="#CMR17-68"/>
      <use transform="translate(525.601291 0)scale(0.996264)" xlink:href="#CMR17-105"/>
      <use transform="translate(550.47235 0)scale(0.996264)" xlink:href="#CMR17-115"/>
      <use transform="translate(586.273687 0)scale(0.996264)" xlink:href="#CMR17-116"/>
      <use transform="translate(621.554455 0)scale(0.996264)" xlink:href="#CMR17-67"/>
      <use transform="translate(688.064336 0)scale(0.996264)" xlink:href="#CMR17-104"/>
      <use transform="translate(738.959706 0)scale(0.996264)" xlink:href="#CMR17-114"/>
      <use transform="translate(774.240473 0)scale(0.996264)" xlink:href="#CMR17-111"/>
      <use transform="translate(819.93095 0)scale(0.996264)" xlink:href="#CMR17-110"/>
      <use transform="translate(870.82632 0)scale(0.996264)" xlink:href="#CMR17-111"/>
      <use transform="translate(916.516797 0)scale(0.996264)" xlink:href="#CMR17-66"/>
      <use transform="translate(981.705552 0)scale(0.996264)" xlink:href="#CMR17-84"/>
      <use transform="translate(1048.215432 0)scale(0.996264)" xlink:href="#CMR17-45"/>
      <use transform="translate(1078.291399 0)scale(0.996264)" xlink:href="#CMR17-68"/>
      <use transform="translate(1148.684955 0)scale(0.996264)" xlink:href="#CMR17-76"/>
      <use transform="translate(1206.066362 0)scale(0.996264)" xlink:href="#CMR17-45"/>
      <use transform="translate(1236.142329 0)scale(0.996264)" xlink:href="#CMR17-118"/>
      <use transform="translate(1284.435245 0)scale(0.996264)" xlink:href="#CMR17-50"/>
      <use transform="translate(1330.125722 0)scale(0.996264)" xlink:href="#CMR17-46"/>
      <use transform="translate(1354.99678 0)scale(0.996264)" xlink:href="#CMR17-49"/>
      <use transform="translate(1400.687257 42.258523)scale(0.996264)" xlink:href="#CMR17-100"/>
      <use transform="translate(1451.582627 42.258523)scale(0.996264)" xlink:href="#CMR17-101"/>
      <use transform="translate(1492.068288 42.258523)scale(0.996264)" xlink:href="#CMR17-102"/>
      <use transform="translate(1519.5418 42.258523)scale(0.996264)" xlink:href="#CMR17-97"/>
      <use transform="translate(1565.232277 42.258523)scale(0.996264)" xlink:href="#CMR17-117"/>
      <use transform="translate(1616.127647 42.258523)scale(0.996264)" xlink:href="#CMR17-108"/>
      <use transform="translate(1640.998705 42.258523)scale(0.996264)" xlink:href="#CMR17-116"/>
     </g>
    </g>
    <g id="line2d_24">
     <path d="M 63.038737 102.092032 
L 87.038737 102.092032 
" style="fill:none;stroke:#2ca02c;stroke-linecap:square;"/>
    </g>
    <g id="line2d_25"/>
    <g id="text_19">
     <!-- $\textrm{cmsatv56-walksat-chronobt}^\textrm{default}$ -->
     <defs>
      <path d="M 34.90625 35 
C 33 35 30.203125 35 30.203125 31.484375 
C 30.203125 28.6875 32.5 27.890625 33.796875 27.890625 
C 34.5 27.890625 37.40625 28.1875 37.40625 31.6875 
C 37.40625 38.6875 30.59375 44 22.90625 44 
C 12.296875 44 3.296875 34.390625 3.296875 21.546875 
C 3.296875 8.140625 12.703125 -1 22.90625 -1 
C 35.296875 -1 38.40625 10.5625 38.40625 11.671875 
C 38.40625 12.078125 38.296875 12.375 37.59375 12.375 
C 36.90625 12.375 36.796875 12.28125 36.40625 10.96875 
C 33.796875 2.8125 28.09375 0.796875 23.796875 0.796875 
C 17.40625 0.796875 9.703125 6.734375 9.703125 21.640625 
C 9.703125 36.84375 17.09375 42.1875 23 42.1875 
C 26.90625 42.1875 32.703125 40.34375 34.90625 35 
z
" id="CMR17-99"/>
      <path d="M 10.59375 34.34375 
C 10.59375 58 21.796875 63.6875 28.296875 63.6875 
C 30.40625 63.6875 35.5 63.265625 37.5 59.09375 
C 35.90625 59.09375 32.90625 59.09375 32.90625 55.59375 
C 32.90625 52.890625 35.09375 52 36.5 52 
C 37.40625 52 40.09375 52.390625 40.09375 55.796875 
C 40.09375 62.296875 35.09375 66 28.203125 66 
C 16.296875 66 3.796875 53.296875 3.796875 31.421875 
C 3.796875 4.015625 15.09375 -2 23.09375 -2 
C 32.796875 -2 42 6.734375 42 20.234375 
C 42 32.828125 33.90625 42 23.703125 42 
C 17.59375 42 13.09375 37.96875 10.59375 30.921875 
z
M 23.09375 0.390625 
C 10.796875 0.390625 10.796875 18.9375 10.796875 22.65625 
C 10.796875 29.90625 14.203125 40.390625 23.5 40.390625 
C 25.203125 40.390625 30.09375 40.390625 33.40625 33.4375 
C 35.203125 29.515625 35.203125 25.375 35.203125 20.34375 
C 35.203125 14.90625 35.203125 10.875 33.09375 6.84375 
C 30.90625 2.703125 27.703125 0.390625 23.09375 0.390625 
z
" id="CMR17-54"/>
      <path d="M 26.09375 26.234375 
C 26 26.4375 25.5 27.03125 25.5 27.328125 
C 25.5 27.53125 32.59375 33.984375 33.5 34.78125 
C 39.203125 39.5625 42.796875 40.046875 45.40625 40.15625 
L 45.40625 42.734375 
C 44.796875 42.734375 44.59375 42.734375 44.5 42.640625 
L 39.59375 42.53125 
C 36.796875 42.53125 32.5 42.53125 29.796875 42.734375 
L 29.796875 40.15625 
C 31.203125 40.046875 32.203125 39.265625 32.203125 37.859375 
C 32.203125 35.875 30.203125 33.984375 30.09375 33.984375 
L 15 20.28125 
L 15 69 
L 3.09375 67.890625 
L 3.09375 65.296875 
C 9 65.296875 9.90625 64.703125 9.90625 59.921875 
L 9.90625 6.859375 
C 9.90625 3.09375 9.5 2.59375 3.09375 2.59375 
L 3.09375 0 
C 5.5 0.1875 9.90625 0.1875 12.40625 0.1875 
C 14.90625 0.1875 19.296875 0.1875 21.703125 0 
L 21.703125 2.59375 
C 15.296875 2.59375 14.90625 2.984375 14.90625 6.859375 
L 14.90625 17.796875 
L 21.796875 24.0625 
L 31.90625 9.15625 
C 33.09375 7.359375 34.09375 5.96875 34.09375 4.671875 
C 34.09375 2.890625 32.296875 2.59375 31.09375 2.59375 
L 31.09375 0 
C 33.5 0.1875 37.796875 0.1875 40.296875 0.1875 
C 42.09375 0.1875 45.796875 0.09375 47.5 0 
L 47.5 2.59375 
C 42.796875 2.59375 41.703125 3.484375 38.703125 7.859375 
z
" id="CMR17-107"/>
     </defs>
     <g transform="translate(96.638737 106.292032)scale(0.12 -0.12)">
      <use transform="scale(0.996264)" xlink:href="#CMR17-99"/>
      <use transform="translate(40.48566 0)scale(0.996264)" xlink:href="#CMR17-109"/>
      <use transform="translate(117.40525 0)scale(0.996264)" xlink:href="#CMR17-115"/>
      <use transform="translate(153.206588 0)scale(0.996264)" xlink:href="#CMR17-97"/>
      <use transform="translate(198.897065 0)scale(0.996264)" xlink:href="#CMR17-116"/>
      <use transform="translate(234.177833 0)scale(0.996264)" xlink:href="#CMR17-118"/>
      <use transform="translate(282.470749 0)scale(0.996264)" xlink:href="#CMR17-53"/>
      <use transform="translate(328.161226 0)scale(0.996264)" xlink:href="#CMR17-54"/>
      <use transform="translate(373.851703 0)scale(0.996264)" xlink:href="#CMR17-45"/>
      <use transform="translate(403.927669 0)scale(0.996264)" xlink:href="#CMR17-119"/>
      <use transform="translate(467.835096 0)scale(0.996264)" xlink:href="#CMR17-97"/>
      <use transform="translate(513.525573 0)scale(0.996264)" xlink:href="#CMR17-108"/>
      <use transform="translate(538.396632 0)scale(0.996264)" xlink:href="#CMR17-107"/>
      <use transform="translate(586.689547 0)scale(0.996264)" xlink:href="#CMR17-115"/>
      <use transform="translate(622.490885 0)scale(0.996264)" xlink:href="#CMR17-97"/>
      <use transform="translate(668.181362 0)scale(0.996264)" xlink:href="#CMR17-116"/>
      <use transform="translate(703.46213 0)scale(0.996264)" xlink:href="#CMR17-45"/>
      <use transform="translate(733.538096 0)scale(0.996264)" xlink:href="#CMR17-99"/>
      <use transform="translate(771.421303 0)scale(0.996264)" xlink:href="#CMR17-104"/>
      <use transform="translate(822.316673 0)scale(0.996264)" xlink:href="#CMR17-114"/>
      <use transform="translate(857.59744 0)scale(0.996264)" xlink:href="#CMR17-111"/>
      <use transform="translate(903.287918 0)scale(0.996264)" xlink:href="#CMR17-110"/>
      <use transform="translate(954.183287 0)scale(0.996264)" xlink:href="#CMR17-111"/>
      <use transform="translate(999.873764 0)scale(0.996264)" xlink:href="#CMR17-98"/>
      <use transform="translate(1050.769134 0)scale(0.996264)" xlink:href="#CMR17-116"/>
      <use transform="translate(1086.049902 42.258523)scale(0.996264)" xlink:href="#CMR17-100"/>
      <use transform="translate(1136.945272 42.258523)scale(0.996264)" xlink:href="#CMR17-101"/>
      <use transform="translate(1177.430932 42.258523)scale(0.996264)" xlink:href="#CMR17-102"/>
      <use transform="translate(1204.904445 42.258523)scale(0.996264)" xlink:href="#CMR17-97"/>
      <use transform="translate(1250.594922 42.258523)scale(0.996264)" xlink:href="#CMR17-117"/>
      <use transform="translate(1301.490292 42.258523)scale(0.996264)" xlink:href="#CMR17-108"/>
      <use transform="translate(1326.36135 42.258523)scale(0.996264)" xlink:href="#CMR17-116"/>
     </g>
    </g>
    <g id="line2d_26">
     <path d="M 63.038737 123.866146 
L 87.038737 123.866146 
" style="fill:none;stroke:#ff7f0e;stroke-dasharray:6.4,1.6,1,1.6;stroke-dashoffset:0;"/>
    </g>
    <g id="line2d_27"/>
    <g id="text_20">
     <!-- $\textrm{MapleLCMDiscChronoBT-DL-v3}^\textrm{default}$ -->
     <g transform="translate(96.638737 128.066146)scale(0.12 -0.12)">
      <use transform="scale(0.996264)" xlink:href="#CMR17-77"/>
      <use transform="translate(84.686941 0)scale(0.996264)" xlink:href="#CMR17-97"/>
      <use transform="translate(130.377418 0)scale(0.996264)" xlink:href="#CMR17-112"/>
      <use transform="translate(181.272787 0)scale(0.996264)" xlink:href="#CMR17-108"/>
      <use transform="translate(206.143846 0)scale(0.996264)" xlink:href="#CMR17-101"/>
      <use transform="translate(246.629506 0)scale(0.996264)" xlink:href="#CMR17-76"/>
      <use transform="translate(304.010914 0)scale(0.996264)" xlink:href="#CMR17-67"/>
      <use transform="translate(370.520795 0)scale(0.996264)" xlink:href="#CMR17-77"/>
      <use transform="translate(455.207735 0)scale(0.996264)" xlink:href="#CMR17-68"/>
      <use transform="translate(525.601291 0)scale(0.996264)" xlink:href="#CMR17-105"/>
      <use transform="translate(550.47235 0)scale(0.996264)" xlink:href="#CMR17-115"/>
      <use transform="translate(586.273687 0)scale(0.996264)" xlink:href="#CMR17-99"/>
      <use transform="translate(626.759348 0)scale(0.996264)" xlink:href="#CMR17-67"/>
      <use transform="translate(693.269228 0)scale(0.996264)" xlink:href="#CMR17-104"/>
      <use transform="translate(744.164598 0)scale(0.996264)" xlink:href="#CMR17-114"/>
      <use transform="translate(779.445366 0)scale(0.996264)" xlink:href="#CMR17-111"/>
      <use transform="translate(825.135843 0)scale(0.996264)" xlink:href="#CMR17-110"/>
      <use transform="translate(876.031213 0)scale(0.996264)" xlink:href="#CMR17-111"/>
      <use transform="translate(921.72169 0)scale(0.996264)" xlink:href="#CMR17-66"/>
      <use transform="translate(986.910444 0)scale(0.996264)" xlink:href="#CMR17-84"/>
      <use transform="translate(1053.420325 0)scale(0.996264)" xlink:href="#CMR17-45"/>
      <use transform="translate(1083.496291 0)scale(0.996264)" xlink:href="#CMR17-68"/>
      <use transform="translate(1153.889847 0)scale(0.996264)" xlink:href="#CMR17-76"/>
      <use transform="translate(1211.271255 0)scale(0.996264)" xlink:href="#CMR17-45"/>
      <use transform="translate(1241.347221 0)scale(0.996264)" xlink:href="#CMR17-118"/>
      <use transform="translate(1289.640137 0)scale(0.996264)" xlink:href="#CMR17-51"/>
      <use transform="translate(1335.330614 42.258523)scale(0.996264)" xlink:href="#CMR17-100"/>
      <use transform="translate(1386.225984 42.258523)scale(0.996264)" xlink:href="#CMR17-101"/>
      <use transform="translate(1426.711645 42.258523)scale(0.996264)" xlink:href="#CMR17-102"/>
      <use transform="translate(1454.185157 42.258523)scale(0.996264)" xlink:href="#CMR17-97"/>
      <use transform="translate(1499.875634 42.258523)scale(0.996264)" xlink:href="#CMR17-117"/>
      <use transform="translate(1550.771004 42.258523)scale(0.996264)" xlink:href="#CMR17-108"/>
      <use transform="translate(1575.642062 42.258523)scale(0.996264)" xlink:href="#CMR17-116"/>
     </g>
    </g>
   </g>
  </g>
 </g>
 <defs>
  <clipPath id="p1ddca485cf">
   <rect height="380.52" width="558" x="52.238737" y="21.50218"/>
  </clipPath>
 </defs>
</svg>
