<?xml version="1.0" encoding="utf-8" standalone="no"?>
<!DOCTYPE svg PUBLIC "-//W3C//DTD SVG 1.1//EN"
  "http://www.w3.org/Graphics/SVG/1.1/DTD/svg11.dtd">
<!-- Created with matplotlib (https://matplotlib.org/) -->
<svg height="602.092829pt" version="1.1" viewBox="0 0 902.582719 602.092829" width="902.582719pt" xmlns="http://www.w3.org/2000/svg" xmlns:xlink="http://www.w3.org/1999/xlink">
 <defs>
  <style type="text/css">
*{stroke-linecap:butt;stroke-linejoin:round;}
  </style>
 </defs>
 <g id="figure_1">
  <g id="patch_1">
   <path d="M 0 602.092829 
L 902.582719 602.092829 
L 902.582719 0 
L 0 0 
z
" style="fill:none;"/>
  </g>
  <g id="axes_1">
   <g id="patch_2">
    <path d="M 47.423785 564.410347 
L 884.423785 564.410347 
L 884.423785 20.810347 
L 47.423785 20.810347 
z
" style="fill:none;"/>
   </g>
   <g id="patch_3">
    <path clip-path="url(#p9e8f3c50f1)" d="M 64.243721 603.092829 
L 64.243721 598.385347 
L 72.891878 598.385347 
L 72.891878 587.060347 
L 108.600398 587.060347 
L 108.600398 575.735347 
L 109.158344 575.735347 
L 109.158344 564.410347 
L 116.132664 564.410347 
L 116.132664 553.085347 
L 156.862694 553.085347 
L 156.862694 541.760347 
L 157.699613 541.760347 
L 157.699613 530.435347 
L 167.184688 530.435347 
L 167.184688 519.110347 
L 181.691275 519.110347 
L 181.691275 507.785347 
L 211.820338 507.785347 
L 211.820338 496.460347 
L 226.326924 496.460347 
L 226.326924 485.135347 
L 231.069462 485.135347 
L 231.069462 473.810347 
L 233.85919 473.810347 
L 233.85919 462.485347 
L 234.138163 462.485347 
L 234.138163 451.160347 
L 241.670429 451.160347 
L 241.670429 439.835347 
L 245.576048 439.835347 
L 245.576048 428.510347 
L 257.571879 428.510347 
L 257.571879 417.185347 
L 282.679432 417.185347 
L 282.679432 405.860347 
L 286.027106 405.860347 
L 286.027106 394.535347 
L 302.207529 394.535347 
L 302.207529 383.210347 
L 352.143662 383.210347 
L 352.143662 371.885347 
L 355.491336 371.885347 
L 355.491336 360.560347 
L 366.650248 360.560347 
L 366.650248 349.235347 
L 409.054115 349.235347 
L 409.054115 337.910347 
L 434.161668 337.910347 
L 434.161668 326.585347 
L 443.925717 326.585347 
L 443.925717 315.260347 
L 462.058949 315.260347 
L 462.058949 303.935347 
L 465.964569 303.935347 
L 465.964569 292.610347 
L 488.561366 292.610347 
L 488.561366 281.285347 
L 490.514176 281.285347 
L 490.514176 269.960347 
L 516.179675 269.960347 
L 516.179675 258.635347 
L 541.845173 258.635347 
L 541.845173 247.310347 
L 542.403119 247.310347 
L 542.403119 235.985347 
L 543.51901 235.985347 
L 543.51901 224.660347 
L 556.630732 224.660347 
L 556.630732 213.335347 
L 594.571034 213.335347 
L 594.571034 202.010347 
L 609.356593 202.010347 
L 609.356593 190.685347 
L 609.635566 190.685347 
L 609.635566 179.360347 
L 610.193512 179.360347 
L 610.193512 168.035347 
L 613.541186 168.035347 
L 613.541186 156.710347 
L 635.301065 156.710347 
L 635.301065 145.385347 
L 637.253875 145.385347 
L 637.253875 134.060347 
L 637.81182 134.060347 
L 637.81182 122.735347 
L 694.164328 122.735347 
L 694.164328 111.410347 
L 772.555688 111.410347 
L 772.555688 100.085347 
L 797.384268 100.085347 
L 797.384268 88.760347 
L 815.517501 88.760347 
L 815.517501 77.435347 
L 861.826987 77.435347 
L 861.826987 66.110347 
L 884.144812 66.110347 
L 884.144812 -1 
M 884.423785 -1 
L 884.423785 603.092829 
L 884.423785 603.092829 
" style="fill:none;stroke:#1f77b4;stroke-linejoin:miter;"/>
   </g>
   <g id="patch_4">
    <path clip-path="url(#p9e8f3c50f1)" d="M 29.143284 603.092829 
L 29.143284 598.385347 
L 33.32354 598.385347 
L 33.32354 575.735347 
L 33.880908 575.735347 
L 33.880908 564.410347 
L 36.667746 564.410347 
L 36.667746 553.085347 
L 43.913524 553.085347 
L 43.913524 541.760347 
L 82.093201 541.760347 
L 82.093201 530.435347 
L 104.387903 530.435347 
L 104.387903 519.110347 
L 112.748416 519.110347 
L 112.748416 507.785347 
L 114.699202 507.785347 
L 114.699202 496.460347 
L 120.551561 496.460347 
L 120.551561 485.135347 
L 131.977596 485.135347 
L 131.977596 473.810347 
L 139.780742 473.810347 
L 139.780742 462.485347 
L 156.780452 462.485347 
L 156.780452 451.160347 
L 162.354127 451.160347 
L 162.354127 439.835347 
L 192.173291 439.835347 
L 192.173291 428.510347 
L 194.960129 428.510347 
L 194.960129 417.185347 
L 198.02565 417.185347 
L 198.02565 405.860347 
L 198.583018 405.860347 
L 198.583018 394.535347 
L 211.123788 394.535347 
L 211.123788 383.210347 
L 215.304044 383.210347 
L 215.304044 360.560347 
L 220.041669 360.560347 
L 220.041669 349.235347 
L 228.959549 349.235347 
L 228.959549 337.910347 
L 236.484011 337.910347 
L 236.484011 326.585347 
L 260.172132 326.585347 
L 260.172132 315.260347 
L 265.18844 315.260347 
L 265.18844 303.935347 
L 275.49974 303.935347 
L 275.49974 292.610347 
L 287.761826 292.610347 
L 287.761826 281.285347 
L 293.335501 281.285347 
L 293.335501 269.960347 
L 306.154955 269.960347 
L 306.154955 258.635347 
L 312.007314 258.635347 
L 312.007314 247.310347 
L 317.023622 247.310347 
L 317.023622 235.985347 
L 317.859673 235.985347 
L 317.859673 224.660347 
L 340.711743 224.660347 
L 340.711743 213.335347 
L 344.334632 213.335347 
L 344.334632 202.010347 
L 454.97209 202.010347 
L 454.97209 190.685347 
L 494.266502 190.685347 
L 494.266502 179.360347 
L 573.691377 179.360347 
L 573.691377 168.035347 
L 592.084506 168.035347 
L 592.084506 156.710347 
L 601.281071 156.710347 
L 601.281071 145.385347 
L 614.379208 145.385347 
L 614.379208 134.060347 
L 722.787196 134.060347 
L 722.787196 122.735347 
L 787.999199 122.735347 
L 787.999199 111.410347 
L 866.30934 111.410347 
L 866.30934 100.085347 
L 884.145101 100.085347 
L 884.145101 -1 
M 884.423785 -1 
L 884.423785 603.092829 
L 884.423785 603.092829 
" style="fill:none;stroke:#ff7f0e;stroke-linejoin:miter;"/>
   </g>
   <g id="patch_5">
    <path clip-path="url(#p9e8f3c50f1)" d="M -1 598.385347 
L 27.378471 598.385347 
L 27.378471 587.060347 
L 34.063257 587.060347 
L 34.063257 575.735347 
L 73.336377 575.735347 
L 73.336377 564.410347 
L 84.75622 564.410347 
L 84.75622 553.085347 
L 100.075522 553.085347 
L 100.075522 541.760347 
L 112.609497 541.760347 
L 112.609497 530.435347 
L 127.371733 530.435347 
L 127.371733 519.110347 
L 138.234511 519.110347 
L 138.234511 507.785347 
L 164.695123 507.785347 
L 164.695123 496.460347 
L 170.544311 496.460347 
L 170.544311 485.135347 
L 196.447858 485.135347 
L 196.447858 473.810347 
L 199.233186 473.810347 
L 199.233186 462.485347 
L 205.082374 462.485347 
L 205.082374 451.160347 
L 206.753571 451.160347 
L 206.753571 439.835347 
L 213.159824 439.835347 
L 213.159824 428.510347 
L 217.616348 428.510347 
L 217.616348 417.185347 
L 217.894881 417.185347 
L 217.894881 405.860347 
L 220.680209 405.860347 
L 220.680209 394.535347 
L 225.415266 394.535347 
L 225.415266 383.210347 
L 234.049782 383.210347 
L 234.049782 371.885347 
L 244.076961 371.885347 
L 244.076961 360.560347 
L 244.634027 360.560347 
L 244.634027 349.235347 
L 251.04028 349.235347 
L 251.04028 337.910347 
L 262.181591 337.910347 
L 262.181591 326.585347 
L 264.409853 326.585347 
L 264.409853 315.260347 
L 320.394938 315.260347 
L 320.394938 303.935347 
L 327.358257 303.935347 
L 327.358257 292.610347 
L 330.422118 292.610347 
L 330.422118 281.285347 
L 340.72783 281.285347 
L 340.72783 269.960347 
L 341.006363 269.960347 
L 341.006363 258.635347 
L 351.590608 258.635347 
L 351.590608 247.310347 
L 366.352844 247.310347 
L 366.352844 235.985347 
L 384.457474 235.985347 
L 384.457474 224.660347 
L 417.32434 224.660347 
L 417.32434 213.335347 
L 422.33793 213.335347 
L 422.33793 202.010347 
L 465.789041 202.010347 
L 465.789041 190.685347 
L 482.222474 190.685347 
L 482.222474 179.360347 
L 583.6084 179.360347 
L 583.6084 168.035347 
L 585.279597 168.035347 
L 585.279597 156.710347 
L 723.431847 156.710347 
L 723.431847 145.385347 
L 771.339483 145.385347 
L 771.339483 134.060347 
L 776.631605 134.060347 
L 776.631605 122.735347 
L 830.109896 122.735347 
L 830.109896 111.410347 
L 835.123486 111.410347 
L 835.123486 100.085347 
L 884.145252 100.085347 
L 884.145252 -1 
M 884.423785 -1 
L 884.423785 603.092829 
L 884.423785 603.092829 
" style="fill:none;stroke:#2ca02c;stroke-linejoin:miter;"/>
   </g>
   <g id="patch_6">
    <path clip-path="url(#p9e8f3c50f1)" d="M 173.18326 603.092829 
L 173.18326 598.385347 
L 176.530274 598.385347 
L 176.530274 587.060347 
L 196.61236 587.060347 
L 196.61236 575.735347 
L 198.564785 575.735347 
L 198.564785 564.410347 
L 221.714966 564.410347 
L 221.714966 553.085347 
L 222.272802 553.085347 
L 222.272802 541.760347 
L 225.898734 541.760347 
L 225.898734 530.435347 
L 239.844627 530.435347 
L 239.844627 519.110347 
L 240.123545 519.110347 
L 240.123545 496.460347 
L 244.865148 496.460347 
L 244.865148 485.135347 
L 269.688837 485.135347 
L 269.688837 473.810347 
L 272.199098 473.810347 
L 272.199098 462.485347 
L 293.117937 462.485347 
L 293.117937 451.160347 
L 299.811965 451.160347 
L 299.811965 439.835347 
L 300.927637 439.835347 
L 300.927637 428.510347 
L 311.247597 428.510347 
L 311.247597 417.185347 
L 312.084351 417.185347 
L 312.084351 405.860347 
L 326.588079 405.860347 
L 326.588079 394.535347 
L 367.310086 394.535347 
L 367.310086 383.210347 
L 371.772771 383.210347 
L 371.772771 371.885347 
L 373.725196 371.885347 
L 373.725196 360.560347 
L 427.277424 360.560347 
L 427.277424 349.235347 
L 483.897748 349.235347 
L 483.897748 337.910347 
L 513.184123 337.910347 
L 513.184123 326.585347 
L 523.225165 326.585347 
L 523.225165 315.260347 
L 548.885608 315.260347 
L 548.885608 303.935347 
L 573.709297 303.935347 
L 573.709297 292.610347 
L 592.954629 292.610347 
L 592.954629 281.285347 
L 618.336153 281.285347 
L 618.336153 269.960347 
L 657.66357 269.960347 
L 657.66357 258.635347 
L 668.262449 258.635347 
L 668.262449 247.310347 
L 669.657038 247.310347 
L 669.657038 235.985347 
L 693.086138 235.985347 
L 693.086138 224.660347 
L 700.338002 224.660347 
L 700.338002 213.335347 
L 708.42662 213.335347 
L 708.42662 202.010347 
L 724.046019 202.010347 
L 724.046019 190.685347 
L 756.121572 190.685347 
L 756.121572 179.360347 
L 778.992836 179.360347 
L 778.992836 168.035347 
L 798.796004 168.035347 
L 798.796004 156.710347 
L 802.979772 156.710347 
L 802.979772 145.385347 
L 860.157932 145.385347 
L 860.157932 134.060347 
L 862.668192 134.060347 
L 862.668192 122.735347 
L 877.450839 122.735347 
L 877.450839 111.410347 
L 884.144867 111.410347 
L 884.144867 -1 
M 884.423785 -1 
L 884.423785 603.092829 
L 884.423785 603.092829 
" style="fill:none;stroke:#d62728;stroke-linejoin:miter;"/>
   </g>
   <g id="patch_7">
    <path clip-path="url(#p9e8f3c50f1)" d="M -1 507.785347 
L 2.854745 507.785347 
L 2.854745 496.460347 
L 7.032797 496.460347 
L 7.032797 485.135347 
L 22.630859 485.135347 
L 22.630859 473.810347 
L 34.050869 473.810347 
L 34.050869 462.485347 
L 38.785995 462.485347 
L 38.785995 451.160347 
L 41.292826 451.160347 
L 41.292826 439.835347 
L 52.712836 439.835347 
L 52.712836 428.510347 
L 77.502613 428.510347 
L 77.502613 417.185347 
L 87.251402 417.185347 
L 87.251402 405.860347 
L 110.369958 405.860347 
L 110.369958 394.535347 
L 130.146072 394.535347 
L 130.146072 383.210347 
L 154.100239 383.210347 
L 154.100239 371.885347 
L 154.378776 371.885347 
L 154.378776 360.560347 
L 157.721218 360.560347 
L 157.721218 349.235347 
L 159.949512 349.235347 
L 159.949512 337.910347 
L 164.406101 337.910347 
L 164.406101 326.585347 
L 184.739289 326.585347 
L 184.739289 315.260347 
L 209.25053 315.260347 
L 209.25053 303.935347 
L 215.37834 303.935347 
L 215.37834 292.610347 
L 223.177371 292.610347 
L 223.177371 281.285347 
L 232.926159 281.285347 
L 232.926159 269.960347 
L 251.031053 269.960347 
L 251.031053 258.635347 
L 302.838902 258.635347 
L 302.838902 247.310347 
L 315.651595 247.310347 
L 315.651595 235.985347 
L 324.286237 235.985347 
L 324.286237 224.660347 
L 348.797477 224.660347 
L 348.797477 213.335347 
L 357.989192 213.335347 
L 357.989192 202.010347 
L 378.879454 202.010347 
L 378.879454 190.685347 
L 422.052661 190.685347 
L 422.052661 179.360347 
L 436.536576 179.360347 
L 436.536576 168.035347 
L 499.207361 168.035347 
L 499.207361 156.710347 
L 700.032409 156.710347 
L 700.032409 145.385347 
L 718.137302 145.385347 
L 718.137302 134.060347 
L 870.496944 134.060347 
L 870.496944 122.735347 
L 873.282312 122.735347 
L 873.282312 111.410347 
L 884.145248 111.410347 
L 884.145248 -1 
M 884.423785 -1 
L 884.423785 603.092829 
L 884.423785 603.092829 
" style="fill:none;stroke:#9467bd;stroke-linejoin:miter;"/>
   </g>
   <g id="matplotlib.axis_1">
    <g id="xtick_1">
     <g id="line2d_1">
      <defs>
       <path d="M 0 0 
L 0 3.5 
" id="mab80d64686" style="stroke:#000000;stroke-width:0.8;"/>
      </defs>
      <g>
       <use style="stroke:#000000;stroke-width:0.8;" x="47.423785" xlink:href="#mab80d64686" y="564.410347"/>
      </g>
     </g>
     <g id="text_1">
      <!-- $2000$ -->
      <defs>
       <path d="M 41.703125 15.46875 
L 39.90625 15.46875 
C 38.90625 8.390625 38.09375 7.1875 37.703125 6.59375 
C 37.203125 5.796875 30 5.796875 28.59375 5.796875 
L 9.40625 5.796875 
C 13 9.6875 20 16.765625 28.5 24.9375 
C 34.59375 30.71875 41.703125 37.5 41.703125 47.390625 
C 41.703125 59.1875 32.296875 66 21.796875 66 
C 10.796875 66 4.09375 56.296875 4.09375 47.296875 
C 4.09375 43.390625 7 42.890625 8.203125 42.890625 
C 9.203125 42.890625 12.203125 43.484375 12.203125 46.984375 
C 12.203125 50.09375 9.59375 51 8.203125 51 
C 7.59375 51 7 50.890625 6.59375 50.6875 
C 8.5 59.1875 14.296875 63.390625 20.40625 63.390625 
C 29.09375 63.390625 34.796875 56.5 34.796875 47.390625 
C 34.796875 38.703125 29.703125 31.21875 24 24.734375 
L 4.09375 2.296875 
L 4.09375 0 
L 39.296875 0 
z
" id="CMR17-50"/>
       <path d="M 42 31.84375 
C 42 37.96875 41.90625 48.421875 37.703125 56.453125 
C 34 63.484375 28.09375 66 22.90625 66 
C 18.09375 66 12 63.78125 8.203125 56.5625 
C 4.203125 49.015625 3.796875 39.671875 3.796875 31.84375 
C 3.796875 26.109375 3.90625 17.375 7 9.734375 
C 11.296875 -0.609375 19 -2 22.90625 -2 
C 27.5 -2 34.5 -0.109375 38.59375 9.4375 
C 41.59375 16.375 42 24.5 42 31.84375 
z
M 22.90625 -0.40625 
C 16.5 -0.40625 12.703125 5.125 11.296875 12.75 
C 10.203125 18.6875 10.203125 27.328125 10.203125 32.953125 
C 10.203125 40.6875 10.203125 47.109375 11.5 53.234375 
C 13.40625 61.78125 19 64.390625 22.90625 64.390625 
C 27 64.390625 32.296875 61.671875 34.203125 53.4375 
C 35.5 47.71875 35.59375 40.984375 35.59375 32.953125 
C 35.59375 26.421875 35.59375 18.375 34.40625 12.453125 
C 32.296875 1.5 26.40625 -0.40625 22.90625 -0.40625 
z
" id="CMR17-48"/>
      </defs>
      <g transform="translate(36.46485 579.020693)scale(0.11 -0.11)">
       <use transform="scale(0.996264)" xlink:href="#CMR17-50"/>
       <use transform="translate(45.690477 0)scale(0.996264)" xlink:href="#CMR17-48"/>
       <use transform="translate(91.380954 0)scale(0.996264)" xlink:href="#CMR17-48"/>
       <use transform="translate(137.071431 0)scale(0.996264)" xlink:href="#CMR17-48"/>
      </g>
     </g>
    </g>
    <g id="xtick_2">
     <g id="line2d_2">
      <g>
       <use style="stroke:#000000;stroke-width:0.8;" x="186.923785" xlink:href="#mab80d64686" y="564.410347"/>
      </g>
     </g>
     <g id="text_2">
      <!-- $2500$ -->
      <defs>
       <path d="M 11.40625 58.59375 
C 12.40625 58.1875 16.5 56.890625 20.703125 56.890625 
C 30 56.890625 35.09375 61.890625 38 64.6875 
C 38 65.484375 38 66 37.40625 66 
C 37.296875 66 37.09375 66 36.296875 65.59375 
C 32.796875 64.09375 28.703125 63 23.703125 63 
C 20.703125 63 16.203125 63.359375 11.296875 65.484375 
C 10.203125 66 10 66 9.90625 66 
C 9.40625 66 9.296875 65.890625 9.296875 63.90625 
L 9.296875 34.859375 
C 9.296875 33.015625 9.296875 32.5 10.296875 32.5 
C 10.796875 32.5 11 32.703125 11.5 33.421875 
C 14.703125 38.046875 19.09375 40 24.09375 40 
C 27.59375 40 35.09375 37.734375 35.09375 20.203125 
C 35.09375 16.984375 35.09375 11.1875 32.09375 6.59375 
C 29.59375 2.484375 25.703125 0.390625 21.40625 0.390625 
C 14.796875 0.390625 8.09375 4.984375 6.296875 12.6875 
C 6.703125 12.59375 7.5 12.390625 7.90625 12.390625 
C 9.203125 12.390625 11.703125 13.09375 11.703125 16.1875 
C 11.703125 18.890625 9.796875 20 7.90625 20 
C 5.59375 20 4.09375 18.59375 4.09375 15.796875 
C 4.09375 7.09375 11 -2 21.59375 -2 
C 31.90625 -2 41.703125 6.890625 41.703125 19.796875 
C 41.703125 32.09375 33.90625 41.59375 24.203125 41.59375 
C 19.09375 41.59375 14.796875 39.6875 11.40625 36 
z
" id="CMR17-53"/>
      </defs>
      <g transform="translate(175.96485 579.020693)scale(0.11 -0.11)">
       <use transform="scale(0.996264)" xlink:href="#CMR17-50"/>
       <use transform="translate(45.690477 0)scale(0.996264)" xlink:href="#CMR17-53"/>
       <use transform="translate(91.380954 0)scale(0.996264)" xlink:href="#CMR17-48"/>
       <use transform="translate(137.071431 0)scale(0.996264)" xlink:href="#CMR17-48"/>
      </g>
     </g>
    </g>
    <g id="xtick_3">
     <g id="line2d_3">
      <g>
       <use style="stroke:#000000;stroke-width:0.8;" x="326.423785" xlink:href="#mab80d64686" y="564.410347"/>
      </g>
     </g>
     <g id="text_3">
      <!-- $3000$ -->
      <defs>
       <path d="M 22.09375 34 
C 31 34 34.90625 26.140625 34.90625 17.09375 
C 34.90625 5.03125 28.5 0.390625 22.703125 0.390625 
C 17.40625 0.390625 8.796875 3.015625 6.09375 10.796875 
C 6.59375 10.59375 7.09375 10.59375 7.59375 10.59375 
C 10 10.59375 11.796875 12.1875 11.796875 14.796875 
C 11.796875 17.6875 9.59375 19 7.59375 19 
C 5.90625 19 3.296875 18.1875 3.296875 14.484375 
C 3.296875 5.234375 12.296875 -2 22.90625 -2 
C 34 -2 42.5 6.75 42.5 16.984375 
C 42.5 26.84375 34.5 34 25 35.09375 
C 32.59375 36.671875 39.90625 43.375 39.90625 52.390625 
C 39.90625 60.25 32 66 23 66 
C 13.90625 66 5.90625 60.34375 5.90625 52.296875 
C 5.90625 48.796875 8.5 48.1875 9.796875 48.1875 
C 11.90625 48.1875 13.703125 49.484375 13.703125 52.09375 
C 13.703125 54.6875 11.90625 56 9.796875 56 
C 9.40625 56 8.90625 56 8.5 55.796875 
C 11.40625 62.484375 19.296875 63.6875 22.796875 63.6875 
C 26.296875 63.6875 32.90625 61.96875 32.90625 52.296875 
C 32.90625 49.484375 32.5 44.546875 29.09375 40.21875 
C 26.09375 36.390625 22.703125 36.1875 19.40625 35.890625 
C 18.90625 35.890625 16.59375 35.6875 16.203125 35.6875 
C 15.5 35.59375 15.09375 35.5 15.09375 34.796875 
C 15.09375 34.09375 15.203125 34 17.203125 34 
z
" id="CMR17-51"/>
      </defs>
      <g transform="translate(315.46485 579.020693)scale(0.11 -0.11)">
       <use transform="scale(0.996264)" xlink:href="#CMR17-51"/>
       <use transform="translate(45.690477 0)scale(0.996264)" xlink:href="#CMR17-48"/>
       <use transform="translate(91.380954 0)scale(0.996264)" xlink:href="#CMR17-48"/>
       <use transform="translate(137.071431 0)scale(0.996264)" xlink:href="#CMR17-48"/>
      </g>
     </g>
    </g>
    <g id="xtick_4">
     <g id="line2d_4">
      <g>
       <use style="stroke:#000000;stroke-width:0.8;" x="465.923785" xlink:href="#mab80d64686" y="564.410347"/>
      </g>
     </g>
     <g id="text_4">
      <!-- $3500$ -->
      <g transform="translate(454.96485 579.020693)scale(0.11 -0.11)">
       <use transform="scale(0.996264)" xlink:href="#CMR17-51"/>
       <use transform="translate(45.690477 0)scale(0.996264)" xlink:href="#CMR17-53"/>
       <use transform="translate(91.380954 0)scale(0.996264)" xlink:href="#CMR17-48"/>
       <use transform="translate(137.071431 0)scale(0.996264)" xlink:href="#CMR17-48"/>
      </g>
     </g>
    </g>
    <g id="xtick_5">
     <g id="line2d_5">
      <g>
       <use style="stroke:#000000;stroke-width:0.8;" x="605.423785" xlink:href="#mab80d64686" y="564.410347"/>
      </g>
     </g>
     <g id="text_5">
      <!-- $4000$ -->
      <defs>
       <path d="M 33.59375 64.796875 
C 33.59375 66.890625 33.5 67 31.703125 67 
L 2 19.59375 
L 2 17 
L 27.796875 17 
L 27.796875 7.1875 
C 27.796875 3.59375 27.59375 2.59375 20.59375 2.59375 
L 18.703125 2.59375 
L 18.703125 0 
C 21.90625 0.1875 27.296875 0.1875 30.703125 0.1875 
C 34.09375 0.1875 39.5 0.1875 42.703125 0 
L 42.703125 2.59375 
L 40.796875 2.59375 
C 33.796875 2.59375 33.59375 3.59375 33.59375 7.1875 
L 33.59375 17 
L 43.796875 17 
L 43.796875 19.59375 
L 33.59375 19.59375 
z
M 28.09375 58.171875 
L 28.09375 19.59375 
L 4 19.59375 
z
" id="CMR17-52"/>
      </defs>
      <g transform="translate(594.46485 579.020693)scale(0.11 -0.11)">
       <use transform="scale(0.996264)" xlink:href="#CMR17-52"/>
       <use transform="translate(45.690477 0)scale(0.996264)" xlink:href="#CMR17-48"/>
       <use transform="translate(91.380954 0)scale(0.996264)" xlink:href="#CMR17-48"/>
       <use transform="translate(137.071431 0)scale(0.996264)" xlink:href="#CMR17-48"/>
      </g>
     </g>
    </g>
    <g id="xtick_6">
     <g id="line2d_6">
      <g>
       <use style="stroke:#000000;stroke-width:0.8;" x="744.923785" xlink:href="#mab80d64686" y="564.410347"/>
      </g>
     </g>
     <g id="text_6">
      <!-- $4500$ -->
      <g transform="translate(733.96485 579.020693)scale(0.11 -0.11)">
       <use transform="scale(0.996264)" xlink:href="#CMR17-52"/>
       <use transform="translate(45.690477 0)scale(0.996264)" xlink:href="#CMR17-53"/>
       <use transform="translate(91.380954 0)scale(0.996264)" xlink:href="#CMR17-48"/>
       <use transform="translate(137.071431 0)scale(0.996264)" xlink:href="#CMR17-48"/>
      </g>
     </g>
    </g>
    <g id="xtick_7">
     <g id="line2d_7">
      <g>
       <use style="stroke:#000000;stroke-width:0.8;" x="884.423785" xlink:href="#mab80d64686" y="564.410347"/>
      </g>
     </g>
     <g id="text_7">
      <!-- $5000$ -->
      <g transform="translate(873.46485 579.020693)scale(0.11 -0.11)">
       <use transform="scale(0.996264)" xlink:href="#CMR17-53"/>
       <use transform="translate(45.690477 0)scale(0.996264)" xlink:href="#CMR17-48"/>
       <use transform="translate(91.380954 0)scale(0.996264)" xlink:href="#CMR17-48"/>
       <use transform="translate(137.071431 0)scale(0.996264)" xlink:href="#CMR17-48"/>
      </g>
     </g>
    </g>
    <g id="text_8">
     <!-- Time to solve an input -->
     <defs>
      <path d="M 62.203125 67.6875 
L 4.5 67.6875 
L 2.796875 45.6875 
L 4.59375 45.6875 
C 5.90625 62.203125 7.296875 65.09375 22.703125 65.09375 
C 24.5 65.09375 27.40625 65.09375 28.203125 64.984375 
C 30.09375 64.6875 30.09375 63.5 30.09375 61.203125 
L 30.09375 7.265625 
C 30.09375 3.6875 29.796875 2.59375 21.5 2.59375 
L 18.703125 2.59375 
L 18.703125 0 
C 23.5 0.09375 28.5 0.1875 33.40625 0.1875 
C 38.296875 0.1875 43.296875 0.09375 48.09375 0 
L 48.09375 2.59375 
L 45.296875 2.59375 
C 37 2.59375 36.703125 3.6875 36.703125 7.265625 
L 36.703125 61.203125 
C 36.703125 63.390625 36.703125 64.59375 38.5 64.984375 
C 39.296875 65.09375 42.203125 65.09375 44 65.09375 
C 59.296875 65.09375 60.796875 62.203125 62.09375 45.6875 
L 63.90625 45.6875 
z
" id="CMR17-84"/>
      <path d="M 15.5 61.890625 
C 15.5 64.09375 13.703125 66 11.40625 66 
C 9.203125 66 7.296875 64.1875 7.296875 61.890625 
C 7.296875 59.6875 9.09375 57.796875 11.40625 57.796875 
C 13.59375 57.796875 15.5 59.59375 15.5 61.890625 
z
M 3.796875 42.890625 
L 3.796875 40.296875 
C 9.40625 40.296875 10.203125 39.6875 10.203125 34.859375 
L 10.203125 6.921875 
C 10.203125 3.09375 9.796875 2.59375 3.40625 2.59375 
L 3.40625 0 
C 5.796875 0.1875 10.09375 0.1875 12.59375 0.1875 
C 15 0.1875 19.09375 0.1875 21.40625 0 
L 21.40625 2.59375 
C 15.5 2.59375 15.296875 3.203125 15.296875 6.8125 
L 15.296875 44 
z
" id="CMR17-105"/>
      <path d="M 67.59375 30.53125 
C 67.59375 35.5625 66.703125 44 54.796875 44 
C 48 44 43.296875 39.375 41.5 33.953125 
L 41.40625 33.953125 
C 40.203125 42.1875 34.296875 44 28.703125 44 
C 20.796875 44 16.703125 37.875 15.203125 33.84375 
L 15.09375 33.84375 
L 15.09375 44 
L 3.296875 42.890625 
L 3.296875 40.28125 
C 9.203125 40.28125 10.09375 39.6875 10.09375 34.859375 
L 10.09375 6.921875 
C 10.09375 3.09375 9.703125 2.59375 3.296875 2.59375 
L 3.296875 0 
C 5.703125 0.1875 10.09375 0.1875 12.703125 0.1875 
C 15.296875 0.1875 19.796875 0.1875 22.203125 0 
L 22.203125 2.59375 
C 15.796875 2.59375 15.40625 3 15.40625 6.921875 
L 15.40625 26.21875 
C 15.40625 35.453125 21 42.390625 28 42.390625 
C 35.40625 42.390625 36.203125 35.765625 36.203125 30.9375 
L 36.203125 6.921875 
C 36.203125 3.09375 35.796875 2.59375 29.40625 2.59375 
L 29.40625 0 
C 31.796875 0.1875 36.203125 0.1875 38.796875 0.1875 
C 41.40625 0.1875 45.90625 0.1875 48.296875 0 
L 48.296875 2.59375 
C 41.90625 2.59375 41.5 3 41.5 6.921875 
L 41.5 26.21875 
C 41.5 35.453125 47.09375 42.390625 54.09375 42.390625 
C 61.5 42.390625 62.296875 35.765625 62.296875 30.9375 
L 62.296875 6.921875 
C 62.296875 3.09375 61.90625 2.59375 55.5 2.59375 
L 55.5 0 
C 57.90625 0.1875 62.296875 0.1875 64.90625 0.1875 
C 67.5 0.1875 72 0.1875 74.40625 0 
L 74.40625 2.59375 
C 68 2.59375 67.59375 3 67.59375 6.921875 
z
" id="CMR17-109"/>
      <path d="M 38.09375 23.484375 
C 38.5 23.890625 38.5 24.09375 38.5 25.09375 
C 38.5 35.171875 33.09375 44 21.703125 44 
C 11.09375 44 2.703125 33.984375 2.703125 21.78125 
C 2.703125 8.65625 12.203125 -1 22.796875 -1 
C 34 -1 38.40625 9.671875 38.40625 11.796875 
C 38.40625 12.5 37.796875 12.5 37.59375 12.5 
C 36.90625 12.5 36.796875 12.296875 36.40625 11.078125 
C 34.203125 4.21875 28.703125 0.796875 23.5 0.796875 
C 19.203125 0.796875 14.90625 3.21875 12.203125 7.65625 
C 9.09375 12.796875 9.09375 18.75 9.09375 23.484375 
z
M 9.203125 25 
C 9.90625 39.234375 17.59375 42.390625 21.59375 42.390625 
C 28.40625 42.390625 33 36.0625 33.09375 25 
z
" id="CMR17-101"/>
      <path d="M 15.09375 40.390625 
L 29.09375 40.390625 
L 29.09375 43 
L 15.09375 43 
L 15.09375 62 
L 13.296875 62 
C 13.09375 51.4375 9.59375 42.1875 1.09375 41.984375 
L 1.09375 40.390625 
L 9.796875 40.390625 
L 9.796875 12.15625 
C 9.796875 10.234375 9.796875 -1 21.40625 -1 
C 27.296875 -1 30.703125 4.8125 30.703125 12.25 
L 30.703125 17.984375 
L 28.90625 17.984375 
L 28.90625 12.34375 
C 28.90625 5.421875 26.203125 0.796875 22 0.796875 
C 19.09375 0.796875 15.09375 2.796875 15.09375 11.953125 
z
" id="CMR17-116"/>
      <path d="M 43.09375 21.1875 
C 43.09375 34 33.796875 44 22.90625 44 
C 12 44 2.703125 34 2.703125 21.1875 
C 2.703125 8.59375 12 -1 22.90625 -1 
C 33.796875 -1 43.09375 8.59375 43.09375 21.1875 
z
M 22.90625 0.796875 
C 18.203125 0.796875 14.203125 3.59375 11.90625 7.5 
C 9.40625 12 9.09375 17.59375 9.09375 22 
C 9.09375 26.1875 9.296875 31.390625 11.90625 35.890625 
C 13.90625 39.1875 17.796875 42.390625 22.90625 42.390625 
C 27.40625 42.390625 31.203125 39.890625 33.59375 36.390625 
C 36.703125 31.6875 36.703125 25.09375 36.703125 22 
C 36.703125 18.09375 36.5 12.09375 33.796875 7.296875 
C 31 2.6875 26.703125 0.796875 22.90625 0.796875 
z
" id="CMR17-111"/>
      <path d="M 30.90625 42 
C 30.90625 43.796875 30.796875 43.890625 30.203125 43.890625 
C 29.796875 43.890625 29.703125 43.796875 28.5 42.296875 
C 28.203125 41.890625 27.296875 40.890625 27 40.5 
C 23.796875 43.890625 19.296875 44 17.59375 44 
C 6.5 44 2.5 38.1875 2.5 32.390625 
C 2.5 23.390625 12.703125 21.296875 15.59375 20.6875 
C 21.90625 19.390625 24.09375 19 26.203125 17.1875 
C 27.5 16 29.703125 13.796875 29.703125 10.1875 
C 29.703125 6 27.296875 0.59375 18.09375 0.59375 
C 9.40625 0.59375 6.296875 7.1875 4.5 16 
C 4.203125 17.390625 4.203125 17.5 3.40625 17.5 
C 2.59375 17.5 2.5 17.390625 2.5 15.390625 
L 2.5 1 
C 2.5 -0.8125 2.59375 -0.90625 3.203125 -0.90625 
C 3.703125 -0.90625 3.796875 -0.8125 4.296875 0 
C 4.90625 0.890625 6.40625 3.296875 7 4.296875 
C 9 1.59375 12.5 -1 18.09375 -1 
C 28 -1 33.296875 4.390625 33.296875 12.1875 
C 33.296875 17.296875 30.59375 20 29.296875 21.1875 
C 26.296875 24.296875 22.796875 25 18.59375 25.796875 
C 13.09375 27 6.09375 28.390625 6.09375 34.5 
C 6.09375 37.09375 7.5 42.59375 17.59375 42.59375 
C 28.296875 42.59375 28.90625 32.59375 29.09375 29.390625 
C 29.203125 28.890625 29.703125 28.796875 30 28.796875 
C 30.90625 28.796875 30.90625 29.09375 30.90625 30.796875 
z
" id="CMR17-115"/>
      <path d="M 15.296875 69 
L 3.40625 67.890625 
L 3.40625 65.296875 
C 9.296875 65.296875 10.203125 64.703125 10.203125 59.921875 
L 10.203125 6.859375 
C 10.203125 3.09375 9.796875 2.59375 3.40625 2.59375 
L 3.40625 0 
C 5.796875 0.1875 10.203125 0.1875 12.703125 0.1875 
C 15.296875 0.1875 19.703125 0.1875 22.09375 0 
L 22.09375 2.59375 
C 15.703125 2.59375 15.296875 2.984375 15.296875 6.859375 
z
" id="CMR17-108"/>
      <path d="M 39.09375 33.953125 
C 40 36.171875 41.59375 40.1875 47.40625 40.390625 
L 47.40625 43 
C 45.5 42.890625 43 42.796875 41.09375 42.796875 
C 39 42.796875 35.703125 42.796875 33.703125 43 
L 33.703125 40.390625 
C 36.203125 40.1875 37.59375 38.984375 37.59375 36.375 
C 37.59375 35.46875 37.59375 35.265625 37 33.859375 
L 26 5.921875 
L 14.09375 36.0625 
C 13.5 37.375 13.5 37.578125 13.5 37.984375 
C 13.5 40.390625 16.796875 40.390625 18.296875 40.390625 
L 18.296875 43 
C 15.90625 42.796875 11.5 42.796875 9 42.796875 
C 6.296875 42.796875 3.203125 42.796875 1 43 
L 1 40.390625 
C 4.796875 40.390625 6.90625 40.390625 8.09375 37.28125 
L 22.59375 0.6875 
C 23.203125 -0.8125 23.296875 -1 24.203125 -1 
C 25.09375 -1 25.203125 -0.8125 25.796875 0.6875 
z
" id="CMR17-118"/>
      <path d="M 36 25.875 
C 36 32 36 35.546875 31.796875 39.59375 
C 28.09375 42.984375 23.796875 44 20.40625 44 
C 12.5 44 6.796875 37.625 6.796875 30.890625 
C 6.796875 27.1875 9.796875 27 10.40625 27 
C 11.703125 27 14 27.796875 14 30.59375 
C 14 33.09375 12.09375 34.1875 10.40625 34.1875 
C 10 34.1875 9.5 34.09375 9.203125 34 
C 11.296875 40.53125 16.703125 42.390625 20.203125 42.390625 
C 25.203125 42.390625 30.703125 37.828125 30.703125 29.296875 
L 30.703125 25.5 
C 24.796875 25.296875 17.703125 24.5 12.09375 21.453125 
C 5.796875 17.921875 4 12.84375 4 9 
C 4 1.203125 13 -1 18.296875 -1 
C 23.796875 -1 28.90625 2.109375 31.09375 7.890625 
C 31.296875 3.421875 34.09375 -0.609375 38.5 -0.609375 
C 40.59375 -0.609375 45.90625 0.796875 45.90625 8.796875 
L 45.90625 14.46875 
L 44.09375 14.46875 
L 44.09375 8.703125 
C 44.09375 2.515625 41.40625 1.703125 40.09375 1.703125 
C 36 1.703125 36 6.96875 36 11.4375 
z
M 30.703125 13.859375 
C 30.703125 5.046875 24.5 0.59375 19 0.59375 
C 14 0.59375 10.09375 4.34375 10.09375 9 
C 10.09375 12.046875 11.40625 17.40625 17.203125 20.65625 
C 22 23.390625 27.5 23.796875 30.703125 24 
z
" id="CMR17-97"/>
      <path d="M 41.5 30.53125 
C 41.5 35.65625 40.5 44 28.703125 44 
C 20.796875 44 16.703125 37.875 15.203125 33.84375 
L 15.09375 33.84375 
L 15.09375 44 
L 3.296875 42.890625 
L 3.296875 40.28125 
C 9.203125 40.28125 10.09375 39.6875 10.09375 34.859375 
L 10.09375 6.921875 
C 10.09375 3.09375 9.703125 2.59375 3.296875 2.59375 
L 3.296875 0 
C 5.703125 0.1875 10.09375 0.1875 12.703125 0.1875 
C 15.296875 0.1875 19.796875 0.1875 22.203125 0 
L 22.203125 2.59375 
C 15.796875 2.59375 15.40625 3 15.40625 6.921875 
L 15.40625 26.21875 
C 15.40625 35.453125 21 42.390625 28 42.390625 
C 35.40625 42.390625 36.203125 35.765625 36.203125 30.9375 
L 36.203125 6.921875 
C 36.203125 3.09375 35.796875 2.59375 29.40625 2.59375 
L 29.40625 0 
C 31.796875 0.1875 36.203125 0.1875 38.796875 0.1875 
C 41.40625 0.1875 45.90625 0.1875 48.296875 0 
L 48.296875 2.59375 
C 41.90625 2.59375 41.5 3 41.5 6.921875 
z
" id="CMR17-110"/>
      <path d="M 22 -17.40625 
C 15.59375 -17.40625 15.203125 -17 15.203125 -13.03125 
L 15.203125 5.9375 
C 18.09375 1.703125 22.296875 -1 27.59375 -1 
C 37.59375 -1 47.703125 7.859375 47.703125 21.59375 
C 47.703125 34.3125 39 44 28.703125 44 
C 22.703125 44 17.796875 40.671875 15 36.640625 
L 15 44 
L 3.09375 42.890625 
L 3.09375 40.265625 
C 9 40.265625 9.90625 39.671875 9.90625 34.8125 
L 9.90625 -13.03125 
C 9.90625 -16.890625 9.5 -17.40625 3.09375 -17.40625 
L 3.09375 -20 
C 5.5 -19.8125 9.90625 -19.8125 12.5 -19.8125 
C 15.09375 -19.8125 19.59375 -19.8125 22 -20 
z
M 15.203125 31.484375 
C 15.203125 32.90625 15.203125 35.015625 19.09375 38.765625 
C 19.59375 39.15625 23 42.1875 28 42.1875 
C 35.296875 42.1875 41.296875 33 41.296875 21.5 
C 41.296875 9.984375 34.90625 0.59375 27 0.59375 
C 23.40625 0.59375 19.5 2.3125 16.5 7.046875 
C 15.203125 9.28125 15.203125 9.875 15.203125 11.5 
z
" id="CMR17-112"/>
      <path d="M 29.40625 42.890625 
L 29.40625 40.296875 
C 35.296875 40.296875 36.203125 39.6875 36.203125 34.828125 
L 36.203125 16.453125 
C 36.203125 7.96875 31.703125 0.59375 24.296875 0.59375 
C 16.09375 0.59375 15.40625 5.546875 15.40625 10.796875 
L 15.40625 44 
L 3.296875 42.890625 
L 3.296875 40.296875 
C 7.296875 40.296875 10 40.296875 10.09375 36.25 
L 10.09375 16.859375 
C 10.09375 10.09375 10.09375 5.75 12.703125 2.921875 
C 14 1.609375 16.5 -1 23.703125 -1 
C 32.203125 -1 35.5 6.25 36.296875 8.375 
L 36.40625 8.375 
L 36.40625 -1 
L 48.296875 -0.203125 
L 48.296875 2.40625 
C 42.40625 2.40625 41.5 3.015625 41.5 7.859375 
L 41.5 44 
z
" id="CMR17-117"/>
     </defs>
     <g transform="translate(411.098709 592.761935)scale(0.11 -0.11)">
      <use transform="scale(0.996264)" xlink:href="#CMR17-84"/>
      <use transform="translate(66.509881 0)scale(0.996264)" xlink:href="#CMR17-105"/>
      <use transform="translate(91.380939 0)scale(0.996264)" xlink:href="#CMR17-109"/>
      <use transform="translate(168.300529 0)scale(0.996264)" xlink:href="#CMR17-101"/>
      <use transform="translate(238.862156 0)scale(0.996264)" xlink:href="#CMR17-116"/>
      <use transform="translate(274.142924 0)scale(0.996264)" xlink:href="#CMR17-111"/>
      <use transform="translate(349.909367 0)scale(0.996264)" xlink:href="#CMR17-115"/>
      <use transform="translate(385.710705 0)scale(0.996264)" xlink:href="#CMR17-111"/>
      <use transform="translate(431.401182 0)scale(0.996264)" xlink:href="#CMR17-108"/>
      <use transform="translate(456.27224 0)scale(0.996264)" xlink:href="#CMR17-118"/>
      <use transform="translate(501.962702 0)scale(0.996264)" xlink:href="#CMR17-101"/>
      <use transform="translate(572.524329 0)scale(0.996264)" xlink:href="#CMR17-97"/>
      <use transform="translate(618.214806 0)scale(0.996264)" xlink:href="#CMR17-110"/>
      <use transform="translate(699.186142 0)scale(0.996264)" xlink:href="#CMR17-105"/>
      <use transform="translate(724.057201 0)scale(0.996264)" xlink:href="#CMR17-110"/>
      <use transform="translate(774.95257 0)scale(0.996264)" xlink:href="#CMR17-112"/>
      <use transform="translate(825.84794 0)scale(0.996264)" xlink:href="#CMR17-117"/>
      <use transform="translate(876.74331 0)scale(0.996264)" xlink:href="#CMR17-116"/>
     </g>
    </g>
   </g>
   <g id="matplotlib.axis_2">
    <g id="ytick_1">
     <g id="line2d_8">
      <defs>
       <path d="M 0 0 
L -3.5 0 
" id="m0e59f40200" style="stroke:#000000;stroke-width:0.8;"/>
      </defs>
      <g>
       <use style="stroke:#000000;stroke-width:0.8;" x="47.423785" xlink:href="#m0e59f40200" y="564.410347"/>
      </g>
     </g>
     <g id="text_9">
      <!-- $0.50$ -->
      <defs>
       <path d="M 18.40625 4.796875 
C 18.40625 7.6875 16 9.6875 13.59375 9.6875 
C 10.703125 9.6875 8.703125 7.296875 8.703125 4.890625 
C 8.703125 2 11.09375 0 13.5 0 
C 16.40625 0 18.40625 2.390625 18.40625 4.796875 
z
" id="CMMI12-58"/>
      </defs>
      <g transform="translate(20.941241 568.21552)scale(0.11 -0.11)">
       <use transform="scale(0.996264)" xlink:href="#CMR17-48"/>
       <use transform="translate(45.690477 0)scale(0.996264)" xlink:href="#CMMI12-58"/>
       <use transform="translate(72.787654 0)scale(0.996264)" xlink:href="#CMR17-53"/>
       <use transform="translate(118.478131 0)scale(0.996264)" xlink:href="#CMR17-48"/>
      </g>
     </g>
    </g>
    <g id="ytick_2">
     <g id="line2d_9">
      <g>
       <use style="stroke:#000000;stroke-width:0.8;" x="47.423785" xlink:href="#m0e59f40200" y="473.810347"/>
      </g>
     </g>
     <g id="text_10">
      <!-- $0.52$ -->
      <g transform="translate(20.941241 477.61552)scale(0.11 -0.11)">
       <use transform="scale(0.996264)" xlink:href="#CMR17-48"/>
       <use transform="translate(45.690477 0)scale(0.996264)" xlink:href="#CMMI12-58"/>
       <use transform="translate(72.787654 0)scale(0.996264)" xlink:href="#CMR17-53"/>
       <use transform="translate(118.478131 0)scale(0.996264)" xlink:href="#CMR17-50"/>
      </g>
     </g>
    </g>
    <g id="ytick_3">
     <g id="line2d_10">
      <g>
       <use style="stroke:#000000;stroke-width:0.8;" x="47.423785" xlink:href="#m0e59f40200" y="383.210347"/>
      </g>
     </g>
     <g id="text_11">
      <!-- $0.54$ -->
      <g transform="translate(20.941241 387.01552)scale(0.11 -0.11)">
       <use transform="scale(0.996264)" xlink:href="#CMR17-48"/>
       <use transform="translate(45.690477 0)scale(0.996264)" xlink:href="#CMMI12-58"/>
       <use transform="translate(72.787654 0)scale(0.996264)" xlink:href="#CMR17-53"/>
       <use transform="translate(118.478131 0)scale(0.996264)" xlink:href="#CMR17-52"/>
      </g>
     </g>
    </g>
    <g id="ytick_4">
     <g id="line2d_11">
      <g>
       <use style="stroke:#000000;stroke-width:0.8;" x="47.423785" xlink:href="#m0e59f40200" y="292.610347"/>
      </g>
     </g>
     <g id="text_12">
      <!-- $0.56$ -->
      <defs>
       <path d="M 10.59375 34.34375 
C 10.59375 58 21.796875 63.6875 28.296875 63.6875 
C 30.40625 63.6875 35.5 63.265625 37.5 59.09375 
C 35.90625 59.09375 32.90625 59.09375 32.90625 55.59375 
C 32.90625 52.890625 35.09375 52 36.5 52 
C 37.40625 52 40.09375 52.390625 40.09375 55.796875 
C 40.09375 62.296875 35.09375 66 28.203125 66 
C 16.296875 66 3.796875 53.296875 3.796875 31.421875 
C 3.796875 4.015625 15.09375 -2 23.09375 -2 
C 32.796875 -2 42 6.734375 42 20.234375 
C 42 32.828125 33.90625 42 23.703125 42 
C 17.59375 42 13.09375 37.96875 10.59375 30.921875 
z
M 23.09375 0.390625 
C 10.796875 0.390625 10.796875 18.9375 10.796875 22.65625 
C 10.796875 29.90625 14.203125 40.390625 23.5 40.390625 
C 25.203125 40.390625 30.09375 40.390625 33.40625 33.4375 
C 35.203125 29.515625 35.203125 25.375 35.203125 20.34375 
C 35.203125 14.90625 35.203125 10.875 33.09375 6.84375 
C 30.90625 2.703125 27.703125 0.390625 23.09375 0.390625 
z
" id="CMR17-54"/>
      </defs>
      <g transform="translate(20.941241 296.41552)scale(0.11 -0.11)">
       <use transform="scale(0.996264)" xlink:href="#CMR17-48"/>
       <use transform="translate(45.690477 0)scale(0.996264)" xlink:href="#CMMI12-58"/>
       <use transform="translate(72.787654 0)scale(0.996264)" xlink:href="#CMR17-53"/>
       <use transform="translate(118.478131 0)scale(0.996264)" xlink:href="#CMR17-54"/>
      </g>
     </g>
    </g>
    <g id="ytick_5">
     <g id="line2d_12">
      <g>
       <use style="stroke:#000000;stroke-width:0.8;" x="47.423785" xlink:href="#m0e59f40200" y="202.010347"/>
      </g>
     </g>
     <g id="text_13">
      <!-- $0.58$ -->
      <defs>
       <path d="M 27.203125 35.765625 
C 33.5 38.96875 39.90625 43.796875 39.90625 51.53125 
C 39.90625 60.6875 31.09375 66 23 66 
C 13.90625 66 5.90625 59.375 5.90625 50.234375 
C 5.90625 47.71875 6.5 43.390625 10.40625 39.578125 
C 11.40625 38.578125 15.59375 35.5625 18.296875 33.65625 
C 13.796875 31.34375 3.296875 25.8125 3.296875 14.765625 
C 3.296875 4.40625 13.09375 -2 22.796875 -2 
C 33.5 -2 42.5 5.71875 42.5 15.96875 
C 42.5 25.109375 36.40625 29.328125 32.40625 32.046875 
z
M 14.09375 44.609375 
C 13.296875 45.109375 9.296875 48.21875 9.296875 52.9375 
C 9.296875 59.078125 15.59375 63.6875 22.796875 63.6875 
C 30.703125 63.6875 36.5 58.0625 36.5 51.53125 
C 36.5 42.1875 26.09375 36.859375 25.59375 36.859375 
C 25.5 36.859375 25.40625 36.859375 24.59375 37.46875 
z
M 32.5 24 
C 34 22.90625 38.796875 19.578125 38.796875 13.453125 
C 38.796875 6.015625 31.40625 0.390625 23 0.390625 
C 13.90625 0.390625 7 6.921875 7 14.859375 
C 7 22.796875 13.09375 29.4375 20 32.546875 
z
" id="CMR17-56"/>
      </defs>
      <g transform="translate(20.941241 205.81552)scale(0.11 -0.11)">
       <use transform="scale(0.996264)" xlink:href="#CMR17-48"/>
       <use transform="translate(45.690477 0)scale(0.996264)" xlink:href="#CMMI12-58"/>
       <use transform="translate(72.787654 0)scale(0.996264)" xlink:href="#CMR17-53"/>
       <use transform="translate(118.478131 0)scale(0.996264)" xlink:href="#CMR17-56"/>
      </g>
     </g>
    </g>
    <g id="ytick_6">
     <g id="line2d_13">
      <g>
       <use style="stroke:#000000;stroke-width:0.8;" x="47.423785" xlink:href="#m0e59f40200" y="111.410347"/>
      </g>
     </g>
     <g id="text_14">
      <!-- $0.60$ -->
      <g transform="translate(20.941241 115.21552)scale(0.11 -0.11)">
       <use transform="scale(0.996264)" xlink:href="#CMR17-48"/>
       <use transform="translate(45.690477 0)scale(0.996264)" xlink:href="#CMMI12-58"/>
       <use transform="translate(72.787654 0)scale(0.996264)" xlink:href="#CMR17-54"/>
       <use transform="translate(118.478131 0)scale(0.996264)" xlink:href="#CMR17-48"/>
      </g>
     </g>
    </g>
    <g id="ytick_7">
     <g id="line2d_14">
      <g>
       <use style="stroke:#000000;stroke-width:0.8;" x="47.423785" xlink:href="#m0e59f40200" y="20.810347"/>
      </g>
     </g>
     <g id="text_15">
      <!-- $0.62$ -->
      <g transform="translate(20.941241 24.61552)scale(0.11 -0.11)">
       <use transform="scale(0.996264)" xlink:href="#CMR17-48"/>
       <use transform="translate(45.690477 0)scale(0.996264)" xlink:href="#CMMI12-58"/>
       <use transform="translate(72.787654 0)scale(0.996264)" xlink:href="#CMR17-54"/>
       <use transform="translate(118.478131 0)scale(0.996264)" xlink:href="#CMR17-50"/>
      </g>
     </g>
    </g>
    <g id="text_16">
     <!-- Solved inputs -->
     <defs>
      <path d="M 43.796875 67.984375 
C 43.796875 69.796875 43.703125 69.890625 43.09375 69.890625 
C 42.5 69.890625 42.296875 69.484375 41.90625 68.59375 
L 38.90625 61.953125 
C 35.09375 67.5 29.296875 70 23 70 
C 12.796875 70 4.59375 61.84375 4.59375 51.578125 
C 4.59375 48.453125 5.296875 44.015625 8.703125 39.78125 
C 12.40625 35.15625 15.90625 34.34375 23.90625 32.234375 
C 26.90625 31.421875 31.90625 30.109375 32.90625 29.703125 
C 38.59375 27.296875 41.59375 21.25 41.59375 15.609375 
C 41.59375 8.34375 36.5 0.59375 27.796875 0.59375 
C 17.09375 0.59375 7.09375 6.640625 6.40625 20.75 
C 6.296875 22.359375 6.203125 22.453125 5.5 22.453125 
C 4.703125 22.453125 4.59375 22.359375 4.59375 20.34375 
L 4.59375 0 
C 4.59375 -1.8125 4.703125 -1.90625 5.296875 -1.90625 
C 6 -1.90625 6.203125 -1.40625 7.59375 1.703125 
C 7.703125 2 7.703125 2.203125 9.59375 6.03125 
C 14.59375 -0.609375 23 -2 27.796875 -2 
C 38.703125 -2 46.40625 7.140625 46.40625 17.828125 
C 46.40625 23.0625 44.5 27.09375 43.40625 28.90625 
C 39.203125 35.359375 34.703125 36.5625 29.90625 37.765625 
C 29.203125 38.078125 29 38.078125 23.40625 39.484375 
C 18 40.890625 15.703125 41.59375 13.203125 44.3125 
C 10.40625 47.4375 9.40625 50.671875 9.40625 53.890625 
C 9.40625 60.4375 14.59375 67.59375 23.09375 67.59375 
C 33.703125 67.59375 40.296875 60.03125 41.796875 47.4375 
C 42.09375 45.625 42.203125 45.53125 42.90625 45.53125 
C 43.796875 45.53125 43.796875 45.828125 43.796875 47.546875 
z
" id="CMR17-83"/>
      <path d="M 29.203125 67.890625 
L 29.203125 65.296875 
C 35.09375 65.296875 36 64.703125 36 60.046875 
L 36 37.046875 
C 35.59375 37.546875 31.5 44 23.40625 44 
C 13.203125 44 3.296875 34.8125 3.296875 21.5 
C 3.296875 8.265625 12.59375 -1 22.40625 -1 
C 30.90625 -1 35.296875 5.640625 35.796875 6.34375 
L 35.796875 -1 
L 47.90625 -0.203125 
L 47.90625 2.40625 
C 42 2.40625 41.09375 3.015625 41.09375 7.859375 
L 41.09375 69 
z
M 35.796875 11.90625 
C 35.796875 8.875 34 6.140625 31.703125 4.125 
C 28.296875 1.09375 24.90625 0.59375 23 0.59375 
C 20.09375 0.59375 9.703125 2.109375 9.703125 21.390625 
C 9.703125 41.1875 21.296875 42.390625 23.90625 42.390625 
C 28.5 42.390625 32.203125 39.765625 34.5 36.140625 
C 35.796875 34.015625 35.796875 33.703125 35.796875 31.890625 
z
" id="CMR17-100"/>
     </defs>
     <g transform="translate(14.810347 324.908745)rotate(-90)scale(0.11 -0.11)">
      <use transform="scale(0.996264)" xlink:href="#CMR17-83"/>
      <use transform="translate(50.89537 0)scale(0.996264)" xlink:href="#CMR17-111"/>
      <use transform="translate(96.585847 0)scale(0.996264)" xlink:href="#CMR17-108"/>
      <use transform="translate(121.456905 0)scale(0.996264)" xlink:href="#CMR17-118"/>
      <use transform="translate(167.147367 0)scale(0.996264)" xlink:href="#CMR17-101"/>
      <use transform="translate(207.633028 0)scale(0.996264)" xlink:href="#CMR17-100"/>
      <use transform="translate(288.604364 0)scale(0.996264)" xlink:href="#CMR17-105"/>
      <use transform="translate(313.475422 0)scale(0.996264)" xlink:href="#CMR17-110"/>
      <use transform="translate(364.370792 0)scale(0.996264)" xlink:href="#CMR17-112"/>
      <use transform="translate(415.266162 0)scale(0.996264)" xlink:href="#CMR17-117"/>
      <use transform="translate(466.161532 0)scale(0.996264)" xlink:href="#CMR17-116"/>
      <use transform="translate(501.4423 0)scale(0.996264)" xlink:href="#CMR17-115"/>
     </g>
    </g>
   </g>
   <g id="patch_8">
    <path d="M 47.423785 564.410347 
L 47.423785 20.810347 
" style="fill:none;stroke:#000000;stroke-linecap:square;stroke-linejoin:miter;stroke-width:0.8;"/>
   </g>
   <g id="patch_9">
    <path d="M 884.423785 564.410347 
L 884.423785 20.810347 
" style="fill:none;stroke:#000000;stroke-linecap:square;stroke-linejoin:miter;stroke-width:0.8;"/>
   </g>
   <g id="patch_10">
    <path d="M 47.423785 564.410347 
L 884.423785 564.410347 
" style="fill:none;stroke:#000000;stroke-linecap:square;stroke-linejoin:miter;stroke-width:0.8;"/>
   </g>
   <g id="patch_11">
    <path d="M 47.423785 20.810347 
L 884.423785 20.810347 
" style="fill:none;stroke:#000000;stroke-linecap:square;stroke-linejoin:miter;stroke-width:0.8;"/>
   </g>
   <g id="text_17">
    <!-- Comparison of experimentwares -->
    <defs>
     <path d="M 62.09375 67.984375 
C 62.09375 69.796875 62 69.890625 61.40625 69.890625 
C 61 69.890625 60.90625 69.796875 60.203125 68.59375 
L 55.796875 60.140625 
C 50.90625 66.390625 44.90625 70 37.203125 70 
C 20.09375 70 4.59375 54.796875 4.59375 34.046875 
C 4.59375 13.078125 20.09375 -2 37.296875 -2 
C 52.59375 -2 62.09375 11.578125 62.09375 23.15625 
C 62.09375 24.171875 62.09375 24.578125 61.203125 24.578125 
C 60.40625 24.578125 60.40625 24.265625 60.296875 23.359375 
C 59.5 9.25 49.5 0.59375 38.703125 0.59375 
C 28.5 0.59375 12.203125 7.84375 12.203125 34.046875 
C 12.203125 60.34375 28.796875 67.390625 38.5 67.390625 
C 49.796875 67.390625 58 57.515625 59.90625 43.515625 
C 60.09375 42.296875 60.09375 42.109375 61 42.109375 
C 62.09375 42.109375 62.09375 42.296875 62.09375 44.125 
z
" id="CMR17-67"/>
     <path d="M 15 23.703125 
C 15 33.34375 19.09375 42.390625 26.59375 42.390625 
C 27.296875 42.390625 28 42.296875 28.703125 41.984375 
C 28.703125 41.984375 26.5 41.28125 26.5 38.671875 
C 26.5 36.265625 28.40625 35.265625 29.90625 35.265625 
C 31.09375 35.265625 33.296875 35.96875 33.296875 38.78125 
C 33.296875 41.984375 30.09375 44 26.703125 44 
C 19.09375 44 15.796875 36.5625 14.796875 33.046875 
L 14.703125 33.046875 
L 14.703125 44 
L 3.09375 42.890625 
L 3.09375 40.28125 
C 9 40.28125 9.90625 39.6875 9.90625 34.859375 
L 9.90625 6.921875 
C 9.90625 3.09375 9.5 2.59375 3.09375 2.59375 
L 3.09375 0 
C 5.5 0.1875 10.09375 0.1875 12.703125 0.1875 
C 15.59375 0.1875 20.703125 0.1875 23.40625 0 
L 23.40625 2.59375 
C 16.203125 2.59375 15 2.59375 15 7.109375 
z
" id="CMR17-114"/>
     <path d="M 15.296875 40.390625 
L 26.703125 40.390625 
L 26.703125 43 
L 15.09375 43 
L 15.09375 55.296875 
C 15.09375 63.6875 19.296875 68.390625 23.59375 68.390625 
C 24.90625 68.390625 26.40625 68.171875 27.40625 67.796875 
C 26.59375 67.59375 24.5 66.890625 24.5 64.390625 
C 24.5 61.796875 26.5 61 27.90625 61 
C 29.296875 61 31.296875 61.796875 31.296875 64.390625 
C 31.296875 68.015625 27.703125 70 23.703125 70 
C 18 70 10.203125 65.796875 10.203125 55.09375 
L 10.203125 43 
L 2.203125 43 
L 2.203125 40.390625 
L 10.203125 40.390625 
L 10.203125 6.890625 
C 10.203125 3.09375 9.796875 2.59375 3.40625 2.59375 
L 3.40625 0 
C 5.796875 0.1875 10.40625 0.1875 13 0.1875 
C 15.90625 0.1875 21 0.1875 23.703125 0 
L 23.703125 2.59375 
C 16.5 2.59375 15.296875 2.59375 15.296875 7.09375 
z
" id="CMR17-102"/>
     <path d="M 26 23.296875 
C 29 27.1875 32.40625 31.59375 35.203125 34.890625 
C 38.5 38.6875 42.296875 40.296875 46.703125 40.390625 
L 46.703125 43 
C 45 42.890625 41.5 42.796875 39.703125 42.796875 
C 37 42.796875 33.90625 42.796875 31.59375 43 
L 31.59375 40.390625 
C 33 40.1875 33.796875 39.1875 33.796875 37.796875 
C 33.796875 36 32.796875 34.890625 32.296875 34.1875 
L 24.90625 24.796875 
L 16.09375 36.296875 
C 15.203125 37.390625 15.203125 37.59375 15.203125 38.09375 
C 15.203125 39.296875 16.203125 40.296875 17.90625 40.390625 
L 17.90625 43 
C 15.5 42.796875 11.203125 42.796875 8.703125 42.796875 
C 6 42.796875 2.796875 42.796875 0.59375 43 
L 0.59375 40.390625 
C 6 40.390625 7.203125 40 9.59375 37 
L 21.09375 22.09375 
C 21.296875 21.890625 21.796875 21.296875 21.796875 21 
C 21.796875 20.59375 13.09375 9.890625 12 8.5 
C 7.5 3.09375 2.796875 2.6875 0.09375 2.59375 
L 0.09375 0 
C 1.796875 0.09375 5.296875 0.1875 7.09375 0.1875 
C 9.09375 0.1875 13.5 0.1875 15.296875 0 
L 15.296875 2.59375 
C 14.703125 2.6875 13.09375 2.890625 13.09375 5.1875 
C 13.09375 7 13.90625 8.09375 14.796875 9.296875 
L 23.09375 19.5 
L 31.796875 8.1875 
C 32.59375 7.09375 33.796875 5.59375 33.796875 4.890625 
C 33.796875 3.5 32.59375 2.6875 31 2.59375 
L 31 0 
C 33.40625 0.1875 37.703125 0.1875 40.203125 0.1875 
C 42.90625 0.1875 46.09375 0.1875 48.296875 0 
L 48.296875 2.59375 
C 43.296875 2.59375 41.796875 2.796875 39.40625 5.890625 
z
" id="CMR17-120"/>
     <path d="M 58.203125 34.15625 
C 60.203125 40.09375 64.203125 40.296875 65.703125 40.390625 
L 65.703125 43 
C 63.703125 42.890625 61.703125 42.796875 59.703125 42.796875 
C 57.796875 42.796875 53.5 42.796875 51.796875 43 
L 51.796875 40.390625 
C 54.90625 40.1875 56.59375 38.375 56.59375 35.875 
C 56.59375 35.171875 56.40625 34.265625 56.203125 33.5625 
L 46.796875 6.21875 
L 36.59375 35.875 
C 36.40625 36.578125 36.09375 37.375 36.09375 37.78125 
C 36.09375 40.390625 39.5 40.390625 41.09375 40.390625 
L 41.09375 43 
C 38.796875 42.796875 34.59375 42.796875 32.203125 42.796875 
C 29.703125 42.796875 27.09375 42.796875 24.796875 43 
L 24.796875 40.390625 
C 30.296875 40.390625 30.296875 40.1875 32.40625 33.859375 
L 23.203125 6.921875 
L 13.296875 35.96875 
C 12.796875 37.28125 12.796875 37.484375 12.796875 37.78125 
C 12.796875 40.390625 16.203125 40.390625 17.796875 40.390625 
L 17.796875 43 
C 15.40625 42.796875 11.203125 42.796875 8.703125 42.796875 
C 6.5 42.796875 3.09375 42.796875 1 43 
L 1 40.390625 
C 5.40625 40.390625 6.5 40.09375 7.59375 36.765625 
L 19.90625 0.59375 
C 20.296875 -0.703125 20.59375 -1 21.40625 -1 
C 22.09375 -1 22.5 -0.8125 23 0.6875 
L 33.296875 31.046875 
L 43.703125 0.6875 
C 44.203125 -0.8125 44.59375 -1 45.296875 -1 
C 46.09375 -1 46.40625 -0.703125 46.796875 0.59375 
z
" id="CMR17-119"/>
    </defs>
    <g transform="translate(389.409155 14.810347)scale(0.11 -0.11)">
     <use transform="scale(0.996264)" xlink:href="#CMR17-67"/>
     <use transform="translate(66.509881 0)scale(0.996264)" xlink:href="#CMR17-111"/>
     <use transform="translate(112.200358 0)scale(0.996264)" xlink:href="#CMR17-109"/>
     <use transform="translate(189.119948 0)scale(0.996264)" xlink:href="#CMR17-112"/>
     <use transform="translate(240.015317 0)scale(0.996264)" xlink:href="#CMR17-97"/>
     <use transform="translate(285.705794 0)scale(0.996264)" xlink:href="#CMR17-114"/>
     <use transform="translate(320.986562 0)scale(0.996264)" xlink:href="#CMR17-105"/>
     <use transform="translate(345.857621 0)scale(0.996264)" xlink:href="#CMR17-115"/>
     <use transform="translate(381.658958 0)scale(0.996264)" xlink:href="#CMR17-111"/>
     <use transform="translate(427.349435 0)scale(0.996264)" xlink:href="#CMR17-110"/>
     <use transform="translate(508.320772 0)scale(0.996264)" xlink:href="#CMR17-111"/>
     <use transform="translate(554.011249 0)scale(0.996264)" xlink:href="#CMR17-102"/>
     <use transform="translate(611.560727 0)scale(0.996264)" xlink:href="#CMR17-101"/>
     <use transform="translate(652.046388 0)scale(0.996264)" xlink:href="#CMR17-120"/>
     <use transform="translate(700.339304 0)scale(0.996264)" xlink:href="#CMR17-112"/>
     <use transform="translate(753.837112 0)scale(0.996264)" xlink:href="#CMR17-101"/>
     <use transform="translate(794.322773 0)scale(0.996264)" xlink:href="#CMR17-114"/>
     <use transform="translate(829.603541 0)scale(0.996264)" xlink:href="#CMR17-105"/>
     <use transform="translate(854.474599 0)scale(0.996264)" xlink:href="#CMR17-109"/>
     <use transform="translate(931.394189 0)scale(0.996264)" xlink:href="#CMR17-101"/>
     <use transform="translate(971.879849 0)scale(0.996264)" xlink:href="#CMR17-110"/>
     <use transform="translate(1020.172765 0)scale(0.996264)" xlink:href="#CMR17-116"/>
     <use transform="translate(1052.851079 0)scale(0.996264)" xlink:href="#CMR17-119"/>
     <use transform="translate(1116.758506 0)scale(0.996264)" xlink:href="#CMR17-97"/>
     <use transform="translate(1162.448983 0)scale(0.996264)" xlink:href="#CMR17-114"/>
     <use transform="translate(1197.729751 0)scale(0.996264)" xlink:href="#CMR17-101"/>
     <use transform="translate(1238.215411 0)scale(0.996264)" xlink:href="#CMR17-115"/>
    </g>
   </g>
   <g id="legend_1">
    <g id="patch_12">
     <path d="M 640.670965 558.910347 
L 876.723785 558.910347 
Q 878.923785 558.910347 878.923785 556.710347 
L 878.923785 461.48221 
Q 878.923785 459.28221 876.723785 459.28221 
L 640.670965 459.28221 
Q 638.470965 459.28221 638.470965 461.48221 
L 638.470965 556.710347 
Q 638.470965 558.910347 640.670965 558.910347 
z
" style="fill:#ffffff;opacity:0.8;stroke:#cccccc;stroke-linejoin:miter;"/>
    </g>
    <g id="patch_13">
     <path d="M 642.870965 473.94098 
L 664.870965 473.94098 
L 664.870965 466.24098 
L 642.870965 466.24098 
z
" style="fill:none;stroke:#1f77b4;stroke-linejoin:miter;"/>
    </g>
    <g id="text_18">
     <!-- $\textrm{CaDiCaL}^\textrm{default}$ -->
     <defs>
      <path d="M 5.203125 68 
L 5.203125 65.390625 
C 12.09375 65.390625 13.203125 65.390625 13.203125 60.90625 
L 13.203125 7.078125 
C 13.203125 2.59375 12.09375 2.59375 5.203125 2.59375 
L 5.203125 0 
L 37 0 
C 53.09375 0 66 14.734375 66 33.4375 
C 66 52.25 53.296875 68 37 68 
z
M 23.796875 2.59375 
C 19.796875 2.59375 19.59375 3.09375 19.59375 6.46875 
L 19.59375 61.5 
C 19.59375 64.890625 19.796875 65.390625 23.796875 65.390625 
L 35 65.390625 
C 43.296875 65.390625 58.59375 60.515625 58.59375 33.4375 
C 58.59375 19.40625 54.5 13.734375 52.59375 11.046875 
C 50.203125 7.96875 44.5 2.59375 35 2.59375 
z
" id="CMR17-68"/>
      <path d="M 54.203125 25.1875 
L 52.40625 25.1875 
C 51.59375 15.328125 50.296875 2.59375 33.203125 2.59375 
L 23.90625 2.59375 
C 19.90625 2.59375 19.703125 3.09375 19.703125 6.46875 
L 19.703125 60.8125 
C 19.703125 64.390625 19.90625 65.390625 27.5 65.390625 
L 29.703125 65.390625 
L 29.703125 68 
C 25.59375 67.796875 20.796875 67.796875 16.703125 67.796875 
C 13.59375 67.796875 8 67.796875 5.09375 68 
L 5.09375 65.390625 
C 12 65.390625 13.09375 65.390625 13.09375 60.90625 
L 13.09375 7.078125 
C 13.09375 2.59375 12 2.59375 5.09375 2.59375 
L 5.09375 0 
L 51.796875 0 
z
" id="CMR17-76"/>
     </defs>
     <g transform="translate(673.670965 473.94098)scale(0.11 -0.11)">
      <use transform="scale(0.996264)" xlink:href="#CMR17-67"/>
      <use transform="translate(66.509881 0)scale(0.996264)" xlink:href="#CMR17-97"/>
      <use transform="translate(112.200358 0)scale(0.996264)" xlink:href="#CMR17-68"/>
      <use transform="translate(182.593914 0)scale(0.996264)" xlink:href="#CMR17-105"/>
      <use transform="translate(207.464972 0)scale(0.996264)" xlink:href="#CMR17-67"/>
      <use transform="translate(273.974853 0)scale(0.996264)" xlink:href="#CMR17-97"/>
      <use transform="translate(319.66533 0)scale(0.996264)" xlink:href="#CMR17-76"/>
      <use transform="translate(377.046738 41.137482)scale(0.996264)" xlink:href="#CMR17-100"/>
      <use transform="translate(427.942107 41.137482)scale(0.996264)" xlink:href="#CMR17-101"/>
      <use transform="translate(468.427768 41.137482)scale(0.996264)" xlink:href="#CMR17-102"/>
      <use transform="translate(495.90128 41.137482)scale(0.996264)" xlink:href="#CMR17-97"/>
      <use transform="translate(541.591757 41.137482)scale(0.996264)" xlink:href="#CMR17-117"/>
      <use transform="translate(592.487127 41.137482)scale(0.996264)" xlink:href="#CMR17-108"/>
      <use transform="translate(617.358186 41.137482)scale(0.996264)" xlink:href="#CMR17-116"/>
     </g>
    </g>
    <g id="patch_14">
     <path d="M 642.870965 494.083322 
L 664.870965 494.083322 
L 664.870965 486.383322 
L 642.870965 486.383322 
z
" style="fill:none;stroke:#ff7f0e;stroke-linejoin:miter;"/>
    </g>
    <g id="text_19">
     <!-- $\textrm{MapleLCMDistChronoBT-DL-v2.2}^\textrm{default}$ -->
     <defs>
      <path d="M 20.90625 66.390625 
C 20.296875 67.890625 20.203125 68 18.09375 68 
L 5.296875 68 
L 5.296875 65.390625 
C 12.203125 65.390625 13.296875 65.390625 13.296875 60.90625 
L 13.296875 9.75 
C 13.296875 7.265625 13.296875 2.59375 5.296875 2.59375 
L 5.296875 0 
C 7.59375 0.1875 11.796875 0.1875 14.296875 0.1875 
C 16.796875 0.1875 21 0.1875 23.296875 0 
L 23.296875 2.59375 
C 15.296875 2.59375 15.296875 7.265625 15.296875 9.75 
L 15.296875 64.984375 
L 15.40625 64.984375 
L 38.90625 1.59375 
C 39.296875 0.59375 39.5 0 40.296875 0 
C 41.09375 0 41.296875 0.59375 41.703125 1.59375 
L 65.40625 65.484375 
L 65.5 65.484375 
L 65.5 7.078125 
C 65.5 2.59375 64.40625 2.59375 57.5 2.59375 
L 57.5 0 
C 60.203125 0.1875 65.59375 0.1875 68.5 0.1875 
C 71.40625 0.1875 76.90625 0.1875 79.59375 0 
L 79.59375 2.59375 
C 72.703125 2.59375 71.59375 2.59375 71.59375 7.078125 
L 71.59375 60.90625 
C 71.59375 65.390625 72.703125 65.390625 79.59375 65.390625 
L 79.59375 68 
L 66.90625 68 
C 64.796875 68 64.703125 67.890625 64.09375 66.390625 
L 42.5 8.0625 
z
" id="CMR17-77"/>
      <path d="M 41.5 30.53125 
C 41.5 35.65625 40.5 44 28.703125 44 
C 20.5 44 16.5 37.375 15.296875 34.046875 
L 15.203125 34.046875 
L 15.203125 69 
L 3.296875 67.890625 
L 3.296875 65.296875 
C 9.203125 65.296875 10.09375 64.703125 10.09375 60.046875 
L 10.09375 6.921875 
C 10.09375 3.09375 9.703125 2.59375 3.296875 2.59375 
L 3.296875 0 
C 5.703125 0.1875 10.09375 0.1875 12.703125 0.1875 
C 15.296875 0.1875 19.796875 0.1875 22.203125 0 
L 22.203125 2.59375 
C 15.796875 2.59375 15.40625 3 15.40625 6.921875 
L 15.40625 26.21875 
C 15.40625 35.453125 21 42.390625 28 42.390625 
C 35.40625 42.390625 36.203125 35.765625 36.203125 30.9375 
L 36.203125 6.921875 
C 36.203125 3.09375 35.796875 2.59375 29.40625 2.59375 
L 29.40625 0 
C 31.796875 0.1875 36.203125 0.1875 38.796875 0.1875 
C 41.40625 0.1875 45.90625 0.1875 48.296875 0 
L 48.296875 2.59375 
C 41.90625 2.59375 41.5 3 41.5 6.921875 
z
" id="CMR17-104"/>
      <path d="M 5.203125 68 
L 5.203125 65.390625 
C 12.09375 65.390625 13.203125 65.390625 13.203125 60.890625 
L 13.203125 7.046875 
C 13.203125 2.59375 12.09375 2.59375 5.203125 2.59375 
L 5.203125 0 
L 39.59375 0 
C 52.40625 0 60.703125 9.03125 60.703125 18.046875 
C 60.703125 26.96875 52.5 34.59375 41.796875 35.296875 
C 51.40625 37.1875 58.09375 43.59375 58.09375 51.1875 
C 58.09375 59.5 49.90625 68 37 68 
z
M 19.5 36 
L 19.5 61.5 
C 19.5 64.890625 19.703125 65.390625 23.703125 65.390625 
L 36.5 65.390625 
C 46.40625 65.390625 50.796875 57.390625 50.796875 51.1875 
C 50.796875 43.59375 44.703125 36 33.90625 36 
z
M 23.703125 2.59375 
C 19.703125 2.59375 19.5 3.09375 19.5 6.453125 
L 19.5 34.390625 
L 38 34.390625 
C 48.296875 34.390625 53.296875 25.375 53.296875 18.140625 
C 53.296875 10.90625 47.59375 2.59375 36.703125 2.59375 
z
" id="CMR17-66"/>
      <path d="M 25.5 19.59375 
L 25.5 24 
L 0.40625 24 
L 0.40625 19.59375 
z
" id="CMR17-45"/>
      <path d="M 16.59375 4.09375 
C 16.59375 6.59375 14.59375 8.1875 12.5 8.1875 
C 10.5 8.1875 8.40625 6.59375 8.40625 4.09375 
C 8.40625 1.59375 10.40625 0 12.5 0 
C 14.5 0 16.59375 1.59375 16.59375 4.09375 
z
" id="CMR17-46"/>
     </defs>
     <g transform="translate(673.670965 494.083322)scale(0.11 -0.11)">
      <use transform="scale(0.996264)" xlink:href="#CMR17-77"/>
      <use transform="translate(84.686941 0)scale(0.996264)" xlink:href="#CMR17-97"/>
      <use transform="translate(130.377418 0)scale(0.996264)" xlink:href="#CMR17-112"/>
      <use transform="translate(181.272787 0)scale(0.996264)" xlink:href="#CMR17-108"/>
      <use transform="translate(206.143846 0)scale(0.996264)" xlink:href="#CMR17-101"/>
      <use transform="translate(246.629506 0)scale(0.996264)" xlink:href="#CMR17-76"/>
      <use transform="translate(304.010914 0)scale(0.996264)" xlink:href="#CMR17-67"/>
      <use transform="translate(370.520795 0)scale(0.996264)" xlink:href="#CMR17-77"/>
      <use transform="translate(455.207735 0)scale(0.996264)" xlink:href="#CMR17-68"/>
      <use transform="translate(525.601291 0)scale(0.996264)" xlink:href="#CMR17-105"/>
      <use transform="translate(550.47235 0)scale(0.996264)" xlink:href="#CMR17-115"/>
      <use transform="translate(586.273687 0)scale(0.996264)" xlink:href="#CMR17-116"/>
      <use transform="translate(621.554455 0)scale(0.996264)" xlink:href="#CMR17-67"/>
      <use transform="translate(688.064336 0)scale(0.996264)" xlink:href="#CMR17-104"/>
      <use transform="translate(738.959706 0)scale(0.996264)" xlink:href="#CMR17-114"/>
      <use transform="translate(774.240473 0)scale(0.996264)" xlink:href="#CMR17-111"/>
      <use transform="translate(819.93095 0)scale(0.996264)" xlink:href="#CMR17-110"/>
      <use transform="translate(870.82632 0)scale(0.996264)" xlink:href="#CMR17-111"/>
      <use transform="translate(916.516797 0)scale(0.996264)" xlink:href="#CMR17-66"/>
      <use transform="translate(981.705552 0)scale(0.996264)" xlink:href="#CMR17-84"/>
      <use transform="translate(1048.215432 0)scale(0.996264)" xlink:href="#CMR17-45"/>
      <use transform="translate(1078.291399 0)scale(0.996264)" xlink:href="#CMR17-68"/>
      <use transform="translate(1148.684955 0)scale(0.996264)" xlink:href="#CMR17-76"/>
      <use transform="translate(1206.066362 0)scale(0.996264)" xlink:href="#CMR17-45"/>
      <use transform="translate(1236.142329 0)scale(0.996264)" xlink:href="#CMR17-118"/>
      <use transform="translate(1284.435245 0)scale(0.996264)" xlink:href="#CMR17-50"/>
      <use transform="translate(1330.125722 0)scale(0.996264)" xlink:href="#CMR17-46"/>
      <use transform="translate(1354.99678 0)scale(0.996264)" xlink:href="#CMR17-50"/>
      <use transform="translate(1400.687257 42.258523)scale(0.996264)" xlink:href="#CMR17-100"/>
      <use transform="translate(1451.582627 42.258523)scale(0.996264)" xlink:href="#CMR17-101"/>
      <use transform="translate(1492.068288 42.258523)scale(0.996264)" xlink:href="#CMR17-102"/>
      <use transform="translate(1519.5418 42.258523)scale(0.996264)" xlink:href="#CMR17-97"/>
      <use transform="translate(1565.232277 42.258523)scale(0.996264)" xlink:href="#CMR17-117"/>
      <use transform="translate(1616.127647 42.258523)scale(0.996264)" xlink:href="#CMR17-108"/>
      <use transform="translate(1640.998705 42.258523)scale(0.996264)" xlink:href="#CMR17-116"/>
     </g>
    </g>
    <g id="patch_15">
     <path d="M 642.870965 514.225664 
L 664.870965 514.225664 
L 664.870965 506.525664 
L 642.870965 506.525664 
z
" style="fill:none;stroke:#2ca02c;stroke-linejoin:miter;"/>
    </g>
    <g id="text_20">
     <!-- $\textrm{MapleLCMDistChronoBT-DL-v2.1}^\textrm{default}$ -->
     <defs>
      <path d="M 26.59375 63.796875 
C 26.59375 65.890625 26.5 66 25.09375 66 
C 21.203125 61.359375 15.296875 59.890625 9.703125 59.6875 
C 9.40625 59.6875 8.90625 59.6875 8.796875 59.5 
C 8.703125 59.296875 8.703125 59.09375 8.703125 57 
C 11.796875 57 17 57.59375 21 59.984375 
L 21 7.296875 
C 21 3.796875 20.796875 2.59375 12.203125 2.59375 
L 9.203125 2.59375 
L 9.203125 0 
C 14 0.09375 19 0.1875 23.796875 0.1875 
C 28.59375 0.1875 33.59375 0.09375 38.40625 0 
L 38.40625 2.59375 
L 35.40625 2.59375 
C 26.796875 2.59375 26.59375 3.6875 26.59375 7.296875 
z
" id="CMR17-49"/>
     </defs>
     <g transform="translate(673.670965 514.225664)scale(0.11 -0.11)">
      <use transform="scale(0.996264)" xlink:href="#CMR17-77"/>
      <use transform="translate(84.686941 0)scale(0.996264)" xlink:href="#CMR17-97"/>
      <use transform="translate(130.377418 0)scale(0.996264)" xlink:href="#CMR17-112"/>
      <use transform="translate(181.272787 0)scale(0.996264)" xlink:href="#CMR17-108"/>
      <use transform="translate(206.143846 0)scale(0.996264)" xlink:href="#CMR17-101"/>
      <use transform="translate(246.629506 0)scale(0.996264)" xlink:href="#CMR17-76"/>
      <use transform="translate(304.010914 0)scale(0.996264)" xlink:href="#CMR17-67"/>
      <use transform="translate(370.520795 0)scale(0.996264)" xlink:href="#CMR17-77"/>
      <use transform="translate(455.207735 0)scale(0.996264)" xlink:href="#CMR17-68"/>
      <use transform="translate(525.601291 0)scale(0.996264)" xlink:href="#CMR17-105"/>
      <use transform="translate(550.47235 0)scale(0.996264)" xlink:href="#CMR17-115"/>
      <use transform="translate(586.273687 0)scale(0.996264)" xlink:href="#CMR17-116"/>
      <use transform="translate(621.554455 0)scale(0.996264)" xlink:href="#CMR17-67"/>
      <use transform="translate(688.064336 0)scale(0.996264)" xlink:href="#CMR17-104"/>
      <use transform="translate(738.959706 0)scale(0.996264)" xlink:href="#CMR17-114"/>
      <use transform="translate(774.240473 0)scale(0.996264)" xlink:href="#CMR17-111"/>
      <use transform="translate(819.93095 0)scale(0.996264)" xlink:href="#CMR17-110"/>
      <use transform="translate(870.82632 0)scale(0.996264)" xlink:href="#CMR17-111"/>
      <use transform="translate(916.516797 0)scale(0.996264)" xlink:href="#CMR17-66"/>
      <use transform="translate(981.705552 0)scale(0.996264)" xlink:href="#CMR17-84"/>
      <use transform="translate(1048.215432 0)scale(0.996264)" xlink:href="#CMR17-45"/>
      <use transform="translate(1078.291399 0)scale(0.996264)" xlink:href="#CMR17-68"/>
      <use transform="translate(1148.684955 0)scale(0.996264)" xlink:href="#CMR17-76"/>
      <use transform="translate(1206.066362 0)scale(0.996264)" xlink:href="#CMR17-45"/>
      <use transform="translate(1236.142329 0)scale(0.996264)" xlink:href="#CMR17-118"/>
      <use transform="translate(1284.435245 0)scale(0.996264)" xlink:href="#CMR17-50"/>
      <use transform="translate(1330.125722 0)scale(0.996264)" xlink:href="#CMR17-46"/>
      <use transform="translate(1354.99678 0)scale(0.996264)" xlink:href="#CMR17-49"/>
      <use transform="translate(1400.687257 42.258523)scale(0.996264)" xlink:href="#CMR17-100"/>
      <use transform="translate(1451.582627 42.258523)scale(0.996264)" xlink:href="#CMR17-101"/>
      <use transform="translate(1492.068288 42.258523)scale(0.996264)" xlink:href="#CMR17-102"/>
      <use transform="translate(1519.5418 42.258523)scale(0.996264)" xlink:href="#CMR17-97"/>
      <use transform="translate(1565.232277 42.258523)scale(0.996264)" xlink:href="#CMR17-117"/>
      <use transform="translate(1616.127647 42.258523)scale(0.996264)" xlink:href="#CMR17-108"/>
      <use transform="translate(1640.998705 42.258523)scale(0.996264)" xlink:href="#CMR17-116"/>
     </g>
    </g>
    <g id="patch_16">
     <path d="M 642.870965 532.23711 
L 664.870965 532.23711 
L 664.870965 524.53711 
L 642.870965 524.53711 
z
" style="fill:none;stroke:#d62728;stroke-linejoin:miter;"/>
    </g>
    <g id="text_21">
     <!-- $\textrm{cmsatv56-walksat-chronobt}^\textrm{default}$ -->
     <defs>
      <path d="M 34.90625 35 
C 33 35 30.203125 35 30.203125 31.484375 
C 30.203125 28.6875 32.5 27.890625 33.796875 27.890625 
C 34.5 27.890625 37.40625 28.1875 37.40625 31.6875 
C 37.40625 38.6875 30.59375 44 22.90625 44 
C 12.296875 44 3.296875 34.390625 3.296875 21.546875 
C 3.296875 8.140625 12.703125 -1 22.90625 -1 
C 35.296875 -1 38.40625 10.5625 38.40625 11.671875 
C 38.40625 12.078125 38.296875 12.375 37.59375 12.375 
C 36.90625 12.375 36.796875 12.28125 36.40625 10.96875 
C 33.796875 2.8125 28.09375 0.796875 23.796875 0.796875 
C 17.40625 0.796875 9.703125 6.734375 9.703125 21.640625 
C 9.703125 36.84375 17.09375 42.1875 23 42.1875 
C 26.90625 42.1875 32.703125 40.34375 34.90625 35 
z
" id="CMR17-99"/>
      <path d="M 26.09375 26.234375 
C 26 26.4375 25.5 27.03125 25.5 27.328125 
C 25.5 27.53125 32.59375 33.984375 33.5 34.78125 
C 39.203125 39.5625 42.796875 40.046875 45.40625 40.15625 
L 45.40625 42.734375 
C 44.796875 42.734375 44.59375 42.734375 44.5 42.640625 
L 39.59375 42.53125 
C 36.796875 42.53125 32.5 42.53125 29.796875 42.734375 
L 29.796875 40.15625 
C 31.203125 40.046875 32.203125 39.265625 32.203125 37.859375 
C 32.203125 35.875 30.203125 33.984375 30.09375 33.984375 
L 15 20.28125 
L 15 69 
L 3.09375 67.890625 
L 3.09375 65.296875 
C 9 65.296875 9.90625 64.703125 9.90625 59.921875 
L 9.90625 6.859375 
C 9.90625 3.09375 9.5 2.59375 3.09375 2.59375 
L 3.09375 0 
C 5.5 0.1875 9.90625 0.1875 12.40625 0.1875 
C 14.90625 0.1875 19.296875 0.1875 21.703125 0 
L 21.703125 2.59375 
C 15.296875 2.59375 14.90625 2.984375 14.90625 6.859375 
L 14.90625 17.796875 
L 21.796875 24.0625 
L 31.90625 9.15625 
C 33.09375 7.359375 34.09375 5.96875 34.09375 4.671875 
C 34.09375 2.890625 32.296875 2.59375 31.09375 2.59375 
L 31.09375 0 
C 33.5 0.1875 37.796875 0.1875 40.296875 0.1875 
C 42.09375 0.1875 45.796875 0.09375 47.5 0 
L 47.5 2.59375 
C 42.796875 2.59375 41.703125 3.484375 38.703125 7.859375 
z
" id="CMR17-107"/>
      <path d="M 15 69 
L 3.09375 67.890625 
L 3.09375 65.296875 
C 9 65.296875 9.90625 64.703125 9.90625 60.046875 
L 9.90625 -0.203125 
L 11.703125 -0.203125 
L 14.59375 6.953125 
C 17.5 2.203125 21.796875 -1 27.59375 -1 
C 37.59375 -1 47.703125 7.859375 47.703125 21.59375 
C 47.703125 34.515625 38.703125 44 28.59375 44 
C 22.40625 44 18 40.671875 15 36.734375 
z
M 15.203125 31.59375 
C 15.203125 33.40625 15.203125 33.703125 16.59375 35.828125 
C 20.5 41.890625 26.09375 42.390625 28 42.390625 
C 31 42.390625 41.296875 40.78125 41.296875 21.6875 
C 41.296875 1.703125 29.5 0.59375 27.09375 0.59375 
C 24 0.59375 19.5 1.796875 16.296875 7.65625 
C 15.203125 9.578125 15.203125 9.78125 15.203125 11.59375 
z
" id="CMR17-98"/>
     </defs>
     <g transform="translate(673.670965 532.23711)scale(0.11 -0.11)">
      <use transform="scale(0.996264)" xlink:href="#CMR17-99"/>
      <use transform="translate(40.48566 0)scale(0.996264)" xlink:href="#CMR17-109"/>
      <use transform="translate(117.40525 0)scale(0.996264)" xlink:href="#CMR17-115"/>
      <use transform="translate(153.206588 0)scale(0.996264)" xlink:href="#CMR17-97"/>
      <use transform="translate(198.897065 0)scale(0.996264)" xlink:href="#CMR17-116"/>
      <use transform="translate(234.177833 0)scale(0.996264)" xlink:href="#CMR17-118"/>
      <use transform="translate(282.470749 0)scale(0.996264)" xlink:href="#CMR17-53"/>
      <use transform="translate(328.161226 0)scale(0.996264)" xlink:href="#CMR17-54"/>
      <use transform="translate(373.851703 0)scale(0.996264)" xlink:href="#CMR17-45"/>
      <use transform="translate(403.927669 0)scale(0.996264)" xlink:href="#CMR17-119"/>
      <use transform="translate(467.835096 0)scale(0.996264)" xlink:href="#CMR17-97"/>
      <use transform="translate(513.525573 0)scale(0.996264)" xlink:href="#CMR17-108"/>
      <use transform="translate(538.396632 0)scale(0.996264)" xlink:href="#CMR17-107"/>
      <use transform="translate(586.689547 0)scale(0.996264)" xlink:href="#CMR17-115"/>
      <use transform="translate(622.490885 0)scale(0.996264)" xlink:href="#CMR17-97"/>
      <use transform="translate(668.181362 0)scale(0.996264)" xlink:href="#CMR17-116"/>
      <use transform="translate(703.46213 0)scale(0.996264)" xlink:href="#CMR17-45"/>
      <use transform="translate(733.538096 0)scale(0.996264)" xlink:href="#CMR17-99"/>
      <use transform="translate(771.421303 0)scale(0.996264)" xlink:href="#CMR17-104"/>
      <use transform="translate(822.316673 0)scale(0.996264)" xlink:href="#CMR17-114"/>
      <use transform="translate(857.59744 0)scale(0.996264)" xlink:href="#CMR17-111"/>
      <use transform="translate(903.287918 0)scale(0.996264)" xlink:href="#CMR17-110"/>
      <use transform="translate(954.183287 0)scale(0.996264)" xlink:href="#CMR17-111"/>
      <use transform="translate(999.873764 0)scale(0.996264)" xlink:href="#CMR17-98"/>
      <use transform="translate(1050.769134 0)scale(0.996264)" xlink:href="#CMR17-116"/>
      <use transform="translate(1086.049902 42.258523)scale(0.996264)" xlink:href="#CMR17-100"/>
      <use transform="translate(1136.945272 42.258523)scale(0.996264)" xlink:href="#CMR17-101"/>
      <use transform="translate(1177.430932 42.258523)scale(0.996264)" xlink:href="#CMR17-102"/>
      <use transform="translate(1204.904445 42.258523)scale(0.996264)" xlink:href="#CMR17-97"/>
      <use transform="translate(1250.594922 42.258523)scale(0.996264)" xlink:href="#CMR17-117"/>
      <use transform="translate(1301.490292 42.258523)scale(0.996264)" xlink:href="#CMR17-108"/>
      <use transform="translate(1326.36135 42.258523)scale(0.996264)" xlink:href="#CMR17-116"/>
     </g>
    </g>
    <g id="patch_17">
     <path d="M 642.870965 552.379452 
L 664.870965 552.379452 
L 664.870965 544.679452 
L 642.870965 544.679452 
z
" style="fill:none;stroke:#9467bd;stroke-linejoin:miter;"/>
    </g>
    <g id="text_22">
     <!-- $\textrm{MapleLCMDiscChronoBT-DL-v3}^\textrm{default}$ -->
     <g transform="translate(673.670965 552.379452)scale(0.11 -0.11)">
      <use transform="scale(0.996264)" xlink:href="#CMR17-77"/>
      <use transform="translate(84.686941 0)scale(0.996264)" xlink:href="#CMR17-97"/>
      <use transform="translate(130.377418 0)scale(0.996264)" xlink:href="#CMR17-112"/>
      <use transform="translate(181.272787 0)scale(0.996264)" xlink:href="#CMR17-108"/>
      <use transform="translate(206.143846 0)scale(0.996264)" xlink:href="#CMR17-101"/>
      <use transform="translate(246.629506 0)scale(0.996264)" xlink:href="#CMR17-76"/>
      <use transform="translate(304.010914 0)scale(0.996264)" xlink:href="#CMR17-67"/>
      <use transform="translate(370.520795 0)scale(0.996264)" xlink:href="#CMR17-77"/>
      <use transform="translate(455.207735 0)scale(0.996264)" xlink:href="#CMR17-68"/>
      <use transform="translate(525.601291 0)scale(0.996264)" xlink:href="#CMR17-105"/>
      <use transform="translate(550.47235 0)scale(0.996264)" xlink:href="#CMR17-115"/>
      <use transform="translate(586.273687 0)scale(0.996264)" xlink:href="#CMR17-99"/>
      <use transform="translate(626.759348 0)scale(0.996264)" xlink:href="#CMR17-67"/>
      <use transform="translate(693.269228 0)scale(0.996264)" xlink:href="#CMR17-104"/>
      <use transform="translate(744.164598 0)scale(0.996264)" xlink:href="#CMR17-114"/>
      <use transform="translate(779.445366 0)scale(0.996264)" xlink:href="#CMR17-111"/>
      <use transform="translate(825.135843 0)scale(0.996264)" xlink:href="#CMR17-110"/>
      <use transform="translate(876.031213 0)scale(0.996264)" xlink:href="#CMR17-111"/>
      <use transform="translate(921.72169 0)scale(0.996264)" xlink:href="#CMR17-66"/>
      <use transform="translate(986.910444 0)scale(0.996264)" xlink:href="#CMR17-84"/>
      <use transform="translate(1053.420325 0)scale(0.996264)" xlink:href="#CMR17-45"/>
      <use transform="translate(1083.496291 0)scale(0.996264)" xlink:href="#CMR17-68"/>
      <use transform="translate(1153.889847 0)scale(0.996264)" xlink:href="#CMR17-76"/>
      <use transform="translate(1211.271255 0)scale(0.996264)" xlink:href="#CMR17-45"/>
      <use transform="translate(1241.347221 0)scale(0.996264)" xlink:href="#CMR17-118"/>
      <use transform="translate(1289.640137 0)scale(0.996264)" xlink:href="#CMR17-51"/>
      <use transform="translate(1335.330614 42.258523)scale(0.996264)" xlink:href="#CMR17-100"/>
      <use transform="translate(1386.225984 42.258523)scale(0.996264)" xlink:href="#CMR17-101"/>
      <use transform="translate(1426.711645 42.258523)scale(0.996264)" xlink:href="#CMR17-102"/>
      <use transform="translate(1454.185157 42.258523)scale(0.996264)" xlink:href="#CMR17-97"/>
      <use transform="translate(1499.875634 42.258523)scale(0.996264)" xlink:href="#CMR17-117"/>
      <use transform="translate(1550.771004 42.258523)scale(0.996264)" xlink:href="#CMR17-108"/>
      <use transform="translate(1575.642062 42.258523)scale(0.996264)" xlink:href="#CMR17-116"/>
     </g>
    </g>
   </g>
  </g>
 </g>
 <defs>
  <clipPath id="p9e8f3c50f1">
   <rect height="543.6" width="837" x="47.423785" y="20.810347"/>
  </clipPath>
 </defs>
</svg>
