<?xml version="1.0" encoding="utf-8" standalone="no"?>
<!DOCTYPE svg PUBLIC "-//W3C//DTD SVG 1.1//EN"
  "http://www.w3.org/Graphics/SVG/1.1/DTD/svg11.dtd">
<!-- Created with matplotlib (https://matplotlib.org/) -->
<svg height="609.642354pt" version="1.1" viewBox="0 0 895.869615 609.642354" width="895.869615pt" xmlns="http://www.w3.org/2000/svg" xmlns:xlink="http://www.w3.org/1999/xlink">
 <defs>
  <style type="text/css">
*{stroke-linecap:butt;stroke-linejoin:round;}
  </style>
 </defs>
 <g id="figure_1">
  <g id="patch_1">
   <path d="M 0 609.642354 
L 895.869615 609.642354 
L 895.869615 0 
L 0 0 
z
" style="fill:none;"/>
  </g>
  <g id="axes_1">
   <g id="patch_2">
    <path d="M 48.169615 569.311447 
L 885.169615 569.311447 
L 885.169615 25.711447 
L 48.169615 25.711447 
z
" style="fill:none;"/>
   </g>
   <g id="PathCollection_1">
    <defs>
     <path d="M 0 2.236068 
C 0.593012 2.236068 1.161816 2.000462 1.581139 1.581139 
C 2.000462 1.161816 2.236068 0.593012 2.236068 0 
C 2.236068 -0.593012 2.000462 -1.161816 1.581139 -1.581139 
C 1.161816 -2.000462 0.593012 -2.236068 0 -2.236068 
C -0.593012 -2.236068 -1.161816 -2.000462 -1.581139 -1.581139 
C -2.000462 -1.161816 -2.236068 -0.593012 -2.236068 0 
C -2.236068 0.593012 -2.000462 1.161816 -1.581139 1.581139 
C -1.161816 2.000462 -0.593012 2.236068 0 2.236068 
z
" id="m4d1300a62d" style="stroke:#1f77b4;"/>
    </defs>
    <g clip-path="url(#pdcfabc54a5)">
     <use style="fill:#1f77b4;stroke:#1f77b4;" x="885.169615" xlink:href="#m4d1300a62d" y="287.941407"/>
     <use style="fill:#1f77b4;stroke:#1f77b4;" x="537.052378" xlink:href="#m4d1300a62d" y="343.221347"/>
     <use style="fill:#1f77b4;stroke:#1f77b4;" x="764.462142" xlink:href="#m4d1300a62d" y="449.084821"/>
     <use style="fill:#1f77b4;stroke:#1f77b4;" x="885.169615" xlink:href="#m4d1300a62d" y="126.978038"/>
     <use style="fill:#1f77b4;stroke:#1f77b4;" x="885.169615" xlink:href="#m4d1300a62d" y="25.711447"/>
     <use style="fill:#1f77b4;stroke:#1f77b4;" x="757.513962" xlink:href="#m4d1300a62d" y="350.137354"/>
     <use style="fill:#1f77b4;stroke:#1f77b4;" x="753.080084" xlink:href="#m4d1300a62d" y="444.764936"/>
     <use style="fill:#1f77b4;stroke:#1f77b4;" x="885.169615" xlink:href="#m4d1300a62d" y="25.711447"/>
     <use style="fill:#1f77b4;stroke:#1f77b4;" x="885.169615" xlink:href="#m4d1300a62d" y="216.577246"/>
     <use style="fill:#1f77b4;stroke:#1f77b4;" x="531.892733" xlink:href="#m4d1300a62d" y="230.989757"/>
     <use style="fill:#1f77b4;stroke:#1f77b4;" x="730.754422" xlink:href="#m4d1300a62d" y="42.808668"/>
     <use style="fill:#1f77b4;stroke:#1f77b4;" x="-1" xlink:href="#m4d1300a62d" y="116.779077"/>
     <use style="fill:#1f77b4;stroke:#1f77b4;" x="-1" xlink:href="#m4d1300a62d" y="76.208461"/>
     <use style="fill:#1f77b4;stroke:#1f77b4;" x="262.051268" xlink:href="#m4d1300a62d" y="25.711447"/>
     <use style="fill:#1f77b4;stroke:#1f77b4;" x="21.232091" xlink:href="#m4d1300a62d" y="35.648352"/>
     <use style="fill:#1f77b4;stroke:#1f77b4;" x="885.169615" xlink:href="#m4d1300a62d" y="25.711447"/>
     <use style="fill:#1f77b4;stroke:#1f77b4;" x="885.169615" xlink:href="#m4d1300a62d" y="25.711447"/>
     <use style="fill:#1f77b4;stroke:#1f77b4;" x="874.336956" xlink:href="#m4d1300a62d" y="25.711447"/>
     <use style="fill:#1f77b4;stroke:#1f77b4;" x="312.47542" xlink:href="#m4d1300a62d" y="116.439188"/>
     <use style="fill:#1f77b4;stroke:#1f77b4;" x="695.478296" xlink:href="#m4d1300a62d" y="100.092257"/>
     <use style="fill:#1f77b4;stroke:#1f77b4;" x="55.943042" xlink:href="#m4d1300a62d" y="120.408375"/>
     <use style="fill:#1f77b4;stroke:#1f77b4;" x="-1" xlink:href="#m4d1300a62d" y="119.335677"/>
     <use style="fill:#1f77b4;stroke:#1f77b4;" x="-1" xlink:href="#m4d1300a62d" y="136.880089"/>
     <use style="fill:#1f77b4;stroke:#1f77b4;" x="528.549201" xlink:href="#m4d1300a62d" y="172.365532"/>
     <use style="fill:#1f77b4;stroke:#1f77b4;" x="523.628463" xlink:href="#m4d1300a62d" y="133.383163"/>
     <use style="fill:#1f77b4;stroke:#1f77b4;" x="561.10815" xlink:href="#m4d1300a62d" y="76.810643"/>
     <use style="fill:#1f77b4;stroke:#1f77b4;" x="144.825626" xlink:href="#m4d1300a62d" y="119.786222"/>
     <use style="fill:#1f77b4;stroke:#1f77b4;" x="607.341038" xlink:href="#m4d1300a62d" y="194.94099"/>
     <use style="fill:#1f77b4;stroke:#1f77b4;" x="326.761441" xlink:href="#m4d1300a62d" y="137.190053"/>
     <use style="fill:#1f77b4;stroke:#1f77b4;" x="-1" xlink:href="#m4d1300a62d" y="288.649847"/>
     <use style="fill:#1f77b4;stroke:#1f77b4;" x="-1" xlink:href="#m4d1300a62d" y="453.806548"/>
     <use style="fill:#1f77b4;stroke:#1f77b4;" x="420.546436" xlink:href="#m4d1300a62d" y="499.74581"/>
     <use style="fill:#1f77b4;stroke:#1f77b4;" x="427.48009" xlink:href="#m4d1300a62d" y="489.819627"/>
     <use style="fill:#1f77b4;stroke:#1f77b4;" x="6.639874" xlink:href="#m4d1300a62d" y="234.241842"/>
     <use style="fill:#1f77b4;stroke:#1f77b4;" x="501.712306" xlink:href="#m4d1300a62d" y="298.130423"/>
     <use style="fill:#1f77b4;stroke:#1f77b4;" x="-1" xlink:href="#m4d1300a62d" y="506.809253"/>
     <use style="fill:#1f77b4;stroke:#1f77b4;" x="-1" xlink:href="#m4d1300a62d" y="580.07684"/>
     <use style="fill:#1f77b4;stroke:#1f77b4;" x="867.28591" xlink:href="#m4d1300a62d" y="396.702182"/>
     <use style="fill:#1f77b4;stroke:#1f77b4;" x="338.90481" xlink:href="#m4d1300a62d" y="578.126154"/>
     <use style="fill:#1f77b4;stroke:#1f77b4;" x="5.686663" xlink:href="#m4d1300a62d" y="536.095275"/>
     <use style="fill:#1f77b4;stroke:#1f77b4;" x="32.188995" xlink:href="#m4d1300a62d" y="559.820277"/>
     <use style="fill:#1f77b4;stroke:#1f77b4;" x="825.258101" xlink:href="#m4d1300a62d" y="240.856804"/>
     <use style="fill:#1f77b4;stroke:#1f77b4;" x="435.388726" xlink:href="#m4d1300a62d" y="588.38116"/>
     <use style="fill:#1f77b4;stroke:#1f77b4;" x="496.146933" xlink:href="#m4d1300a62d" y="232.630924"/>
     <use style="fill:#1f77b4;stroke:#1f77b4;" x="351.187352" xlink:href="#m4d1300a62d" y="25.711447"/>
     <use style="fill:#1f77b4;stroke:#1f77b4;" x="885.169615" xlink:href="#m4d1300a62d" y="25.711447"/>
     <use style="fill:#1f77b4;stroke:#1f77b4;" x="885.169615" xlink:href="#m4d1300a62d" y="25.711447"/>
     <use style="fill:#1f77b4;stroke:#1f77b4;" x="769.606955" xlink:href="#m4d1300a62d" y="102.257325"/>
     <use style="fill:#1f77b4;stroke:#1f77b4;" x="389.476467" xlink:href="#m4d1300a62d" y="25.711447"/>
     <use style="fill:#1f77b4;stroke:#1f77b4;" x="428.177773" xlink:href="#m4d1300a62d" y="25.711447"/>
     <use style="fill:#1f77b4;stroke:#1f77b4;" x="827.880424" xlink:href="#m4d1300a62d" y="25.711447"/>
     <use style="fill:#1f77b4;stroke:#1f77b4;" x="885.169615" xlink:href="#m4d1300a62d" y="25.711447"/>
     <use style="fill:#1f77b4;stroke:#1f77b4;" x="744.404022" xlink:href="#m4d1300a62d" y="414.964662"/>
     <use style="fill:#1f77b4;stroke:#1f77b4;" x="-1" xlink:href="#m4d1300a62d" y="532.292278"/>
     <use style="fill:#1f77b4;stroke:#1f77b4;" x="-1" xlink:href="#m4d1300a62d" y="337.016986"/>
     <use style="fill:#1f77b4;stroke:#1f77b4;" x="96.812613" xlink:href="#m4d1300a62d" y="299.227102"/>
     <use style="fill:#1f77b4;stroke:#1f77b4;" x="750.006831" xlink:href="#m4d1300a62d" y="276.792194"/>
     <use style="fill:#1f77b4;stroke:#1f77b4;" x="410.385618" xlink:href="#m4d1300a62d" y="477.587571"/>
     <use style="fill:#1f77b4;stroke:#1f77b4;" x="404.655492" xlink:href="#m4d1300a62d" y="156.438435"/>
     <use style="fill:#1f77b4;stroke:#1f77b4;" x="824.905639" xlink:href="#m4d1300a62d" y="153.910458"/>
     <use style="fill:#1f77b4;stroke:#1f77b4;" x="-1" xlink:href="#m4d1300a62d" y="81.940422"/>
     <use style="fill:#1f77b4;stroke:#1f77b4;" x="-1" xlink:href="#m4d1300a62d" y="540.403035"/>
     <use style="fill:#1f77b4;stroke:#1f77b4;" x="429.921254" xlink:href="#m4d1300a62d" y="376.876395"/>
     <use style="fill:#1f77b4;stroke:#1f77b4;" x="478.504178" xlink:href="#m4d1300a62d" y="336.628091"/>
     <use style="fill:#1f77b4;stroke:#1f77b4;" x="313.771577" xlink:href="#m4d1300a62d" y="370.9296"/>
     <use style="fill:#1f77b4;stroke:#1f77b4;" x="652.378341" xlink:href="#m4d1300a62d" y="27.525781"/>
     <use style="fill:#1f77b4;stroke:#1f77b4;" x="687.876116" xlink:href="#m4d1300a62d" y="240.826742"/>
     <use style="fill:#1f77b4;stroke:#1f77b4;" x="885.169615" xlink:href="#m4d1300a62d" y="175.627771"/>
     <use style="fill:#1f77b4;stroke:#1f77b4;" x="885.169615" xlink:href="#m4d1300a62d" y="189.93452"/>
     <use style="fill:#1f77b4;stroke:#1f77b4;" x="711.589142" xlink:href="#m4d1300a62d" y="352.875077"/>
     <use style="fill:#1f77b4;stroke:#1f77b4;" x="727.500552" xlink:href="#m4d1300a62d" y="189.774235"/>
     <use style="fill:#1f77b4;stroke:#1f77b4;" x="393.367188" xlink:href="#m4d1300a62d" y="454.38729"/>
     <use style="fill:#1f77b4;stroke:#1f77b4;" x="-1" xlink:href="#m4d1300a62d" y="380.501557"/>
     <use style="fill:#1f77b4;stroke:#1f77b4;" x="-1" xlink:href="#m4d1300a62d" y="378.726933"/>
     <use style="fill:#1f77b4;stroke:#1f77b4;" x="46.86673" xlink:href="#m4d1300a62d" y="383.903854"/>
     <use style="fill:#1f77b4;stroke:#1f77b4;" x="765.355468" xlink:href="#m4d1300a62d" y="218.34125"/>
     <use style="fill:#1f77b4;stroke:#1f77b4;" x="796.077626" xlink:href="#m4d1300a62d" y="203.785146"/>
     <use style="fill:#1f77b4;stroke:#1f77b4;" x="632.587037" xlink:href="#m4d1300a62d" y="395.057243"/>
     <use style="fill:#1f77b4;stroke:#1f77b4;" x="678.7701" xlink:href="#m4d1300a62d" y="285.789222"/>
     <use style="fill:#1f77b4;stroke:#1f77b4;" x="452.366001" xlink:href="#m4d1300a62d" y="289.66237"/>
     <use style="fill:#1f77b4;stroke:#1f77b4;" x="556.751745" xlink:href="#m4d1300a62d" y="408.718673"/>
     <use style="fill:#1f77b4;stroke:#1f77b4;" x="523.556343" xlink:href="#m4d1300a62d" y="367.600325"/>
     <use style="fill:#1f77b4;stroke:#1f77b4;" x="612.788304" xlink:href="#m4d1300a62d" y="343.201689"/>
     <use style="fill:#1f77b4;stroke:#1f77b4;" x="422.367847" xlink:href="#m4d1300a62d" y="398.775126"/>
     <use style="fill:#1f77b4;stroke:#1f77b4;" x="345.745023" xlink:href="#m4d1300a62d" y="354.987685"/>
     <use style="fill:#1f77b4;stroke:#1f77b4;" x="258.393543" xlink:href="#m4d1300a62d" y="105.412111"/>
     <use style="fill:#1f77b4;stroke:#1f77b4;" x="162.021298" xlink:href="#m4d1300a62d" y="444.394016"/>
     <use style="fill:#1f77b4;stroke:#1f77b4;" x="326.6625" xlink:href="#m4d1300a62d" y="359.837322"/>
     <use style="fill:#1f77b4;stroke:#1f77b4;" x="885.169615" xlink:href="#m4d1300a62d" y="25.711447"/>
     <use style="fill:#1f77b4;stroke:#1f77b4;" x="-1" xlink:href="#m4d1300a62d" y="369.852575"/>
     <use style="fill:#1f77b4;stroke:#1f77b4;" x="-1" xlink:href="#m4d1300a62d" y="396.313608"/>
     <use style="fill:#1f77b4;stroke:#1f77b4;" x="782.354833" xlink:href="#m4d1300a62d" y="438.401481"/>
     <use style="fill:#1f77b4;stroke:#1f77b4;" x="554.383243" xlink:href="#m4d1300a62d" y="493.793848"/>
     <use style="fill:#1f77b4;stroke:#1f77b4;" x="326.406786" xlink:href="#m4d1300a62d" y="113.881938"/>
     <use style="fill:#1f77b4;stroke:#1f77b4;" x="885.169615" xlink:href="#m4d1300a62d" y="25.711447"/>
     <use style="fill:#1f77b4;stroke:#1f77b4;" x="885.169615" xlink:href="#m4d1300a62d" y="25.711447"/>
     <use style="fill:#1f77b4;stroke:#1f77b4;" x="452.051976" xlink:href="#m4d1300a62d" y="338.170665"/>
     <use style="fill:#1f77b4;stroke:#1f77b4;" x="21.50976" xlink:href="#m4d1300a62d" y="219.665918"/>
     <use style="fill:#1f77b4;stroke:#1f77b4;" x="296.476804" xlink:href="#m4d1300a62d" y="331.779782"/>
     <use style="fill:#1f77b4;stroke:#1f77b4;" x="693.50757" xlink:href="#m4d1300a62d" y="220.112172"/>
     <use style="fill:#1f77b4;stroke:#1f77b4;" x="168.049319" xlink:href="#m4d1300a62d" y="93.717555"/>
     <use style="fill:#1f77b4;stroke:#1f77b4;" x="-1" xlink:href="#m4d1300a62d" y="351.27936"/>
     <use style="fill:#1f77b4;stroke:#1f77b4;" x="-1" xlink:href="#m4d1300a62d" y="445.432099"/>
     <use style="fill:#1f77b4;stroke:#1f77b4;" x="649.269207" xlink:href="#m4d1300a62d" y="128.167327"/>
     <use style="fill:#1f77b4;stroke:#1f77b4;" x="804.001086" xlink:href="#m4d1300a62d" y="25.711447"/>
     <use style="fill:#1f77b4;stroke:#1f77b4;" x="222.130686" xlink:href="#m4d1300a62d" y="382.85539"/>
     <use style="fill:#1f77b4;stroke:#1f77b4;" x="885.169615" xlink:href="#m4d1300a62d" y="280.037721"/>
     <use style="fill:#1f77b4;stroke:#1f77b4;" x="885.169615" xlink:href="#m4d1300a62d" y="25.711447"/>
     <use style="fill:#1f77b4;stroke:#1f77b4;" x="839.019068" xlink:href="#m4d1300a62d" y="60.72283"/>
     <use style="fill:#1f77b4;stroke:#1f77b4;" x="629.831472" xlink:href="#m4d1300a62d" y="167.204611"/>
     <use style="fill:#1f77b4;stroke:#1f77b4;" x="609.110058" xlink:href="#m4d1300a62d" y="271.947021"/>
     <use style="fill:#1f77b4;stroke:#1f77b4;" x="783.216601" xlink:href="#m4d1300a62d" y="455.136175"/>
     <use style="fill:#1f77b4;stroke:#1f77b4;" x="881.677758" xlink:href="#m4d1300a62d" y="206.292261"/>
     <use style="fill:#1f77b4;stroke:#1f77b4;" x="819.643749" xlink:href="#m4d1300a62d" y="202.752892"/>
     <use style="fill:#1f77b4;stroke:#1f77b4;" x="714.00547" xlink:href="#m4d1300a62d" y="99.088671"/>
     <use style="fill:#1f77b4;stroke:#1f77b4;" x="495.05984" xlink:href="#m4d1300a62d" y="117.278893"/>
     <use style="fill:#1f77b4;stroke:#1f77b4;" x="885.169615" xlink:href="#m4d1300a62d" y="528.919291"/>
     <use style="fill:#1f77b4;stroke:#1f77b4;" x="885.169615" xlink:href="#m4d1300a62d" y="178.350192"/>
     <use style="fill:#1f77b4;stroke:#1f77b4;" x="-1" xlink:href="#m4d1300a62d" y="271.436549"/>
     <use style="fill:#1f77b4;stroke:#1f77b4;" x="-1" xlink:href="#m4d1300a62d" y="258.761915"/>
     <use style="fill:#1f77b4;stroke:#1f77b4;" x="591.975257" xlink:href="#m4d1300a62d" y="55.60555"/>
     <use style="fill:#1f77b4;stroke:#1f77b4;" x="544.72205" xlink:href="#m4d1300a62d" y="175.212314"/>
     <use style="fill:#1f77b4;stroke:#1f77b4;" x="201.835949" xlink:href="#m4d1300a62d" y="370.131938"/>
     <use style="fill:#1f77b4;stroke:#1f77b4;" x="421.381882" xlink:href="#m4d1300a62d" y="386.258729"/>
     <use style="fill:#1f77b4;stroke:#1f77b4;" x="537.744815" xlink:href="#m4d1300a62d" y="364.153267"/>
     <use style="fill:#1f77b4;stroke:#1f77b4;" x="871.394541" xlink:href="#m4d1300a62d" y="312.265995"/>
     <use style="fill:#1f77b4;stroke:#1f77b4;" x="885.169615" xlink:href="#m4d1300a62d" y="158.643834"/>
     <use style="fill:#1f77b4;stroke:#1f77b4;" x="735.319841" xlink:href="#m4d1300a62d" y="232.598895"/>
     <use style="fill:#1f77b4;stroke:#1f77b4;" x="754.147667" xlink:href="#m4d1300a62d" y="253.623206"/>
     <use style="fill:#1f77b4;stroke:#1f77b4;" x="40.142625" xlink:href="#m4d1300a62d" y="484.518805"/>
     <use style="fill:#1f77b4;stroke:#1f77b4;" x="118.317989" xlink:href="#m4d1300a62d" y="366.669807"/>
     <use style="fill:#1f77b4;stroke:#1f77b4;" x="620.482944" xlink:href="#m4d1300a62d" y="362.701872"/>
     <use style="fill:#1f77b4;stroke:#1f77b4;" x="586.20946" xlink:href="#m4d1300a62d" y="409.851546"/>
     <use style="fill:#1f77b4;stroke:#1f77b4;" x="885.169615" xlink:href="#m4d1300a62d" y="277.673611"/>
     <use style="fill:#1f77b4;stroke:#1f77b4;" x="885.169615" xlink:href="#m4d1300a62d" y="25.711447"/>
     <use style="fill:#1f77b4;stroke:#1f77b4;" x="544.766164" xlink:href="#m4d1300a62d" y="98.09275"/>
     <use style="fill:#1f77b4;stroke:#1f77b4;" x="678.060424" xlink:href="#m4d1300a62d" y="115.558893"/>
     <use style="fill:#1f77b4;stroke:#1f77b4;" x="381.807479" xlink:href="#m4d1300a62d" y="368.240278"/>
     <use style="fill:#1f77b4;stroke:#1f77b4;" x="351.679927" xlink:href="#m4d1300a62d" y="367.86319"/>
     <use style="fill:#1f77b4;stroke:#1f77b4;" x="398.638797" xlink:href="#m4d1300a62d" y="381.084574"/>
     <use style="fill:#1f77b4;stroke:#1f77b4;" x="326.891741" xlink:href="#m4d1300a62d" y="404.802477"/>
     <use style="fill:#1f77b4;stroke:#1f77b4;" x="885.169615" xlink:href="#m4d1300a62d" y="25.711447"/>
     <use style="fill:#1f77b4;stroke:#1f77b4;" x="885.169615" xlink:href="#m4d1300a62d" y="25.711447"/>
     <use style="fill:#1f77b4;stroke:#1f77b4;" x="885.169615" xlink:href="#m4d1300a62d" y="25.711447"/>
     <use style="fill:#1f77b4;stroke:#1f77b4;" x="825.012232" xlink:href="#m4d1300a62d" y="25.711447"/>
     <use style="fill:#1f77b4;stroke:#1f77b4;" x="885.169615" xlink:href="#m4d1300a62d" y="25.711447"/>
     <use style="fill:#1f77b4;stroke:#1f77b4;" x="838.388465" xlink:href="#m4d1300a62d" y="25.711447"/>
     <use style="fill:#1f77b4;stroke:#1f77b4;" x="47.709329" xlink:href="#m4d1300a62d" y="339.463197"/>
     <use style="fill:#1f77b4;stroke:#1f77b4;" x="-1" xlink:href="#m4d1300a62d" y="335.960934"/>
     <use style="fill:#1f77b4;stroke:#1f77b4;" x="-1" xlink:href="#m4d1300a62d" y="198.568173"/>
     <use style="fill:#1f77b4;stroke:#1f77b4;" x="368.632598" xlink:href="#m4d1300a62d" y="137.610984"/>
     <use style="fill:#1f77b4;stroke:#1f77b4;" x="-1" xlink:href="#m4d1300a62d" y="412.457705"/>
     <use style="fill:#1f77b4;stroke:#1f77b4;" x="-1" xlink:href="#m4d1300a62d" y="583.555766"/>
     <use style="fill:#1f77b4;stroke:#1f77b4;" x="272.400427" xlink:href="#m4d1300a62d" y="341.615524"/>
     <use style="fill:#1f77b4;stroke:#1f77b4;" x="448.438808" xlink:href="#m4d1300a62d" y="245.068886"/>
     <use style="fill:#1f77b4;stroke:#1f77b4;" x="422.121316" xlink:href="#m4d1300a62d" y="450.445039"/>
     <use style="fill:#1f77b4;stroke:#1f77b4;" x="885.169615" xlink:href="#m4d1300a62d" y="514.85541"/>
     <use style="fill:#1f77b4;stroke:#1f77b4;" x="626.066824" xlink:href="#m4d1300a62d" y="276.55826"/>
     <use style="fill:#1f77b4;stroke:#1f77b4;" x="611.600488" xlink:href="#m4d1300a62d" y="25.711447"/>
     <use style="fill:#1f77b4;stroke:#1f77b4;" x="750.849451" xlink:href="#m4d1300a62d" y="25.711447"/>
     <use style="fill:#1f77b4;stroke:#1f77b4;" x="-1" xlink:href="#m4d1300a62d" y="25.711447"/>
     <use style="fill:#1f77b4;stroke:#1f77b4;" x="-1" xlink:href="#m4d1300a62d" y="25.711447"/>
     <use style="fill:#1f77b4;stroke:#1f77b4;" x="885.169615" xlink:href="#m4d1300a62d" y="25.711447"/>
     <use style="fill:#1f77b4;stroke:#1f77b4;" x="-1" xlink:href="#m4d1300a62d" y="564.29474"/>
     <use style="fill:#1f77b4;stroke:#1f77b4;" x="-1" xlink:href="#m4d1300a62d" y="528.035387"/>
     <use style="fill:#1f77b4;stroke:#1f77b4;" x="375.679592" xlink:href="#m4d1300a62d" y="189.131332"/>
     <use style="fill:#1f77b4;stroke:#1f77b4;" x="629.109032" xlink:href="#m4d1300a62d" y="386.99089"/>
     <use style="fill:#1f77b4;stroke:#1f77b4;" x="801.808724" xlink:href="#m4d1300a62d" y="310.867052"/>
     <use style="fill:#1f77b4;stroke:#1f77b4;" x="698.737008" xlink:href="#m4d1300a62d" y="71.293919"/>
     <use style="fill:#1f77b4;stroke:#1f77b4;" x="727.740936" xlink:href="#m4d1300a62d" y="25.711447"/>
     <use style="fill:#1f77b4;stroke:#1f77b4;" x="684.402605" xlink:href="#m4d1300a62d" y="25.711447"/>
     <use style="fill:#1f77b4;stroke:#1f77b4;" x="356.197222" xlink:href="#m4d1300a62d" y="94.303639"/>
     <use style="fill:#1f77b4;stroke:#1f77b4;" x="885.169615" xlink:href="#m4d1300a62d" y="25.711447"/>
     <use style="fill:#1f77b4;stroke:#1f77b4;" x="885.169615" xlink:href="#m4d1300a62d" y="337.251071"/>
     <use style="fill:#1f77b4;stroke:#1f77b4;" x="885.169615" xlink:href="#m4d1300a62d" y="157.633317"/>
     <use style="fill:#1f77b4;stroke:#1f77b4;" x="885.169615" xlink:href="#m4d1300a62d" y="156.581621"/>
     <use style="fill:#1f77b4;stroke:#1f77b4;" x="378.522573" xlink:href="#m4d1300a62d" y="25.711447"/>
     <use style="fill:#1f77b4;stroke:#1f77b4;" x="619.282346" xlink:href="#m4d1300a62d" y="312.151315"/>
     <use style="fill:#1f77b4;stroke:#1f77b4;" x="-1" xlink:href="#m4d1300a62d" y="409.15098"/>
     <use style="fill:#1f77b4;stroke:#1f77b4;" x="-1" xlink:href="#m4d1300a62d" y="366.748129"/>
     <use style="fill:#1f77b4;stroke:#1f77b4;" x="623.497456" xlink:href="#m4d1300a62d" y="98.262692"/>
     <use style="fill:#1f77b4;stroke:#1f77b4;" x="885.169615" xlink:href="#m4d1300a62d" y="298.97446"/>
     <use style="fill:#1f77b4;stroke:#1f77b4;" x="808.866723" xlink:href="#m4d1300a62d" y="392.635131"/>
     <use style="fill:#1f77b4;stroke:#1f77b4;" x="648.829267" xlink:href="#m4d1300a62d" y="815.873896"/>
     <use style="fill:#1f77b4;stroke:#1f77b4;" x="-1" xlink:href="#m4d1300a62d" y="920.584349"/>
     <use style="fill:#1f77b4;stroke:#1f77b4;" x="-1" xlink:href="#m4d1300a62d" y="788.398496"/>
     <use style="fill:#1f77b4;stroke:#1f77b4;" x="207.121188" xlink:href="#m4d1300a62d" y="618.674099"/>
     <use style="fill:#1f77b4;stroke:#1f77b4;" x="389.0185" xlink:href="#m4d1300a62d" y="348.423147"/>
     <use style="fill:#1f77b4;stroke:#1f77b4;" x="885.169615" xlink:href="#m4d1300a62d" y="58.380023"/>
     <use style="fill:#1f77b4;stroke:#1f77b4;" x="885.169615" xlink:href="#m4d1300a62d" y="25.711447"/>
     <use style="fill:#1f77b4;stroke:#1f77b4;" x="330.313233" xlink:href="#m4d1300a62d" y="108.116216"/>
     <use style="fill:#1f77b4;stroke:#1f77b4;" x="681.948658" xlink:href="#m4d1300a62d" y="435.836676"/>
     <use style="fill:#1f77b4;stroke:#1f77b4;" x="102.640183" xlink:href="#m4d1300a62d" y="453.449731"/>
     <use style="fill:#1f77b4;stroke:#1f77b4;" x="645.547125" xlink:href="#m4d1300a62d" y="337.856101"/>
     <use style="fill:#1f77b4;stroke:#1f77b4;" x="287.745356" xlink:href="#m4d1300a62d" y="458.581131"/>
     <use style="fill:#1f77b4;stroke:#1f77b4;" x="814.191354" xlink:href="#m4d1300a62d" y="388.791343"/>
     <use style="fill:#1f77b4;stroke:#1f77b4;" x="885.169615" xlink:href="#m4d1300a62d" y="161.188015"/>
     <use style="fill:#1f77b4;stroke:#1f77b4;" x="-1" xlink:href="#m4d1300a62d" y="579.925912"/>
     <use style="fill:#1f77b4;stroke:#1f77b4;" x="-1" xlink:href="#m4d1300a62d" y="465.991615"/>
     <use style="fill:#1f77b4;stroke:#1f77b4;" x="565.560668" xlink:href="#m4d1300a62d" y="119.716233"/>
     <use style="fill:#1f77b4;stroke:#1f77b4;" x="711.434019" xlink:href="#m4d1300a62d" y="190.902873"/>
     <use style="fill:#1f77b4;stroke:#1f77b4;" x="838.205209" xlink:href="#m4d1300a62d" y="139.525528"/>
     <use style="fill:#1f77b4;stroke:#1f77b4;" x="-1" xlink:href="#m4d1300a62d" y="169.984197"/>
     <use style="fill:#1f77b4;stroke:#1f77b4;" x="-1" xlink:href="#m4d1300a62d" y="239.602424"/>
     <use style="fill:#1f77b4;stroke:#1f77b4;" x="838.285669" xlink:href="#m4d1300a62d" y="262.748068"/>
     <use style="fill:#1f77b4;stroke:#1f77b4;" x="808.054021" xlink:href="#m4d1300a62d" y="178.072042"/>
     <use style="fill:#1f77b4;stroke:#1f77b4;" x="748.686037" xlink:href="#m4d1300a62d" y="392.515165"/>
     <use style="fill:#1f77b4;stroke:#1f77b4;" x="843.104557" xlink:href="#m4d1300a62d" y="135.904757"/>
     <use style="fill:#1f77b4;stroke:#1f77b4;" x="750.928803" xlink:href="#m4d1300a62d" y="131.713461"/>
     <use style="fill:#1f77b4;stroke:#1f77b4;" x="620.832099" xlink:href="#m4d1300a62d" y="156.525326"/>
     <use style="fill:#1f77b4;stroke:#1f77b4;" x="366.399536" xlink:href="#m4d1300a62d" y="165.854801"/>
     <use style="fill:#1f77b4;stroke:#1f77b4;" x="282.7693" xlink:href="#m4d1300a62d" y="396.959213"/>
     <use style="fill:#1f77b4;stroke:#1f77b4;" x="400.318433" xlink:href="#m4d1300a62d" y="386.807301"/>
     <use style="fill:#1f77b4;stroke:#1f77b4;" x="409.560559" xlink:href="#m4d1300a62d" y="355.361156"/>
     <use style="fill:#1f77b4;stroke:#1f77b4;" x="267.601282" xlink:href="#m4d1300a62d" y="838.728975"/>
     <use style="fill:#1f77b4;stroke:#1f77b4;" x="295.74689" xlink:href="#m4d1300a62d" y="282.529703"/>
     <use style="fill:#1f77b4;stroke:#1f77b4;" x="464.387299" xlink:href="#m4d1300a62d" y="422.179252"/>
     <use style="fill:#1f77b4;stroke:#1f77b4;" x="-1" xlink:href="#m4d1300a62d" y="391.945238"/>
     <use style="fill:#1f77b4;stroke:#1f77b4;" x="-1" xlink:href="#m4d1300a62d" y="400.569706"/>
     <use style="fill:#1f77b4;stroke:#1f77b4;" x="118.422783" xlink:href="#m4d1300a62d" y="409.761598"/>
     <use style="fill:#1f77b4;stroke:#1f77b4;" x="598.405374" xlink:href="#m4d1300a62d" y="482.159625"/>
     <use style="fill:#1f77b4;stroke:#1f77b4;" x="80.7864" xlink:href="#m4d1300a62d" y="351.425589"/>
     <use style="fill:#1f77b4;stroke:#1f77b4;" x="470.280875" xlink:href="#m4d1300a62d" y="462.350293"/>
     <use style="fill:#1f77b4;stroke:#1f77b4;" x="480.809007" xlink:href="#m4d1300a62d" y="308.415829"/>
     <use style="fill:#1f77b4;stroke:#1f77b4;" x="422.515184" xlink:href="#m4d1300a62d" y="320.747444"/>
     <use style="fill:#1f77b4;stroke:#1f77b4;" x="422.442644" xlink:href="#m4d1300a62d" y="313.637006"/>
     <use style="fill:#1f77b4;stroke:#1f77b4;" x="325.740146" xlink:href="#m4d1300a62d" y="327.067474"/>
     <use style="fill:#1f77b4;stroke:#1f77b4;" x="260.97617" xlink:href="#m4d1300a62d" y="479.08574"/>
     <use style="fill:#1f77b4;stroke:#1f77b4;" x="353.662056" xlink:href="#m4d1300a62d" y="357.737238"/>
     <use style="fill:#1f77b4;stroke:#1f77b4;" x="431.401382" xlink:href="#m4d1300a62d" y="328.700142"/>
     <use style="fill:#1f77b4;stroke:#1f77b4;" x="657.439559" xlink:href="#m4d1300a62d" y="25.711447"/>
     <use style="fill:#1f77b4;stroke:#1f77b4;" x="649.494632" xlink:href="#m4d1300a62d" y="25.711447"/>
     <use style="fill:#1f77b4;stroke:#1f77b4;" x="312.526422" xlink:href="#m4d1300a62d" y="25.711447"/>
     <use style="fill:#1f77b4;stroke:#1f77b4;" x="660.904685" xlink:href="#m4d1300a62d" y="488.990058"/>
     <use style="fill:#1f77b4;stroke:#1f77b4;" x="324.129797" xlink:href="#m4d1300a62d" y="155.696375"/>
     <use style="fill:#1f77b4;stroke:#1f77b4;" x="599.614894" xlink:href="#m4d1300a62d" y="236.750883"/>
     <use style="fill:#1f77b4;stroke:#1f77b4;" x="554.571926" xlink:href="#m4d1300a62d" y="25.711447"/>
     <use style="fill:#1f77b4;stroke:#1f77b4;" x="327.442894" xlink:href="#m4d1300a62d" y="25.711447"/>
     <use style="fill:#1f77b4;stroke:#1f77b4;" x="885.169615" xlink:href="#m4d1300a62d" y="25.711447"/>
     <use style="fill:#1f77b4;stroke:#1f77b4;" x="-1" xlink:href="#m4d1300a62d" y="25.711447"/>
     <use style="fill:#1f77b4;stroke:#1f77b4;" x="-1" xlink:href="#m4d1300a62d" y="101.665562"/>
     <use style="fill:#1f77b4;stroke:#1f77b4;" x="885.169615" xlink:href="#m4d1300a62d" y="300.124296"/>
     <use style="fill:#1f77b4;stroke:#1f77b4;" x="885.169615" xlink:href="#m4d1300a62d" y="25.711447"/>
     <use style="fill:#1f77b4;stroke:#1f77b4;" x="-1" xlink:href="#m4d1300a62d" y="412.184333"/>
     <use style="fill:#1f77b4;stroke:#1f77b4;" x="-1" xlink:href="#m4d1300a62d" y="412.184333"/>
     <use style="fill:#1f77b4;stroke:#1f77b4;" x="885.169615" xlink:href="#m4d1300a62d" y="25.711447"/>
     <use style="fill:#1f77b4;stroke:#1f77b4;" x="57.34555" xlink:href="#m4d1300a62d" y="304.431946"/>
     <use style="fill:#1f77b4;stroke:#1f77b4;" x="596.581472" xlink:href="#m4d1300a62d" y="57.208276"/>
     <use style="fill:#1f77b4;stroke:#1f77b4;" x="175.971804" xlink:href="#m4d1300a62d" y="204.435352"/>
     <use style="fill:#1f77b4;stroke:#1f77b4;" x="670.941785" xlink:href="#m4d1300a62d" y="229.085231"/>
     <use style="fill:#1f77b4;stroke:#1f77b4;" x="853.803852" xlink:href="#m4d1300a62d" y="103.232186"/>
     <use style="fill:#1f77b4;stroke:#1f77b4;" x="843.475624" xlink:href="#m4d1300a62d" y="120.977049"/>
     <use style="fill:#1f77b4;stroke:#1f77b4;" x="636.557195" xlink:href="#m4d1300a62d" y="234.603762"/>
     <use style="fill:#1f77b4;stroke:#1f77b4;" x="885.169615" xlink:href="#m4d1300a62d" y="25.711447"/>
     <use style="fill:#1f77b4;stroke:#1f77b4;" x="885.169615" xlink:href="#m4d1300a62d" y="25.711447"/>
     <use style="fill:#1f77b4;stroke:#1f77b4;" x="211.978734" xlink:href="#m4d1300a62d" y="451.62793"/>
     <use style="fill:#1f77b4;stroke:#1f77b4;" x="582.78682" xlink:href="#m4d1300a62d" y="395.249688"/>
     <use style="fill:#1f77b4;stroke:#1f77b4;" x="885.169615" xlink:href="#m4d1300a62d" y="144.599167"/>
     <use style="fill:#1f77b4;stroke:#1f77b4;" x="885.169615" xlink:href="#m4d1300a62d" y="25.711447"/>
     <use style="fill:#1f77b4;stroke:#1f77b4;" x="-1" xlink:href="#m4d1300a62d" y="183.63639"/>
     <use style="fill:#1f77b4;stroke:#1f77b4;" x="-1" xlink:href="#m4d1300a62d" y="385.757952"/>
     <use style="fill:#1f77b4;stroke:#1f77b4;" x="835.36502" xlink:href="#m4d1300a62d" y="346.297282"/>
     <use style="fill:#1f77b4;stroke:#1f77b4;" x="360.994805" xlink:href="#m4d1300a62d" y="448.100912"/>
     <use style="fill:#1f77b4;stroke:#1f77b4;" x="404.127617" xlink:href="#m4d1300a62d" y="553.484338"/>
     <use style="fill:#1f77b4;stroke:#1f77b4;" x="348.739879" xlink:href="#m4d1300a62d" y="483.468246"/>
     <use style="fill:#1f77b4;stroke:#1f77b4;" x="384.817043" xlink:href="#m4d1300a62d" y="480.477736"/>
     <use style="fill:#1f77b4;stroke:#1f77b4;" x="305.621893" xlink:href="#m4d1300a62d" y="578.720835"/>
     <use style="fill:#1f77b4;stroke:#1f77b4;" x="-1" xlink:href="#m4d1300a62d" y="575.475621"/>
     <use style="fill:#1f77b4;stroke:#1f77b4;" x="-1" xlink:href="#m4d1300a62d" y="560.594637"/>
     <use style="fill:#1f77b4;stroke:#1f77b4;" x="369.979972" xlink:href="#m4d1300a62d" y="278.43109"/>
     <use style="fill:#1f77b4;stroke:#1f77b4;" x="391.742261" xlink:href="#m4d1300a62d" y="408.158078"/>
     <use style="fill:#1f77b4;stroke:#1f77b4;" x="457.788424" xlink:href="#m4d1300a62d" y="559.41077"/>
     <use style="fill:#1f77b4;stroke:#1f77b4;" x="511.171147" xlink:href="#m4d1300a62d" y="217.525501"/>
     <use style="fill:#1f77b4;stroke:#1f77b4;" x="-1" xlink:href="#m4d1300a62d" y="372.778445"/>
     <use style="fill:#1f77b4;stroke:#1f77b4;" x="-1" xlink:href="#m4d1300a62d" y="419.518681"/>
     <use style="fill:#1f77b4;stroke:#1f77b4;" x="586.226766" xlink:href="#m4d1300a62d" y="554.444909"/>
     <use style="fill:#1f77b4;stroke:#1f77b4;" x="-1" xlink:href="#m4d1300a62d" y="717.559697"/>
     <use style="fill:#1f77b4;stroke:#1f77b4;" x="-1" xlink:href="#m4d1300a62d" y="743.096169"/>
     <use style="fill:#1f77b4;stroke:#1f77b4;" x="268.642152" xlink:href="#m4d1300a62d" y="684.75839"/>
     <use style="fill:#1f77b4;stroke:#1f77b4;" x="616.380336" xlink:href="#m4d1300a62d" y="312.974737"/>
     <use style="fill:#1f77b4;stroke:#1f77b4;" x="68.775629" xlink:href="#m4d1300a62d" y="358.402065"/>
     <use style="fill:#1f77b4;stroke:#1f77b4;" x="-1" xlink:href="#m4d1300a62d" y="475.999292"/>
     <use style="fill:#1f77b4;stroke:#1f77b4;" x="-1" xlink:href="#m4d1300a62d" y="541.188637"/>
     <use style="fill:#1f77b4;stroke:#1f77b4;" x="10.869517" xlink:href="#m4d1300a62d" y="529.176174"/>
     <use style="fill:#1f77b4;stroke:#1f77b4;" x="20.578088" xlink:href="#m4d1300a62d" y="668.23778"/>
     <use style="fill:#1f77b4;stroke:#1f77b4;" x="214.270811" xlink:href="#m4d1300a62d" y="473.378372"/>
     <use style="fill:#1f77b4;stroke:#1f77b4;" x="250.176195" xlink:href="#m4d1300a62d" y="552.600575"/>
     <use style="fill:#1f77b4;stroke:#1f77b4;" x="231.903377" xlink:href="#m4d1300a62d" y="611.231143"/>
     <use style="fill:#1f77b4;stroke:#1f77b4;" x="41.550541" xlink:href="#m4d1300a62d" y="394.239653"/>
     <use style="fill:#1f77b4;stroke:#1f77b4;" x="166.581843" xlink:href="#m4d1300a62d" y="548.579792"/>
     <use style="fill:#1f77b4;stroke:#1f77b4;" x="102.691595" xlink:href="#m4d1300a62d" y="447.322466"/>
     <use style="fill:#1f77b4;stroke:#1f77b4;" x="185.878252" xlink:href="#m4d1300a62d" y="454.528958"/>
     <use style="fill:#1f77b4;stroke:#1f77b4;" x="259.563727" xlink:href="#m4d1300a62d" y="411.022639"/>
     <use style="fill:#1f77b4;stroke:#1f77b4;" x="18.332614" xlink:href="#m4d1300a62d" y="429.054801"/>
     <use style="fill:#1f77b4;stroke:#1f77b4;" x="313.07486" xlink:href="#m4d1300a62d" y="537.191518"/>
     <use style="fill:#1f77b4;stroke:#1f77b4;" x="353.807222" xlink:href="#m4d1300a62d" y="389.008321"/>
     <use style="fill:#1f77b4;stroke:#1f77b4;" x="375.154426" xlink:href="#m4d1300a62d" y="426.534505"/>
     <use style="fill:#1f77b4;stroke:#1f77b4;" x="656.462272" xlink:href="#m4d1300a62d" y="346.242854"/>
     <use style="fill:#1f77b4;stroke:#1f77b4;" x="284.372079" xlink:href="#m4d1300a62d" y="436.056999"/>
     <use style="fill:#1f77b4;stroke:#1f77b4;" x="18.463678" xlink:href="#m4d1300a62d" y="284.82627"/>
     <use style="fill:#1f77b4;stroke:#1f77b4;" x="813.787909" xlink:href="#m4d1300a62d" y="25.711447"/>
     <use style="fill:#1f77b4;stroke:#1f77b4;" x="885.169615" xlink:href="#m4d1300a62d" y="25.711447"/>
     <use style="fill:#1f77b4;stroke:#1f77b4;" x="785.964363" xlink:href="#m4d1300a62d" y="116.461614"/>
     <use style="fill:#1f77b4;stroke:#1f77b4;" x="843.58791" xlink:href="#m4d1300a62d" y="107.202494"/>
     <use style="fill:#1f77b4;stroke:#1f77b4;" x="625.759203" xlink:href="#m4d1300a62d" y="747.404668"/>
     <use style="fill:#1f77b4;stroke:#1f77b4;" x="663.224634" xlink:href="#m4d1300a62d" y="334.267125"/>
     <use style="fill:#1f77b4;stroke:#1f77b4;" x="885.169615" xlink:href="#m4d1300a62d" y="193.876121"/>
     <use style="fill:#1f77b4;stroke:#1f77b4;" x="885.169615" xlink:href="#m4d1300a62d" y="25.711447"/>
    </g>
   </g>
   <g id="matplotlib.axis_1">
    <g id="xtick_1">
     <g id="line2d_1">
      <defs>
       <path d="M 0 0 
L 0 3.5 
" id="mca0e70a8c6" style="stroke:#000000;stroke-width:0.8;"/>
      </defs>
      <g>
       <use style="stroke:#000000;stroke-width:0.8;" x="48.169615" xlink:href="#mca0e70a8c6" y="569.311447"/>
      </g>
     </g>
     <g id="text_1">
      <!-- $10^{2}$ -->
      <defs>
       <path d="M 26.59375 63.796875 
C 26.59375 65.890625 26.5 66 25.09375 66 
C 21.203125 61.359375 15.296875 59.890625 9.703125 59.6875 
C 9.40625 59.6875 8.90625 59.6875 8.796875 59.5 
C 8.703125 59.296875 8.703125 59.09375 8.703125 57 
C 11.796875 57 17 57.59375 21 59.984375 
L 21 7.296875 
C 21 3.796875 20.796875 2.59375 12.203125 2.59375 
L 9.203125 2.59375 
L 9.203125 0 
C 14 0.09375 19 0.1875 23.796875 0.1875 
C 28.59375 0.1875 33.59375 0.09375 38.40625 0 
L 38.40625 2.59375 
L 35.40625 2.59375 
C 26.796875 2.59375 26.59375 3.6875 26.59375 7.296875 
z
" id="CMR17-49"/>
       <path d="M 42 31.84375 
C 42 37.96875 41.90625 48.421875 37.703125 56.453125 
C 34 63.484375 28.09375 66 22.90625 66 
C 18.09375 66 12 63.78125 8.203125 56.5625 
C 4.203125 49.015625 3.796875 39.671875 3.796875 31.84375 
C 3.796875 26.109375 3.90625 17.375 7 9.734375 
C 11.296875 -0.609375 19 -2 22.90625 -2 
C 27.5 -2 34.5 -0.109375 38.59375 9.4375 
C 41.59375 16.375 42 24.5 42 31.84375 
z
M 22.90625 -0.40625 
C 16.5 -0.40625 12.703125 5.125 11.296875 12.75 
C 10.203125 18.6875 10.203125 27.328125 10.203125 32.953125 
C 10.203125 40.6875 10.203125 47.109375 11.5 53.234375 
C 13.40625 61.78125 19 64.390625 22.90625 64.390625 
C 27 64.390625 32.296875 61.671875 34.203125 53.4375 
C 35.5 47.71875 35.59375 40.984375 35.59375 32.953125 
C 35.59375 26.421875 35.59375 18.375 34.40625 12.453125 
C 32.296875 1.5 26.40625 -0.40625 22.90625 -0.40625 
z
" id="CMR17-48"/>
       <path d="M 41.703125 15.46875 
L 39.90625 15.46875 
C 38.90625 8.390625 38.09375 7.1875 37.703125 6.59375 
C 37.203125 5.796875 30 5.796875 28.59375 5.796875 
L 9.40625 5.796875 
C 13 9.6875 20 16.765625 28.5 24.9375 
C 34.59375 30.71875 41.703125 37.5 41.703125 47.390625 
C 41.703125 59.1875 32.296875 66 21.796875 66 
C 10.796875 66 4.09375 56.296875 4.09375 47.296875 
C 4.09375 43.390625 7 42.890625 8.203125 42.890625 
C 9.203125 42.890625 12.203125 43.484375 12.203125 46.984375 
C 12.203125 50.09375 9.59375 51 8.203125 51 
C 7.59375 51 7 50.890625 6.59375 50.6875 
C 8.5 59.1875 14.296875 63.390625 20.40625 63.390625 
C 29.09375 63.390625 34.796875 56.5 34.796875 47.390625 
C 34.796875 38.703125 29.703125 31.21875 24 24.734375 
L 4.09375 2.296875 
L 4.09375 0 
L 39.296875 0 
z
" id="CMR17-50"/>
      </defs>
      <g transform="translate(40.505978 583.921794)scale(0.11 -0.11)">
       <use transform="scale(0.996264)" xlink:href="#CMR17-49"/>
       <use transform="translate(45.690477 0)scale(0.996264)" xlink:href="#CMR17-48"/>
       <use transform="translate(91.380954 36.153639)scale(0.697382)" xlink:href="#CMR17-50"/>
      </g>
     </g>
    </g>
    <g id="xtick_2">
     <g id="line2d_2">
      <g>
       <use style="stroke:#000000;stroke-width:0.8;" x="540.821043" xlink:href="#mca0e70a8c6" y="569.311447"/>
      </g>
     </g>
     <g id="text_2">
      <!-- $10^{3}$ -->
      <defs>
       <path d="M 22.09375 34 
C 31 34 34.90625 26.140625 34.90625 17.09375 
C 34.90625 5.03125 28.5 0.390625 22.703125 0.390625 
C 17.40625 0.390625 8.796875 3.015625 6.09375 10.796875 
C 6.59375 10.59375 7.09375 10.59375 7.59375 10.59375 
C 10 10.59375 11.796875 12.1875 11.796875 14.796875 
C 11.796875 17.6875 9.59375 19 7.59375 19 
C 5.90625 19 3.296875 18.1875 3.296875 14.484375 
C 3.296875 5.234375 12.296875 -2 22.90625 -2 
C 34 -2 42.5 6.75 42.5 16.984375 
C 42.5 26.84375 34.5 34 25 35.09375 
C 32.59375 36.671875 39.90625 43.375 39.90625 52.390625 
C 39.90625 60.25 32 66 23 66 
C 13.90625 66 5.90625 60.34375 5.90625 52.296875 
C 5.90625 48.796875 8.5 48.1875 9.796875 48.1875 
C 11.90625 48.1875 13.703125 49.484375 13.703125 52.09375 
C 13.703125 54.6875 11.90625 56 9.796875 56 
C 9.40625 56 8.90625 56 8.5 55.796875 
C 11.40625 62.484375 19.296875 63.6875 22.796875 63.6875 
C 26.296875 63.6875 32.90625 61.96875 32.90625 52.296875 
C 32.90625 49.484375 32.5 44.546875 29.09375 40.21875 
C 26.09375 36.390625 22.703125 36.1875 19.40625 35.890625 
C 18.90625 35.890625 16.59375 35.6875 16.203125 35.6875 
C 15.5 35.59375 15.09375 35.5 15.09375 34.796875 
C 15.09375 34.09375 15.203125 34 17.203125 34 
z
" id="CMR17-51"/>
      </defs>
      <g transform="translate(533.157407 583.921794)scale(0.11 -0.11)">
       <use transform="scale(0.996264)" xlink:href="#CMR17-49"/>
       <use transform="translate(45.690477 0)scale(0.996264)" xlink:href="#CMR17-48"/>
       <use transform="translate(91.380954 36.153639)scale(0.697382)" xlink:href="#CMR17-51"/>
      </g>
     </g>
    </g>
    <g id="xtick_3">
     <g id="line2d_3">
      <defs>
       <path d="M 0 0 
L 0 2 
" id="m95a3b1ab3b" style="stroke:#000000;stroke-width:0.6;"/>
      </defs>
      <g>
       <use style="stroke:#000000;stroke-width:0.6;" x="196.472472" xlink:href="#m95a3b1ab3b" y="569.311447"/>
      </g>
     </g>
    </g>
    <g id="xtick_4">
     <g id="line2d_4">
      <g>
       <use style="stroke:#000000;stroke-width:0.6;" x="283.224082" xlink:href="#m95a3b1ab3b" y="569.311447"/>
      </g>
     </g>
    </g>
    <g id="xtick_5">
     <g id="line2d_5">
      <g>
       <use style="stroke:#000000;stroke-width:0.6;" x="344.77533" xlink:href="#m95a3b1ab3b" y="569.311447"/>
      </g>
     </g>
    </g>
    <g id="xtick_6">
     <g id="line2d_6">
      <g>
       <use style="stroke:#000000;stroke-width:0.6;" x="392.518186" xlink:href="#m95a3b1ab3b" y="569.311447"/>
      </g>
     </g>
    </g>
    <g id="xtick_7">
     <g id="line2d_7">
      <g>
       <use style="stroke:#000000;stroke-width:0.6;" x="431.52694" xlink:href="#m95a3b1ab3b" y="569.311447"/>
      </g>
     </g>
    </g>
    <g id="xtick_8">
     <g id="line2d_8">
      <g>
       <use style="stroke:#000000;stroke-width:0.6;" x="464.508372" xlink:href="#m95a3b1ab3b" y="569.311447"/>
      </g>
     </g>
    </g>
    <g id="xtick_9">
     <g id="line2d_9">
      <g>
       <use style="stroke:#000000;stroke-width:0.6;" x="493.078187" xlink:href="#m95a3b1ab3b" y="569.311447"/>
      </g>
     </g>
    </g>
    <g id="xtick_10">
     <g id="line2d_10">
      <g>
       <use style="stroke:#000000;stroke-width:0.6;" x="518.27855" xlink:href="#m95a3b1ab3b" y="569.311447"/>
      </g>
     </g>
    </g>
    <g id="xtick_11">
     <g id="line2d_11">
      <g>
       <use style="stroke:#000000;stroke-width:0.6;" x="689.123901" xlink:href="#m95a3b1ab3b" y="569.311447"/>
      </g>
     </g>
    </g>
    <g id="xtick_12">
     <g id="line2d_12">
      <g>
       <use style="stroke:#000000;stroke-width:0.6;" x="775.875511" xlink:href="#m95a3b1ab3b" y="569.311447"/>
      </g>
     </g>
    </g>
    <g id="xtick_13">
     <g id="line2d_13">
      <g>
       <use style="stroke:#000000;stroke-width:0.6;" x="837.426758" xlink:href="#m95a3b1ab3b" y="569.311447"/>
      </g>
     </g>
    </g>
    <g id="xtick_14">
     <g id="line2d_14">
      <g>
       <use style="stroke:#000000;stroke-width:0.6;" x="885.169615" xlink:href="#m95a3b1ab3b" y="569.311447"/>
      </g>
     </g>
    </g>
    <g id="text_3">
     <!-- $\textrm{CaDiCaL}^\textrm{default}$ -->
     <defs>
      <path d="M 62.09375 67.984375 
C 62.09375 69.796875 62 69.890625 61.40625 69.890625 
C 61 69.890625 60.90625 69.796875 60.203125 68.59375 
L 55.796875 60.140625 
C 50.90625 66.390625 44.90625 70 37.203125 70 
C 20.09375 70 4.59375 54.796875 4.59375 34.046875 
C 4.59375 13.078125 20.09375 -2 37.296875 -2 
C 52.59375 -2 62.09375 11.578125 62.09375 23.15625 
C 62.09375 24.171875 62.09375 24.578125 61.203125 24.578125 
C 60.40625 24.578125 60.40625 24.265625 60.296875 23.359375 
C 59.5 9.25 49.5 0.59375 38.703125 0.59375 
C 28.5 0.59375 12.203125 7.84375 12.203125 34.046875 
C 12.203125 60.34375 28.796875 67.390625 38.5 67.390625 
C 49.796875 67.390625 58 57.515625 59.90625 43.515625 
C 60.09375 42.296875 60.09375 42.109375 61 42.109375 
C 62.09375 42.109375 62.09375 42.296875 62.09375 44.125 
z
" id="CMR17-67"/>
      <path d="M 36 25.875 
C 36 32 36 35.546875 31.796875 39.59375 
C 28.09375 42.984375 23.796875 44 20.40625 44 
C 12.5 44 6.796875 37.625 6.796875 30.890625 
C 6.796875 27.1875 9.796875 27 10.40625 27 
C 11.703125 27 14 27.796875 14 30.59375 
C 14 33.09375 12.09375 34.1875 10.40625 34.1875 
C 10 34.1875 9.5 34.09375 9.203125 34 
C 11.296875 40.53125 16.703125 42.390625 20.203125 42.390625 
C 25.203125 42.390625 30.703125 37.828125 30.703125 29.296875 
L 30.703125 25.5 
C 24.796875 25.296875 17.703125 24.5 12.09375 21.453125 
C 5.796875 17.921875 4 12.84375 4 9 
C 4 1.203125 13 -1 18.296875 -1 
C 23.796875 -1 28.90625 2.109375 31.09375 7.890625 
C 31.296875 3.421875 34.09375 -0.609375 38.5 -0.609375 
C 40.59375 -0.609375 45.90625 0.796875 45.90625 8.796875 
L 45.90625 14.46875 
L 44.09375 14.46875 
L 44.09375 8.703125 
C 44.09375 2.515625 41.40625 1.703125 40.09375 1.703125 
C 36 1.703125 36 6.96875 36 11.4375 
z
M 30.703125 13.859375 
C 30.703125 5.046875 24.5 0.59375 19 0.59375 
C 14 0.59375 10.09375 4.34375 10.09375 9 
C 10.09375 12.046875 11.40625 17.40625 17.203125 20.65625 
C 22 23.390625 27.5 23.796875 30.703125 24 
z
" id="CMR17-97"/>
      <path d="M 5.203125 68 
L 5.203125 65.390625 
C 12.09375 65.390625 13.203125 65.390625 13.203125 60.90625 
L 13.203125 7.078125 
C 13.203125 2.59375 12.09375 2.59375 5.203125 2.59375 
L 5.203125 0 
L 37 0 
C 53.09375 0 66 14.734375 66 33.4375 
C 66 52.25 53.296875 68 37 68 
z
M 23.796875 2.59375 
C 19.796875 2.59375 19.59375 3.09375 19.59375 6.46875 
L 19.59375 61.5 
C 19.59375 64.890625 19.796875 65.390625 23.796875 65.390625 
L 35 65.390625 
C 43.296875 65.390625 58.59375 60.515625 58.59375 33.4375 
C 58.59375 19.40625 54.5 13.734375 52.59375 11.046875 
C 50.203125 7.96875 44.5 2.59375 35 2.59375 
z
" id="CMR17-68"/>
      <path d="M 15.5 61.890625 
C 15.5 64.09375 13.703125 66 11.40625 66 
C 9.203125 66 7.296875 64.1875 7.296875 61.890625 
C 7.296875 59.6875 9.09375 57.796875 11.40625 57.796875 
C 13.59375 57.796875 15.5 59.59375 15.5 61.890625 
z
M 3.796875 42.890625 
L 3.796875 40.296875 
C 9.40625 40.296875 10.203125 39.6875 10.203125 34.859375 
L 10.203125 6.921875 
C 10.203125 3.09375 9.796875 2.59375 3.40625 2.59375 
L 3.40625 0 
C 5.796875 0.1875 10.09375 0.1875 12.59375 0.1875 
C 15 0.1875 19.09375 0.1875 21.40625 0 
L 21.40625 2.59375 
C 15.5 2.59375 15.296875 3.203125 15.296875 6.8125 
L 15.296875 44 
z
" id="CMR17-105"/>
      <path d="M 54.203125 25.1875 
L 52.40625 25.1875 
C 51.59375 15.328125 50.296875 2.59375 33.203125 2.59375 
L 23.90625 2.59375 
C 19.90625 2.59375 19.703125 3.09375 19.703125 6.46875 
L 19.703125 60.8125 
C 19.703125 64.390625 19.90625 65.390625 27.5 65.390625 
L 29.703125 65.390625 
L 29.703125 68 
C 25.59375 67.796875 20.796875 67.796875 16.703125 67.796875 
C 13.59375 67.796875 8 67.796875 5.09375 68 
L 5.09375 65.390625 
C 12 65.390625 13.09375 65.390625 13.09375 60.90625 
L 13.09375 7.078125 
C 13.09375 2.59375 12 2.59375 5.09375 2.59375 
L 5.09375 0 
L 51.796875 0 
z
" id="CMR17-76"/>
      <path d="M 29.203125 67.890625 
L 29.203125 65.296875 
C 35.09375 65.296875 36 64.703125 36 60.046875 
L 36 37.046875 
C 35.59375 37.546875 31.5 44 23.40625 44 
C 13.203125 44 3.296875 34.8125 3.296875 21.5 
C 3.296875 8.265625 12.59375 -1 22.40625 -1 
C 30.90625 -1 35.296875 5.640625 35.796875 6.34375 
L 35.796875 -1 
L 47.90625 -0.203125 
L 47.90625 2.40625 
C 42 2.40625 41.09375 3.015625 41.09375 7.859375 
L 41.09375 69 
z
M 35.796875 11.90625 
C 35.796875 8.875 34 6.140625 31.703125 4.125 
C 28.296875 1.09375 24.90625 0.59375 23 0.59375 
C 20.09375 0.59375 9.703125 2.109375 9.703125 21.390625 
C 9.703125 41.1875 21.296875 42.390625 23.90625 42.390625 
C 28.5 42.390625 32.203125 39.765625 34.5 36.140625 
C 35.796875 34.015625 35.796875 33.703125 35.796875 31.890625 
z
" id="CMR17-100"/>
      <path d="M 38.09375 23.484375 
C 38.5 23.890625 38.5 24.09375 38.5 25.09375 
C 38.5 35.171875 33.09375 44 21.703125 44 
C 11.09375 44 2.703125 33.984375 2.703125 21.78125 
C 2.703125 8.65625 12.203125 -1 22.796875 -1 
C 34 -1 38.40625 9.671875 38.40625 11.796875 
C 38.40625 12.5 37.796875 12.5 37.59375 12.5 
C 36.90625 12.5 36.796875 12.296875 36.40625 11.078125 
C 34.203125 4.21875 28.703125 0.796875 23.5 0.796875 
C 19.203125 0.796875 14.90625 3.21875 12.203125 7.65625 
C 9.09375 12.796875 9.09375 18.75 9.09375 23.484375 
z
M 9.203125 25 
C 9.90625 39.234375 17.59375 42.390625 21.59375 42.390625 
C 28.40625 42.390625 33 36.0625 33.09375 25 
z
" id="CMR17-101"/>
      <path d="M 15.296875 40.390625 
L 26.703125 40.390625 
L 26.703125 43 
L 15.09375 43 
L 15.09375 55.296875 
C 15.09375 63.6875 19.296875 68.390625 23.59375 68.390625 
C 24.90625 68.390625 26.40625 68.171875 27.40625 67.796875 
C 26.59375 67.59375 24.5 66.890625 24.5 64.390625 
C 24.5 61.796875 26.5 61 27.90625 61 
C 29.296875 61 31.296875 61.796875 31.296875 64.390625 
C 31.296875 68.015625 27.703125 70 23.703125 70 
C 18 70 10.203125 65.796875 10.203125 55.09375 
L 10.203125 43 
L 2.203125 43 
L 2.203125 40.390625 
L 10.203125 40.390625 
L 10.203125 6.890625 
C 10.203125 3.09375 9.796875 2.59375 3.40625 2.59375 
L 3.40625 0 
C 5.796875 0.1875 10.40625 0.1875 13 0.1875 
C 15.90625 0.1875 21 0.1875 23.703125 0 
L 23.703125 2.59375 
C 16.5 2.59375 15.296875 2.59375 15.296875 7.09375 
z
" id="CMR17-102"/>
      <path d="M 29.40625 42.890625 
L 29.40625 40.296875 
C 35.296875 40.296875 36.203125 39.6875 36.203125 34.828125 
L 36.203125 16.453125 
C 36.203125 7.96875 31.703125 0.59375 24.296875 0.59375 
C 16.09375 0.59375 15.40625 5.546875 15.40625 10.796875 
L 15.40625 44 
L 3.296875 42.890625 
L 3.296875 40.296875 
C 7.296875 40.296875 10 40.296875 10.09375 36.25 
L 10.09375 16.859375 
C 10.09375 10.09375 10.09375 5.75 12.703125 2.921875 
C 14 1.609375 16.5 -1 23.703125 -1 
C 32.203125 -1 35.5 6.25 36.296875 8.375 
L 36.40625 8.375 
L 36.40625 -1 
L 48.296875 -0.203125 
L 48.296875 2.40625 
C 42.40625 2.40625 41.5 3.015625 41.5 7.859375 
L 41.5 44 
z
" id="CMR17-117"/>
      <path d="M 15.296875 69 
L 3.40625 67.890625 
L 3.40625 65.296875 
C 9.296875 65.296875 10.203125 64.703125 10.203125 59.921875 
L 10.203125 6.859375 
C 10.203125 3.09375 9.796875 2.59375 3.40625 2.59375 
L 3.40625 0 
C 5.796875 0.1875 10.203125 0.1875 12.703125 0.1875 
C 15.296875 0.1875 19.703125 0.1875 22.09375 0 
L 22.09375 2.59375 
C 15.703125 2.59375 15.296875 2.984375 15.296875 6.859375 
z
" id="CMR17-108"/>
      <path d="M 15.09375 40.390625 
L 29.09375 40.390625 
L 29.09375 43 
L 15.09375 43 
L 15.09375 62 
L 13.296875 62 
C 13.09375 51.4375 9.59375 42.1875 1.09375 41.984375 
L 1.09375 40.390625 
L 9.796875 40.390625 
L 9.796875 12.15625 
C 9.796875 10.234375 9.796875 -1 21.40625 -1 
C 27.296875 -1 30.703125 4.8125 30.703125 12.25 
L 30.703125 17.984375 
L 28.90625 17.984375 
L 28.90625 12.34375 
C 28.90625 5.421875 26.203125 0.796875 22 0.796875 
C 19.09375 0.796875 15.09375 2.796875 15.09375 11.953125 
z
" id="CMR17-116"/>
     </defs>
     <g transform="translate(427.55232 600.311459)scale(0.11 -0.11)">
      <use transform="scale(0.996264)" xlink:href="#CMR17-67"/>
      <use transform="translate(66.509881 0)scale(0.996264)" xlink:href="#CMR17-97"/>
      <use transform="translate(112.200358 0)scale(0.996264)" xlink:href="#CMR17-68"/>
      <use transform="translate(182.593914 0)scale(0.996264)" xlink:href="#CMR17-105"/>
      <use transform="translate(207.464972 0)scale(0.996264)" xlink:href="#CMR17-67"/>
      <use transform="translate(273.974853 0)scale(0.996264)" xlink:href="#CMR17-97"/>
      <use transform="translate(319.66533 0)scale(0.996264)" xlink:href="#CMR17-76"/>
      <use transform="translate(377.046738 41.137482)scale(0.996264)" xlink:href="#CMR17-100"/>
      <use transform="translate(427.942107 41.137482)scale(0.996264)" xlink:href="#CMR17-101"/>
      <use transform="translate(468.427768 41.137482)scale(0.996264)" xlink:href="#CMR17-102"/>
      <use transform="translate(495.90128 41.137482)scale(0.996264)" xlink:href="#CMR17-97"/>
      <use transform="translate(541.591757 41.137482)scale(0.996264)" xlink:href="#CMR17-117"/>
      <use transform="translate(592.487127 41.137482)scale(0.996264)" xlink:href="#CMR17-108"/>
      <use transform="translate(617.358186 41.137482)scale(0.996264)" xlink:href="#CMR17-116"/>
     </g>
    </g>
   </g>
   <g id="matplotlib.axis_2">
    <g id="ytick_1">
     <g id="line2d_15">
      <defs>
       <path d="M 0 0 
L -3.5 0 
" id="mf714d6d509" style="stroke:#000000;stroke-width:0.8;"/>
      </defs>
      <g>
       <use style="stroke:#000000;stroke-width:0.8;" x="48.169615" xlink:href="#mf714d6d509" y="569.311447"/>
      </g>
     </g>
     <g id="text_4">
      <!-- $10^{2}$ -->
      <g transform="translate(25.842342 573.11662)scale(0.11 -0.11)">
       <use transform="scale(0.996264)" xlink:href="#CMR17-49"/>
       <use transform="translate(45.690477 0)scale(0.996264)" xlink:href="#CMR17-48"/>
       <use transform="translate(91.380954 36.153639)scale(0.697382)" xlink:href="#CMR17-50"/>
      </g>
     </g>
    </g>
    <g id="ytick_2">
     <g id="line2d_16">
      <g>
       <use style="stroke:#000000;stroke-width:0.8;" x="48.169615" xlink:href="#mf714d6d509" y="249.352885"/>
      </g>
     </g>
     <g id="text_5">
      <!-- $10^{3}$ -->
      <g transform="translate(25.842342 253.158058)scale(0.11 -0.11)">
       <use transform="scale(0.996264)" xlink:href="#CMR17-49"/>
       <use transform="translate(45.690477 0)scale(0.996264)" xlink:href="#CMR17-48"/>
       <use transform="translate(91.380954 36.153639)scale(0.697382)" xlink:href="#CMR17-51"/>
      </g>
     </g>
    </g>
    <g id="ytick_3">
     <g id="line2d_17">
      <defs>
       <path d="M 0 0 
L -2 0 
" id="m21b26c7b5e" style="stroke:#000000;stroke-width:0.6;"/>
      </defs>
      <g>
       <use style="stroke:#000000;stroke-width:0.6;" x="48.169615" xlink:href="#m21b26c7b5e" y="472.994322"/>
      </g>
     </g>
    </g>
    <g id="ytick_4">
     <g id="line2d_18">
      <g>
       <use style="stroke:#000000;stroke-width:0.6;" x="48.169615" xlink:href="#m21b26c7b5e" y="416.652416"/>
      </g>
     </g>
    </g>
    <g id="ytick_5">
     <g id="line2d_19">
      <g>
       <use style="stroke:#000000;stroke-width:0.6;" x="48.169615" xlink:href="#m21b26c7b5e" y="376.677198"/>
      </g>
     </g>
    </g>
    <g id="ytick_6">
     <g id="line2d_20">
      <g>
       <use style="stroke:#000000;stroke-width:0.6;" x="48.169615" xlink:href="#m21b26c7b5e" y="345.670009"/>
      </g>
     </g>
    </g>
    <g id="ytick_7">
     <g id="line2d_21">
      <g>
       <use style="stroke:#000000;stroke-width:0.6;" x="48.169615" xlink:href="#m21b26c7b5e" y="320.335292"/>
      </g>
     </g>
    </g>
    <g id="ytick_8">
     <g id="line2d_22">
      <g>
       <use style="stroke:#000000;stroke-width:0.6;" x="48.169615" xlink:href="#m21b26c7b5e" y="298.915093"/>
      </g>
     </g>
    </g>
    <g id="ytick_9">
     <g id="line2d_23">
      <g>
       <use style="stroke:#000000;stroke-width:0.6;" x="48.169615" xlink:href="#m21b26c7b5e" y="280.360073"/>
      </g>
     </g>
    </g>
    <g id="ytick_10">
     <g id="line2d_24">
      <g>
       <use style="stroke:#000000;stroke-width:0.6;" x="48.169615" xlink:href="#m21b26c7b5e" y="263.993386"/>
      </g>
     </g>
    </g>
    <g id="ytick_11">
     <g id="line2d_25">
      <g>
       <use style="stroke:#000000;stroke-width:0.6;" x="48.169615" xlink:href="#m21b26c7b5e" y="153.03576"/>
      </g>
     </g>
    </g>
    <g id="ytick_12">
     <g id="line2d_26">
      <g>
       <use style="stroke:#000000;stroke-width:0.6;" x="48.169615" xlink:href="#m21b26c7b5e" y="96.693854"/>
      </g>
     </g>
    </g>
    <g id="ytick_13">
     <g id="line2d_27">
      <g>
       <use style="stroke:#000000;stroke-width:0.6;" x="48.169615" xlink:href="#m21b26c7b5e" y="56.718635"/>
      </g>
     </g>
    </g>
    <g id="ytick_14">
     <g id="line2d_28">
      <g>
       <use style="stroke:#000000;stroke-width:0.6;" x="48.169615" xlink:href="#m21b26c7b5e" y="25.711447"/>
      </g>
     </g>
    </g>
    <g id="text_6">
     <!-- $\textrm{MapleLCMDistChronoBT-DL-v2.2}^\textrm{default}$ -->
     <defs>
      <path d="M 20.90625 66.390625 
C 20.296875 67.890625 20.203125 68 18.09375 68 
L 5.296875 68 
L 5.296875 65.390625 
C 12.203125 65.390625 13.296875 65.390625 13.296875 60.90625 
L 13.296875 9.75 
C 13.296875 7.265625 13.296875 2.59375 5.296875 2.59375 
L 5.296875 0 
C 7.59375 0.1875 11.796875 0.1875 14.296875 0.1875 
C 16.796875 0.1875 21 0.1875 23.296875 0 
L 23.296875 2.59375 
C 15.296875 2.59375 15.296875 7.265625 15.296875 9.75 
L 15.296875 64.984375 
L 15.40625 64.984375 
L 38.90625 1.59375 
C 39.296875 0.59375 39.5 0 40.296875 0 
C 41.09375 0 41.296875 0.59375 41.703125 1.59375 
L 65.40625 65.484375 
L 65.5 65.484375 
L 65.5 7.078125 
C 65.5 2.59375 64.40625 2.59375 57.5 2.59375 
L 57.5 0 
C 60.203125 0.1875 65.59375 0.1875 68.5 0.1875 
C 71.40625 0.1875 76.90625 0.1875 79.59375 0 
L 79.59375 2.59375 
C 72.703125 2.59375 71.59375 2.59375 71.59375 7.078125 
L 71.59375 60.90625 
C 71.59375 65.390625 72.703125 65.390625 79.59375 65.390625 
L 79.59375 68 
L 66.90625 68 
C 64.796875 68 64.703125 67.890625 64.09375 66.390625 
L 42.5 8.0625 
z
" id="CMR17-77"/>
      <path d="M 22 -17.40625 
C 15.59375 -17.40625 15.203125 -17 15.203125 -13.03125 
L 15.203125 5.9375 
C 18.09375 1.703125 22.296875 -1 27.59375 -1 
C 37.59375 -1 47.703125 7.859375 47.703125 21.59375 
C 47.703125 34.3125 39 44 28.703125 44 
C 22.703125 44 17.796875 40.671875 15 36.640625 
L 15 44 
L 3.09375 42.890625 
L 3.09375 40.265625 
C 9 40.265625 9.90625 39.671875 9.90625 34.8125 
L 9.90625 -13.03125 
C 9.90625 -16.890625 9.5 -17.40625 3.09375 -17.40625 
L 3.09375 -20 
C 5.5 -19.8125 9.90625 -19.8125 12.5 -19.8125 
C 15.09375 -19.8125 19.59375 -19.8125 22 -20 
z
M 15.203125 31.484375 
C 15.203125 32.90625 15.203125 35.015625 19.09375 38.765625 
C 19.59375 39.15625 23 42.1875 28 42.1875 
C 35.296875 42.1875 41.296875 33 41.296875 21.5 
C 41.296875 9.984375 34.90625 0.59375 27 0.59375 
C 23.40625 0.59375 19.5 2.3125 16.5 7.046875 
C 15.203125 9.28125 15.203125 9.875 15.203125 11.5 
z
" id="CMR17-112"/>
      <path d="M 30.90625 42 
C 30.90625 43.796875 30.796875 43.890625 30.203125 43.890625 
C 29.796875 43.890625 29.703125 43.796875 28.5 42.296875 
C 28.203125 41.890625 27.296875 40.890625 27 40.5 
C 23.796875 43.890625 19.296875 44 17.59375 44 
C 6.5 44 2.5 38.1875 2.5 32.390625 
C 2.5 23.390625 12.703125 21.296875 15.59375 20.6875 
C 21.90625 19.390625 24.09375 19 26.203125 17.1875 
C 27.5 16 29.703125 13.796875 29.703125 10.1875 
C 29.703125 6 27.296875 0.59375 18.09375 0.59375 
C 9.40625 0.59375 6.296875 7.1875 4.5 16 
C 4.203125 17.390625 4.203125 17.5 3.40625 17.5 
C 2.59375 17.5 2.5 17.390625 2.5 15.390625 
L 2.5 1 
C 2.5 -0.8125 2.59375 -0.90625 3.203125 -0.90625 
C 3.703125 -0.90625 3.796875 -0.8125 4.296875 0 
C 4.90625 0.890625 6.40625 3.296875 7 4.296875 
C 9 1.59375 12.5 -1 18.09375 -1 
C 28 -1 33.296875 4.390625 33.296875 12.1875 
C 33.296875 17.296875 30.59375 20 29.296875 21.1875 
C 26.296875 24.296875 22.796875 25 18.59375 25.796875 
C 13.09375 27 6.09375 28.390625 6.09375 34.5 
C 6.09375 37.09375 7.5 42.59375 17.59375 42.59375 
C 28.296875 42.59375 28.90625 32.59375 29.09375 29.390625 
C 29.203125 28.890625 29.703125 28.796875 30 28.796875 
C 30.90625 28.796875 30.90625 29.09375 30.90625 30.796875 
z
" id="CMR17-115"/>
      <path d="M 41.5 30.53125 
C 41.5 35.65625 40.5 44 28.703125 44 
C 20.5 44 16.5 37.375 15.296875 34.046875 
L 15.203125 34.046875 
L 15.203125 69 
L 3.296875 67.890625 
L 3.296875 65.296875 
C 9.203125 65.296875 10.09375 64.703125 10.09375 60.046875 
L 10.09375 6.921875 
C 10.09375 3.09375 9.703125 2.59375 3.296875 2.59375 
L 3.296875 0 
C 5.703125 0.1875 10.09375 0.1875 12.703125 0.1875 
C 15.296875 0.1875 19.796875 0.1875 22.203125 0 
L 22.203125 2.59375 
C 15.796875 2.59375 15.40625 3 15.40625 6.921875 
L 15.40625 26.21875 
C 15.40625 35.453125 21 42.390625 28 42.390625 
C 35.40625 42.390625 36.203125 35.765625 36.203125 30.9375 
L 36.203125 6.921875 
C 36.203125 3.09375 35.796875 2.59375 29.40625 2.59375 
L 29.40625 0 
C 31.796875 0.1875 36.203125 0.1875 38.796875 0.1875 
C 41.40625 0.1875 45.90625 0.1875 48.296875 0 
L 48.296875 2.59375 
C 41.90625 2.59375 41.5 3 41.5 6.921875 
z
" id="CMR17-104"/>
      <path d="M 15 23.703125 
C 15 33.34375 19.09375 42.390625 26.59375 42.390625 
C 27.296875 42.390625 28 42.296875 28.703125 41.984375 
C 28.703125 41.984375 26.5 41.28125 26.5 38.671875 
C 26.5 36.265625 28.40625 35.265625 29.90625 35.265625 
C 31.09375 35.265625 33.296875 35.96875 33.296875 38.78125 
C 33.296875 41.984375 30.09375 44 26.703125 44 
C 19.09375 44 15.796875 36.5625 14.796875 33.046875 
L 14.703125 33.046875 
L 14.703125 44 
L 3.09375 42.890625 
L 3.09375 40.28125 
C 9 40.28125 9.90625 39.6875 9.90625 34.859375 
L 9.90625 6.921875 
C 9.90625 3.09375 9.5 2.59375 3.09375 2.59375 
L 3.09375 0 
C 5.5 0.1875 10.09375 0.1875 12.703125 0.1875 
C 15.59375 0.1875 20.703125 0.1875 23.40625 0 
L 23.40625 2.59375 
C 16.203125 2.59375 15 2.59375 15 7.109375 
z
" id="CMR17-114"/>
      <path d="M 43.09375 21.1875 
C 43.09375 34 33.796875 44 22.90625 44 
C 12 44 2.703125 34 2.703125 21.1875 
C 2.703125 8.59375 12 -1 22.90625 -1 
C 33.796875 -1 43.09375 8.59375 43.09375 21.1875 
z
M 22.90625 0.796875 
C 18.203125 0.796875 14.203125 3.59375 11.90625 7.5 
C 9.40625 12 9.09375 17.59375 9.09375 22 
C 9.09375 26.1875 9.296875 31.390625 11.90625 35.890625 
C 13.90625 39.1875 17.796875 42.390625 22.90625 42.390625 
C 27.40625 42.390625 31.203125 39.890625 33.59375 36.390625 
C 36.703125 31.6875 36.703125 25.09375 36.703125 22 
C 36.703125 18.09375 36.5 12.09375 33.796875 7.296875 
C 31 2.6875 26.703125 0.796875 22.90625 0.796875 
z
" id="CMR17-111"/>
      <path d="M 41.5 30.53125 
C 41.5 35.65625 40.5 44 28.703125 44 
C 20.796875 44 16.703125 37.875 15.203125 33.84375 
L 15.09375 33.84375 
L 15.09375 44 
L 3.296875 42.890625 
L 3.296875 40.28125 
C 9.203125 40.28125 10.09375 39.6875 10.09375 34.859375 
L 10.09375 6.921875 
C 10.09375 3.09375 9.703125 2.59375 3.296875 2.59375 
L 3.296875 0 
C 5.703125 0.1875 10.09375 0.1875 12.703125 0.1875 
C 15.296875 0.1875 19.796875 0.1875 22.203125 0 
L 22.203125 2.59375 
C 15.796875 2.59375 15.40625 3 15.40625 6.921875 
L 15.40625 26.21875 
C 15.40625 35.453125 21 42.390625 28 42.390625 
C 35.40625 42.390625 36.203125 35.765625 36.203125 30.9375 
L 36.203125 6.921875 
C 36.203125 3.09375 35.796875 2.59375 29.40625 2.59375 
L 29.40625 0 
C 31.796875 0.1875 36.203125 0.1875 38.796875 0.1875 
C 41.40625 0.1875 45.90625 0.1875 48.296875 0 
L 48.296875 2.59375 
C 41.90625 2.59375 41.5 3 41.5 6.921875 
z
" id="CMR17-110"/>
      <path d="M 5.203125 68 
L 5.203125 65.390625 
C 12.09375 65.390625 13.203125 65.390625 13.203125 60.890625 
L 13.203125 7.046875 
C 13.203125 2.59375 12.09375 2.59375 5.203125 2.59375 
L 5.203125 0 
L 39.59375 0 
C 52.40625 0 60.703125 9.03125 60.703125 18.046875 
C 60.703125 26.96875 52.5 34.59375 41.796875 35.296875 
C 51.40625 37.1875 58.09375 43.59375 58.09375 51.1875 
C 58.09375 59.5 49.90625 68 37 68 
z
M 19.5 36 
L 19.5 61.5 
C 19.5 64.890625 19.703125 65.390625 23.703125 65.390625 
L 36.5 65.390625 
C 46.40625 65.390625 50.796875 57.390625 50.796875 51.1875 
C 50.796875 43.59375 44.703125 36 33.90625 36 
z
M 23.703125 2.59375 
C 19.703125 2.59375 19.5 3.09375 19.5 6.453125 
L 19.5 34.390625 
L 38 34.390625 
C 48.296875 34.390625 53.296875 25.375 53.296875 18.140625 
C 53.296875 10.90625 47.59375 2.59375 36.703125 2.59375 
z
" id="CMR17-66"/>
      <path d="M 62.203125 67.6875 
L 4.5 67.6875 
L 2.796875 45.6875 
L 4.59375 45.6875 
C 5.90625 62.203125 7.296875 65.09375 22.703125 65.09375 
C 24.5 65.09375 27.40625 65.09375 28.203125 64.984375 
C 30.09375 64.6875 30.09375 63.5 30.09375 61.203125 
L 30.09375 7.265625 
C 30.09375 3.6875 29.796875 2.59375 21.5 2.59375 
L 18.703125 2.59375 
L 18.703125 0 
C 23.5 0.09375 28.5 0.1875 33.40625 0.1875 
C 38.296875 0.1875 43.296875 0.09375 48.09375 0 
L 48.09375 2.59375 
L 45.296875 2.59375 
C 37 2.59375 36.703125 3.6875 36.703125 7.265625 
L 36.703125 61.203125 
C 36.703125 63.390625 36.703125 64.59375 38.5 64.984375 
C 39.296875 65.09375 42.203125 65.09375 44 65.09375 
C 59.296875 65.09375 60.796875 62.203125 62.09375 45.6875 
L 63.90625 45.6875 
z
" id="CMR17-84"/>
      <path d="M 25.5 19.59375 
L 25.5 24 
L 0.40625 24 
L 0.40625 19.59375 
z
" id="CMR17-45"/>
      <path d="M 39.09375 33.953125 
C 40 36.171875 41.59375 40.1875 47.40625 40.390625 
L 47.40625 43 
C 45.5 42.890625 43 42.796875 41.09375 42.796875 
C 39 42.796875 35.703125 42.796875 33.703125 43 
L 33.703125 40.390625 
C 36.203125 40.1875 37.59375 38.984375 37.59375 36.375 
C 37.59375 35.46875 37.59375 35.265625 37 33.859375 
L 26 5.921875 
L 14.09375 36.0625 
C 13.5 37.375 13.5 37.578125 13.5 37.984375 
C 13.5 40.390625 16.796875 40.390625 18.296875 40.390625 
L 18.296875 43 
C 15.90625 42.796875 11.5 42.796875 9 42.796875 
C 6.296875 42.796875 3.203125 42.796875 1 43 
L 1 40.390625 
C 4.796875 40.390625 6.90625 40.390625 8.09375 37.28125 
L 22.59375 0.6875 
C 23.203125 -0.8125 23.296875 -1 24.203125 -1 
C 25.09375 -1 25.203125 -0.8125 25.796875 0.6875 
z
" id="CMR17-118"/>
      <path d="M 16.59375 4.09375 
C 16.59375 6.59375 14.59375 8.1875 12.5 8.1875 
C 10.5 8.1875 8.40625 6.59375 8.40625 4.09375 
C 8.40625 1.59375 10.40625 0 12.5 0 
C 14.5 0 16.59375 1.59375 16.59375 4.09375 
z
" id="CMR17-46"/>
     </defs>
     <g transform="translate(19.711447 397.937857)rotate(-90)scale(0.11 -0.11)">
      <use transform="scale(0.996264)" xlink:href="#CMR17-77"/>
      <use transform="translate(84.686941 0)scale(0.996264)" xlink:href="#CMR17-97"/>
      <use transform="translate(130.377418 0)scale(0.996264)" xlink:href="#CMR17-112"/>
      <use transform="translate(181.272787 0)scale(0.996264)" xlink:href="#CMR17-108"/>
      <use transform="translate(206.143846 0)scale(0.996264)" xlink:href="#CMR17-101"/>
      <use transform="translate(246.629506 0)scale(0.996264)" xlink:href="#CMR17-76"/>
      <use transform="translate(304.010914 0)scale(0.996264)" xlink:href="#CMR17-67"/>
      <use transform="translate(370.520795 0)scale(0.996264)" xlink:href="#CMR17-77"/>
      <use transform="translate(455.207735 0)scale(0.996264)" xlink:href="#CMR17-68"/>
      <use transform="translate(525.601291 0)scale(0.996264)" xlink:href="#CMR17-105"/>
      <use transform="translate(550.47235 0)scale(0.996264)" xlink:href="#CMR17-115"/>
      <use transform="translate(586.273687 0)scale(0.996264)" xlink:href="#CMR17-116"/>
      <use transform="translate(621.554455 0)scale(0.996264)" xlink:href="#CMR17-67"/>
      <use transform="translate(688.064336 0)scale(0.996264)" xlink:href="#CMR17-104"/>
      <use transform="translate(738.959706 0)scale(0.996264)" xlink:href="#CMR17-114"/>
      <use transform="translate(774.240473 0)scale(0.996264)" xlink:href="#CMR17-111"/>
      <use transform="translate(819.93095 0)scale(0.996264)" xlink:href="#CMR17-110"/>
      <use transform="translate(870.82632 0)scale(0.996264)" xlink:href="#CMR17-111"/>
      <use transform="translate(916.516797 0)scale(0.996264)" xlink:href="#CMR17-66"/>
      <use transform="translate(981.705552 0)scale(0.996264)" xlink:href="#CMR17-84"/>
      <use transform="translate(1048.215432 0)scale(0.996264)" xlink:href="#CMR17-45"/>
      <use transform="translate(1078.291399 0)scale(0.996264)" xlink:href="#CMR17-68"/>
      <use transform="translate(1148.684955 0)scale(0.996264)" xlink:href="#CMR17-76"/>
      <use transform="translate(1206.066362 0)scale(0.996264)" xlink:href="#CMR17-45"/>
      <use transform="translate(1236.142329 0)scale(0.996264)" xlink:href="#CMR17-118"/>
      <use transform="translate(1284.435245 0)scale(0.996264)" xlink:href="#CMR17-50"/>
      <use transform="translate(1330.125722 0)scale(0.996264)" xlink:href="#CMR17-46"/>
      <use transform="translate(1354.99678 0)scale(0.996264)" xlink:href="#CMR17-50"/>
      <use transform="translate(1400.687257 42.258523)scale(0.996264)" xlink:href="#CMR17-100"/>
      <use transform="translate(1451.582627 42.258523)scale(0.996264)" xlink:href="#CMR17-101"/>
      <use transform="translate(1492.068288 42.258523)scale(0.996264)" xlink:href="#CMR17-102"/>
      <use transform="translate(1519.5418 42.258523)scale(0.996264)" xlink:href="#CMR17-97"/>
      <use transform="translate(1565.232277 42.258523)scale(0.996264)" xlink:href="#CMR17-117"/>
      <use transform="translate(1616.127647 42.258523)scale(0.996264)" xlink:href="#CMR17-108"/>
      <use transform="translate(1640.998705 42.258523)scale(0.996264)" xlink:href="#CMR17-116"/>
     </g>
    </g>
   </g>
   <g id="line2d_29">
    <path clip-path="url(#pdcfabc54a5)" d="M -1 601.245261 
L 885.169615 25.711447 
" style="fill:none;stroke:#4c4c4c;stroke-dasharray:5.55,2.4;stroke-dashoffset:0;stroke-width:1.5;"/>
   </g>
   <g id="patch_3">
    <path d="M 48.169615 569.311447 
L 48.169615 25.711447 
" style="fill:none;stroke:#000000;stroke-linecap:square;stroke-linejoin:miter;stroke-width:0.8;"/>
   </g>
   <g id="patch_4">
    <path d="M 885.169615 569.311447 
L 885.169615 25.711447 
" style="fill:none;stroke:#000000;stroke-linecap:square;stroke-linejoin:miter;stroke-width:0.8;"/>
   </g>
   <g id="patch_5">
    <path d="M 48.169615 569.311447 
L 885.169615 569.311447 
" style="fill:none;stroke:#000000;stroke-linecap:square;stroke-linejoin:miter;stroke-width:0.8;"/>
   </g>
   <g id="patch_6">
    <path d="M 48.169615 25.711447 
L 885.169615 25.711447 
" style="fill:none;stroke:#000000;stroke-linecap:square;stroke-linejoin:miter;stroke-width:0.8;"/>
   </g>
   <g id="text_7">
    <!-- Comparison of $\textrm{CaDiCaL}^\textrm{default}$ and $\textrm{MapleLCMDistChronoBT-DL-v2.2}^\textrm{default}$ -->
    <defs>
     <path d="M 67.59375 30.53125 
C 67.59375 35.5625 66.703125 44 54.796875 44 
C 48 44 43.296875 39.375 41.5 33.953125 
L 41.40625 33.953125 
C 40.203125 42.1875 34.296875 44 28.703125 44 
C 20.796875 44 16.703125 37.875 15.203125 33.84375 
L 15.09375 33.84375 
L 15.09375 44 
L 3.296875 42.890625 
L 3.296875 40.28125 
C 9.203125 40.28125 10.09375 39.6875 10.09375 34.859375 
L 10.09375 6.921875 
C 10.09375 3.09375 9.703125 2.59375 3.296875 2.59375 
L 3.296875 0 
C 5.703125 0.1875 10.09375 0.1875 12.703125 0.1875 
C 15.296875 0.1875 19.796875 0.1875 22.203125 0 
L 22.203125 2.59375 
C 15.796875 2.59375 15.40625 3 15.40625 6.921875 
L 15.40625 26.21875 
C 15.40625 35.453125 21 42.390625 28 42.390625 
C 35.40625 42.390625 36.203125 35.765625 36.203125 30.9375 
L 36.203125 6.921875 
C 36.203125 3.09375 35.796875 2.59375 29.40625 2.59375 
L 29.40625 0 
C 31.796875 0.1875 36.203125 0.1875 38.796875 0.1875 
C 41.40625 0.1875 45.90625 0.1875 48.296875 0 
L 48.296875 2.59375 
C 41.90625 2.59375 41.5 3 41.5 6.921875 
L 41.5 26.21875 
C 41.5 35.453125 47.09375 42.390625 54.09375 42.390625 
C 61.5 42.390625 62.296875 35.765625 62.296875 30.9375 
L 62.296875 6.921875 
C 62.296875 3.09375 61.90625 2.59375 55.5 2.59375 
L 55.5 0 
C 57.90625 0.1875 62.296875 0.1875 64.90625 0.1875 
C 67.5 0.1875 72 0.1875 74.40625 0 
L 74.40625 2.59375 
C 68 2.59375 67.59375 3 67.59375 6.921875 
z
" id="CMR17-109"/>
    </defs>
    <g transform="translate(277.668195 19.711447)scale(0.11 -0.11)">
     <use transform="scale(0.996264)" xlink:href="#CMR17-67"/>
     <use transform="translate(66.509881 0)scale(0.996264)" xlink:href="#CMR17-111"/>
     <use transform="translate(112.200358 0)scale(0.996264)" xlink:href="#CMR17-109"/>
     <use transform="translate(189.119948 0)scale(0.996264)" xlink:href="#CMR17-112"/>
     <use transform="translate(240.015317 0)scale(0.996264)" xlink:href="#CMR17-97"/>
     <use transform="translate(285.705794 0)scale(0.996264)" xlink:href="#CMR17-114"/>
     <use transform="translate(320.986562 0)scale(0.996264)" xlink:href="#CMR17-105"/>
     <use transform="translate(345.857621 0)scale(0.996264)" xlink:href="#CMR17-115"/>
     <use transform="translate(381.658958 0)scale(0.996264)" xlink:href="#CMR17-111"/>
     <use transform="translate(427.349435 0)scale(0.996264)" xlink:href="#CMR17-110"/>
     <use transform="translate(508.320772 0)scale(0.996264)" xlink:href="#CMR17-111"/>
     <use transform="translate(554.011249 0)scale(0.996264)" xlink:href="#CMR17-102"/>
     <use transform="translate(611.560727 0)scale(0.996264)" xlink:href="#CMR17-67"/>
     <use transform="translate(678.070608 0)scale(0.996264)" xlink:href="#CMR17-97"/>
     <use transform="translate(723.761085 0)scale(0.996264)" xlink:href="#CMR17-68"/>
     <use transform="translate(794.154641 0)scale(0.996264)" xlink:href="#CMR17-105"/>
     <use transform="translate(819.0257 0)scale(0.996264)" xlink:href="#CMR17-67"/>
     <use transform="translate(885.53558 0)scale(0.996264)" xlink:href="#CMR17-97"/>
     <use transform="translate(931.226057 0)scale(0.996264)" xlink:href="#CMR17-76"/>
     <use transform="translate(988.607465 41.137482)scale(0.996264)" xlink:href="#CMR17-100"/>
     <use transform="translate(1039.502835 41.137482)scale(0.996264)" xlink:href="#CMR17-101"/>
     <use transform="translate(1079.988495 41.137482)scale(0.996264)" xlink:href="#CMR17-102"/>
     <use transform="translate(1107.462008 41.137482)scale(0.996264)" xlink:href="#CMR17-97"/>
     <use transform="translate(1153.152485 41.137482)scale(0.996264)" xlink:href="#CMR17-117"/>
     <use transform="translate(1204.047855 41.137482)scale(0.996264)" xlink:href="#CMR17-108"/>
     <use transform="translate(1228.918913 41.137482)scale(0.996264)" xlink:href="#CMR17-116"/>
     <use transform="translate(1294.773779 0)scale(0.996264)" xlink:href="#CMR17-97"/>
     <use transform="translate(1340.464256 0)scale(0.996264)" xlink:href="#CMR17-110"/>
     <use transform="translate(1391.359626 0)scale(0.996264)" xlink:href="#CMR17-100"/>
     <use transform="translate(1472.330962 0)scale(0.996264)" xlink:href="#CMR17-77"/>
     <use transform="translate(1557.017903 0)scale(0.996264)" xlink:href="#CMR17-97"/>
     <use transform="translate(1602.70838 0)scale(0.996264)" xlink:href="#CMR17-112"/>
     <use transform="translate(1653.60375 0)scale(0.996264)" xlink:href="#CMR17-108"/>
     <use transform="translate(1678.474808 0)scale(0.996264)" xlink:href="#CMR17-101"/>
     <use transform="translate(1718.960469 0)scale(0.996264)" xlink:href="#CMR17-76"/>
     <use transform="translate(1776.341877 0)scale(0.996264)" xlink:href="#CMR17-67"/>
     <use transform="translate(1842.851757 0)scale(0.996264)" xlink:href="#CMR17-77"/>
     <use transform="translate(1927.538698 0)scale(0.996264)" xlink:href="#CMR17-68"/>
     <use transform="translate(1997.932254 0)scale(0.996264)" xlink:href="#CMR17-105"/>
     <use transform="translate(2022.803312 0)scale(0.996264)" xlink:href="#CMR17-115"/>
     <use transform="translate(2058.60465 0)scale(0.996264)" xlink:href="#CMR17-116"/>
     <use transform="translate(2093.885417 0)scale(0.996264)" xlink:href="#CMR17-67"/>
     <use transform="translate(2160.395298 0)scale(0.996264)" xlink:href="#CMR17-104"/>
     <use transform="translate(2211.290668 0)scale(0.996264)" xlink:href="#CMR17-114"/>
     <use transform="translate(2246.571436 0)scale(0.996264)" xlink:href="#CMR17-111"/>
     <use transform="translate(2292.261913 0)scale(0.996264)" xlink:href="#CMR17-110"/>
     <use transform="translate(2343.157283 0)scale(0.996264)" xlink:href="#CMR17-111"/>
     <use transform="translate(2388.84776 0)scale(0.996264)" xlink:href="#CMR17-66"/>
     <use transform="translate(2454.036514 0)scale(0.996264)" xlink:href="#CMR17-84"/>
     <use transform="translate(2520.546395 0)scale(0.996264)" xlink:href="#CMR17-45"/>
     <use transform="translate(2550.622361 0)scale(0.996264)" xlink:href="#CMR17-68"/>
     <use transform="translate(2621.015917 0)scale(0.996264)" xlink:href="#CMR17-76"/>
     <use transform="translate(2678.397325 0)scale(0.996264)" xlink:href="#CMR17-45"/>
     <use transform="translate(2708.473291 0)scale(0.996264)" xlink:href="#CMR17-118"/>
     <use transform="translate(2756.766207 0)scale(0.996264)" xlink:href="#CMR17-50"/>
     <use transform="translate(2802.456684 0)scale(0.996264)" xlink:href="#CMR17-46"/>
     <use transform="translate(2827.327743 0)scale(0.996264)" xlink:href="#CMR17-50"/>
     <use transform="translate(2873.01822 42.258523)scale(0.996264)" xlink:href="#CMR17-100"/>
     <use transform="translate(2923.913589 42.258523)scale(0.996264)" xlink:href="#CMR17-101"/>
     <use transform="translate(2964.39925 42.258523)scale(0.996264)" xlink:href="#CMR17-102"/>
     <use transform="translate(2991.872762 42.258523)scale(0.996264)" xlink:href="#CMR17-97"/>
     <use transform="translate(3037.563239 42.258523)scale(0.996264)" xlink:href="#CMR17-117"/>
     <use transform="translate(3088.458609 42.258523)scale(0.996264)" xlink:href="#CMR17-108"/>
     <use transform="translate(3113.329668 42.258523)scale(0.996264)" xlink:href="#CMR17-116"/>
    </g>
   </g>
   <g id="legend_1">
    <g id="patch_7">
     <path d="M 55.869615 40.011447 
L 60.269615 40.011447 
Q 62.469615 40.011447 62.469615 37.811447 
L 62.469615 33.411447 
Q 62.469615 31.211447 60.269615 31.211447 
L 55.869615 31.211447 
Q 53.669615 31.211447 53.669615 33.411447 
L 53.669615 37.811447 
Q 53.669615 40.011447 55.869615 40.011447 
z
" style="fill:#ffffff;opacity:0.8;stroke:#cccccc;stroke-linejoin:miter;"/>
    </g>
   </g>
  </g>
 </g>
 <defs>
  <clipPath id="pdcfabc54a5">
   <rect height="543.6" width="837" x="48.169615" y="25.711447"/>
  </clipPath>
 </defs>
</svg>
